G04 #@! TF.GenerationSoftware,KiCad,Pcbnew,(5.1.5)-3*
G04 #@! TF.CreationDate,2020-01-19T12:10:18+09:00*
G04 #@! TF.ProjectId,MOMI,4d4f4d49-2e6b-4696-9361-645f70636258,rev?*
G04 #@! TF.SameCoordinates,Original*
G04 #@! TF.FileFunction,Copper,L1,Top*
G04 #@! TF.FilePolarity,Positive*
%FSLAX46Y46*%
G04 Gerber Fmt 4.6, Leading zero omitted, Abs format (unit mm)*
G04 Created by KiCad (PCBNEW (5.1.5)-3) date 2020-01-19 12:10:18*
%MOMM*%
%LPD*%
G04 APERTURE LIST*
%ADD10R,1.350000X1.350000*%
%ADD11C,3.000000*%
%ADD12R,3.600000X2.800000*%
%ADD13C,2.000000*%
%ADD14R,1.050000X0.600000*%
%ADD15C,0.100000*%
%ADD16R,1.800000X1.800000*%
%ADD17C,1.800000*%
%ADD18R,1.700000X1.700000*%
%ADD19O,1.700000X1.700000*%
%ADD20R,1.600000X1.600000*%
%ADD21C,1.600000*%
%ADD22R,1.200000X2.500000*%
%ADD23O,1.200000X1.750000*%
%ADD24R,2.500000X1.500000*%
%ADD25O,2.500000X1.500000*%
%ADD26O,3.500000X2.200000*%
%ADD27C,2.300000*%
%ADD28O,1.800000X1.800000*%
%ADD29C,0.800000*%
%ADD30C,0.250000*%
G04 APERTURE END LIST*
D10*
X132080000Y-124460000D03*
D11*
X107694000Y-147955000D03*
X107694000Y-137795000D03*
X117604000Y-137795000D03*
X117604000Y-147955000D03*
X117604000Y-155575000D03*
X100205000Y-155575000D03*
X100205000Y-147955000D03*
X100205000Y-137795000D03*
X90295000Y-137795000D03*
X90295000Y-147955000D03*
D12*
X121920000Y-93345000D03*
X121920000Y-104745000D03*
D13*
X128920000Y-96545000D03*
X128920000Y-101545000D03*
X114420000Y-96545000D03*
X114420000Y-99045000D03*
X114420000Y-101545000D03*
D14*
X150448000Y-134749500D03*
X150448000Y-136649500D03*
X147748000Y-136649500D03*
X147748000Y-135699500D03*
X147748000Y-134749500D03*
G04 #@! TA.AperFunction,SMDPad,CuDef*
D15*
G36*
X109192142Y-128751174D02*
G01*
X109215803Y-128754684D01*
X109239007Y-128760496D01*
X109261529Y-128768554D01*
X109283153Y-128778782D01*
X109303670Y-128791079D01*
X109322883Y-128805329D01*
X109340607Y-128821393D01*
X109356671Y-128839117D01*
X109370921Y-128858330D01*
X109383218Y-128878847D01*
X109393446Y-128900471D01*
X109401504Y-128922993D01*
X109407316Y-128946197D01*
X109410826Y-128969858D01*
X109412000Y-128993750D01*
X109412000Y-129481250D01*
X109410826Y-129505142D01*
X109407316Y-129528803D01*
X109401504Y-129552007D01*
X109393446Y-129574529D01*
X109383218Y-129596153D01*
X109370921Y-129616670D01*
X109356671Y-129635883D01*
X109340607Y-129653607D01*
X109322883Y-129669671D01*
X109303670Y-129683921D01*
X109283153Y-129696218D01*
X109261529Y-129706446D01*
X109239007Y-129714504D01*
X109215803Y-129720316D01*
X109192142Y-129723826D01*
X109168250Y-129725000D01*
X108255750Y-129725000D01*
X108231858Y-129723826D01*
X108208197Y-129720316D01*
X108184993Y-129714504D01*
X108162471Y-129706446D01*
X108140847Y-129696218D01*
X108120330Y-129683921D01*
X108101117Y-129669671D01*
X108083393Y-129653607D01*
X108067329Y-129635883D01*
X108053079Y-129616670D01*
X108040782Y-129596153D01*
X108030554Y-129574529D01*
X108022496Y-129552007D01*
X108016684Y-129528803D01*
X108013174Y-129505142D01*
X108012000Y-129481250D01*
X108012000Y-128993750D01*
X108013174Y-128969858D01*
X108016684Y-128946197D01*
X108022496Y-128922993D01*
X108030554Y-128900471D01*
X108040782Y-128878847D01*
X108053079Y-128858330D01*
X108067329Y-128839117D01*
X108083393Y-128821393D01*
X108101117Y-128805329D01*
X108120330Y-128791079D01*
X108140847Y-128778782D01*
X108162471Y-128768554D01*
X108184993Y-128760496D01*
X108208197Y-128754684D01*
X108231858Y-128751174D01*
X108255750Y-128750000D01*
X109168250Y-128750000D01*
X109192142Y-128751174D01*
G37*
G04 #@! TD.AperFunction*
G04 #@! TA.AperFunction,SMDPad,CuDef*
G36*
X109192142Y-130626174D02*
G01*
X109215803Y-130629684D01*
X109239007Y-130635496D01*
X109261529Y-130643554D01*
X109283153Y-130653782D01*
X109303670Y-130666079D01*
X109322883Y-130680329D01*
X109340607Y-130696393D01*
X109356671Y-130714117D01*
X109370921Y-130733330D01*
X109383218Y-130753847D01*
X109393446Y-130775471D01*
X109401504Y-130797993D01*
X109407316Y-130821197D01*
X109410826Y-130844858D01*
X109412000Y-130868750D01*
X109412000Y-131356250D01*
X109410826Y-131380142D01*
X109407316Y-131403803D01*
X109401504Y-131427007D01*
X109393446Y-131449529D01*
X109383218Y-131471153D01*
X109370921Y-131491670D01*
X109356671Y-131510883D01*
X109340607Y-131528607D01*
X109322883Y-131544671D01*
X109303670Y-131558921D01*
X109283153Y-131571218D01*
X109261529Y-131581446D01*
X109239007Y-131589504D01*
X109215803Y-131595316D01*
X109192142Y-131598826D01*
X109168250Y-131600000D01*
X108255750Y-131600000D01*
X108231858Y-131598826D01*
X108208197Y-131595316D01*
X108184993Y-131589504D01*
X108162471Y-131581446D01*
X108140847Y-131571218D01*
X108120330Y-131558921D01*
X108101117Y-131544671D01*
X108083393Y-131528607D01*
X108067329Y-131510883D01*
X108053079Y-131491670D01*
X108040782Y-131471153D01*
X108030554Y-131449529D01*
X108022496Y-131427007D01*
X108016684Y-131403803D01*
X108013174Y-131380142D01*
X108012000Y-131356250D01*
X108012000Y-130868750D01*
X108013174Y-130844858D01*
X108016684Y-130821197D01*
X108022496Y-130797993D01*
X108030554Y-130775471D01*
X108040782Y-130753847D01*
X108053079Y-130733330D01*
X108067329Y-130714117D01*
X108083393Y-130696393D01*
X108101117Y-130680329D01*
X108120330Y-130666079D01*
X108140847Y-130653782D01*
X108162471Y-130643554D01*
X108184993Y-130635496D01*
X108208197Y-130629684D01*
X108231858Y-130626174D01*
X108255750Y-130625000D01*
X109168250Y-130625000D01*
X109192142Y-130626174D01*
G37*
G04 #@! TD.AperFunction*
G04 #@! TA.AperFunction,SMDPad,CuDef*
G36*
X139545142Y-119861174D02*
G01*
X139568803Y-119864684D01*
X139592007Y-119870496D01*
X139614529Y-119878554D01*
X139636153Y-119888782D01*
X139656670Y-119901079D01*
X139675883Y-119915329D01*
X139693607Y-119931393D01*
X139709671Y-119949117D01*
X139723921Y-119968330D01*
X139736218Y-119988847D01*
X139746446Y-120010471D01*
X139754504Y-120032993D01*
X139760316Y-120056197D01*
X139763826Y-120079858D01*
X139765000Y-120103750D01*
X139765000Y-120591250D01*
X139763826Y-120615142D01*
X139760316Y-120638803D01*
X139754504Y-120662007D01*
X139746446Y-120684529D01*
X139736218Y-120706153D01*
X139723921Y-120726670D01*
X139709671Y-120745883D01*
X139693607Y-120763607D01*
X139675883Y-120779671D01*
X139656670Y-120793921D01*
X139636153Y-120806218D01*
X139614529Y-120816446D01*
X139592007Y-120824504D01*
X139568803Y-120830316D01*
X139545142Y-120833826D01*
X139521250Y-120835000D01*
X138608750Y-120835000D01*
X138584858Y-120833826D01*
X138561197Y-120830316D01*
X138537993Y-120824504D01*
X138515471Y-120816446D01*
X138493847Y-120806218D01*
X138473330Y-120793921D01*
X138454117Y-120779671D01*
X138436393Y-120763607D01*
X138420329Y-120745883D01*
X138406079Y-120726670D01*
X138393782Y-120706153D01*
X138383554Y-120684529D01*
X138375496Y-120662007D01*
X138369684Y-120638803D01*
X138366174Y-120615142D01*
X138365000Y-120591250D01*
X138365000Y-120103750D01*
X138366174Y-120079858D01*
X138369684Y-120056197D01*
X138375496Y-120032993D01*
X138383554Y-120010471D01*
X138393782Y-119988847D01*
X138406079Y-119968330D01*
X138420329Y-119949117D01*
X138436393Y-119931393D01*
X138454117Y-119915329D01*
X138473330Y-119901079D01*
X138493847Y-119888782D01*
X138515471Y-119878554D01*
X138537993Y-119870496D01*
X138561197Y-119864684D01*
X138584858Y-119861174D01*
X138608750Y-119860000D01*
X139521250Y-119860000D01*
X139545142Y-119861174D01*
G37*
G04 #@! TD.AperFunction*
G04 #@! TA.AperFunction,SMDPad,CuDef*
G36*
X139545142Y-121736174D02*
G01*
X139568803Y-121739684D01*
X139592007Y-121745496D01*
X139614529Y-121753554D01*
X139636153Y-121763782D01*
X139656670Y-121776079D01*
X139675883Y-121790329D01*
X139693607Y-121806393D01*
X139709671Y-121824117D01*
X139723921Y-121843330D01*
X139736218Y-121863847D01*
X139746446Y-121885471D01*
X139754504Y-121907993D01*
X139760316Y-121931197D01*
X139763826Y-121954858D01*
X139765000Y-121978750D01*
X139765000Y-122466250D01*
X139763826Y-122490142D01*
X139760316Y-122513803D01*
X139754504Y-122537007D01*
X139746446Y-122559529D01*
X139736218Y-122581153D01*
X139723921Y-122601670D01*
X139709671Y-122620883D01*
X139693607Y-122638607D01*
X139675883Y-122654671D01*
X139656670Y-122668921D01*
X139636153Y-122681218D01*
X139614529Y-122691446D01*
X139592007Y-122699504D01*
X139568803Y-122705316D01*
X139545142Y-122708826D01*
X139521250Y-122710000D01*
X138608750Y-122710000D01*
X138584858Y-122708826D01*
X138561197Y-122705316D01*
X138537993Y-122699504D01*
X138515471Y-122691446D01*
X138493847Y-122681218D01*
X138473330Y-122668921D01*
X138454117Y-122654671D01*
X138436393Y-122638607D01*
X138420329Y-122620883D01*
X138406079Y-122601670D01*
X138393782Y-122581153D01*
X138383554Y-122559529D01*
X138375496Y-122537007D01*
X138369684Y-122513803D01*
X138366174Y-122490142D01*
X138365000Y-122466250D01*
X138365000Y-121978750D01*
X138366174Y-121954858D01*
X138369684Y-121931197D01*
X138375496Y-121907993D01*
X138383554Y-121885471D01*
X138393782Y-121863847D01*
X138406079Y-121843330D01*
X138420329Y-121824117D01*
X138436393Y-121806393D01*
X138454117Y-121790329D01*
X138473330Y-121776079D01*
X138493847Y-121763782D01*
X138515471Y-121753554D01*
X138537993Y-121745496D01*
X138561197Y-121739684D01*
X138584858Y-121736174D01*
X138608750Y-121735000D01*
X139521250Y-121735000D01*
X139545142Y-121736174D01*
G37*
G04 #@! TD.AperFunction*
G04 #@! TA.AperFunction,SMDPad,CuDef*
G36*
X142720142Y-121736174D02*
G01*
X142743803Y-121739684D01*
X142767007Y-121745496D01*
X142789529Y-121753554D01*
X142811153Y-121763782D01*
X142831670Y-121776079D01*
X142850883Y-121790329D01*
X142868607Y-121806393D01*
X142884671Y-121824117D01*
X142898921Y-121843330D01*
X142911218Y-121863847D01*
X142921446Y-121885471D01*
X142929504Y-121907993D01*
X142935316Y-121931197D01*
X142938826Y-121954858D01*
X142940000Y-121978750D01*
X142940000Y-122466250D01*
X142938826Y-122490142D01*
X142935316Y-122513803D01*
X142929504Y-122537007D01*
X142921446Y-122559529D01*
X142911218Y-122581153D01*
X142898921Y-122601670D01*
X142884671Y-122620883D01*
X142868607Y-122638607D01*
X142850883Y-122654671D01*
X142831670Y-122668921D01*
X142811153Y-122681218D01*
X142789529Y-122691446D01*
X142767007Y-122699504D01*
X142743803Y-122705316D01*
X142720142Y-122708826D01*
X142696250Y-122710000D01*
X141783750Y-122710000D01*
X141759858Y-122708826D01*
X141736197Y-122705316D01*
X141712993Y-122699504D01*
X141690471Y-122691446D01*
X141668847Y-122681218D01*
X141648330Y-122668921D01*
X141629117Y-122654671D01*
X141611393Y-122638607D01*
X141595329Y-122620883D01*
X141581079Y-122601670D01*
X141568782Y-122581153D01*
X141558554Y-122559529D01*
X141550496Y-122537007D01*
X141544684Y-122513803D01*
X141541174Y-122490142D01*
X141540000Y-122466250D01*
X141540000Y-121978750D01*
X141541174Y-121954858D01*
X141544684Y-121931197D01*
X141550496Y-121907993D01*
X141558554Y-121885471D01*
X141568782Y-121863847D01*
X141581079Y-121843330D01*
X141595329Y-121824117D01*
X141611393Y-121806393D01*
X141629117Y-121790329D01*
X141648330Y-121776079D01*
X141668847Y-121763782D01*
X141690471Y-121753554D01*
X141712993Y-121745496D01*
X141736197Y-121739684D01*
X141759858Y-121736174D01*
X141783750Y-121735000D01*
X142696250Y-121735000D01*
X142720142Y-121736174D01*
G37*
G04 #@! TD.AperFunction*
G04 #@! TA.AperFunction,SMDPad,CuDef*
G36*
X142720142Y-119861174D02*
G01*
X142743803Y-119864684D01*
X142767007Y-119870496D01*
X142789529Y-119878554D01*
X142811153Y-119888782D01*
X142831670Y-119901079D01*
X142850883Y-119915329D01*
X142868607Y-119931393D01*
X142884671Y-119949117D01*
X142898921Y-119968330D01*
X142911218Y-119988847D01*
X142921446Y-120010471D01*
X142929504Y-120032993D01*
X142935316Y-120056197D01*
X142938826Y-120079858D01*
X142940000Y-120103750D01*
X142940000Y-120591250D01*
X142938826Y-120615142D01*
X142935316Y-120638803D01*
X142929504Y-120662007D01*
X142921446Y-120684529D01*
X142911218Y-120706153D01*
X142898921Y-120726670D01*
X142884671Y-120745883D01*
X142868607Y-120763607D01*
X142850883Y-120779671D01*
X142831670Y-120793921D01*
X142811153Y-120806218D01*
X142789529Y-120816446D01*
X142767007Y-120824504D01*
X142743803Y-120830316D01*
X142720142Y-120833826D01*
X142696250Y-120835000D01*
X141783750Y-120835000D01*
X141759858Y-120833826D01*
X141736197Y-120830316D01*
X141712993Y-120824504D01*
X141690471Y-120816446D01*
X141668847Y-120806218D01*
X141648330Y-120793921D01*
X141629117Y-120779671D01*
X141611393Y-120763607D01*
X141595329Y-120745883D01*
X141581079Y-120726670D01*
X141568782Y-120706153D01*
X141558554Y-120684529D01*
X141550496Y-120662007D01*
X141544684Y-120638803D01*
X141541174Y-120615142D01*
X141540000Y-120591250D01*
X141540000Y-120103750D01*
X141541174Y-120079858D01*
X141544684Y-120056197D01*
X141550496Y-120032993D01*
X141558554Y-120010471D01*
X141568782Y-119988847D01*
X141581079Y-119968330D01*
X141595329Y-119949117D01*
X141611393Y-119931393D01*
X141629117Y-119915329D01*
X141648330Y-119901079D01*
X141668847Y-119888782D01*
X141690471Y-119878554D01*
X141712993Y-119870496D01*
X141736197Y-119864684D01*
X141759858Y-119861174D01*
X141783750Y-119860000D01*
X142696250Y-119860000D01*
X142720142Y-119861174D01*
G37*
G04 #@! TD.AperFunction*
G04 #@! TA.AperFunction,SMDPad,CuDef*
G36*
X90105142Y-130946174D02*
G01*
X90128803Y-130949684D01*
X90152007Y-130955496D01*
X90174529Y-130963554D01*
X90196153Y-130973782D01*
X90216670Y-130986079D01*
X90235883Y-131000329D01*
X90253607Y-131016393D01*
X90269671Y-131034117D01*
X90283921Y-131053330D01*
X90296218Y-131073847D01*
X90306446Y-131095471D01*
X90314504Y-131117993D01*
X90320316Y-131141197D01*
X90323826Y-131164858D01*
X90325000Y-131188750D01*
X90325000Y-132101250D01*
X90323826Y-132125142D01*
X90320316Y-132148803D01*
X90314504Y-132172007D01*
X90306446Y-132194529D01*
X90296218Y-132216153D01*
X90283921Y-132236670D01*
X90269671Y-132255883D01*
X90253607Y-132273607D01*
X90235883Y-132289671D01*
X90216670Y-132303921D01*
X90196153Y-132316218D01*
X90174529Y-132326446D01*
X90152007Y-132334504D01*
X90128803Y-132340316D01*
X90105142Y-132343826D01*
X90081250Y-132345000D01*
X89593750Y-132345000D01*
X89569858Y-132343826D01*
X89546197Y-132340316D01*
X89522993Y-132334504D01*
X89500471Y-132326446D01*
X89478847Y-132316218D01*
X89458330Y-132303921D01*
X89439117Y-132289671D01*
X89421393Y-132273607D01*
X89405329Y-132255883D01*
X89391079Y-132236670D01*
X89378782Y-132216153D01*
X89368554Y-132194529D01*
X89360496Y-132172007D01*
X89354684Y-132148803D01*
X89351174Y-132125142D01*
X89350000Y-132101250D01*
X89350000Y-131188750D01*
X89351174Y-131164858D01*
X89354684Y-131141197D01*
X89360496Y-131117993D01*
X89368554Y-131095471D01*
X89378782Y-131073847D01*
X89391079Y-131053330D01*
X89405329Y-131034117D01*
X89421393Y-131016393D01*
X89439117Y-131000329D01*
X89458330Y-130986079D01*
X89478847Y-130973782D01*
X89500471Y-130963554D01*
X89522993Y-130955496D01*
X89546197Y-130949684D01*
X89569858Y-130946174D01*
X89593750Y-130945000D01*
X90081250Y-130945000D01*
X90105142Y-130946174D01*
G37*
G04 #@! TD.AperFunction*
G04 #@! TA.AperFunction,SMDPad,CuDef*
G36*
X88230142Y-130946174D02*
G01*
X88253803Y-130949684D01*
X88277007Y-130955496D01*
X88299529Y-130963554D01*
X88321153Y-130973782D01*
X88341670Y-130986079D01*
X88360883Y-131000329D01*
X88378607Y-131016393D01*
X88394671Y-131034117D01*
X88408921Y-131053330D01*
X88421218Y-131073847D01*
X88431446Y-131095471D01*
X88439504Y-131117993D01*
X88445316Y-131141197D01*
X88448826Y-131164858D01*
X88450000Y-131188750D01*
X88450000Y-132101250D01*
X88448826Y-132125142D01*
X88445316Y-132148803D01*
X88439504Y-132172007D01*
X88431446Y-132194529D01*
X88421218Y-132216153D01*
X88408921Y-132236670D01*
X88394671Y-132255883D01*
X88378607Y-132273607D01*
X88360883Y-132289671D01*
X88341670Y-132303921D01*
X88321153Y-132316218D01*
X88299529Y-132326446D01*
X88277007Y-132334504D01*
X88253803Y-132340316D01*
X88230142Y-132343826D01*
X88206250Y-132345000D01*
X87718750Y-132345000D01*
X87694858Y-132343826D01*
X87671197Y-132340316D01*
X87647993Y-132334504D01*
X87625471Y-132326446D01*
X87603847Y-132316218D01*
X87583330Y-132303921D01*
X87564117Y-132289671D01*
X87546393Y-132273607D01*
X87530329Y-132255883D01*
X87516079Y-132236670D01*
X87503782Y-132216153D01*
X87493554Y-132194529D01*
X87485496Y-132172007D01*
X87479684Y-132148803D01*
X87476174Y-132125142D01*
X87475000Y-132101250D01*
X87475000Y-131188750D01*
X87476174Y-131164858D01*
X87479684Y-131141197D01*
X87485496Y-131117993D01*
X87493554Y-131095471D01*
X87503782Y-131073847D01*
X87516079Y-131053330D01*
X87530329Y-131034117D01*
X87546393Y-131016393D01*
X87564117Y-131000329D01*
X87583330Y-130986079D01*
X87603847Y-130973782D01*
X87625471Y-130963554D01*
X87647993Y-130955496D01*
X87671197Y-130949684D01*
X87694858Y-130946174D01*
X87718750Y-130945000D01*
X88206250Y-130945000D01*
X88230142Y-130946174D01*
G37*
G04 #@! TD.AperFunction*
G04 #@! TA.AperFunction,SMDPad,CuDef*
G36*
X147038142Y-137958674D02*
G01*
X147061803Y-137962184D01*
X147085007Y-137967996D01*
X147107529Y-137976054D01*
X147129153Y-137986282D01*
X147149670Y-137998579D01*
X147168883Y-138012829D01*
X147186607Y-138028893D01*
X147202671Y-138046617D01*
X147216921Y-138065830D01*
X147229218Y-138086347D01*
X147239446Y-138107971D01*
X147247504Y-138130493D01*
X147253316Y-138153697D01*
X147256826Y-138177358D01*
X147258000Y-138201250D01*
X147258000Y-138688750D01*
X147256826Y-138712642D01*
X147253316Y-138736303D01*
X147247504Y-138759507D01*
X147239446Y-138782029D01*
X147229218Y-138803653D01*
X147216921Y-138824170D01*
X147202671Y-138843383D01*
X147186607Y-138861107D01*
X147168883Y-138877171D01*
X147149670Y-138891421D01*
X147129153Y-138903718D01*
X147107529Y-138913946D01*
X147085007Y-138922004D01*
X147061803Y-138927816D01*
X147038142Y-138931326D01*
X147014250Y-138932500D01*
X146101750Y-138932500D01*
X146077858Y-138931326D01*
X146054197Y-138927816D01*
X146030993Y-138922004D01*
X146008471Y-138913946D01*
X145986847Y-138903718D01*
X145966330Y-138891421D01*
X145947117Y-138877171D01*
X145929393Y-138861107D01*
X145913329Y-138843383D01*
X145899079Y-138824170D01*
X145886782Y-138803653D01*
X145876554Y-138782029D01*
X145868496Y-138759507D01*
X145862684Y-138736303D01*
X145859174Y-138712642D01*
X145858000Y-138688750D01*
X145858000Y-138201250D01*
X145859174Y-138177358D01*
X145862684Y-138153697D01*
X145868496Y-138130493D01*
X145876554Y-138107971D01*
X145886782Y-138086347D01*
X145899079Y-138065830D01*
X145913329Y-138046617D01*
X145929393Y-138028893D01*
X145947117Y-138012829D01*
X145966330Y-137998579D01*
X145986847Y-137986282D01*
X146008471Y-137976054D01*
X146030993Y-137967996D01*
X146054197Y-137962184D01*
X146077858Y-137958674D01*
X146101750Y-137957500D01*
X147014250Y-137957500D01*
X147038142Y-137958674D01*
G37*
G04 #@! TD.AperFunction*
G04 #@! TA.AperFunction,SMDPad,CuDef*
G36*
X147038142Y-139833674D02*
G01*
X147061803Y-139837184D01*
X147085007Y-139842996D01*
X147107529Y-139851054D01*
X147129153Y-139861282D01*
X147149670Y-139873579D01*
X147168883Y-139887829D01*
X147186607Y-139903893D01*
X147202671Y-139921617D01*
X147216921Y-139940830D01*
X147229218Y-139961347D01*
X147239446Y-139982971D01*
X147247504Y-140005493D01*
X147253316Y-140028697D01*
X147256826Y-140052358D01*
X147258000Y-140076250D01*
X147258000Y-140563750D01*
X147256826Y-140587642D01*
X147253316Y-140611303D01*
X147247504Y-140634507D01*
X147239446Y-140657029D01*
X147229218Y-140678653D01*
X147216921Y-140699170D01*
X147202671Y-140718383D01*
X147186607Y-140736107D01*
X147168883Y-140752171D01*
X147149670Y-140766421D01*
X147129153Y-140778718D01*
X147107529Y-140788946D01*
X147085007Y-140797004D01*
X147061803Y-140802816D01*
X147038142Y-140806326D01*
X147014250Y-140807500D01*
X146101750Y-140807500D01*
X146077858Y-140806326D01*
X146054197Y-140802816D01*
X146030993Y-140797004D01*
X146008471Y-140788946D01*
X145986847Y-140778718D01*
X145966330Y-140766421D01*
X145947117Y-140752171D01*
X145929393Y-140736107D01*
X145913329Y-140718383D01*
X145899079Y-140699170D01*
X145886782Y-140678653D01*
X145876554Y-140657029D01*
X145868496Y-140634507D01*
X145862684Y-140611303D01*
X145859174Y-140587642D01*
X145858000Y-140563750D01*
X145858000Y-140076250D01*
X145859174Y-140052358D01*
X145862684Y-140028697D01*
X145868496Y-140005493D01*
X145876554Y-139982971D01*
X145886782Y-139961347D01*
X145899079Y-139940830D01*
X145913329Y-139921617D01*
X145929393Y-139903893D01*
X145947117Y-139887829D01*
X145966330Y-139873579D01*
X145986847Y-139861282D01*
X146008471Y-139851054D01*
X146030993Y-139842996D01*
X146054197Y-139837184D01*
X146077858Y-139833674D01*
X146101750Y-139832500D01*
X147014250Y-139832500D01*
X147038142Y-139833674D01*
G37*
G04 #@! TD.AperFunction*
G04 #@! TA.AperFunction,SMDPad,CuDef*
G36*
X150848142Y-139833674D02*
G01*
X150871803Y-139837184D01*
X150895007Y-139842996D01*
X150917529Y-139851054D01*
X150939153Y-139861282D01*
X150959670Y-139873579D01*
X150978883Y-139887829D01*
X150996607Y-139903893D01*
X151012671Y-139921617D01*
X151026921Y-139940830D01*
X151039218Y-139961347D01*
X151049446Y-139982971D01*
X151057504Y-140005493D01*
X151063316Y-140028697D01*
X151066826Y-140052358D01*
X151068000Y-140076250D01*
X151068000Y-140563750D01*
X151066826Y-140587642D01*
X151063316Y-140611303D01*
X151057504Y-140634507D01*
X151049446Y-140657029D01*
X151039218Y-140678653D01*
X151026921Y-140699170D01*
X151012671Y-140718383D01*
X150996607Y-140736107D01*
X150978883Y-140752171D01*
X150959670Y-140766421D01*
X150939153Y-140778718D01*
X150917529Y-140788946D01*
X150895007Y-140797004D01*
X150871803Y-140802816D01*
X150848142Y-140806326D01*
X150824250Y-140807500D01*
X149911750Y-140807500D01*
X149887858Y-140806326D01*
X149864197Y-140802816D01*
X149840993Y-140797004D01*
X149818471Y-140788946D01*
X149796847Y-140778718D01*
X149776330Y-140766421D01*
X149757117Y-140752171D01*
X149739393Y-140736107D01*
X149723329Y-140718383D01*
X149709079Y-140699170D01*
X149696782Y-140678653D01*
X149686554Y-140657029D01*
X149678496Y-140634507D01*
X149672684Y-140611303D01*
X149669174Y-140587642D01*
X149668000Y-140563750D01*
X149668000Y-140076250D01*
X149669174Y-140052358D01*
X149672684Y-140028697D01*
X149678496Y-140005493D01*
X149686554Y-139982971D01*
X149696782Y-139961347D01*
X149709079Y-139940830D01*
X149723329Y-139921617D01*
X149739393Y-139903893D01*
X149757117Y-139887829D01*
X149776330Y-139873579D01*
X149796847Y-139861282D01*
X149818471Y-139851054D01*
X149840993Y-139842996D01*
X149864197Y-139837184D01*
X149887858Y-139833674D01*
X149911750Y-139832500D01*
X150824250Y-139832500D01*
X150848142Y-139833674D01*
G37*
G04 #@! TD.AperFunction*
G04 #@! TA.AperFunction,SMDPad,CuDef*
G36*
X150848142Y-137958674D02*
G01*
X150871803Y-137962184D01*
X150895007Y-137967996D01*
X150917529Y-137976054D01*
X150939153Y-137986282D01*
X150959670Y-137998579D01*
X150978883Y-138012829D01*
X150996607Y-138028893D01*
X151012671Y-138046617D01*
X151026921Y-138065830D01*
X151039218Y-138086347D01*
X151049446Y-138107971D01*
X151057504Y-138130493D01*
X151063316Y-138153697D01*
X151066826Y-138177358D01*
X151068000Y-138201250D01*
X151068000Y-138688750D01*
X151066826Y-138712642D01*
X151063316Y-138736303D01*
X151057504Y-138759507D01*
X151049446Y-138782029D01*
X151039218Y-138803653D01*
X151026921Y-138824170D01*
X151012671Y-138843383D01*
X150996607Y-138861107D01*
X150978883Y-138877171D01*
X150959670Y-138891421D01*
X150939153Y-138903718D01*
X150917529Y-138913946D01*
X150895007Y-138922004D01*
X150871803Y-138927816D01*
X150848142Y-138931326D01*
X150824250Y-138932500D01*
X149911750Y-138932500D01*
X149887858Y-138931326D01*
X149864197Y-138927816D01*
X149840993Y-138922004D01*
X149818471Y-138913946D01*
X149796847Y-138903718D01*
X149776330Y-138891421D01*
X149757117Y-138877171D01*
X149739393Y-138861107D01*
X149723329Y-138843383D01*
X149709079Y-138824170D01*
X149696782Y-138803653D01*
X149686554Y-138782029D01*
X149678496Y-138759507D01*
X149672684Y-138736303D01*
X149669174Y-138712642D01*
X149668000Y-138688750D01*
X149668000Y-138201250D01*
X149669174Y-138177358D01*
X149672684Y-138153697D01*
X149678496Y-138130493D01*
X149686554Y-138107971D01*
X149696782Y-138086347D01*
X149709079Y-138065830D01*
X149723329Y-138046617D01*
X149739393Y-138028893D01*
X149757117Y-138012829D01*
X149776330Y-137998579D01*
X149796847Y-137986282D01*
X149818471Y-137976054D01*
X149840993Y-137967996D01*
X149864197Y-137962184D01*
X149887858Y-137958674D01*
X149911750Y-137957500D01*
X150824250Y-137957500D01*
X150848142Y-137958674D01*
G37*
G04 #@! TD.AperFunction*
D16*
X138430000Y-107950000D03*
D17*
X135890000Y-107950000D03*
X135890000Y-93980000D03*
D16*
X138430000Y-93980000D03*
X123190000Y-109220000D03*
D17*
X120650000Y-109220000D03*
X105410000Y-93980000D03*
D16*
X107950000Y-93980000D03*
X107950000Y-107950000D03*
D17*
X105410000Y-107950000D03*
G04 #@! TA.AperFunction,SMDPad,CuDef*
D15*
G36*
X148809142Y-144779674D02*
G01*
X148832803Y-144783184D01*
X148856007Y-144788996D01*
X148878529Y-144797054D01*
X148900153Y-144807282D01*
X148920670Y-144819579D01*
X148939883Y-144833829D01*
X148957607Y-144849893D01*
X148973671Y-144867617D01*
X148987921Y-144886830D01*
X149000218Y-144907347D01*
X149010446Y-144928971D01*
X149018504Y-144951493D01*
X149024316Y-144974697D01*
X149027826Y-144998358D01*
X149029000Y-145022250D01*
X149029000Y-145934750D01*
X149027826Y-145958642D01*
X149024316Y-145982303D01*
X149018504Y-146005507D01*
X149010446Y-146028029D01*
X149000218Y-146049653D01*
X148987921Y-146070170D01*
X148973671Y-146089383D01*
X148957607Y-146107107D01*
X148939883Y-146123171D01*
X148920670Y-146137421D01*
X148900153Y-146149718D01*
X148878529Y-146159946D01*
X148856007Y-146168004D01*
X148832803Y-146173816D01*
X148809142Y-146177326D01*
X148785250Y-146178500D01*
X148297750Y-146178500D01*
X148273858Y-146177326D01*
X148250197Y-146173816D01*
X148226993Y-146168004D01*
X148204471Y-146159946D01*
X148182847Y-146149718D01*
X148162330Y-146137421D01*
X148143117Y-146123171D01*
X148125393Y-146107107D01*
X148109329Y-146089383D01*
X148095079Y-146070170D01*
X148082782Y-146049653D01*
X148072554Y-146028029D01*
X148064496Y-146005507D01*
X148058684Y-145982303D01*
X148055174Y-145958642D01*
X148054000Y-145934750D01*
X148054000Y-145022250D01*
X148055174Y-144998358D01*
X148058684Y-144974697D01*
X148064496Y-144951493D01*
X148072554Y-144928971D01*
X148082782Y-144907347D01*
X148095079Y-144886830D01*
X148109329Y-144867617D01*
X148125393Y-144849893D01*
X148143117Y-144833829D01*
X148162330Y-144819579D01*
X148182847Y-144807282D01*
X148204471Y-144797054D01*
X148226993Y-144788996D01*
X148250197Y-144783184D01*
X148273858Y-144779674D01*
X148297750Y-144778500D01*
X148785250Y-144778500D01*
X148809142Y-144779674D01*
G37*
G04 #@! TD.AperFunction*
G04 #@! TA.AperFunction,SMDPad,CuDef*
G36*
X150684142Y-144779674D02*
G01*
X150707803Y-144783184D01*
X150731007Y-144788996D01*
X150753529Y-144797054D01*
X150775153Y-144807282D01*
X150795670Y-144819579D01*
X150814883Y-144833829D01*
X150832607Y-144849893D01*
X150848671Y-144867617D01*
X150862921Y-144886830D01*
X150875218Y-144907347D01*
X150885446Y-144928971D01*
X150893504Y-144951493D01*
X150899316Y-144974697D01*
X150902826Y-144998358D01*
X150904000Y-145022250D01*
X150904000Y-145934750D01*
X150902826Y-145958642D01*
X150899316Y-145982303D01*
X150893504Y-146005507D01*
X150885446Y-146028029D01*
X150875218Y-146049653D01*
X150862921Y-146070170D01*
X150848671Y-146089383D01*
X150832607Y-146107107D01*
X150814883Y-146123171D01*
X150795670Y-146137421D01*
X150775153Y-146149718D01*
X150753529Y-146159946D01*
X150731007Y-146168004D01*
X150707803Y-146173816D01*
X150684142Y-146177326D01*
X150660250Y-146178500D01*
X150172750Y-146178500D01*
X150148858Y-146177326D01*
X150125197Y-146173816D01*
X150101993Y-146168004D01*
X150079471Y-146159946D01*
X150057847Y-146149718D01*
X150037330Y-146137421D01*
X150018117Y-146123171D01*
X150000393Y-146107107D01*
X149984329Y-146089383D01*
X149970079Y-146070170D01*
X149957782Y-146049653D01*
X149947554Y-146028029D01*
X149939496Y-146005507D01*
X149933684Y-145982303D01*
X149930174Y-145958642D01*
X149929000Y-145934750D01*
X149929000Y-145022250D01*
X149930174Y-144998358D01*
X149933684Y-144974697D01*
X149939496Y-144951493D01*
X149947554Y-144928971D01*
X149957782Y-144907347D01*
X149970079Y-144886830D01*
X149984329Y-144867617D01*
X150000393Y-144849893D01*
X150018117Y-144833829D01*
X150037330Y-144819579D01*
X150057847Y-144807282D01*
X150079471Y-144797054D01*
X150101993Y-144788996D01*
X150125197Y-144783184D01*
X150148858Y-144779674D01*
X150172750Y-144778500D01*
X150660250Y-144778500D01*
X150684142Y-144779674D01*
G37*
G04 #@! TD.AperFunction*
G04 #@! TA.AperFunction,SMDPad,CuDef*
G36*
X155510142Y-144716174D02*
G01*
X155533803Y-144719684D01*
X155557007Y-144725496D01*
X155579529Y-144733554D01*
X155601153Y-144743782D01*
X155621670Y-144756079D01*
X155640883Y-144770329D01*
X155658607Y-144786393D01*
X155674671Y-144804117D01*
X155688921Y-144823330D01*
X155701218Y-144843847D01*
X155711446Y-144865471D01*
X155719504Y-144887993D01*
X155725316Y-144911197D01*
X155728826Y-144934858D01*
X155730000Y-144958750D01*
X155730000Y-145871250D01*
X155728826Y-145895142D01*
X155725316Y-145918803D01*
X155719504Y-145942007D01*
X155711446Y-145964529D01*
X155701218Y-145986153D01*
X155688921Y-146006670D01*
X155674671Y-146025883D01*
X155658607Y-146043607D01*
X155640883Y-146059671D01*
X155621670Y-146073921D01*
X155601153Y-146086218D01*
X155579529Y-146096446D01*
X155557007Y-146104504D01*
X155533803Y-146110316D01*
X155510142Y-146113826D01*
X155486250Y-146115000D01*
X154998750Y-146115000D01*
X154974858Y-146113826D01*
X154951197Y-146110316D01*
X154927993Y-146104504D01*
X154905471Y-146096446D01*
X154883847Y-146086218D01*
X154863330Y-146073921D01*
X154844117Y-146059671D01*
X154826393Y-146043607D01*
X154810329Y-146025883D01*
X154796079Y-146006670D01*
X154783782Y-145986153D01*
X154773554Y-145964529D01*
X154765496Y-145942007D01*
X154759684Y-145918803D01*
X154756174Y-145895142D01*
X154755000Y-145871250D01*
X154755000Y-144958750D01*
X154756174Y-144934858D01*
X154759684Y-144911197D01*
X154765496Y-144887993D01*
X154773554Y-144865471D01*
X154783782Y-144843847D01*
X154796079Y-144823330D01*
X154810329Y-144804117D01*
X154826393Y-144786393D01*
X154844117Y-144770329D01*
X154863330Y-144756079D01*
X154883847Y-144743782D01*
X154905471Y-144733554D01*
X154927993Y-144725496D01*
X154951197Y-144719684D01*
X154974858Y-144716174D01*
X154998750Y-144715000D01*
X155486250Y-144715000D01*
X155510142Y-144716174D01*
G37*
G04 #@! TD.AperFunction*
G04 #@! TA.AperFunction,SMDPad,CuDef*
G36*
X153635142Y-144716174D02*
G01*
X153658803Y-144719684D01*
X153682007Y-144725496D01*
X153704529Y-144733554D01*
X153726153Y-144743782D01*
X153746670Y-144756079D01*
X153765883Y-144770329D01*
X153783607Y-144786393D01*
X153799671Y-144804117D01*
X153813921Y-144823330D01*
X153826218Y-144843847D01*
X153836446Y-144865471D01*
X153844504Y-144887993D01*
X153850316Y-144911197D01*
X153853826Y-144934858D01*
X153855000Y-144958750D01*
X153855000Y-145871250D01*
X153853826Y-145895142D01*
X153850316Y-145918803D01*
X153844504Y-145942007D01*
X153836446Y-145964529D01*
X153826218Y-145986153D01*
X153813921Y-146006670D01*
X153799671Y-146025883D01*
X153783607Y-146043607D01*
X153765883Y-146059671D01*
X153746670Y-146073921D01*
X153726153Y-146086218D01*
X153704529Y-146096446D01*
X153682007Y-146104504D01*
X153658803Y-146110316D01*
X153635142Y-146113826D01*
X153611250Y-146115000D01*
X153123750Y-146115000D01*
X153099858Y-146113826D01*
X153076197Y-146110316D01*
X153052993Y-146104504D01*
X153030471Y-146096446D01*
X153008847Y-146086218D01*
X152988330Y-146073921D01*
X152969117Y-146059671D01*
X152951393Y-146043607D01*
X152935329Y-146025883D01*
X152921079Y-146006670D01*
X152908782Y-145986153D01*
X152898554Y-145964529D01*
X152890496Y-145942007D01*
X152884684Y-145918803D01*
X152881174Y-145895142D01*
X152880000Y-145871250D01*
X152880000Y-144958750D01*
X152881174Y-144934858D01*
X152884684Y-144911197D01*
X152890496Y-144887993D01*
X152898554Y-144865471D01*
X152908782Y-144843847D01*
X152921079Y-144823330D01*
X152935329Y-144804117D01*
X152951393Y-144786393D01*
X152969117Y-144770329D01*
X152988330Y-144756079D01*
X153008847Y-144743782D01*
X153030471Y-144733554D01*
X153052993Y-144725496D01*
X153076197Y-144719684D01*
X153099858Y-144716174D01*
X153123750Y-144715000D01*
X153611250Y-144715000D01*
X153635142Y-144716174D01*
G37*
G04 #@! TD.AperFunction*
D18*
X130810000Y-147955000D03*
D19*
X130810000Y-150495000D03*
X128270000Y-147955000D03*
X128270000Y-150495000D03*
X125730000Y-147955000D03*
X125730000Y-150495000D03*
X123190000Y-147955000D03*
X123190000Y-150495000D03*
X134620000Y-150495000D03*
X134620000Y-147955000D03*
X137160000Y-150495000D03*
X137160000Y-147955000D03*
X139700000Y-150495000D03*
X139700000Y-147955000D03*
X142240000Y-150495000D03*
D18*
X142240000Y-147955000D03*
D11*
X97429500Y-129069000D03*
X97429500Y-115929000D03*
D20*
X100139500Y-118999000D03*
D21*
X100139500Y-121499000D03*
X100139500Y-123499000D03*
X100139500Y-125999000D03*
D18*
X154940000Y-114935000D03*
D19*
X152400000Y-114935000D03*
X149860000Y-114935000D03*
X147320000Y-114935000D03*
X144780000Y-114935000D03*
X142240000Y-114935000D03*
X139700000Y-114935000D03*
X137160000Y-114935000D03*
X134620000Y-114935000D03*
X132080000Y-114935000D03*
X129540000Y-114935000D03*
X127000000Y-114935000D03*
X124460000Y-114935000D03*
X121920000Y-114935000D03*
X119380000Y-114935000D03*
X116840000Y-114935000D03*
X114300000Y-114935000D03*
X111760000Y-114935000D03*
X154940000Y-130175000D03*
X152400000Y-130175000D03*
X149860000Y-130175000D03*
X147320000Y-130175000D03*
X144780000Y-130175000D03*
X142240000Y-130175000D03*
X139700000Y-130175000D03*
X137160000Y-130175000D03*
X134620000Y-130175000D03*
X132080000Y-130175000D03*
X129540000Y-130175000D03*
X127000000Y-130175000D03*
X124460000Y-130175000D03*
X121920000Y-130175000D03*
X119380000Y-130175000D03*
X116840000Y-130175000D03*
X114300000Y-130175000D03*
D18*
X111760000Y-130175000D03*
X154813000Y-159258000D03*
D19*
X154813000Y-156718000D03*
X154813000Y-154178000D03*
X154813000Y-151638000D03*
X154813000Y-149098000D03*
D22*
X144935000Y-119305000D03*
X146035000Y-125805000D03*
X150035000Y-125805000D03*
X153035000Y-125805000D03*
D18*
X122809000Y-142303500D03*
D19*
X122809000Y-139763500D03*
X122809000Y-137223500D03*
X122809000Y-134683500D03*
G04 #@! TA.AperFunction,SMDPad,CuDef*
D15*
G36*
X125003642Y-119132674D02*
G01*
X125027303Y-119136184D01*
X125050507Y-119141996D01*
X125073029Y-119150054D01*
X125094653Y-119160282D01*
X125115170Y-119172579D01*
X125134383Y-119186829D01*
X125152107Y-119202893D01*
X125168171Y-119220617D01*
X125182421Y-119239830D01*
X125194718Y-119260347D01*
X125204946Y-119281971D01*
X125213004Y-119304493D01*
X125218816Y-119327697D01*
X125222326Y-119351358D01*
X125223500Y-119375250D01*
X125223500Y-119862750D01*
X125222326Y-119886642D01*
X125218816Y-119910303D01*
X125213004Y-119933507D01*
X125204946Y-119956029D01*
X125194718Y-119977653D01*
X125182421Y-119998170D01*
X125168171Y-120017383D01*
X125152107Y-120035107D01*
X125134383Y-120051171D01*
X125115170Y-120065421D01*
X125094653Y-120077718D01*
X125073029Y-120087946D01*
X125050507Y-120096004D01*
X125027303Y-120101816D01*
X125003642Y-120105326D01*
X124979750Y-120106500D01*
X124067250Y-120106500D01*
X124043358Y-120105326D01*
X124019697Y-120101816D01*
X123996493Y-120096004D01*
X123973971Y-120087946D01*
X123952347Y-120077718D01*
X123931830Y-120065421D01*
X123912617Y-120051171D01*
X123894893Y-120035107D01*
X123878829Y-120017383D01*
X123864579Y-119998170D01*
X123852282Y-119977653D01*
X123842054Y-119956029D01*
X123833996Y-119933507D01*
X123828184Y-119910303D01*
X123824674Y-119886642D01*
X123823500Y-119862750D01*
X123823500Y-119375250D01*
X123824674Y-119351358D01*
X123828184Y-119327697D01*
X123833996Y-119304493D01*
X123842054Y-119281971D01*
X123852282Y-119260347D01*
X123864579Y-119239830D01*
X123878829Y-119220617D01*
X123894893Y-119202893D01*
X123912617Y-119186829D01*
X123931830Y-119172579D01*
X123952347Y-119160282D01*
X123973971Y-119150054D01*
X123996493Y-119141996D01*
X124019697Y-119136184D01*
X124043358Y-119132674D01*
X124067250Y-119131500D01*
X124979750Y-119131500D01*
X125003642Y-119132674D01*
G37*
G04 #@! TD.AperFunction*
G04 #@! TA.AperFunction,SMDPad,CuDef*
G36*
X125003642Y-117257674D02*
G01*
X125027303Y-117261184D01*
X125050507Y-117266996D01*
X125073029Y-117275054D01*
X125094653Y-117285282D01*
X125115170Y-117297579D01*
X125134383Y-117311829D01*
X125152107Y-117327893D01*
X125168171Y-117345617D01*
X125182421Y-117364830D01*
X125194718Y-117385347D01*
X125204946Y-117406971D01*
X125213004Y-117429493D01*
X125218816Y-117452697D01*
X125222326Y-117476358D01*
X125223500Y-117500250D01*
X125223500Y-117987750D01*
X125222326Y-118011642D01*
X125218816Y-118035303D01*
X125213004Y-118058507D01*
X125204946Y-118081029D01*
X125194718Y-118102653D01*
X125182421Y-118123170D01*
X125168171Y-118142383D01*
X125152107Y-118160107D01*
X125134383Y-118176171D01*
X125115170Y-118190421D01*
X125094653Y-118202718D01*
X125073029Y-118212946D01*
X125050507Y-118221004D01*
X125027303Y-118226816D01*
X125003642Y-118230326D01*
X124979750Y-118231500D01*
X124067250Y-118231500D01*
X124043358Y-118230326D01*
X124019697Y-118226816D01*
X123996493Y-118221004D01*
X123973971Y-118212946D01*
X123952347Y-118202718D01*
X123931830Y-118190421D01*
X123912617Y-118176171D01*
X123894893Y-118160107D01*
X123878829Y-118142383D01*
X123864579Y-118123170D01*
X123852282Y-118102653D01*
X123842054Y-118081029D01*
X123833996Y-118058507D01*
X123828184Y-118035303D01*
X123824674Y-118011642D01*
X123823500Y-117987750D01*
X123823500Y-117500250D01*
X123824674Y-117476358D01*
X123828184Y-117452697D01*
X123833996Y-117429493D01*
X123842054Y-117406971D01*
X123852282Y-117385347D01*
X123864579Y-117364830D01*
X123878829Y-117345617D01*
X123894893Y-117327893D01*
X123912617Y-117311829D01*
X123931830Y-117297579D01*
X123952347Y-117285282D01*
X123973971Y-117275054D01*
X123996493Y-117266996D01*
X124019697Y-117261184D01*
X124043358Y-117257674D01*
X124067250Y-117256500D01*
X124979750Y-117256500D01*
X125003642Y-117257674D01*
G37*
G04 #@! TD.AperFunction*
G04 #@! TA.AperFunction,SMDPad,CuDef*
G36*
X111026642Y-117157174D02*
G01*
X111050303Y-117160684D01*
X111073507Y-117166496D01*
X111096029Y-117174554D01*
X111117653Y-117184782D01*
X111138170Y-117197079D01*
X111157383Y-117211329D01*
X111175107Y-117227393D01*
X111191171Y-117245117D01*
X111205421Y-117264330D01*
X111217718Y-117284847D01*
X111227946Y-117306471D01*
X111236004Y-117328993D01*
X111241816Y-117352197D01*
X111245326Y-117375858D01*
X111246500Y-117399750D01*
X111246500Y-118312250D01*
X111245326Y-118336142D01*
X111241816Y-118359803D01*
X111236004Y-118383007D01*
X111227946Y-118405529D01*
X111217718Y-118427153D01*
X111205421Y-118447670D01*
X111191171Y-118466883D01*
X111175107Y-118484607D01*
X111157383Y-118500671D01*
X111138170Y-118514921D01*
X111117653Y-118527218D01*
X111096029Y-118537446D01*
X111073507Y-118545504D01*
X111050303Y-118551316D01*
X111026642Y-118554826D01*
X111002750Y-118556000D01*
X110515250Y-118556000D01*
X110491358Y-118554826D01*
X110467697Y-118551316D01*
X110444493Y-118545504D01*
X110421971Y-118537446D01*
X110400347Y-118527218D01*
X110379830Y-118514921D01*
X110360617Y-118500671D01*
X110342893Y-118484607D01*
X110326829Y-118466883D01*
X110312579Y-118447670D01*
X110300282Y-118427153D01*
X110290054Y-118405529D01*
X110281996Y-118383007D01*
X110276184Y-118359803D01*
X110272674Y-118336142D01*
X110271500Y-118312250D01*
X110271500Y-117399750D01*
X110272674Y-117375858D01*
X110276184Y-117352197D01*
X110281996Y-117328993D01*
X110290054Y-117306471D01*
X110300282Y-117284847D01*
X110312579Y-117264330D01*
X110326829Y-117245117D01*
X110342893Y-117227393D01*
X110360617Y-117211329D01*
X110379830Y-117197079D01*
X110400347Y-117184782D01*
X110421971Y-117174554D01*
X110444493Y-117166496D01*
X110467697Y-117160684D01*
X110491358Y-117157174D01*
X110515250Y-117156000D01*
X111002750Y-117156000D01*
X111026642Y-117157174D01*
G37*
G04 #@! TD.AperFunction*
G04 #@! TA.AperFunction,SMDPad,CuDef*
G36*
X112901642Y-117157174D02*
G01*
X112925303Y-117160684D01*
X112948507Y-117166496D01*
X112971029Y-117174554D01*
X112992653Y-117184782D01*
X113013170Y-117197079D01*
X113032383Y-117211329D01*
X113050107Y-117227393D01*
X113066171Y-117245117D01*
X113080421Y-117264330D01*
X113092718Y-117284847D01*
X113102946Y-117306471D01*
X113111004Y-117328993D01*
X113116816Y-117352197D01*
X113120326Y-117375858D01*
X113121500Y-117399750D01*
X113121500Y-118312250D01*
X113120326Y-118336142D01*
X113116816Y-118359803D01*
X113111004Y-118383007D01*
X113102946Y-118405529D01*
X113092718Y-118427153D01*
X113080421Y-118447670D01*
X113066171Y-118466883D01*
X113050107Y-118484607D01*
X113032383Y-118500671D01*
X113013170Y-118514921D01*
X112992653Y-118527218D01*
X112971029Y-118537446D01*
X112948507Y-118545504D01*
X112925303Y-118551316D01*
X112901642Y-118554826D01*
X112877750Y-118556000D01*
X112390250Y-118556000D01*
X112366358Y-118554826D01*
X112342697Y-118551316D01*
X112319493Y-118545504D01*
X112296971Y-118537446D01*
X112275347Y-118527218D01*
X112254830Y-118514921D01*
X112235617Y-118500671D01*
X112217893Y-118484607D01*
X112201829Y-118466883D01*
X112187579Y-118447670D01*
X112175282Y-118427153D01*
X112165054Y-118405529D01*
X112156996Y-118383007D01*
X112151184Y-118359803D01*
X112147674Y-118336142D01*
X112146500Y-118312250D01*
X112146500Y-117399750D01*
X112147674Y-117375858D01*
X112151184Y-117352197D01*
X112156996Y-117328993D01*
X112165054Y-117306471D01*
X112175282Y-117284847D01*
X112187579Y-117264330D01*
X112201829Y-117245117D01*
X112217893Y-117227393D01*
X112235617Y-117211329D01*
X112254830Y-117197079D01*
X112275347Y-117184782D01*
X112296971Y-117174554D01*
X112319493Y-117166496D01*
X112342697Y-117160684D01*
X112366358Y-117157174D01*
X112390250Y-117156000D01*
X112877750Y-117156000D01*
X112901642Y-117157174D01*
G37*
G04 #@! TD.AperFunction*
G04 #@! TA.AperFunction,SMDPad,CuDef*
G36*
X139000142Y-100266174D02*
G01*
X139023803Y-100269684D01*
X139047007Y-100275496D01*
X139069529Y-100283554D01*
X139091153Y-100293782D01*
X139111670Y-100306079D01*
X139130883Y-100320329D01*
X139148607Y-100336393D01*
X139164671Y-100354117D01*
X139178921Y-100373330D01*
X139191218Y-100393847D01*
X139201446Y-100415471D01*
X139209504Y-100437993D01*
X139215316Y-100461197D01*
X139218826Y-100484858D01*
X139220000Y-100508750D01*
X139220000Y-101421250D01*
X139218826Y-101445142D01*
X139215316Y-101468803D01*
X139209504Y-101492007D01*
X139201446Y-101514529D01*
X139191218Y-101536153D01*
X139178921Y-101556670D01*
X139164671Y-101575883D01*
X139148607Y-101593607D01*
X139130883Y-101609671D01*
X139111670Y-101623921D01*
X139091153Y-101636218D01*
X139069529Y-101646446D01*
X139047007Y-101654504D01*
X139023803Y-101660316D01*
X139000142Y-101663826D01*
X138976250Y-101665000D01*
X138488750Y-101665000D01*
X138464858Y-101663826D01*
X138441197Y-101660316D01*
X138417993Y-101654504D01*
X138395471Y-101646446D01*
X138373847Y-101636218D01*
X138353330Y-101623921D01*
X138334117Y-101609671D01*
X138316393Y-101593607D01*
X138300329Y-101575883D01*
X138286079Y-101556670D01*
X138273782Y-101536153D01*
X138263554Y-101514529D01*
X138255496Y-101492007D01*
X138249684Y-101468803D01*
X138246174Y-101445142D01*
X138245000Y-101421250D01*
X138245000Y-100508750D01*
X138246174Y-100484858D01*
X138249684Y-100461197D01*
X138255496Y-100437993D01*
X138263554Y-100415471D01*
X138273782Y-100393847D01*
X138286079Y-100373330D01*
X138300329Y-100354117D01*
X138316393Y-100336393D01*
X138334117Y-100320329D01*
X138353330Y-100306079D01*
X138373847Y-100293782D01*
X138395471Y-100283554D01*
X138417993Y-100275496D01*
X138441197Y-100269684D01*
X138464858Y-100266174D01*
X138488750Y-100265000D01*
X138976250Y-100265000D01*
X139000142Y-100266174D01*
G37*
G04 #@! TD.AperFunction*
G04 #@! TA.AperFunction,SMDPad,CuDef*
G36*
X137125142Y-100266174D02*
G01*
X137148803Y-100269684D01*
X137172007Y-100275496D01*
X137194529Y-100283554D01*
X137216153Y-100293782D01*
X137236670Y-100306079D01*
X137255883Y-100320329D01*
X137273607Y-100336393D01*
X137289671Y-100354117D01*
X137303921Y-100373330D01*
X137316218Y-100393847D01*
X137326446Y-100415471D01*
X137334504Y-100437993D01*
X137340316Y-100461197D01*
X137343826Y-100484858D01*
X137345000Y-100508750D01*
X137345000Y-101421250D01*
X137343826Y-101445142D01*
X137340316Y-101468803D01*
X137334504Y-101492007D01*
X137326446Y-101514529D01*
X137316218Y-101536153D01*
X137303921Y-101556670D01*
X137289671Y-101575883D01*
X137273607Y-101593607D01*
X137255883Y-101609671D01*
X137236670Y-101623921D01*
X137216153Y-101636218D01*
X137194529Y-101646446D01*
X137172007Y-101654504D01*
X137148803Y-101660316D01*
X137125142Y-101663826D01*
X137101250Y-101665000D01*
X136613750Y-101665000D01*
X136589858Y-101663826D01*
X136566197Y-101660316D01*
X136542993Y-101654504D01*
X136520471Y-101646446D01*
X136498847Y-101636218D01*
X136478330Y-101623921D01*
X136459117Y-101609671D01*
X136441393Y-101593607D01*
X136425329Y-101575883D01*
X136411079Y-101556670D01*
X136398782Y-101536153D01*
X136388554Y-101514529D01*
X136380496Y-101492007D01*
X136374684Y-101468803D01*
X136371174Y-101445142D01*
X136370000Y-101421250D01*
X136370000Y-100508750D01*
X136371174Y-100484858D01*
X136374684Y-100461197D01*
X136380496Y-100437993D01*
X136388554Y-100415471D01*
X136398782Y-100393847D01*
X136411079Y-100373330D01*
X136425329Y-100354117D01*
X136441393Y-100336393D01*
X136459117Y-100320329D01*
X136478330Y-100306079D01*
X136498847Y-100293782D01*
X136520471Y-100283554D01*
X136542993Y-100275496D01*
X136566197Y-100269684D01*
X136589858Y-100266174D01*
X136613750Y-100265000D01*
X137101250Y-100265000D01*
X137125142Y-100266174D01*
G37*
G04 #@! TD.AperFunction*
G04 #@! TA.AperFunction,SMDPad,CuDef*
G36*
X139000142Y-102806174D02*
G01*
X139023803Y-102809684D01*
X139047007Y-102815496D01*
X139069529Y-102823554D01*
X139091153Y-102833782D01*
X139111670Y-102846079D01*
X139130883Y-102860329D01*
X139148607Y-102876393D01*
X139164671Y-102894117D01*
X139178921Y-102913330D01*
X139191218Y-102933847D01*
X139201446Y-102955471D01*
X139209504Y-102977993D01*
X139215316Y-103001197D01*
X139218826Y-103024858D01*
X139220000Y-103048750D01*
X139220000Y-103961250D01*
X139218826Y-103985142D01*
X139215316Y-104008803D01*
X139209504Y-104032007D01*
X139201446Y-104054529D01*
X139191218Y-104076153D01*
X139178921Y-104096670D01*
X139164671Y-104115883D01*
X139148607Y-104133607D01*
X139130883Y-104149671D01*
X139111670Y-104163921D01*
X139091153Y-104176218D01*
X139069529Y-104186446D01*
X139047007Y-104194504D01*
X139023803Y-104200316D01*
X139000142Y-104203826D01*
X138976250Y-104205000D01*
X138488750Y-104205000D01*
X138464858Y-104203826D01*
X138441197Y-104200316D01*
X138417993Y-104194504D01*
X138395471Y-104186446D01*
X138373847Y-104176218D01*
X138353330Y-104163921D01*
X138334117Y-104149671D01*
X138316393Y-104133607D01*
X138300329Y-104115883D01*
X138286079Y-104096670D01*
X138273782Y-104076153D01*
X138263554Y-104054529D01*
X138255496Y-104032007D01*
X138249684Y-104008803D01*
X138246174Y-103985142D01*
X138245000Y-103961250D01*
X138245000Y-103048750D01*
X138246174Y-103024858D01*
X138249684Y-103001197D01*
X138255496Y-102977993D01*
X138263554Y-102955471D01*
X138273782Y-102933847D01*
X138286079Y-102913330D01*
X138300329Y-102894117D01*
X138316393Y-102876393D01*
X138334117Y-102860329D01*
X138353330Y-102846079D01*
X138373847Y-102833782D01*
X138395471Y-102823554D01*
X138417993Y-102815496D01*
X138441197Y-102809684D01*
X138464858Y-102806174D01*
X138488750Y-102805000D01*
X138976250Y-102805000D01*
X139000142Y-102806174D01*
G37*
G04 #@! TD.AperFunction*
G04 #@! TA.AperFunction,SMDPad,CuDef*
G36*
X137125142Y-102806174D02*
G01*
X137148803Y-102809684D01*
X137172007Y-102815496D01*
X137194529Y-102823554D01*
X137216153Y-102833782D01*
X137236670Y-102846079D01*
X137255883Y-102860329D01*
X137273607Y-102876393D01*
X137289671Y-102894117D01*
X137303921Y-102913330D01*
X137316218Y-102933847D01*
X137326446Y-102955471D01*
X137334504Y-102977993D01*
X137340316Y-103001197D01*
X137343826Y-103024858D01*
X137345000Y-103048750D01*
X137345000Y-103961250D01*
X137343826Y-103985142D01*
X137340316Y-104008803D01*
X137334504Y-104032007D01*
X137326446Y-104054529D01*
X137316218Y-104076153D01*
X137303921Y-104096670D01*
X137289671Y-104115883D01*
X137273607Y-104133607D01*
X137255883Y-104149671D01*
X137236670Y-104163921D01*
X137216153Y-104176218D01*
X137194529Y-104186446D01*
X137172007Y-104194504D01*
X137148803Y-104200316D01*
X137125142Y-104203826D01*
X137101250Y-104205000D01*
X136613750Y-104205000D01*
X136589858Y-104203826D01*
X136566197Y-104200316D01*
X136542993Y-104194504D01*
X136520471Y-104186446D01*
X136498847Y-104176218D01*
X136478330Y-104163921D01*
X136459117Y-104149671D01*
X136441393Y-104133607D01*
X136425329Y-104115883D01*
X136411079Y-104096670D01*
X136398782Y-104076153D01*
X136388554Y-104054529D01*
X136380496Y-104032007D01*
X136374684Y-104008803D01*
X136371174Y-103985142D01*
X136370000Y-103961250D01*
X136370000Y-103048750D01*
X136371174Y-103024858D01*
X136374684Y-103001197D01*
X136380496Y-102977993D01*
X136388554Y-102955471D01*
X136398782Y-102933847D01*
X136411079Y-102913330D01*
X136425329Y-102894117D01*
X136441393Y-102876393D01*
X136459117Y-102860329D01*
X136478330Y-102846079D01*
X136498847Y-102833782D01*
X136520471Y-102823554D01*
X136542993Y-102815496D01*
X136566197Y-102809684D01*
X136589858Y-102806174D01*
X136613750Y-102805000D01*
X137101250Y-102805000D01*
X137125142Y-102806174D01*
G37*
G04 #@! TD.AperFunction*
G04 #@! TA.AperFunction,SMDPad,CuDef*
G36*
X139508142Y-110616674D02*
G01*
X139531803Y-110620184D01*
X139555007Y-110625996D01*
X139577529Y-110634054D01*
X139599153Y-110644282D01*
X139619670Y-110656579D01*
X139638883Y-110670829D01*
X139656607Y-110686893D01*
X139672671Y-110704617D01*
X139686921Y-110723830D01*
X139699218Y-110744347D01*
X139709446Y-110765971D01*
X139717504Y-110788493D01*
X139723316Y-110811697D01*
X139726826Y-110835358D01*
X139728000Y-110859250D01*
X139728000Y-111771750D01*
X139726826Y-111795642D01*
X139723316Y-111819303D01*
X139717504Y-111842507D01*
X139709446Y-111865029D01*
X139699218Y-111886653D01*
X139686921Y-111907170D01*
X139672671Y-111926383D01*
X139656607Y-111944107D01*
X139638883Y-111960171D01*
X139619670Y-111974421D01*
X139599153Y-111986718D01*
X139577529Y-111996946D01*
X139555007Y-112005004D01*
X139531803Y-112010816D01*
X139508142Y-112014326D01*
X139484250Y-112015500D01*
X138996750Y-112015500D01*
X138972858Y-112014326D01*
X138949197Y-112010816D01*
X138925993Y-112005004D01*
X138903471Y-111996946D01*
X138881847Y-111986718D01*
X138861330Y-111974421D01*
X138842117Y-111960171D01*
X138824393Y-111944107D01*
X138808329Y-111926383D01*
X138794079Y-111907170D01*
X138781782Y-111886653D01*
X138771554Y-111865029D01*
X138763496Y-111842507D01*
X138757684Y-111819303D01*
X138754174Y-111795642D01*
X138753000Y-111771750D01*
X138753000Y-110859250D01*
X138754174Y-110835358D01*
X138757684Y-110811697D01*
X138763496Y-110788493D01*
X138771554Y-110765971D01*
X138781782Y-110744347D01*
X138794079Y-110723830D01*
X138808329Y-110704617D01*
X138824393Y-110686893D01*
X138842117Y-110670829D01*
X138861330Y-110656579D01*
X138881847Y-110644282D01*
X138903471Y-110634054D01*
X138925993Y-110625996D01*
X138949197Y-110620184D01*
X138972858Y-110616674D01*
X138996750Y-110615500D01*
X139484250Y-110615500D01*
X139508142Y-110616674D01*
G37*
G04 #@! TD.AperFunction*
G04 #@! TA.AperFunction,SMDPad,CuDef*
G36*
X137633142Y-110616674D02*
G01*
X137656803Y-110620184D01*
X137680007Y-110625996D01*
X137702529Y-110634054D01*
X137724153Y-110644282D01*
X137744670Y-110656579D01*
X137763883Y-110670829D01*
X137781607Y-110686893D01*
X137797671Y-110704617D01*
X137811921Y-110723830D01*
X137824218Y-110744347D01*
X137834446Y-110765971D01*
X137842504Y-110788493D01*
X137848316Y-110811697D01*
X137851826Y-110835358D01*
X137853000Y-110859250D01*
X137853000Y-111771750D01*
X137851826Y-111795642D01*
X137848316Y-111819303D01*
X137842504Y-111842507D01*
X137834446Y-111865029D01*
X137824218Y-111886653D01*
X137811921Y-111907170D01*
X137797671Y-111926383D01*
X137781607Y-111944107D01*
X137763883Y-111960171D01*
X137744670Y-111974421D01*
X137724153Y-111986718D01*
X137702529Y-111996946D01*
X137680007Y-112005004D01*
X137656803Y-112010816D01*
X137633142Y-112014326D01*
X137609250Y-112015500D01*
X137121750Y-112015500D01*
X137097858Y-112014326D01*
X137074197Y-112010816D01*
X137050993Y-112005004D01*
X137028471Y-111996946D01*
X137006847Y-111986718D01*
X136986330Y-111974421D01*
X136967117Y-111960171D01*
X136949393Y-111944107D01*
X136933329Y-111926383D01*
X136919079Y-111907170D01*
X136906782Y-111886653D01*
X136896554Y-111865029D01*
X136888496Y-111842507D01*
X136882684Y-111819303D01*
X136879174Y-111795642D01*
X136878000Y-111771750D01*
X136878000Y-110859250D01*
X136879174Y-110835358D01*
X136882684Y-110811697D01*
X136888496Y-110788493D01*
X136896554Y-110765971D01*
X136906782Y-110744347D01*
X136919079Y-110723830D01*
X136933329Y-110704617D01*
X136949393Y-110686893D01*
X136967117Y-110670829D01*
X136986330Y-110656579D01*
X137006847Y-110644282D01*
X137028471Y-110634054D01*
X137050993Y-110625996D01*
X137074197Y-110620184D01*
X137097858Y-110616674D01*
X137121750Y-110615500D01*
X137609250Y-110615500D01*
X137633142Y-110616674D01*
G37*
G04 #@! TD.AperFunction*
G04 #@! TA.AperFunction,SMDPad,CuDef*
G36*
X145380142Y-152336174D02*
G01*
X145403803Y-152339684D01*
X145427007Y-152345496D01*
X145449529Y-152353554D01*
X145471153Y-152363782D01*
X145491670Y-152376079D01*
X145510883Y-152390329D01*
X145528607Y-152406393D01*
X145544671Y-152424117D01*
X145558921Y-152443330D01*
X145571218Y-152463847D01*
X145581446Y-152485471D01*
X145589504Y-152507993D01*
X145595316Y-152531197D01*
X145598826Y-152554858D01*
X145600000Y-152578750D01*
X145600000Y-153491250D01*
X145598826Y-153515142D01*
X145595316Y-153538803D01*
X145589504Y-153562007D01*
X145581446Y-153584529D01*
X145571218Y-153606153D01*
X145558921Y-153626670D01*
X145544671Y-153645883D01*
X145528607Y-153663607D01*
X145510883Y-153679671D01*
X145491670Y-153693921D01*
X145471153Y-153706218D01*
X145449529Y-153716446D01*
X145427007Y-153724504D01*
X145403803Y-153730316D01*
X145380142Y-153733826D01*
X145356250Y-153735000D01*
X144868750Y-153735000D01*
X144844858Y-153733826D01*
X144821197Y-153730316D01*
X144797993Y-153724504D01*
X144775471Y-153716446D01*
X144753847Y-153706218D01*
X144733330Y-153693921D01*
X144714117Y-153679671D01*
X144696393Y-153663607D01*
X144680329Y-153645883D01*
X144666079Y-153626670D01*
X144653782Y-153606153D01*
X144643554Y-153584529D01*
X144635496Y-153562007D01*
X144629684Y-153538803D01*
X144626174Y-153515142D01*
X144625000Y-153491250D01*
X144625000Y-152578750D01*
X144626174Y-152554858D01*
X144629684Y-152531197D01*
X144635496Y-152507993D01*
X144643554Y-152485471D01*
X144653782Y-152463847D01*
X144666079Y-152443330D01*
X144680329Y-152424117D01*
X144696393Y-152406393D01*
X144714117Y-152390329D01*
X144733330Y-152376079D01*
X144753847Y-152363782D01*
X144775471Y-152353554D01*
X144797993Y-152345496D01*
X144821197Y-152339684D01*
X144844858Y-152336174D01*
X144868750Y-152335000D01*
X145356250Y-152335000D01*
X145380142Y-152336174D01*
G37*
G04 #@! TD.AperFunction*
G04 #@! TA.AperFunction,SMDPad,CuDef*
G36*
X147255142Y-152336174D02*
G01*
X147278803Y-152339684D01*
X147302007Y-152345496D01*
X147324529Y-152353554D01*
X147346153Y-152363782D01*
X147366670Y-152376079D01*
X147385883Y-152390329D01*
X147403607Y-152406393D01*
X147419671Y-152424117D01*
X147433921Y-152443330D01*
X147446218Y-152463847D01*
X147456446Y-152485471D01*
X147464504Y-152507993D01*
X147470316Y-152531197D01*
X147473826Y-152554858D01*
X147475000Y-152578750D01*
X147475000Y-153491250D01*
X147473826Y-153515142D01*
X147470316Y-153538803D01*
X147464504Y-153562007D01*
X147456446Y-153584529D01*
X147446218Y-153606153D01*
X147433921Y-153626670D01*
X147419671Y-153645883D01*
X147403607Y-153663607D01*
X147385883Y-153679671D01*
X147366670Y-153693921D01*
X147346153Y-153706218D01*
X147324529Y-153716446D01*
X147302007Y-153724504D01*
X147278803Y-153730316D01*
X147255142Y-153733826D01*
X147231250Y-153735000D01*
X146743750Y-153735000D01*
X146719858Y-153733826D01*
X146696197Y-153730316D01*
X146672993Y-153724504D01*
X146650471Y-153716446D01*
X146628847Y-153706218D01*
X146608330Y-153693921D01*
X146589117Y-153679671D01*
X146571393Y-153663607D01*
X146555329Y-153645883D01*
X146541079Y-153626670D01*
X146528782Y-153606153D01*
X146518554Y-153584529D01*
X146510496Y-153562007D01*
X146504684Y-153538803D01*
X146501174Y-153515142D01*
X146500000Y-153491250D01*
X146500000Y-152578750D01*
X146501174Y-152554858D01*
X146504684Y-152531197D01*
X146510496Y-152507993D01*
X146518554Y-152485471D01*
X146528782Y-152463847D01*
X146541079Y-152443330D01*
X146555329Y-152424117D01*
X146571393Y-152406393D01*
X146589117Y-152390329D01*
X146608330Y-152376079D01*
X146628847Y-152363782D01*
X146650471Y-152353554D01*
X146672993Y-152345496D01*
X146696197Y-152339684D01*
X146719858Y-152336174D01*
X146743750Y-152335000D01*
X147231250Y-152335000D01*
X147255142Y-152336174D01*
G37*
G04 #@! TD.AperFunction*
G04 #@! TA.AperFunction,SMDPad,CuDef*
G36*
X151065142Y-152336174D02*
G01*
X151088803Y-152339684D01*
X151112007Y-152345496D01*
X151134529Y-152353554D01*
X151156153Y-152363782D01*
X151176670Y-152376079D01*
X151195883Y-152390329D01*
X151213607Y-152406393D01*
X151229671Y-152424117D01*
X151243921Y-152443330D01*
X151256218Y-152463847D01*
X151266446Y-152485471D01*
X151274504Y-152507993D01*
X151280316Y-152531197D01*
X151283826Y-152554858D01*
X151285000Y-152578750D01*
X151285000Y-153491250D01*
X151283826Y-153515142D01*
X151280316Y-153538803D01*
X151274504Y-153562007D01*
X151266446Y-153584529D01*
X151256218Y-153606153D01*
X151243921Y-153626670D01*
X151229671Y-153645883D01*
X151213607Y-153663607D01*
X151195883Y-153679671D01*
X151176670Y-153693921D01*
X151156153Y-153706218D01*
X151134529Y-153716446D01*
X151112007Y-153724504D01*
X151088803Y-153730316D01*
X151065142Y-153733826D01*
X151041250Y-153735000D01*
X150553750Y-153735000D01*
X150529858Y-153733826D01*
X150506197Y-153730316D01*
X150482993Y-153724504D01*
X150460471Y-153716446D01*
X150438847Y-153706218D01*
X150418330Y-153693921D01*
X150399117Y-153679671D01*
X150381393Y-153663607D01*
X150365329Y-153645883D01*
X150351079Y-153626670D01*
X150338782Y-153606153D01*
X150328554Y-153584529D01*
X150320496Y-153562007D01*
X150314684Y-153538803D01*
X150311174Y-153515142D01*
X150310000Y-153491250D01*
X150310000Y-152578750D01*
X150311174Y-152554858D01*
X150314684Y-152531197D01*
X150320496Y-152507993D01*
X150328554Y-152485471D01*
X150338782Y-152463847D01*
X150351079Y-152443330D01*
X150365329Y-152424117D01*
X150381393Y-152406393D01*
X150399117Y-152390329D01*
X150418330Y-152376079D01*
X150438847Y-152363782D01*
X150460471Y-152353554D01*
X150482993Y-152345496D01*
X150506197Y-152339684D01*
X150529858Y-152336174D01*
X150553750Y-152335000D01*
X151041250Y-152335000D01*
X151065142Y-152336174D01*
G37*
G04 #@! TD.AperFunction*
G04 #@! TA.AperFunction,SMDPad,CuDef*
G36*
X149190142Y-152336174D02*
G01*
X149213803Y-152339684D01*
X149237007Y-152345496D01*
X149259529Y-152353554D01*
X149281153Y-152363782D01*
X149301670Y-152376079D01*
X149320883Y-152390329D01*
X149338607Y-152406393D01*
X149354671Y-152424117D01*
X149368921Y-152443330D01*
X149381218Y-152463847D01*
X149391446Y-152485471D01*
X149399504Y-152507993D01*
X149405316Y-152531197D01*
X149408826Y-152554858D01*
X149410000Y-152578750D01*
X149410000Y-153491250D01*
X149408826Y-153515142D01*
X149405316Y-153538803D01*
X149399504Y-153562007D01*
X149391446Y-153584529D01*
X149381218Y-153606153D01*
X149368921Y-153626670D01*
X149354671Y-153645883D01*
X149338607Y-153663607D01*
X149320883Y-153679671D01*
X149301670Y-153693921D01*
X149281153Y-153706218D01*
X149259529Y-153716446D01*
X149237007Y-153724504D01*
X149213803Y-153730316D01*
X149190142Y-153733826D01*
X149166250Y-153735000D01*
X148678750Y-153735000D01*
X148654858Y-153733826D01*
X148631197Y-153730316D01*
X148607993Y-153724504D01*
X148585471Y-153716446D01*
X148563847Y-153706218D01*
X148543330Y-153693921D01*
X148524117Y-153679671D01*
X148506393Y-153663607D01*
X148490329Y-153645883D01*
X148476079Y-153626670D01*
X148463782Y-153606153D01*
X148453554Y-153584529D01*
X148445496Y-153562007D01*
X148439684Y-153538803D01*
X148436174Y-153515142D01*
X148435000Y-153491250D01*
X148435000Y-152578750D01*
X148436174Y-152554858D01*
X148439684Y-152531197D01*
X148445496Y-152507993D01*
X148453554Y-152485471D01*
X148463782Y-152463847D01*
X148476079Y-152443330D01*
X148490329Y-152424117D01*
X148506393Y-152406393D01*
X148524117Y-152390329D01*
X148543330Y-152376079D01*
X148563847Y-152363782D01*
X148585471Y-152353554D01*
X148607993Y-152345496D01*
X148631197Y-152339684D01*
X148654858Y-152336174D01*
X148678750Y-152335000D01*
X149166250Y-152335000D01*
X149190142Y-152336174D01*
G37*
G04 #@! TD.AperFunction*
G04 #@! TA.AperFunction,SMDPad,CuDef*
G36*
X138365142Y-97091174D02*
G01*
X138388803Y-97094684D01*
X138412007Y-97100496D01*
X138434529Y-97108554D01*
X138456153Y-97118782D01*
X138476670Y-97131079D01*
X138495883Y-97145329D01*
X138513607Y-97161393D01*
X138529671Y-97179117D01*
X138543921Y-97198330D01*
X138556218Y-97218847D01*
X138566446Y-97240471D01*
X138574504Y-97262993D01*
X138580316Y-97286197D01*
X138583826Y-97309858D01*
X138585000Y-97333750D01*
X138585000Y-98246250D01*
X138583826Y-98270142D01*
X138580316Y-98293803D01*
X138574504Y-98317007D01*
X138566446Y-98339529D01*
X138556218Y-98361153D01*
X138543921Y-98381670D01*
X138529671Y-98400883D01*
X138513607Y-98418607D01*
X138495883Y-98434671D01*
X138476670Y-98448921D01*
X138456153Y-98461218D01*
X138434529Y-98471446D01*
X138412007Y-98479504D01*
X138388803Y-98485316D01*
X138365142Y-98488826D01*
X138341250Y-98490000D01*
X137853750Y-98490000D01*
X137829858Y-98488826D01*
X137806197Y-98485316D01*
X137782993Y-98479504D01*
X137760471Y-98471446D01*
X137738847Y-98461218D01*
X137718330Y-98448921D01*
X137699117Y-98434671D01*
X137681393Y-98418607D01*
X137665329Y-98400883D01*
X137651079Y-98381670D01*
X137638782Y-98361153D01*
X137628554Y-98339529D01*
X137620496Y-98317007D01*
X137614684Y-98293803D01*
X137611174Y-98270142D01*
X137610000Y-98246250D01*
X137610000Y-97333750D01*
X137611174Y-97309858D01*
X137614684Y-97286197D01*
X137620496Y-97262993D01*
X137628554Y-97240471D01*
X137638782Y-97218847D01*
X137651079Y-97198330D01*
X137665329Y-97179117D01*
X137681393Y-97161393D01*
X137699117Y-97145329D01*
X137718330Y-97131079D01*
X137738847Y-97118782D01*
X137760471Y-97108554D01*
X137782993Y-97100496D01*
X137806197Y-97094684D01*
X137829858Y-97091174D01*
X137853750Y-97090000D01*
X138341250Y-97090000D01*
X138365142Y-97091174D01*
G37*
G04 #@! TD.AperFunction*
G04 #@! TA.AperFunction,SMDPad,CuDef*
G36*
X136490142Y-97091174D02*
G01*
X136513803Y-97094684D01*
X136537007Y-97100496D01*
X136559529Y-97108554D01*
X136581153Y-97118782D01*
X136601670Y-97131079D01*
X136620883Y-97145329D01*
X136638607Y-97161393D01*
X136654671Y-97179117D01*
X136668921Y-97198330D01*
X136681218Y-97218847D01*
X136691446Y-97240471D01*
X136699504Y-97262993D01*
X136705316Y-97286197D01*
X136708826Y-97309858D01*
X136710000Y-97333750D01*
X136710000Y-98246250D01*
X136708826Y-98270142D01*
X136705316Y-98293803D01*
X136699504Y-98317007D01*
X136691446Y-98339529D01*
X136681218Y-98361153D01*
X136668921Y-98381670D01*
X136654671Y-98400883D01*
X136638607Y-98418607D01*
X136620883Y-98434671D01*
X136601670Y-98448921D01*
X136581153Y-98461218D01*
X136559529Y-98471446D01*
X136537007Y-98479504D01*
X136513803Y-98485316D01*
X136490142Y-98488826D01*
X136466250Y-98490000D01*
X135978750Y-98490000D01*
X135954858Y-98488826D01*
X135931197Y-98485316D01*
X135907993Y-98479504D01*
X135885471Y-98471446D01*
X135863847Y-98461218D01*
X135843330Y-98448921D01*
X135824117Y-98434671D01*
X135806393Y-98418607D01*
X135790329Y-98400883D01*
X135776079Y-98381670D01*
X135763782Y-98361153D01*
X135753554Y-98339529D01*
X135745496Y-98317007D01*
X135739684Y-98293803D01*
X135736174Y-98270142D01*
X135735000Y-98246250D01*
X135735000Y-97333750D01*
X135736174Y-97309858D01*
X135739684Y-97286197D01*
X135745496Y-97262993D01*
X135753554Y-97240471D01*
X135763782Y-97218847D01*
X135776079Y-97198330D01*
X135790329Y-97179117D01*
X135806393Y-97161393D01*
X135824117Y-97145329D01*
X135843330Y-97131079D01*
X135863847Y-97118782D01*
X135885471Y-97108554D01*
X135907993Y-97100496D01*
X135931197Y-97094684D01*
X135954858Y-97091174D01*
X135978750Y-97090000D01*
X136466250Y-97090000D01*
X136490142Y-97091174D01*
G37*
G04 #@! TD.AperFunction*
G04 #@! TA.AperFunction,SMDPad,CuDef*
G36*
X126210142Y-107161174D02*
G01*
X126233803Y-107164684D01*
X126257007Y-107170496D01*
X126279529Y-107178554D01*
X126301153Y-107188782D01*
X126321670Y-107201079D01*
X126340883Y-107215329D01*
X126358607Y-107231393D01*
X126374671Y-107249117D01*
X126388921Y-107268330D01*
X126401218Y-107288847D01*
X126411446Y-107310471D01*
X126419504Y-107332993D01*
X126425316Y-107356197D01*
X126428826Y-107379858D01*
X126430000Y-107403750D01*
X126430000Y-107891250D01*
X126428826Y-107915142D01*
X126425316Y-107938803D01*
X126419504Y-107962007D01*
X126411446Y-107984529D01*
X126401218Y-108006153D01*
X126388921Y-108026670D01*
X126374671Y-108045883D01*
X126358607Y-108063607D01*
X126340883Y-108079671D01*
X126321670Y-108093921D01*
X126301153Y-108106218D01*
X126279529Y-108116446D01*
X126257007Y-108124504D01*
X126233803Y-108130316D01*
X126210142Y-108133826D01*
X126186250Y-108135000D01*
X125273750Y-108135000D01*
X125249858Y-108133826D01*
X125226197Y-108130316D01*
X125202993Y-108124504D01*
X125180471Y-108116446D01*
X125158847Y-108106218D01*
X125138330Y-108093921D01*
X125119117Y-108079671D01*
X125101393Y-108063607D01*
X125085329Y-108045883D01*
X125071079Y-108026670D01*
X125058782Y-108006153D01*
X125048554Y-107984529D01*
X125040496Y-107962007D01*
X125034684Y-107938803D01*
X125031174Y-107915142D01*
X125030000Y-107891250D01*
X125030000Y-107403750D01*
X125031174Y-107379858D01*
X125034684Y-107356197D01*
X125040496Y-107332993D01*
X125048554Y-107310471D01*
X125058782Y-107288847D01*
X125071079Y-107268330D01*
X125085329Y-107249117D01*
X125101393Y-107231393D01*
X125119117Y-107215329D01*
X125138330Y-107201079D01*
X125158847Y-107188782D01*
X125180471Y-107178554D01*
X125202993Y-107170496D01*
X125226197Y-107164684D01*
X125249858Y-107161174D01*
X125273750Y-107160000D01*
X126186250Y-107160000D01*
X126210142Y-107161174D01*
G37*
G04 #@! TD.AperFunction*
G04 #@! TA.AperFunction,SMDPad,CuDef*
G36*
X126210142Y-109036174D02*
G01*
X126233803Y-109039684D01*
X126257007Y-109045496D01*
X126279529Y-109053554D01*
X126301153Y-109063782D01*
X126321670Y-109076079D01*
X126340883Y-109090329D01*
X126358607Y-109106393D01*
X126374671Y-109124117D01*
X126388921Y-109143330D01*
X126401218Y-109163847D01*
X126411446Y-109185471D01*
X126419504Y-109207993D01*
X126425316Y-109231197D01*
X126428826Y-109254858D01*
X126430000Y-109278750D01*
X126430000Y-109766250D01*
X126428826Y-109790142D01*
X126425316Y-109813803D01*
X126419504Y-109837007D01*
X126411446Y-109859529D01*
X126401218Y-109881153D01*
X126388921Y-109901670D01*
X126374671Y-109920883D01*
X126358607Y-109938607D01*
X126340883Y-109954671D01*
X126321670Y-109968921D01*
X126301153Y-109981218D01*
X126279529Y-109991446D01*
X126257007Y-109999504D01*
X126233803Y-110005316D01*
X126210142Y-110008826D01*
X126186250Y-110010000D01*
X125273750Y-110010000D01*
X125249858Y-110008826D01*
X125226197Y-110005316D01*
X125202993Y-109999504D01*
X125180471Y-109991446D01*
X125158847Y-109981218D01*
X125138330Y-109968921D01*
X125119117Y-109954671D01*
X125101393Y-109938607D01*
X125085329Y-109920883D01*
X125071079Y-109901670D01*
X125058782Y-109881153D01*
X125048554Y-109859529D01*
X125040496Y-109837007D01*
X125034684Y-109813803D01*
X125031174Y-109790142D01*
X125030000Y-109766250D01*
X125030000Y-109278750D01*
X125031174Y-109254858D01*
X125034684Y-109231197D01*
X125040496Y-109207993D01*
X125048554Y-109185471D01*
X125058782Y-109163847D01*
X125071079Y-109143330D01*
X125085329Y-109124117D01*
X125101393Y-109106393D01*
X125119117Y-109090329D01*
X125138330Y-109076079D01*
X125158847Y-109063782D01*
X125180471Y-109053554D01*
X125202993Y-109045496D01*
X125226197Y-109039684D01*
X125249858Y-109036174D01*
X125273750Y-109035000D01*
X126186250Y-109035000D01*
X126210142Y-109036174D01*
G37*
G04 #@! TD.AperFunction*
G04 #@! TA.AperFunction,SMDPad,CuDef*
G36*
X107885142Y-97091174D02*
G01*
X107908803Y-97094684D01*
X107932007Y-97100496D01*
X107954529Y-97108554D01*
X107976153Y-97118782D01*
X107996670Y-97131079D01*
X108015883Y-97145329D01*
X108033607Y-97161393D01*
X108049671Y-97179117D01*
X108063921Y-97198330D01*
X108076218Y-97218847D01*
X108086446Y-97240471D01*
X108094504Y-97262993D01*
X108100316Y-97286197D01*
X108103826Y-97309858D01*
X108105000Y-97333750D01*
X108105000Y-98246250D01*
X108103826Y-98270142D01*
X108100316Y-98293803D01*
X108094504Y-98317007D01*
X108086446Y-98339529D01*
X108076218Y-98361153D01*
X108063921Y-98381670D01*
X108049671Y-98400883D01*
X108033607Y-98418607D01*
X108015883Y-98434671D01*
X107996670Y-98448921D01*
X107976153Y-98461218D01*
X107954529Y-98471446D01*
X107932007Y-98479504D01*
X107908803Y-98485316D01*
X107885142Y-98488826D01*
X107861250Y-98490000D01*
X107373750Y-98490000D01*
X107349858Y-98488826D01*
X107326197Y-98485316D01*
X107302993Y-98479504D01*
X107280471Y-98471446D01*
X107258847Y-98461218D01*
X107238330Y-98448921D01*
X107219117Y-98434671D01*
X107201393Y-98418607D01*
X107185329Y-98400883D01*
X107171079Y-98381670D01*
X107158782Y-98361153D01*
X107148554Y-98339529D01*
X107140496Y-98317007D01*
X107134684Y-98293803D01*
X107131174Y-98270142D01*
X107130000Y-98246250D01*
X107130000Y-97333750D01*
X107131174Y-97309858D01*
X107134684Y-97286197D01*
X107140496Y-97262993D01*
X107148554Y-97240471D01*
X107158782Y-97218847D01*
X107171079Y-97198330D01*
X107185329Y-97179117D01*
X107201393Y-97161393D01*
X107219117Y-97145329D01*
X107238330Y-97131079D01*
X107258847Y-97118782D01*
X107280471Y-97108554D01*
X107302993Y-97100496D01*
X107326197Y-97094684D01*
X107349858Y-97091174D01*
X107373750Y-97090000D01*
X107861250Y-97090000D01*
X107885142Y-97091174D01*
G37*
G04 #@! TD.AperFunction*
G04 #@! TA.AperFunction,SMDPad,CuDef*
G36*
X106010142Y-97091174D02*
G01*
X106033803Y-97094684D01*
X106057007Y-97100496D01*
X106079529Y-97108554D01*
X106101153Y-97118782D01*
X106121670Y-97131079D01*
X106140883Y-97145329D01*
X106158607Y-97161393D01*
X106174671Y-97179117D01*
X106188921Y-97198330D01*
X106201218Y-97218847D01*
X106211446Y-97240471D01*
X106219504Y-97262993D01*
X106225316Y-97286197D01*
X106228826Y-97309858D01*
X106230000Y-97333750D01*
X106230000Y-98246250D01*
X106228826Y-98270142D01*
X106225316Y-98293803D01*
X106219504Y-98317007D01*
X106211446Y-98339529D01*
X106201218Y-98361153D01*
X106188921Y-98381670D01*
X106174671Y-98400883D01*
X106158607Y-98418607D01*
X106140883Y-98434671D01*
X106121670Y-98448921D01*
X106101153Y-98461218D01*
X106079529Y-98471446D01*
X106057007Y-98479504D01*
X106033803Y-98485316D01*
X106010142Y-98488826D01*
X105986250Y-98490000D01*
X105498750Y-98490000D01*
X105474858Y-98488826D01*
X105451197Y-98485316D01*
X105427993Y-98479504D01*
X105405471Y-98471446D01*
X105383847Y-98461218D01*
X105363330Y-98448921D01*
X105344117Y-98434671D01*
X105326393Y-98418607D01*
X105310329Y-98400883D01*
X105296079Y-98381670D01*
X105283782Y-98361153D01*
X105273554Y-98339529D01*
X105265496Y-98317007D01*
X105259684Y-98293803D01*
X105256174Y-98270142D01*
X105255000Y-98246250D01*
X105255000Y-97333750D01*
X105256174Y-97309858D01*
X105259684Y-97286197D01*
X105265496Y-97262993D01*
X105273554Y-97240471D01*
X105283782Y-97218847D01*
X105296079Y-97198330D01*
X105310329Y-97179117D01*
X105326393Y-97161393D01*
X105344117Y-97145329D01*
X105363330Y-97131079D01*
X105383847Y-97118782D01*
X105405471Y-97108554D01*
X105427993Y-97100496D01*
X105451197Y-97094684D01*
X105474858Y-97091174D01*
X105498750Y-97090000D01*
X105986250Y-97090000D01*
X106010142Y-97091174D01*
G37*
G04 #@! TD.AperFunction*
G04 #@! TA.AperFunction,SMDPad,CuDef*
G36*
X106010142Y-111061174D02*
G01*
X106033803Y-111064684D01*
X106057007Y-111070496D01*
X106079529Y-111078554D01*
X106101153Y-111088782D01*
X106121670Y-111101079D01*
X106140883Y-111115329D01*
X106158607Y-111131393D01*
X106174671Y-111149117D01*
X106188921Y-111168330D01*
X106201218Y-111188847D01*
X106211446Y-111210471D01*
X106219504Y-111232993D01*
X106225316Y-111256197D01*
X106228826Y-111279858D01*
X106230000Y-111303750D01*
X106230000Y-112216250D01*
X106228826Y-112240142D01*
X106225316Y-112263803D01*
X106219504Y-112287007D01*
X106211446Y-112309529D01*
X106201218Y-112331153D01*
X106188921Y-112351670D01*
X106174671Y-112370883D01*
X106158607Y-112388607D01*
X106140883Y-112404671D01*
X106121670Y-112418921D01*
X106101153Y-112431218D01*
X106079529Y-112441446D01*
X106057007Y-112449504D01*
X106033803Y-112455316D01*
X106010142Y-112458826D01*
X105986250Y-112460000D01*
X105498750Y-112460000D01*
X105474858Y-112458826D01*
X105451197Y-112455316D01*
X105427993Y-112449504D01*
X105405471Y-112441446D01*
X105383847Y-112431218D01*
X105363330Y-112418921D01*
X105344117Y-112404671D01*
X105326393Y-112388607D01*
X105310329Y-112370883D01*
X105296079Y-112351670D01*
X105283782Y-112331153D01*
X105273554Y-112309529D01*
X105265496Y-112287007D01*
X105259684Y-112263803D01*
X105256174Y-112240142D01*
X105255000Y-112216250D01*
X105255000Y-111303750D01*
X105256174Y-111279858D01*
X105259684Y-111256197D01*
X105265496Y-111232993D01*
X105273554Y-111210471D01*
X105283782Y-111188847D01*
X105296079Y-111168330D01*
X105310329Y-111149117D01*
X105326393Y-111131393D01*
X105344117Y-111115329D01*
X105363330Y-111101079D01*
X105383847Y-111088782D01*
X105405471Y-111078554D01*
X105427993Y-111070496D01*
X105451197Y-111064684D01*
X105474858Y-111061174D01*
X105498750Y-111060000D01*
X105986250Y-111060000D01*
X106010142Y-111061174D01*
G37*
G04 #@! TD.AperFunction*
G04 #@! TA.AperFunction,SMDPad,CuDef*
G36*
X107885142Y-111061174D02*
G01*
X107908803Y-111064684D01*
X107932007Y-111070496D01*
X107954529Y-111078554D01*
X107976153Y-111088782D01*
X107996670Y-111101079D01*
X108015883Y-111115329D01*
X108033607Y-111131393D01*
X108049671Y-111149117D01*
X108063921Y-111168330D01*
X108076218Y-111188847D01*
X108086446Y-111210471D01*
X108094504Y-111232993D01*
X108100316Y-111256197D01*
X108103826Y-111279858D01*
X108105000Y-111303750D01*
X108105000Y-112216250D01*
X108103826Y-112240142D01*
X108100316Y-112263803D01*
X108094504Y-112287007D01*
X108086446Y-112309529D01*
X108076218Y-112331153D01*
X108063921Y-112351670D01*
X108049671Y-112370883D01*
X108033607Y-112388607D01*
X108015883Y-112404671D01*
X107996670Y-112418921D01*
X107976153Y-112431218D01*
X107954529Y-112441446D01*
X107932007Y-112449504D01*
X107908803Y-112455316D01*
X107885142Y-112458826D01*
X107861250Y-112460000D01*
X107373750Y-112460000D01*
X107349858Y-112458826D01*
X107326197Y-112455316D01*
X107302993Y-112449504D01*
X107280471Y-112441446D01*
X107258847Y-112431218D01*
X107238330Y-112418921D01*
X107219117Y-112404671D01*
X107201393Y-112388607D01*
X107185329Y-112370883D01*
X107171079Y-112351670D01*
X107158782Y-112331153D01*
X107148554Y-112309529D01*
X107140496Y-112287007D01*
X107134684Y-112263803D01*
X107131174Y-112240142D01*
X107130000Y-112216250D01*
X107130000Y-111303750D01*
X107131174Y-111279858D01*
X107134684Y-111256197D01*
X107140496Y-111232993D01*
X107148554Y-111210471D01*
X107158782Y-111188847D01*
X107171079Y-111168330D01*
X107185329Y-111149117D01*
X107201393Y-111131393D01*
X107219117Y-111115329D01*
X107238330Y-111101079D01*
X107258847Y-111088782D01*
X107280471Y-111078554D01*
X107302993Y-111070496D01*
X107326197Y-111064684D01*
X107349858Y-111061174D01*
X107373750Y-111060000D01*
X107861250Y-111060000D01*
X107885142Y-111061174D01*
G37*
G04 #@! TD.AperFunction*
G04 #@! TA.AperFunction,SMDPad,CuDef*
G36*
X112240142Y-102686174D02*
G01*
X112263803Y-102689684D01*
X112287007Y-102695496D01*
X112309529Y-102703554D01*
X112331153Y-102713782D01*
X112351670Y-102726079D01*
X112370883Y-102740329D01*
X112388607Y-102756393D01*
X112404671Y-102774117D01*
X112418921Y-102793330D01*
X112431218Y-102813847D01*
X112441446Y-102835471D01*
X112449504Y-102857993D01*
X112455316Y-102881197D01*
X112458826Y-102904858D01*
X112460000Y-102928750D01*
X112460000Y-103416250D01*
X112458826Y-103440142D01*
X112455316Y-103463803D01*
X112449504Y-103487007D01*
X112441446Y-103509529D01*
X112431218Y-103531153D01*
X112418921Y-103551670D01*
X112404671Y-103570883D01*
X112388607Y-103588607D01*
X112370883Y-103604671D01*
X112351670Y-103618921D01*
X112331153Y-103631218D01*
X112309529Y-103641446D01*
X112287007Y-103649504D01*
X112263803Y-103655316D01*
X112240142Y-103658826D01*
X112216250Y-103660000D01*
X111303750Y-103660000D01*
X111279858Y-103658826D01*
X111256197Y-103655316D01*
X111232993Y-103649504D01*
X111210471Y-103641446D01*
X111188847Y-103631218D01*
X111168330Y-103618921D01*
X111149117Y-103604671D01*
X111131393Y-103588607D01*
X111115329Y-103570883D01*
X111101079Y-103551670D01*
X111088782Y-103531153D01*
X111078554Y-103509529D01*
X111070496Y-103487007D01*
X111064684Y-103463803D01*
X111061174Y-103440142D01*
X111060000Y-103416250D01*
X111060000Y-102928750D01*
X111061174Y-102904858D01*
X111064684Y-102881197D01*
X111070496Y-102857993D01*
X111078554Y-102835471D01*
X111088782Y-102813847D01*
X111101079Y-102793330D01*
X111115329Y-102774117D01*
X111131393Y-102756393D01*
X111149117Y-102740329D01*
X111168330Y-102726079D01*
X111188847Y-102713782D01*
X111210471Y-102703554D01*
X111232993Y-102695496D01*
X111256197Y-102689684D01*
X111279858Y-102686174D01*
X111303750Y-102685000D01*
X112216250Y-102685000D01*
X112240142Y-102686174D01*
G37*
G04 #@! TD.AperFunction*
G04 #@! TA.AperFunction,SMDPad,CuDef*
G36*
X112240142Y-100811174D02*
G01*
X112263803Y-100814684D01*
X112287007Y-100820496D01*
X112309529Y-100828554D01*
X112331153Y-100838782D01*
X112351670Y-100851079D01*
X112370883Y-100865329D01*
X112388607Y-100881393D01*
X112404671Y-100899117D01*
X112418921Y-100918330D01*
X112431218Y-100938847D01*
X112441446Y-100960471D01*
X112449504Y-100982993D01*
X112455316Y-101006197D01*
X112458826Y-101029858D01*
X112460000Y-101053750D01*
X112460000Y-101541250D01*
X112458826Y-101565142D01*
X112455316Y-101588803D01*
X112449504Y-101612007D01*
X112441446Y-101634529D01*
X112431218Y-101656153D01*
X112418921Y-101676670D01*
X112404671Y-101695883D01*
X112388607Y-101713607D01*
X112370883Y-101729671D01*
X112351670Y-101743921D01*
X112331153Y-101756218D01*
X112309529Y-101766446D01*
X112287007Y-101774504D01*
X112263803Y-101780316D01*
X112240142Y-101783826D01*
X112216250Y-101785000D01*
X111303750Y-101785000D01*
X111279858Y-101783826D01*
X111256197Y-101780316D01*
X111232993Y-101774504D01*
X111210471Y-101766446D01*
X111188847Y-101756218D01*
X111168330Y-101743921D01*
X111149117Y-101729671D01*
X111131393Y-101713607D01*
X111115329Y-101695883D01*
X111101079Y-101676670D01*
X111088782Y-101656153D01*
X111078554Y-101634529D01*
X111070496Y-101612007D01*
X111064684Y-101588803D01*
X111061174Y-101565142D01*
X111060000Y-101541250D01*
X111060000Y-101053750D01*
X111061174Y-101029858D01*
X111064684Y-101006197D01*
X111070496Y-100982993D01*
X111078554Y-100960471D01*
X111088782Y-100938847D01*
X111101079Y-100918330D01*
X111115329Y-100899117D01*
X111131393Y-100881393D01*
X111149117Y-100865329D01*
X111168330Y-100851079D01*
X111188847Y-100838782D01*
X111210471Y-100828554D01*
X111232993Y-100820496D01*
X111256197Y-100814684D01*
X111279858Y-100811174D01*
X111303750Y-100810000D01*
X112216250Y-100810000D01*
X112240142Y-100811174D01*
G37*
G04 #@! TD.AperFunction*
G04 #@! TA.AperFunction,SMDPad,CuDef*
G36*
X112240142Y-96446174D02*
G01*
X112263803Y-96449684D01*
X112287007Y-96455496D01*
X112309529Y-96463554D01*
X112331153Y-96473782D01*
X112351670Y-96486079D01*
X112370883Y-96500329D01*
X112388607Y-96516393D01*
X112404671Y-96534117D01*
X112418921Y-96553330D01*
X112431218Y-96573847D01*
X112441446Y-96595471D01*
X112449504Y-96617993D01*
X112455316Y-96641197D01*
X112458826Y-96664858D01*
X112460000Y-96688750D01*
X112460000Y-97176250D01*
X112458826Y-97200142D01*
X112455316Y-97223803D01*
X112449504Y-97247007D01*
X112441446Y-97269529D01*
X112431218Y-97291153D01*
X112418921Y-97311670D01*
X112404671Y-97330883D01*
X112388607Y-97348607D01*
X112370883Y-97364671D01*
X112351670Y-97378921D01*
X112331153Y-97391218D01*
X112309529Y-97401446D01*
X112287007Y-97409504D01*
X112263803Y-97415316D01*
X112240142Y-97418826D01*
X112216250Y-97420000D01*
X111303750Y-97420000D01*
X111279858Y-97418826D01*
X111256197Y-97415316D01*
X111232993Y-97409504D01*
X111210471Y-97401446D01*
X111188847Y-97391218D01*
X111168330Y-97378921D01*
X111149117Y-97364671D01*
X111131393Y-97348607D01*
X111115329Y-97330883D01*
X111101079Y-97311670D01*
X111088782Y-97291153D01*
X111078554Y-97269529D01*
X111070496Y-97247007D01*
X111064684Y-97223803D01*
X111061174Y-97200142D01*
X111060000Y-97176250D01*
X111060000Y-96688750D01*
X111061174Y-96664858D01*
X111064684Y-96641197D01*
X111070496Y-96617993D01*
X111078554Y-96595471D01*
X111088782Y-96573847D01*
X111101079Y-96553330D01*
X111115329Y-96534117D01*
X111131393Y-96516393D01*
X111149117Y-96500329D01*
X111168330Y-96486079D01*
X111188847Y-96473782D01*
X111210471Y-96463554D01*
X111232993Y-96455496D01*
X111256197Y-96449684D01*
X111279858Y-96446174D01*
X111303750Y-96445000D01*
X112216250Y-96445000D01*
X112240142Y-96446174D01*
G37*
G04 #@! TD.AperFunction*
G04 #@! TA.AperFunction,SMDPad,CuDef*
G36*
X112240142Y-98321174D02*
G01*
X112263803Y-98324684D01*
X112287007Y-98330496D01*
X112309529Y-98338554D01*
X112331153Y-98348782D01*
X112351670Y-98361079D01*
X112370883Y-98375329D01*
X112388607Y-98391393D01*
X112404671Y-98409117D01*
X112418921Y-98428330D01*
X112431218Y-98448847D01*
X112441446Y-98470471D01*
X112449504Y-98492993D01*
X112455316Y-98516197D01*
X112458826Y-98539858D01*
X112460000Y-98563750D01*
X112460000Y-99051250D01*
X112458826Y-99075142D01*
X112455316Y-99098803D01*
X112449504Y-99122007D01*
X112441446Y-99144529D01*
X112431218Y-99166153D01*
X112418921Y-99186670D01*
X112404671Y-99205883D01*
X112388607Y-99223607D01*
X112370883Y-99239671D01*
X112351670Y-99253921D01*
X112331153Y-99266218D01*
X112309529Y-99276446D01*
X112287007Y-99284504D01*
X112263803Y-99290316D01*
X112240142Y-99293826D01*
X112216250Y-99295000D01*
X111303750Y-99295000D01*
X111279858Y-99293826D01*
X111256197Y-99290316D01*
X111232993Y-99284504D01*
X111210471Y-99276446D01*
X111188847Y-99266218D01*
X111168330Y-99253921D01*
X111149117Y-99239671D01*
X111131393Y-99223607D01*
X111115329Y-99205883D01*
X111101079Y-99186670D01*
X111088782Y-99166153D01*
X111078554Y-99144529D01*
X111070496Y-99122007D01*
X111064684Y-99098803D01*
X111061174Y-99075142D01*
X111060000Y-99051250D01*
X111060000Y-98563750D01*
X111061174Y-98539858D01*
X111064684Y-98516197D01*
X111070496Y-98492993D01*
X111078554Y-98470471D01*
X111088782Y-98448847D01*
X111101079Y-98428330D01*
X111115329Y-98409117D01*
X111131393Y-98391393D01*
X111149117Y-98375329D01*
X111168330Y-98361079D01*
X111188847Y-98348782D01*
X111210471Y-98338554D01*
X111232993Y-98330496D01*
X111256197Y-98324684D01*
X111279858Y-98321174D01*
X111303750Y-98320000D01*
X112216250Y-98320000D01*
X112240142Y-98321174D01*
G37*
G04 #@! TD.AperFunction*
G04 #@! TA.AperFunction,SMDPad,CuDef*
G36*
X131925142Y-93796174D02*
G01*
X131948803Y-93799684D01*
X131972007Y-93805496D01*
X131994529Y-93813554D01*
X132016153Y-93823782D01*
X132036670Y-93836079D01*
X132055883Y-93850329D01*
X132073607Y-93866393D01*
X132089671Y-93884117D01*
X132103921Y-93903330D01*
X132116218Y-93923847D01*
X132126446Y-93945471D01*
X132134504Y-93967993D01*
X132140316Y-93991197D01*
X132143826Y-94014858D01*
X132145000Y-94038750D01*
X132145000Y-94526250D01*
X132143826Y-94550142D01*
X132140316Y-94573803D01*
X132134504Y-94597007D01*
X132126446Y-94619529D01*
X132116218Y-94641153D01*
X132103921Y-94661670D01*
X132089671Y-94680883D01*
X132073607Y-94698607D01*
X132055883Y-94714671D01*
X132036670Y-94728921D01*
X132016153Y-94741218D01*
X131994529Y-94751446D01*
X131972007Y-94759504D01*
X131948803Y-94765316D01*
X131925142Y-94768826D01*
X131901250Y-94770000D01*
X130988750Y-94770000D01*
X130964858Y-94768826D01*
X130941197Y-94765316D01*
X130917993Y-94759504D01*
X130895471Y-94751446D01*
X130873847Y-94741218D01*
X130853330Y-94728921D01*
X130834117Y-94714671D01*
X130816393Y-94698607D01*
X130800329Y-94680883D01*
X130786079Y-94661670D01*
X130773782Y-94641153D01*
X130763554Y-94619529D01*
X130755496Y-94597007D01*
X130749684Y-94573803D01*
X130746174Y-94550142D01*
X130745000Y-94526250D01*
X130745000Y-94038750D01*
X130746174Y-94014858D01*
X130749684Y-93991197D01*
X130755496Y-93967993D01*
X130763554Y-93945471D01*
X130773782Y-93923847D01*
X130786079Y-93903330D01*
X130800329Y-93884117D01*
X130816393Y-93866393D01*
X130834117Y-93850329D01*
X130853330Y-93836079D01*
X130873847Y-93823782D01*
X130895471Y-93813554D01*
X130917993Y-93805496D01*
X130941197Y-93799684D01*
X130964858Y-93796174D01*
X130988750Y-93795000D01*
X131901250Y-93795000D01*
X131925142Y-93796174D01*
G37*
G04 #@! TD.AperFunction*
G04 #@! TA.AperFunction,SMDPad,CuDef*
G36*
X131925142Y-91921174D02*
G01*
X131948803Y-91924684D01*
X131972007Y-91930496D01*
X131994529Y-91938554D01*
X132016153Y-91948782D01*
X132036670Y-91961079D01*
X132055883Y-91975329D01*
X132073607Y-91991393D01*
X132089671Y-92009117D01*
X132103921Y-92028330D01*
X132116218Y-92048847D01*
X132126446Y-92070471D01*
X132134504Y-92092993D01*
X132140316Y-92116197D01*
X132143826Y-92139858D01*
X132145000Y-92163750D01*
X132145000Y-92651250D01*
X132143826Y-92675142D01*
X132140316Y-92698803D01*
X132134504Y-92722007D01*
X132126446Y-92744529D01*
X132116218Y-92766153D01*
X132103921Y-92786670D01*
X132089671Y-92805883D01*
X132073607Y-92823607D01*
X132055883Y-92839671D01*
X132036670Y-92853921D01*
X132016153Y-92866218D01*
X131994529Y-92876446D01*
X131972007Y-92884504D01*
X131948803Y-92890316D01*
X131925142Y-92893826D01*
X131901250Y-92895000D01*
X130988750Y-92895000D01*
X130964858Y-92893826D01*
X130941197Y-92890316D01*
X130917993Y-92884504D01*
X130895471Y-92876446D01*
X130873847Y-92866218D01*
X130853330Y-92853921D01*
X130834117Y-92839671D01*
X130816393Y-92823607D01*
X130800329Y-92805883D01*
X130786079Y-92786670D01*
X130773782Y-92766153D01*
X130763554Y-92744529D01*
X130755496Y-92722007D01*
X130749684Y-92698803D01*
X130746174Y-92675142D01*
X130745000Y-92651250D01*
X130745000Y-92163750D01*
X130746174Y-92139858D01*
X130749684Y-92116197D01*
X130755496Y-92092993D01*
X130763554Y-92070471D01*
X130773782Y-92048847D01*
X130786079Y-92028330D01*
X130800329Y-92009117D01*
X130816393Y-91991393D01*
X130834117Y-91975329D01*
X130853330Y-91961079D01*
X130873847Y-91948782D01*
X130895471Y-91938554D01*
X130917993Y-91930496D01*
X130941197Y-91924684D01*
X130964858Y-91921174D01*
X130988750Y-91920000D01*
X131901250Y-91920000D01*
X131925142Y-91921174D01*
G37*
G04 #@! TD.AperFunction*
G04 #@! TA.AperFunction,SMDPad,CuDef*
G36*
X105826642Y-128751174D02*
G01*
X105850303Y-128754684D01*
X105873507Y-128760496D01*
X105896029Y-128768554D01*
X105917653Y-128778782D01*
X105938170Y-128791079D01*
X105957383Y-128805329D01*
X105975107Y-128821393D01*
X105991171Y-128839117D01*
X106005421Y-128858330D01*
X106017718Y-128878847D01*
X106027946Y-128900471D01*
X106036004Y-128922993D01*
X106041816Y-128946197D01*
X106045326Y-128969858D01*
X106046500Y-128993750D01*
X106046500Y-129481250D01*
X106045326Y-129505142D01*
X106041816Y-129528803D01*
X106036004Y-129552007D01*
X106027946Y-129574529D01*
X106017718Y-129596153D01*
X106005421Y-129616670D01*
X105991171Y-129635883D01*
X105975107Y-129653607D01*
X105957383Y-129669671D01*
X105938170Y-129683921D01*
X105917653Y-129696218D01*
X105896029Y-129706446D01*
X105873507Y-129714504D01*
X105850303Y-129720316D01*
X105826642Y-129723826D01*
X105802750Y-129725000D01*
X104890250Y-129725000D01*
X104866358Y-129723826D01*
X104842697Y-129720316D01*
X104819493Y-129714504D01*
X104796971Y-129706446D01*
X104775347Y-129696218D01*
X104754830Y-129683921D01*
X104735617Y-129669671D01*
X104717893Y-129653607D01*
X104701829Y-129635883D01*
X104687579Y-129616670D01*
X104675282Y-129596153D01*
X104665054Y-129574529D01*
X104656996Y-129552007D01*
X104651184Y-129528803D01*
X104647674Y-129505142D01*
X104646500Y-129481250D01*
X104646500Y-128993750D01*
X104647674Y-128969858D01*
X104651184Y-128946197D01*
X104656996Y-128922993D01*
X104665054Y-128900471D01*
X104675282Y-128878847D01*
X104687579Y-128858330D01*
X104701829Y-128839117D01*
X104717893Y-128821393D01*
X104735617Y-128805329D01*
X104754830Y-128791079D01*
X104775347Y-128778782D01*
X104796971Y-128768554D01*
X104819493Y-128760496D01*
X104842697Y-128754684D01*
X104866358Y-128751174D01*
X104890250Y-128750000D01*
X105802750Y-128750000D01*
X105826642Y-128751174D01*
G37*
G04 #@! TD.AperFunction*
G04 #@! TA.AperFunction,SMDPad,CuDef*
G36*
X105826642Y-130626174D02*
G01*
X105850303Y-130629684D01*
X105873507Y-130635496D01*
X105896029Y-130643554D01*
X105917653Y-130653782D01*
X105938170Y-130666079D01*
X105957383Y-130680329D01*
X105975107Y-130696393D01*
X105991171Y-130714117D01*
X106005421Y-130733330D01*
X106017718Y-130753847D01*
X106027946Y-130775471D01*
X106036004Y-130797993D01*
X106041816Y-130821197D01*
X106045326Y-130844858D01*
X106046500Y-130868750D01*
X106046500Y-131356250D01*
X106045326Y-131380142D01*
X106041816Y-131403803D01*
X106036004Y-131427007D01*
X106027946Y-131449529D01*
X106017718Y-131471153D01*
X106005421Y-131491670D01*
X105991171Y-131510883D01*
X105975107Y-131528607D01*
X105957383Y-131544671D01*
X105938170Y-131558921D01*
X105917653Y-131571218D01*
X105896029Y-131581446D01*
X105873507Y-131589504D01*
X105850303Y-131595316D01*
X105826642Y-131598826D01*
X105802750Y-131600000D01*
X104890250Y-131600000D01*
X104866358Y-131598826D01*
X104842697Y-131595316D01*
X104819493Y-131589504D01*
X104796971Y-131581446D01*
X104775347Y-131571218D01*
X104754830Y-131558921D01*
X104735617Y-131544671D01*
X104717893Y-131528607D01*
X104701829Y-131510883D01*
X104687579Y-131491670D01*
X104675282Y-131471153D01*
X104665054Y-131449529D01*
X104656996Y-131427007D01*
X104651184Y-131403803D01*
X104647674Y-131380142D01*
X104646500Y-131356250D01*
X104646500Y-130868750D01*
X104647674Y-130844858D01*
X104651184Y-130821197D01*
X104656996Y-130797993D01*
X104665054Y-130775471D01*
X104675282Y-130753847D01*
X104687579Y-130733330D01*
X104701829Y-130714117D01*
X104717893Y-130696393D01*
X104735617Y-130680329D01*
X104754830Y-130666079D01*
X104775347Y-130653782D01*
X104796971Y-130643554D01*
X104819493Y-130635496D01*
X104842697Y-130629684D01*
X104866358Y-130626174D01*
X104890250Y-130625000D01*
X105802750Y-130625000D01*
X105826642Y-130626174D01*
G37*
G04 #@! TD.AperFunction*
G04 #@! TA.AperFunction,SMDPad,CuDef*
G36*
X136370142Y-119861174D02*
G01*
X136393803Y-119864684D01*
X136417007Y-119870496D01*
X136439529Y-119878554D01*
X136461153Y-119888782D01*
X136481670Y-119901079D01*
X136500883Y-119915329D01*
X136518607Y-119931393D01*
X136534671Y-119949117D01*
X136548921Y-119968330D01*
X136561218Y-119988847D01*
X136571446Y-120010471D01*
X136579504Y-120032993D01*
X136585316Y-120056197D01*
X136588826Y-120079858D01*
X136590000Y-120103750D01*
X136590000Y-120591250D01*
X136588826Y-120615142D01*
X136585316Y-120638803D01*
X136579504Y-120662007D01*
X136571446Y-120684529D01*
X136561218Y-120706153D01*
X136548921Y-120726670D01*
X136534671Y-120745883D01*
X136518607Y-120763607D01*
X136500883Y-120779671D01*
X136481670Y-120793921D01*
X136461153Y-120806218D01*
X136439529Y-120816446D01*
X136417007Y-120824504D01*
X136393803Y-120830316D01*
X136370142Y-120833826D01*
X136346250Y-120835000D01*
X135433750Y-120835000D01*
X135409858Y-120833826D01*
X135386197Y-120830316D01*
X135362993Y-120824504D01*
X135340471Y-120816446D01*
X135318847Y-120806218D01*
X135298330Y-120793921D01*
X135279117Y-120779671D01*
X135261393Y-120763607D01*
X135245329Y-120745883D01*
X135231079Y-120726670D01*
X135218782Y-120706153D01*
X135208554Y-120684529D01*
X135200496Y-120662007D01*
X135194684Y-120638803D01*
X135191174Y-120615142D01*
X135190000Y-120591250D01*
X135190000Y-120103750D01*
X135191174Y-120079858D01*
X135194684Y-120056197D01*
X135200496Y-120032993D01*
X135208554Y-120010471D01*
X135218782Y-119988847D01*
X135231079Y-119968330D01*
X135245329Y-119949117D01*
X135261393Y-119931393D01*
X135279117Y-119915329D01*
X135298330Y-119901079D01*
X135318847Y-119888782D01*
X135340471Y-119878554D01*
X135362993Y-119870496D01*
X135386197Y-119864684D01*
X135409858Y-119861174D01*
X135433750Y-119860000D01*
X136346250Y-119860000D01*
X136370142Y-119861174D01*
G37*
G04 #@! TD.AperFunction*
G04 #@! TA.AperFunction,SMDPad,CuDef*
G36*
X136370142Y-121736174D02*
G01*
X136393803Y-121739684D01*
X136417007Y-121745496D01*
X136439529Y-121753554D01*
X136461153Y-121763782D01*
X136481670Y-121776079D01*
X136500883Y-121790329D01*
X136518607Y-121806393D01*
X136534671Y-121824117D01*
X136548921Y-121843330D01*
X136561218Y-121863847D01*
X136571446Y-121885471D01*
X136579504Y-121907993D01*
X136585316Y-121931197D01*
X136588826Y-121954858D01*
X136590000Y-121978750D01*
X136590000Y-122466250D01*
X136588826Y-122490142D01*
X136585316Y-122513803D01*
X136579504Y-122537007D01*
X136571446Y-122559529D01*
X136561218Y-122581153D01*
X136548921Y-122601670D01*
X136534671Y-122620883D01*
X136518607Y-122638607D01*
X136500883Y-122654671D01*
X136481670Y-122668921D01*
X136461153Y-122681218D01*
X136439529Y-122691446D01*
X136417007Y-122699504D01*
X136393803Y-122705316D01*
X136370142Y-122708826D01*
X136346250Y-122710000D01*
X135433750Y-122710000D01*
X135409858Y-122708826D01*
X135386197Y-122705316D01*
X135362993Y-122699504D01*
X135340471Y-122691446D01*
X135318847Y-122681218D01*
X135298330Y-122668921D01*
X135279117Y-122654671D01*
X135261393Y-122638607D01*
X135245329Y-122620883D01*
X135231079Y-122601670D01*
X135218782Y-122581153D01*
X135208554Y-122559529D01*
X135200496Y-122537007D01*
X135194684Y-122513803D01*
X135191174Y-122490142D01*
X135190000Y-122466250D01*
X135190000Y-121978750D01*
X135191174Y-121954858D01*
X135194684Y-121931197D01*
X135200496Y-121907993D01*
X135208554Y-121885471D01*
X135218782Y-121863847D01*
X135231079Y-121843330D01*
X135245329Y-121824117D01*
X135261393Y-121806393D01*
X135279117Y-121790329D01*
X135298330Y-121776079D01*
X135318847Y-121763782D01*
X135340471Y-121753554D01*
X135362993Y-121745496D01*
X135386197Y-121739684D01*
X135409858Y-121736174D01*
X135433750Y-121735000D01*
X136346250Y-121735000D01*
X136370142Y-121736174D01*
G37*
G04 #@! TD.AperFunction*
G04 #@! TA.AperFunction,SMDPad,CuDef*
G36*
X137730142Y-117411174D02*
G01*
X137753803Y-117414684D01*
X137777007Y-117420496D01*
X137799529Y-117428554D01*
X137821153Y-117438782D01*
X137841670Y-117451079D01*
X137860883Y-117465329D01*
X137878607Y-117481393D01*
X137894671Y-117499117D01*
X137908921Y-117518330D01*
X137921218Y-117538847D01*
X137931446Y-117560471D01*
X137939504Y-117582993D01*
X137945316Y-117606197D01*
X137948826Y-117629858D01*
X137950000Y-117653750D01*
X137950000Y-118566250D01*
X137948826Y-118590142D01*
X137945316Y-118613803D01*
X137939504Y-118637007D01*
X137931446Y-118659529D01*
X137921218Y-118681153D01*
X137908921Y-118701670D01*
X137894671Y-118720883D01*
X137878607Y-118738607D01*
X137860883Y-118754671D01*
X137841670Y-118768921D01*
X137821153Y-118781218D01*
X137799529Y-118791446D01*
X137777007Y-118799504D01*
X137753803Y-118805316D01*
X137730142Y-118808826D01*
X137706250Y-118810000D01*
X137218750Y-118810000D01*
X137194858Y-118808826D01*
X137171197Y-118805316D01*
X137147993Y-118799504D01*
X137125471Y-118791446D01*
X137103847Y-118781218D01*
X137083330Y-118768921D01*
X137064117Y-118754671D01*
X137046393Y-118738607D01*
X137030329Y-118720883D01*
X137016079Y-118701670D01*
X137003782Y-118681153D01*
X136993554Y-118659529D01*
X136985496Y-118637007D01*
X136979684Y-118613803D01*
X136976174Y-118590142D01*
X136975000Y-118566250D01*
X136975000Y-117653750D01*
X136976174Y-117629858D01*
X136979684Y-117606197D01*
X136985496Y-117582993D01*
X136993554Y-117560471D01*
X137003782Y-117538847D01*
X137016079Y-117518330D01*
X137030329Y-117499117D01*
X137046393Y-117481393D01*
X137064117Y-117465329D01*
X137083330Y-117451079D01*
X137103847Y-117438782D01*
X137125471Y-117428554D01*
X137147993Y-117420496D01*
X137171197Y-117414684D01*
X137194858Y-117411174D01*
X137218750Y-117410000D01*
X137706250Y-117410000D01*
X137730142Y-117411174D01*
G37*
G04 #@! TD.AperFunction*
G04 #@! TA.AperFunction,SMDPad,CuDef*
G36*
X135855142Y-117411174D02*
G01*
X135878803Y-117414684D01*
X135902007Y-117420496D01*
X135924529Y-117428554D01*
X135946153Y-117438782D01*
X135966670Y-117451079D01*
X135985883Y-117465329D01*
X136003607Y-117481393D01*
X136019671Y-117499117D01*
X136033921Y-117518330D01*
X136046218Y-117538847D01*
X136056446Y-117560471D01*
X136064504Y-117582993D01*
X136070316Y-117606197D01*
X136073826Y-117629858D01*
X136075000Y-117653750D01*
X136075000Y-118566250D01*
X136073826Y-118590142D01*
X136070316Y-118613803D01*
X136064504Y-118637007D01*
X136056446Y-118659529D01*
X136046218Y-118681153D01*
X136033921Y-118701670D01*
X136019671Y-118720883D01*
X136003607Y-118738607D01*
X135985883Y-118754671D01*
X135966670Y-118768921D01*
X135946153Y-118781218D01*
X135924529Y-118791446D01*
X135902007Y-118799504D01*
X135878803Y-118805316D01*
X135855142Y-118808826D01*
X135831250Y-118810000D01*
X135343750Y-118810000D01*
X135319858Y-118808826D01*
X135296197Y-118805316D01*
X135272993Y-118799504D01*
X135250471Y-118791446D01*
X135228847Y-118781218D01*
X135208330Y-118768921D01*
X135189117Y-118754671D01*
X135171393Y-118738607D01*
X135155329Y-118720883D01*
X135141079Y-118701670D01*
X135128782Y-118681153D01*
X135118554Y-118659529D01*
X135110496Y-118637007D01*
X135104684Y-118613803D01*
X135101174Y-118590142D01*
X135100000Y-118566250D01*
X135100000Y-117653750D01*
X135101174Y-117629858D01*
X135104684Y-117606197D01*
X135110496Y-117582993D01*
X135118554Y-117560471D01*
X135128782Y-117538847D01*
X135141079Y-117518330D01*
X135155329Y-117499117D01*
X135171393Y-117481393D01*
X135189117Y-117465329D01*
X135208330Y-117451079D01*
X135228847Y-117438782D01*
X135250471Y-117428554D01*
X135272993Y-117420496D01*
X135296197Y-117414684D01*
X135319858Y-117411174D01*
X135343750Y-117410000D01*
X135831250Y-117410000D01*
X135855142Y-117411174D01*
G37*
G04 #@! TD.AperFunction*
G04 #@! TA.AperFunction,SMDPad,CuDef*
G36*
X140935142Y-117411174D02*
G01*
X140958803Y-117414684D01*
X140982007Y-117420496D01*
X141004529Y-117428554D01*
X141026153Y-117438782D01*
X141046670Y-117451079D01*
X141065883Y-117465329D01*
X141083607Y-117481393D01*
X141099671Y-117499117D01*
X141113921Y-117518330D01*
X141126218Y-117538847D01*
X141136446Y-117560471D01*
X141144504Y-117582993D01*
X141150316Y-117606197D01*
X141153826Y-117629858D01*
X141155000Y-117653750D01*
X141155000Y-118566250D01*
X141153826Y-118590142D01*
X141150316Y-118613803D01*
X141144504Y-118637007D01*
X141136446Y-118659529D01*
X141126218Y-118681153D01*
X141113921Y-118701670D01*
X141099671Y-118720883D01*
X141083607Y-118738607D01*
X141065883Y-118754671D01*
X141046670Y-118768921D01*
X141026153Y-118781218D01*
X141004529Y-118791446D01*
X140982007Y-118799504D01*
X140958803Y-118805316D01*
X140935142Y-118808826D01*
X140911250Y-118810000D01*
X140423750Y-118810000D01*
X140399858Y-118808826D01*
X140376197Y-118805316D01*
X140352993Y-118799504D01*
X140330471Y-118791446D01*
X140308847Y-118781218D01*
X140288330Y-118768921D01*
X140269117Y-118754671D01*
X140251393Y-118738607D01*
X140235329Y-118720883D01*
X140221079Y-118701670D01*
X140208782Y-118681153D01*
X140198554Y-118659529D01*
X140190496Y-118637007D01*
X140184684Y-118613803D01*
X140181174Y-118590142D01*
X140180000Y-118566250D01*
X140180000Y-117653750D01*
X140181174Y-117629858D01*
X140184684Y-117606197D01*
X140190496Y-117582993D01*
X140198554Y-117560471D01*
X140208782Y-117538847D01*
X140221079Y-117518330D01*
X140235329Y-117499117D01*
X140251393Y-117481393D01*
X140269117Y-117465329D01*
X140288330Y-117451079D01*
X140308847Y-117438782D01*
X140330471Y-117428554D01*
X140352993Y-117420496D01*
X140376197Y-117414684D01*
X140399858Y-117411174D01*
X140423750Y-117410000D01*
X140911250Y-117410000D01*
X140935142Y-117411174D01*
G37*
G04 #@! TD.AperFunction*
G04 #@! TA.AperFunction,SMDPad,CuDef*
G36*
X142810142Y-117411174D02*
G01*
X142833803Y-117414684D01*
X142857007Y-117420496D01*
X142879529Y-117428554D01*
X142901153Y-117438782D01*
X142921670Y-117451079D01*
X142940883Y-117465329D01*
X142958607Y-117481393D01*
X142974671Y-117499117D01*
X142988921Y-117518330D01*
X143001218Y-117538847D01*
X143011446Y-117560471D01*
X143019504Y-117582993D01*
X143025316Y-117606197D01*
X143028826Y-117629858D01*
X143030000Y-117653750D01*
X143030000Y-118566250D01*
X143028826Y-118590142D01*
X143025316Y-118613803D01*
X143019504Y-118637007D01*
X143011446Y-118659529D01*
X143001218Y-118681153D01*
X142988921Y-118701670D01*
X142974671Y-118720883D01*
X142958607Y-118738607D01*
X142940883Y-118754671D01*
X142921670Y-118768921D01*
X142901153Y-118781218D01*
X142879529Y-118791446D01*
X142857007Y-118799504D01*
X142833803Y-118805316D01*
X142810142Y-118808826D01*
X142786250Y-118810000D01*
X142298750Y-118810000D01*
X142274858Y-118808826D01*
X142251197Y-118805316D01*
X142227993Y-118799504D01*
X142205471Y-118791446D01*
X142183847Y-118781218D01*
X142163330Y-118768921D01*
X142144117Y-118754671D01*
X142126393Y-118738607D01*
X142110329Y-118720883D01*
X142096079Y-118701670D01*
X142083782Y-118681153D01*
X142073554Y-118659529D01*
X142065496Y-118637007D01*
X142059684Y-118613803D01*
X142056174Y-118590142D01*
X142055000Y-118566250D01*
X142055000Y-117653750D01*
X142056174Y-117629858D01*
X142059684Y-117606197D01*
X142065496Y-117582993D01*
X142073554Y-117560471D01*
X142083782Y-117538847D01*
X142096079Y-117518330D01*
X142110329Y-117499117D01*
X142126393Y-117481393D01*
X142144117Y-117465329D01*
X142163330Y-117451079D01*
X142183847Y-117438782D01*
X142205471Y-117428554D01*
X142227993Y-117420496D01*
X142251197Y-117414684D01*
X142274858Y-117411174D01*
X142298750Y-117410000D01*
X142786250Y-117410000D01*
X142810142Y-117411174D01*
G37*
G04 #@! TD.AperFunction*
G04 #@! TA.AperFunction,SMDPad,CuDef*
G36*
X140935142Y-123761174D02*
G01*
X140958803Y-123764684D01*
X140982007Y-123770496D01*
X141004529Y-123778554D01*
X141026153Y-123788782D01*
X141046670Y-123801079D01*
X141065883Y-123815329D01*
X141083607Y-123831393D01*
X141099671Y-123849117D01*
X141113921Y-123868330D01*
X141126218Y-123888847D01*
X141136446Y-123910471D01*
X141144504Y-123932993D01*
X141150316Y-123956197D01*
X141153826Y-123979858D01*
X141155000Y-124003750D01*
X141155000Y-124916250D01*
X141153826Y-124940142D01*
X141150316Y-124963803D01*
X141144504Y-124987007D01*
X141136446Y-125009529D01*
X141126218Y-125031153D01*
X141113921Y-125051670D01*
X141099671Y-125070883D01*
X141083607Y-125088607D01*
X141065883Y-125104671D01*
X141046670Y-125118921D01*
X141026153Y-125131218D01*
X141004529Y-125141446D01*
X140982007Y-125149504D01*
X140958803Y-125155316D01*
X140935142Y-125158826D01*
X140911250Y-125160000D01*
X140423750Y-125160000D01*
X140399858Y-125158826D01*
X140376197Y-125155316D01*
X140352993Y-125149504D01*
X140330471Y-125141446D01*
X140308847Y-125131218D01*
X140288330Y-125118921D01*
X140269117Y-125104671D01*
X140251393Y-125088607D01*
X140235329Y-125070883D01*
X140221079Y-125051670D01*
X140208782Y-125031153D01*
X140198554Y-125009529D01*
X140190496Y-124987007D01*
X140184684Y-124963803D01*
X140181174Y-124940142D01*
X140180000Y-124916250D01*
X140180000Y-124003750D01*
X140181174Y-123979858D01*
X140184684Y-123956197D01*
X140190496Y-123932993D01*
X140198554Y-123910471D01*
X140208782Y-123888847D01*
X140221079Y-123868330D01*
X140235329Y-123849117D01*
X140251393Y-123831393D01*
X140269117Y-123815329D01*
X140288330Y-123801079D01*
X140308847Y-123788782D01*
X140330471Y-123778554D01*
X140352993Y-123770496D01*
X140376197Y-123764684D01*
X140399858Y-123761174D01*
X140423750Y-123760000D01*
X140911250Y-123760000D01*
X140935142Y-123761174D01*
G37*
G04 #@! TD.AperFunction*
G04 #@! TA.AperFunction,SMDPad,CuDef*
G36*
X142810142Y-123761174D02*
G01*
X142833803Y-123764684D01*
X142857007Y-123770496D01*
X142879529Y-123778554D01*
X142901153Y-123788782D01*
X142921670Y-123801079D01*
X142940883Y-123815329D01*
X142958607Y-123831393D01*
X142974671Y-123849117D01*
X142988921Y-123868330D01*
X143001218Y-123888847D01*
X143011446Y-123910471D01*
X143019504Y-123932993D01*
X143025316Y-123956197D01*
X143028826Y-123979858D01*
X143030000Y-124003750D01*
X143030000Y-124916250D01*
X143028826Y-124940142D01*
X143025316Y-124963803D01*
X143019504Y-124987007D01*
X143011446Y-125009529D01*
X143001218Y-125031153D01*
X142988921Y-125051670D01*
X142974671Y-125070883D01*
X142958607Y-125088607D01*
X142940883Y-125104671D01*
X142921670Y-125118921D01*
X142901153Y-125131218D01*
X142879529Y-125141446D01*
X142857007Y-125149504D01*
X142833803Y-125155316D01*
X142810142Y-125158826D01*
X142786250Y-125160000D01*
X142298750Y-125160000D01*
X142274858Y-125158826D01*
X142251197Y-125155316D01*
X142227993Y-125149504D01*
X142205471Y-125141446D01*
X142183847Y-125131218D01*
X142163330Y-125118921D01*
X142144117Y-125104671D01*
X142126393Y-125088607D01*
X142110329Y-125070883D01*
X142096079Y-125051670D01*
X142083782Y-125031153D01*
X142073554Y-125009529D01*
X142065496Y-124987007D01*
X142059684Y-124963803D01*
X142056174Y-124940142D01*
X142055000Y-124916250D01*
X142055000Y-124003750D01*
X142056174Y-123979858D01*
X142059684Y-123956197D01*
X142065496Y-123932993D01*
X142073554Y-123910471D01*
X142083782Y-123888847D01*
X142096079Y-123868330D01*
X142110329Y-123849117D01*
X142126393Y-123831393D01*
X142144117Y-123815329D01*
X142163330Y-123801079D01*
X142183847Y-123788782D01*
X142205471Y-123778554D01*
X142227993Y-123770496D01*
X142251197Y-123764684D01*
X142274858Y-123761174D01*
X142298750Y-123760000D01*
X142786250Y-123760000D01*
X142810142Y-123761174D01*
G37*
G04 #@! TD.AperFunction*
G04 #@! TA.AperFunction,SMDPad,CuDef*
G36*
X94550142Y-130946174D02*
G01*
X94573803Y-130949684D01*
X94597007Y-130955496D01*
X94619529Y-130963554D01*
X94641153Y-130973782D01*
X94661670Y-130986079D01*
X94680883Y-131000329D01*
X94698607Y-131016393D01*
X94714671Y-131034117D01*
X94728921Y-131053330D01*
X94741218Y-131073847D01*
X94751446Y-131095471D01*
X94759504Y-131117993D01*
X94765316Y-131141197D01*
X94768826Y-131164858D01*
X94770000Y-131188750D01*
X94770000Y-132101250D01*
X94768826Y-132125142D01*
X94765316Y-132148803D01*
X94759504Y-132172007D01*
X94751446Y-132194529D01*
X94741218Y-132216153D01*
X94728921Y-132236670D01*
X94714671Y-132255883D01*
X94698607Y-132273607D01*
X94680883Y-132289671D01*
X94661670Y-132303921D01*
X94641153Y-132316218D01*
X94619529Y-132326446D01*
X94597007Y-132334504D01*
X94573803Y-132340316D01*
X94550142Y-132343826D01*
X94526250Y-132345000D01*
X94038750Y-132345000D01*
X94014858Y-132343826D01*
X93991197Y-132340316D01*
X93967993Y-132334504D01*
X93945471Y-132326446D01*
X93923847Y-132316218D01*
X93903330Y-132303921D01*
X93884117Y-132289671D01*
X93866393Y-132273607D01*
X93850329Y-132255883D01*
X93836079Y-132236670D01*
X93823782Y-132216153D01*
X93813554Y-132194529D01*
X93805496Y-132172007D01*
X93799684Y-132148803D01*
X93796174Y-132125142D01*
X93795000Y-132101250D01*
X93795000Y-131188750D01*
X93796174Y-131164858D01*
X93799684Y-131141197D01*
X93805496Y-131117993D01*
X93813554Y-131095471D01*
X93823782Y-131073847D01*
X93836079Y-131053330D01*
X93850329Y-131034117D01*
X93866393Y-131016393D01*
X93884117Y-131000329D01*
X93903330Y-130986079D01*
X93923847Y-130973782D01*
X93945471Y-130963554D01*
X93967993Y-130955496D01*
X93991197Y-130949684D01*
X94014858Y-130946174D01*
X94038750Y-130945000D01*
X94526250Y-130945000D01*
X94550142Y-130946174D01*
G37*
G04 #@! TD.AperFunction*
G04 #@! TA.AperFunction,SMDPad,CuDef*
G36*
X92675142Y-130946174D02*
G01*
X92698803Y-130949684D01*
X92722007Y-130955496D01*
X92744529Y-130963554D01*
X92766153Y-130973782D01*
X92786670Y-130986079D01*
X92805883Y-131000329D01*
X92823607Y-131016393D01*
X92839671Y-131034117D01*
X92853921Y-131053330D01*
X92866218Y-131073847D01*
X92876446Y-131095471D01*
X92884504Y-131117993D01*
X92890316Y-131141197D01*
X92893826Y-131164858D01*
X92895000Y-131188750D01*
X92895000Y-132101250D01*
X92893826Y-132125142D01*
X92890316Y-132148803D01*
X92884504Y-132172007D01*
X92876446Y-132194529D01*
X92866218Y-132216153D01*
X92853921Y-132236670D01*
X92839671Y-132255883D01*
X92823607Y-132273607D01*
X92805883Y-132289671D01*
X92786670Y-132303921D01*
X92766153Y-132316218D01*
X92744529Y-132326446D01*
X92722007Y-132334504D01*
X92698803Y-132340316D01*
X92675142Y-132343826D01*
X92651250Y-132345000D01*
X92163750Y-132345000D01*
X92139858Y-132343826D01*
X92116197Y-132340316D01*
X92092993Y-132334504D01*
X92070471Y-132326446D01*
X92048847Y-132316218D01*
X92028330Y-132303921D01*
X92009117Y-132289671D01*
X91991393Y-132273607D01*
X91975329Y-132255883D01*
X91961079Y-132236670D01*
X91948782Y-132216153D01*
X91938554Y-132194529D01*
X91930496Y-132172007D01*
X91924684Y-132148803D01*
X91921174Y-132125142D01*
X91920000Y-132101250D01*
X91920000Y-131188750D01*
X91921174Y-131164858D01*
X91924684Y-131141197D01*
X91930496Y-131117993D01*
X91938554Y-131095471D01*
X91948782Y-131073847D01*
X91961079Y-131053330D01*
X91975329Y-131034117D01*
X91991393Y-131016393D01*
X92009117Y-131000329D01*
X92028330Y-130986079D01*
X92048847Y-130973782D01*
X92070471Y-130963554D01*
X92092993Y-130955496D01*
X92116197Y-130949684D01*
X92139858Y-130946174D01*
X92163750Y-130945000D01*
X92651250Y-130945000D01*
X92675142Y-130946174D01*
G37*
G04 #@! TD.AperFunction*
G04 #@! TA.AperFunction,SMDPad,CuDef*
G36*
X147101642Y-143262674D02*
G01*
X147125303Y-143266184D01*
X147148507Y-143271996D01*
X147171029Y-143280054D01*
X147192653Y-143290282D01*
X147213170Y-143302579D01*
X147232383Y-143316829D01*
X147250107Y-143332893D01*
X147266171Y-143350617D01*
X147280421Y-143369830D01*
X147292718Y-143390347D01*
X147302946Y-143411971D01*
X147311004Y-143434493D01*
X147316816Y-143457697D01*
X147320326Y-143481358D01*
X147321500Y-143505250D01*
X147321500Y-143992750D01*
X147320326Y-144016642D01*
X147316816Y-144040303D01*
X147311004Y-144063507D01*
X147302946Y-144086029D01*
X147292718Y-144107653D01*
X147280421Y-144128170D01*
X147266171Y-144147383D01*
X147250107Y-144165107D01*
X147232383Y-144181171D01*
X147213170Y-144195421D01*
X147192653Y-144207718D01*
X147171029Y-144217946D01*
X147148507Y-144226004D01*
X147125303Y-144231816D01*
X147101642Y-144235326D01*
X147077750Y-144236500D01*
X146165250Y-144236500D01*
X146141358Y-144235326D01*
X146117697Y-144231816D01*
X146094493Y-144226004D01*
X146071971Y-144217946D01*
X146050347Y-144207718D01*
X146029830Y-144195421D01*
X146010617Y-144181171D01*
X145992893Y-144165107D01*
X145976829Y-144147383D01*
X145962579Y-144128170D01*
X145950282Y-144107653D01*
X145940054Y-144086029D01*
X145931996Y-144063507D01*
X145926184Y-144040303D01*
X145922674Y-144016642D01*
X145921500Y-143992750D01*
X145921500Y-143505250D01*
X145922674Y-143481358D01*
X145926184Y-143457697D01*
X145931996Y-143434493D01*
X145940054Y-143411971D01*
X145950282Y-143390347D01*
X145962579Y-143369830D01*
X145976829Y-143350617D01*
X145992893Y-143332893D01*
X146010617Y-143316829D01*
X146029830Y-143302579D01*
X146050347Y-143290282D01*
X146071971Y-143280054D01*
X146094493Y-143271996D01*
X146117697Y-143266184D01*
X146141358Y-143262674D01*
X146165250Y-143261500D01*
X147077750Y-143261500D01*
X147101642Y-143262674D01*
G37*
G04 #@! TD.AperFunction*
G04 #@! TA.AperFunction,SMDPad,CuDef*
G36*
X147101642Y-141387674D02*
G01*
X147125303Y-141391184D01*
X147148507Y-141396996D01*
X147171029Y-141405054D01*
X147192653Y-141415282D01*
X147213170Y-141427579D01*
X147232383Y-141441829D01*
X147250107Y-141457893D01*
X147266171Y-141475617D01*
X147280421Y-141494830D01*
X147292718Y-141515347D01*
X147302946Y-141536971D01*
X147311004Y-141559493D01*
X147316816Y-141582697D01*
X147320326Y-141606358D01*
X147321500Y-141630250D01*
X147321500Y-142117750D01*
X147320326Y-142141642D01*
X147316816Y-142165303D01*
X147311004Y-142188507D01*
X147302946Y-142211029D01*
X147292718Y-142232653D01*
X147280421Y-142253170D01*
X147266171Y-142272383D01*
X147250107Y-142290107D01*
X147232383Y-142306171D01*
X147213170Y-142320421D01*
X147192653Y-142332718D01*
X147171029Y-142342946D01*
X147148507Y-142351004D01*
X147125303Y-142356816D01*
X147101642Y-142360326D01*
X147077750Y-142361500D01*
X146165250Y-142361500D01*
X146141358Y-142360326D01*
X146117697Y-142356816D01*
X146094493Y-142351004D01*
X146071971Y-142342946D01*
X146050347Y-142332718D01*
X146029830Y-142320421D01*
X146010617Y-142306171D01*
X145992893Y-142290107D01*
X145976829Y-142272383D01*
X145962579Y-142253170D01*
X145950282Y-142232653D01*
X145940054Y-142211029D01*
X145931996Y-142188507D01*
X145926184Y-142165303D01*
X145922674Y-142141642D01*
X145921500Y-142117750D01*
X145921500Y-141630250D01*
X145922674Y-141606358D01*
X145926184Y-141582697D01*
X145931996Y-141559493D01*
X145940054Y-141536971D01*
X145950282Y-141515347D01*
X145962579Y-141494830D01*
X145976829Y-141475617D01*
X145992893Y-141457893D01*
X146010617Y-141441829D01*
X146029830Y-141427579D01*
X146050347Y-141415282D01*
X146071971Y-141405054D01*
X146094493Y-141396996D01*
X146117697Y-141391184D01*
X146141358Y-141387674D01*
X146165250Y-141386500D01*
X147077750Y-141386500D01*
X147101642Y-141387674D01*
G37*
G04 #@! TD.AperFunction*
G04 #@! TA.AperFunction,SMDPad,CuDef*
G36*
X150784642Y-141387674D02*
G01*
X150808303Y-141391184D01*
X150831507Y-141396996D01*
X150854029Y-141405054D01*
X150875653Y-141415282D01*
X150896170Y-141427579D01*
X150915383Y-141441829D01*
X150933107Y-141457893D01*
X150949171Y-141475617D01*
X150963421Y-141494830D01*
X150975718Y-141515347D01*
X150985946Y-141536971D01*
X150994004Y-141559493D01*
X150999816Y-141582697D01*
X151003326Y-141606358D01*
X151004500Y-141630250D01*
X151004500Y-142117750D01*
X151003326Y-142141642D01*
X150999816Y-142165303D01*
X150994004Y-142188507D01*
X150985946Y-142211029D01*
X150975718Y-142232653D01*
X150963421Y-142253170D01*
X150949171Y-142272383D01*
X150933107Y-142290107D01*
X150915383Y-142306171D01*
X150896170Y-142320421D01*
X150875653Y-142332718D01*
X150854029Y-142342946D01*
X150831507Y-142351004D01*
X150808303Y-142356816D01*
X150784642Y-142360326D01*
X150760750Y-142361500D01*
X149848250Y-142361500D01*
X149824358Y-142360326D01*
X149800697Y-142356816D01*
X149777493Y-142351004D01*
X149754971Y-142342946D01*
X149733347Y-142332718D01*
X149712830Y-142320421D01*
X149693617Y-142306171D01*
X149675893Y-142290107D01*
X149659829Y-142272383D01*
X149645579Y-142253170D01*
X149633282Y-142232653D01*
X149623054Y-142211029D01*
X149614996Y-142188507D01*
X149609184Y-142165303D01*
X149605674Y-142141642D01*
X149604500Y-142117750D01*
X149604500Y-141630250D01*
X149605674Y-141606358D01*
X149609184Y-141582697D01*
X149614996Y-141559493D01*
X149623054Y-141536971D01*
X149633282Y-141515347D01*
X149645579Y-141494830D01*
X149659829Y-141475617D01*
X149675893Y-141457893D01*
X149693617Y-141441829D01*
X149712830Y-141427579D01*
X149733347Y-141415282D01*
X149754971Y-141405054D01*
X149777493Y-141396996D01*
X149800697Y-141391184D01*
X149824358Y-141387674D01*
X149848250Y-141386500D01*
X150760750Y-141386500D01*
X150784642Y-141387674D01*
G37*
G04 #@! TD.AperFunction*
G04 #@! TA.AperFunction,SMDPad,CuDef*
G36*
X150784642Y-143262674D02*
G01*
X150808303Y-143266184D01*
X150831507Y-143271996D01*
X150854029Y-143280054D01*
X150875653Y-143290282D01*
X150896170Y-143302579D01*
X150915383Y-143316829D01*
X150933107Y-143332893D01*
X150949171Y-143350617D01*
X150963421Y-143369830D01*
X150975718Y-143390347D01*
X150985946Y-143411971D01*
X150994004Y-143434493D01*
X150999816Y-143457697D01*
X151003326Y-143481358D01*
X151004500Y-143505250D01*
X151004500Y-143992750D01*
X151003326Y-144016642D01*
X150999816Y-144040303D01*
X150994004Y-144063507D01*
X150985946Y-144086029D01*
X150975718Y-144107653D01*
X150963421Y-144128170D01*
X150949171Y-144147383D01*
X150933107Y-144165107D01*
X150915383Y-144181171D01*
X150896170Y-144195421D01*
X150875653Y-144207718D01*
X150854029Y-144217946D01*
X150831507Y-144226004D01*
X150808303Y-144231816D01*
X150784642Y-144235326D01*
X150760750Y-144236500D01*
X149848250Y-144236500D01*
X149824358Y-144235326D01*
X149800697Y-144231816D01*
X149777493Y-144226004D01*
X149754971Y-144217946D01*
X149733347Y-144207718D01*
X149712830Y-144195421D01*
X149693617Y-144181171D01*
X149675893Y-144165107D01*
X149659829Y-144147383D01*
X149645579Y-144128170D01*
X149633282Y-144107653D01*
X149623054Y-144086029D01*
X149614996Y-144063507D01*
X149609184Y-144040303D01*
X149605674Y-144016642D01*
X149604500Y-143992750D01*
X149604500Y-143505250D01*
X149605674Y-143481358D01*
X149609184Y-143457697D01*
X149614996Y-143434493D01*
X149623054Y-143411971D01*
X149633282Y-143390347D01*
X149645579Y-143369830D01*
X149659829Y-143350617D01*
X149675893Y-143332893D01*
X149693617Y-143316829D01*
X149712830Y-143302579D01*
X149733347Y-143290282D01*
X149754971Y-143280054D01*
X149777493Y-143271996D01*
X149800697Y-143266184D01*
X149824358Y-143262674D01*
X149848250Y-143261500D01*
X150760750Y-143261500D01*
X150784642Y-143262674D01*
G37*
G04 #@! TD.AperFunction*
G04 #@! TA.AperFunction,SMDPad,CuDef*
G36*
X148943142Y-139770174D02*
G01*
X148966803Y-139773684D01*
X148990007Y-139779496D01*
X149012529Y-139787554D01*
X149034153Y-139797782D01*
X149054670Y-139810079D01*
X149073883Y-139824329D01*
X149091607Y-139840393D01*
X149107671Y-139858117D01*
X149121921Y-139877330D01*
X149134218Y-139897847D01*
X149144446Y-139919471D01*
X149152504Y-139941993D01*
X149158316Y-139965197D01*
X149161826Y-139988858D01*
X149163000Y-140012750D01*
X149163000Y-140500250D01*
X149161826Y-140524142D01*
X149158316Y-140547803D01*
X149152504Y-140571007D01*
X149144446Y-140593529D01*
X149134218Y-140615153D01*
X149121921Y-140635670D01*
X149107671Y-140654883D01*
X149091607Y-140672607D01*
X149073883Y-140688671D01*
X149054670Y-140702921D01*
X149034153Y-140715218D01*
X149012529Y-140725446D01*
X148990007Y-140733504D01*
X148966803Y-140739316D01*
X148943142Y-140742826D01*
X148919250Y-140744000D01*
X148006750Y-140744000D01*
X147982858Y-140742826D01*
X147959197Y-140739316D01*
X147935993Y-140733504D01*
X147913471Y-140725446D01*
X147891847Y-140715218D01*
X147871330Y-140702921D01*
X147852117Y-140688671D01*
X147834393Y-140672607D01*
X147818329Y-140654883D01*
X147804079Y-140635670D01*
X147791782Y-140615153D01*
X147781554Y-140593529D01*
X147773496Y-140571007D01*
X147767684Y-140547803D01*
X147764174Y-140524142D01*
X147763000Y-140500250D01*
X147763000Y-140012750D01*
X147764174Y-139988858D01*
X147767684Y-139965197D01*
X147773496Y-139941993D01*
X147781554Y-139919471D01*
X147791782Y-139897847D01*
X147804079Y-139877330D01*
X147818329Y-139858117D01*
X147834393Y-139840393D01*
X147852117Y-139824329D01*
X147871330Y-139810079D01*
X147891847Y-139797782D01*
X147913471Y-139787554D01*
X147935993Y-139779496D01*
X147959197Y-139773684D01*
X147982858Y-139770174D01*
X148006750Y-139769000D01*
X148919250Y-139769000D01*
X148943142Y-139770174D01*
G37*
G04 #@! TD.AperFunction*
G04 #@! TA.AperFunction,SMDPad,CuDef*
G36*
X148943142Y-137895174D02*
G01*
X148966803Y-137898684D01*
X148990007Y-137904496D01*
X149012529Y-137912554D01*
X149034153Y-137922782D01*
X149054670Y-137935079D01*
X149073883Y-137949329D01*
X149091607Y-137965393D01*
X149107671Y-137983117D01*
X149121921Y-138002330D01*
X149134218Y-138022847D01*
X149144446Y-138044471D01*
X149152504Y-138066993D01*
X149158316Y-138090197D01*
X149161826Y-138113858D01*
X149163000Y-138137750D01*
X149163000Y-138625250D01*
X149161826Y-138649142D01*
X149158316Y-138672803D01*
X149152504Y-138696007D01*
X149144446Y-138718529D01*
X149134218Y-138740153D01*
X149121921Y-138760670D01*
X149107671Y-138779883D01*
X149091607Y-138797607D01*
X149073883Y-138813671D01*
X149054670Y-138827921D01*
X149034153Y-138840218D01*
X149012529Y-138850446D01*
X148990007Y-138858504D01*
X148966803Y-138864316D01*
X148943142Y-138867826D01*
X148919250Y-138869000D01*
X148006750Y-138869000D01*
X147982858Y-138867826D01*
X147959197Y-138864316D01*
X147935993Y-138858504D01*
X147913471Y-138850446D01*
X147891847Y-138840218D01*
X147871330Y-138827921D01*
X147852117Y-138813671D01*
X147834393Y-138797607D01*
X147818329Y-138779883D01*
X147804079Y-138760670D01*
X147791782Y-138740153D01*
X147781554Y-138718529D01*
X147773496Y-138696007D01*
X147767684Y-138672803D01*
X147764174Y-138649142D01*
X147763000Y-138625250D01*
X147763000Y-138137750D01*
X147764174Y-138113858D01*
X147767684Y-138090197D01*
X147773496Y-138066993D01*
X147781554Y-138044471D01*
X147791782Y-138022847D01*
X147804079Y-138002330D01*
X147818329Y-137983117D01*
X147834393Y-137965393D01*
X147852117Y-137949329D01*
X147871330Y-137935079D01*
X147891847Y-137922782D01*
X147913471Y-137912554D01*
X147935993Y-137904496D01*
X147959197Y-137898684D01*
X147982858Y-137895174D01*
X148006750Y-137894000D01*
X148919250Y-137894000D01*
X148943142Y-137895174D01*
G37*
G04 #@! TD.AperFunction*
G04 #@! TA.AperFunction,ComponentPad*
G36*
X149345505Y-148922704D02*
G01*
X149369773Y-148926304D01*
X149393572Y-148932265D01*
X149416671Y-148940530D01*
X149438850Y-148951020D01*
X149459893Y-148963632D01*
X149479599Y-148978247D01*
X149497777Y-148994723D01*
X149514253Y-149012901D01*
X149528868Y-149032607D01*
X149541480Y-149053650D01*
X149551970Y-149075829D01*
X149560235Y-149098928D01*
X149566196Y-149122727D01*
X149569796Y-149146995D01*
X149571000Y-149171499D01*
X149571000Y-150421501D01*
X149569796Y-150446005D01*
X149566196Y-150470273D01*
X149560235Y-150494072D01*
X149551970Y-150517171D01*
X149541480Y-150539350D01*
X149528868Y-150560393D01*
X149514253Y-150580099D01*
X149497777Y-150598277D01*
X149479599Y-150614753D01*
X149459893Y-150629368D01*
X149438850Y-150641980D01*
X149416671Y-150652470D01*
X149393572Y-150660735D01*
X149369773Y-150666696D01*
X149345505Y-150670296D01*
X149321001Y-150671500D01*
X148620999Y-150671500D01*
X148596495Y-150670296D01*
X148572227Y-150666696D01*
X148548428Y-150660735D01*
X148525329Y-150652470D01*
X148503150Y-150641980D01*
X148482107Y-150629368D01*
X148462401Y-150614753D01*
X148444223Y-150598277D01*
X148427747Y-150580099D01*
X148413132Y-150560393D01*
X148400520Y-150539350D01*
X148390030Y-150517171D01*
X148381765Y-150494072D01*
X148375804Y-150470273D01*
X148372204Y-150446005D01*
X148371000Y-150421501D01*
X148371000Y-149171499D01*
X148372204Y-149146995D01*
X148375804Y-149122727D01*
X148381765Y-149098928D01*
X148390030Y-149075829D01*
X148400520Y-149053650D01*
X148413132Y-149032607D01*
X148427747Y-149012901D01*
X148444223Y-148994723D01*
X148462401Y-148978247D01*
X148482107Y-148963632D01*
X148503150Y-148951020D01*
X148525329Y-148940530D01*
X148548428Y-148932265D01*
X148572227Y-148926304D01*
X148596495Y-148922704D01*
X148620999Y-148921500D01*
X149321001Y-148921500D01*
X149345505Y-148922704D01*
G37*
G04 #@! TD.AperFunction*
D23*
X146971000Y-149796500D03*
G04 #@! TA.AperFunction,SMDPad,CuDef*
D15*
G36*
X147254703Y-154896222D02*
G01*
X147269264Y-154898382D01*
X147283543Y-154901959D01*
X147297403Y-154906918D01*
X147310710Y-154913212D01*
X147323336Y-154920780D01*
X147335159Y-154929548D01*
X147346066Y-154939434D01*
X147355952Y-154950341D01*
X147364720Y-154962164D01*
X147372288Y-154974790D01*
X147378582Y-154988097D01*
X147383541Y-155001957D01*
X147387118Y-155016236D01*
X147389278Y-155030797D01*
X147390000Y-155045500D01*
X147390000Y-156295500D01*
X147389278Y-156310203D01*
X147387118Y-156324764D01*
X147383541Y-156339043D01*
X147378582Y-156352903D01*
X147372288Y-156366210D01*
X147364720Y-156378836D01*
X147355952Y-156390659D01*
X147346066Y-156401566D01*
X147335159Y-156411452D01*
X147323336Y-156420220D01*
X147310710Y-156427788D01*
X147297403Y-156434082D01*
X147283543Y-156439041D01*
X147269264Y-156442618D01*
X147254703Y-156444778D01*
X147240000Y-156445500D01*
X146940000Y-156445500D01*
X146925297Y-156444778D01*
X146910736Y-156442618D01*
X146896457Y-156439041D01*
X146882597Y-156434082D01*
X146869290Y-156427788D01*
X146856664Y-156420220D01*
X146844841Y-156411452D01*
X146833934Y-156401566D01*
X146824048Y-156390659D01*
X146815280Y-156378836D01*
X146807712Y-156366210D01*
X146801418Y-156352903D01*
X146796459Y-156339043D01*
X146792882Y-156324764D01*
X146790722Y-156310203D01*
X146790000Y-156295500D01*
X146790000Y-155045500D01*
X146790722Y-155030797D01*
X146792882Y-155016236D01*
X146796459Y-155001957D01*
X146801418Y-154988097D01*
X146807712Y-154974790D01*
X146815280Y-154962164D01*
X146824048Y-154950341D01*
X146833934Y-154939434D01*
X146844841Y-154929548D01*
X146856664Y-154920780D01*
X146869290Y-154913212D01*
X146882597Y-154906918D01*
X146896457Y-154901959D01*
X146910736Y-154898382D01*
X146925297Y-154896222D01*
X146940000Y-154895500D01*
X147240000Y-154895500D01*
X147254703Y-154896222D01*
G37*
G04 #@! TD.AperFunction*
G04 #@! TA.AperFunction,SMDPad,CuDef*
G36*
X148254703Y-154896222D02*
G01*
X148269264Y-154898382D01*
X148283543Y-154901959D01*
X148297403Y-154906918D01*
X148310710Y-154913212D01*
X148323336Y-154920780D01*
X148335159Y-154929548D01*
X148346066Y-154939434D01*
X148355952Y-154950341D01*
X148364720Y-154962164D01*
X148372288Y-154974790D01*
X148378582Y-154988097D01*
X148383541Y-155001957D01*
X148387118Y-155016236D01*
X148389278Y-155030797D01*
X148390000Y-155045500D01*
X148390000Y-156295500D01*
X148389278Y-156310203D01*
X148387118Y-156324764D01*
X148383541Y-156339043D01*
X148378582Y-156352903D01*
X148372288Y-156366210D01*
X148364720Y-156378836D01*
X148355952Y-156390659D01*
X148346066Y-156401566D01*
X148335159Y-156411452D01*
X148323336Y-156420220D01*
X148310710Y-156427788D01*
X148297403Y-156434082D01*
X148283543Y-156439041D01*
X148269264Y-156442618D01*
X148254703Y-156444778D01*
X148240000Y-156445500D01*
X147940000Y-156445500D01*
X147925297Y-156444778D01*
X147910736Y-156442618D01*
X147896457Y-156439041D01*
X147882597Y-156434082D01*
X147869290Y-156427788D01*
X147856664Y-156420220D01*
X147844841Y-156411452D01*
X147833934Y-156401566D01*
X147824048Y-156390659D01*
X147815280Y-156378836D01*
X147807712Y-156366210D01*
X147801418Y-156352903D01*
X147796459Y-156339043D01*
X147792882Y-156324764D01*
X147790722Y-156310203D01*
X147790000Y-156295500D01*
X147790000Y-155045500D01*
X147790722Y-155030797D01*
X147792882Y-155016236D01*
X147796459Y-155001957D01*
X147801418Y-154988097D01*
X147807712Y-154974790D01*
X147815280Y-154962164D01*
X147824048Y-154950341D01*
X147833934Y-154939434D01*
X147844841Y-154929548D01*
X147856664Y-154920780D01*
X147869290Y-154913212D01*
X147882597Y-154906918D01*
X147896457Y-154901959D01*
X147910736Y-154898382D01*
X147925297Y-154896222D01*
X147940000Y-154895500D01*
X148240000Y-154895500D01*
X148254703Y-154896222D01*
G37*
G04 #@! TD.AperFunction*
G04 #@! TA.AperFunction,SMDPad,CuDef*
G36*
X149254703Y-154896222D02*
G01*
X149269264Y-154898382D01*
X149283543Y-154901959D01*
X149297403Y-154906918D01*
X149310710Y-154913212D01*
X149323336Y-154920780D01*
X149335159Y-154929548D01*
X149346066Y-154939434D01*
X149355952Y-154950341D01*
X149364720Y-154962164D01*
X149372288Y-154974790D01*
X149378582Y-154988097D01*
X149383541Y-155001957D01*
X149387118Y-155016236D01*
X149389278Y-155030797D01*
X149390000Y-155045500D01*
X149390000Y-156295500D01*
X149389278Y-156310203D01*
X149387118Y-156324764D01*
X149383541Y-156339043D01*
X149378582Y-156352903D01*
X149372288Y-156366210D01*
X149364720Y-156378836D01*
X149355952Y-156390659D01*
X149346066Y-156401566D01*
X149335159Y-156411452D01*
X149323336Y-156420220D01*
X149310710Y-156427788D01*
X149297403Y-156434082D01*
X149283543Y-156439041D01*
X149269264Y-156442618D01*
X149254703Y-156444778D01*
X149240000Y-156445500D01*
X148940000Y-156445500D01*
X148925297Y-156444778D01*
X148910736Y-156442618D01*
X148896457Y-156439041D01*
X148882597Y-156434082D01*
X148869290Y-156427788D01*
X148856664Y-156420220D01*
X148844841Y-156411452D01*
X148833934Y-156401566D01*
X148824048Y-156390659D01*
X148815280Y-156378836D01*
X148807712Y-156366210D01*
X148801418Y-156352903D01*
X148796459Y-156339043D01*
X148792882Y-156324764D01*
X148790722Y-156310203D01*
X148790000Y-156295500D01*
X148790000Y-155045500D01*
X148790722Y-155030797D01*
X148792882Y-155016236D01*
X148796459Y-155001957D01*
X148801418Y-154988097D01*
X148807712Y-154974790D01*
X148815280Y-154962164D01*
X148824048Y-154950341D01*
X148833934Y-154939434D01*
X148844841Y-154929548D01*
X148856664Y-154920780D01*
X148869290Y-154913212D01*
X148882597Y-154906918D01*
X148896457Y-154901959D01*
X148910736Y-154898382D01*
X148925297Y-154896222D01*
X148940000Y-154895500D01*
X149240000Y-154895500D01*
X149254703Y-154896222D01*
G37*
G04 #@! TD.AperFunction*
G04 #@! TA.AperFunction,SMDPad,CuDef*
G36*
X150254703Y-154896222D02*
G01*
X150269264Y-154898382D01*
X150283543Y-154901959D01*
X150297403Y-154906918D01*
X150310710Y-154913212D01*
X150323336Y-154920780D01*
X150335159Y-154929548D01*
X150346066Y-154939434D01*
X150355952Y-154950341D01*
X150364720Y-154962164D01*
X150372288Y-154974790D01*
X150378582Y-154988097D01*
X150383541Y-155001957D01*
X150387118Y-155016236D01*
X150389278Y-155030797D01*
X150390000Y-155045500D01*
X150390000Y-156295500D01*
X150389278Y-156310203D01*
X150387118Y-156324764D01*
X150383541Y-156339043D01*
X150378582Y-156352903D01*
X150372288Y-156366210D01*
X150364720Y-156378836D01*
X150355952Y-156390659D01*
X150346066Y-156401566D01*
X150335159Y-156411452D01*
X150323336Y-156420220D01*
X150310710Y-156427788D01*
X150297403Y-156434082D01*
X150283543Y-156439041D01*
X150269264Y-156442618D01*
X150254703Y-156444778D01*
X150240000Y-156445500D01*
X149940000Y-156445500D01*
X149925297Y-156444778D01*
X149910736Y-156442618D01*
X149896457Y-156439041D01*
X149882597Y-156434082D01*
X149869290Y-156427788D01*
X149856664Y-156420220D01*
X149844841Y-156411452D01*
X149833934Y-156401566D01*
X149824048Y-156390659D01*
X149815280Y-156378836D01*
X149807712Y-156366210D01*
X149801418Y-156352903D01*
X149796459Y-156339043D01*
X149792882Y-156324764D01*
X149790722Y-156310203D01*
X149790000Y-156295500D01*
X149790000Y-155045500D01*
X149790722Y-155030797D01*
X149792882Y-155016236D01*
X149796459Y-155001957D01*
X149801418Y-154988097D01*
X149807712Y-154974790D01*
X149815280Y-154962164D01*
X149824048Y-154950341D01*
X149833934Y-154939434D01*
X149844841Y-154929548D01*
X149856664Y-154920780D01*
X149869290Y-154913212D01*
X149882597Y-154906918D01*
X149896457Y-154901959D01*
X149910736Y-154898382D01*
X149925297Y-154896222D01*
X149940000Y-154895500D01*
X150240000Y-154895500D01*
X150254703Y-154896222D01*
G37*
G04 #@! TD.AperFunction*
G04 #@! TA.AperFunction,SMDPad,CuDef*
G36*
X146164505Y-158646704D02*
G01*
X146188773Y-158650304D01*
X146212572Y-158656265D01*
X146235671Y-158664530D01*
X146257850Y-158675020D01*
X146278893Y-158687632D01*
X146298599Y-158702247D01*
X146316777Y-158718723D01*
X146333253Y-158736901D01*
X146347868Y-158756607D01*
X146360480Y-158777650D01*
X146370970Y-158799829D01*
X146379235Y-158822928D01*
X146385196Y-158846727D01*
X146388796Y-158870995D01*
X146390000Y-158895499D01*
X146390000Y-160195501D01*
X146388796Y-160220005D01*
X146385196Y-160244273D01*
X146379235Y-160268072D01*
X146370970Y-160291171D01*
X146360480Y-160313350D01*
X146347868Y-160334393D01*
X146333253Y-160354099D01*
X146316777Y-160372277D01*
X146298599Y-160388753D01*
X146278893Y-160403368D01*
X146257850Y-160415980D01*
X146235671Y-160426470D01*
X146212572Y-160434735D01*
X146188773Y-160440696D01*
X146164505Y-160444296D01*
X146140001Y-160445500D01*
X145439999Y-160445500D01*
X145415495Y-160444296D01*
X145391227Y-160440696D01*
X145367428Y-160434735D01*
X145344329Y-160426470D01*
X145322150Y-160415980D01*
X145301107Y-160403368D01*
X145281401Y-160388753D01*
X145263223Y-160372277D01*
X145246747Y-160354099D01*
X145232132Y-160334393D01*
X145219520Y-160313350D01*
X145209030Y-160291171D01*
X145200765Y-160268072D01*
X145194804Y-160244273D01*
X145191204Y-160220005D01*
X145190000Y-160195501D01*
X145190000Y-158895499D01*
X145191204Y-158870995D01*
X145194804Y-158846727D01*
X145200765Y-158822928D01*
X145209030Y-158799829D01*
X145219520Y-158777650D01*
X145232132Y-158756607D01*
X145246747Y-158736901D01*
X145263223Y-158718723D01*
X145281401Y-158702247D01*
X145301107Y-158687632D01*
X145322150Y-158675020D01*
X145344329Y-158664530D01*
X145367428Y-158656265D01*
X145391227Y-158650304D01*
X145415495Y-158646704D01*
X145439999Y-158645500D01*
X146140001Y-158645500D01*
X146164505Y-158646704D01*
G37*
G04 #@! TD.AperFunction*
G04 #@! TA.AperFunction,SMDPad,CuDef*
G36*
X151764505Y-158646704D02*
G01*
X151788773Y-158650304D01*
X151812572Y-158656265D01*
X151835671Y-158664530D01*
X151857850Y-158675020D01*
X151878893Y-158687632D01*
X151898599Y-158702247D01*
X151916777Y-158718723D01*
X151933253Y-158736901D01*
X151947868Y-158756607D01*
X151960480Y-158777650D01*
X151970970Y-158799829D01*
X151979235Y-158822928D01*
X151985196Y-158846727D01*
X151988796Y-158870995D01*
X151990000Y-158895499D01*
X151990000Y-160195501D01*
X151988796Y-160220005D01*
X151985196Y-160244273D01*
X151979235Y-160268072D01*
X151970970Y-160291171D01*
X151960480Y-160313350D01*
X151947868Y-160334393D01*
X151933253Y-160354099D01*
X151916777Y-160372277D01*
X151898599Y-160388753D01*
X151878893Y-160403368D01*
X151857850Y-160415980D01*
X151835671Y-160426470D01*
X151812572Y-160434735D01*
X151788773Y-160440696D01*
X151764505Y-160444296D01*
X151740001Y-160445500D01*
X151039999Y-160445500D01*
X151015495Y-160444296D01*
X150991227Y-160440696D01*
X150967428Y-160434735D01*
X150944329Y-160426470D01*
X150922150Y-160415980D01*
X150901107Y-160403368D01*
X150881401Y-160388753D01*
X150863223Y-160372277D01*
X150846747Y-160354099D01*
X150832132Y-160334393D01*
X150819520Y-160313350D01*
X150809030Y-160291171D01*
X150800765Y-160268072D01*
X150794804Y-160244273D01*
X150791204Y-160220005D01*
X150790000Y-160195501D01*
X150790000Y-158895499D01*
X150791204Y-158870995D01*
X150794804Y-158846727D01*
X150800765Y-158822928D01*
X150809030Y-158799829D01*
X150819520Y-158777650D01*
X150832132Y-158756607D01*
X150846747Y-158736901D01*
X150863223Y-158718723D01*
X150881401Y-158702247D01*
X150901107Y-158687632D01*
X150922150Y-158675020D01*
X150944329Y-158664530D01*
X150967428Y-158656265D01*
X150991227Y-158650304D01*
X151015495Y-158646704D01*
X151039999Y-158645500D01*
X151740001Y-158645500D01*
X151764505Y-158646704D01*
G37*
G04 #@! TD.AperFunction*
D24*
X154114500Y-140525500D03*
D25*
X154114500Y-138525500D03*
X154114500Y-136525500D03*
D26*
X154114500Y-142625500D03*
X154114500Y-134425500D03*
D13*
X89895000Y-99270000D03*
D27*
X102395000Y-106770000D03*
X99895000Y-109270000D03*
X99895000Y-101770000D03*
X99895000Y-94270000D03*
D13*
X89895000Y-104270000D03*
D27*
X102395000Y-96770000D03*
X141489371Y-106744233D03*
D13*
X153989371Y-99244233D03*
D27*
X143989371Y-109244233D03*
X143989371Y-101744233D03*
X143989371Y-94244233D03*
X141489371Y-96744233D03*
D13*
X153989371Y-104244233D03*
D19*
X103759000Y-124079000D03*
X103759000Y-121539000D03*
D18*
X103759000Y-118999000D03*
D20*
X114681000Y-118618000D03*
D21*
X114681000Y-121158000D03*
X114681000Y-123698000D03*
X122301000Y-123698000D03*
X122301000Y-121158000D03*
X122301000Y-118618000D03*
D28*
X111696500Y-123126500D03*
D16*
X111696500Y-120586500D03*
D29*
X88900000Y-133985000D03*
X133477000Y-146431000D03*
X147090000Y-157480000D03*
X118745000Y-121158000D03*
X151196580Y-122488420D03*
X133985000Y-122235000D03*
X103505000Y-127635000D03*
X145542000Y-148082000D03*
X134683500Y-137223500D03*
X144780000Y-146050000D03*
X133413500Y-134683500D03*
X136525000Y-156210000D03*
X133985000Y-156210000D03*
X131445000Y-156210000D03*
X128905000Y-156210000D03*
X146558000Y-136652000D03*
X149225000Y-134620000D03*
X129540000Y-126365000D03*
X131889500Y-119570500D03*
X147320000Y-107315000D03*
X111760000Y-104775000D03*
X110095000Y-98820000D03*
X148145500Y-141986000D03*
X103505000Y-129237500D03*
D30*
X87900000Y-131645000D02*
X87900000Y-132985000D01*
X87900000Y-132985000D02*
X88900000Y-133985000D01*
X88900000Y-133985000D02*
X88900000Y-133985000D01*
X88900000Y-133985000D02*
X88900000Y-133985000D01*
X138110000Y-94300000D02*
X138430000Y-93980000D01*
X129794000Y-146431000D02*
X133477000Y-146431000D01*
X128270000Y-147955000D02*
X129794000Y-146431000D01*
X150309498Y-145288000D02*
X150579000Y-145288000D01*
X146971000Y-149542500D02*
X146971000Y-147034000D01*
X146971000Y-147034000D02*
X147320000Y-146685000D01*
X150579000Y-146138000D02*
X150579000Y-145288000D01*
X150032000Y-146685000D02*
X150579000Y-146138000D01*
X147320000Y-146685000D02*
X150032000Y-146685000D01*
X150164002Y-145288000D02*
X148907500Y-144031498D01*
X150579000Y-145288000D02*
X150164002Y-145288000D01*
X148907500Y-141287500D02*
X148907500Y-141287500D01*
X149812500Y-140382500D02*
X150304500Y-140382500D01*
X148907500Y-142748000D02*
X148907500Y-141287500D01*
X148907500Y-144031498D02*
X148907500Y-142748000D01*
X147748000Y-135699500D02*
X146973000Y-135699500D01*
X146973000Y-135699500D02*
X146384500Y-135111000D01*
X146384500Y-135111000D02*
X146384500Y-134603000D01*
X147092501Y-133894999D02*
X151004909Y-133894999D01*
X146384500Y-134603000D02*
X147092501Y-133894999D01*
X146683000Y-140382500D02*
X147461000Y-141160500D01*
X146558000Y-140382500D02*
X146683000Y-140382500D01*
X148907500Y-141287500D02*
X148907500Y-141160500D01*
X147461000Y-141160500D02*
X148907500Y-141160500D01*
X150179500Y-140382500D02*
X150304500Y-140382500D01*
X149401500Y-141160500D02*
X150179500Y-140382500D01*
X148907500Y-141160500D02*
X149401500Y-141160500D01*
X147090000Y-157480000D02*
X147090000Y-157480000D01*
X147090000Y-155542500D02*
X147090000Y-157480000D01*
X152088010Y-134978100D02*
X151004909Y-133894999D01*
X152146500Y-136525500D02*
X154114500Y-136525500D01*
X152088010Y-136467010D02*
X152088010Y-134978100D01*
X152088010Y-136467010D02*
X152146500Y-136525500D01*
X152088010Y-141550900D02*
X152088010Y-136467010D01*
X148907500Y-142748000D02*
X151257000Y-142748000D01*
X152088010Y-141916990D02*
X152088010Y-141550900D01*
X151257000Y-142748000D02*
X152088010Y-141916990D01*
X122301000Y-121158000D02*
X118745000Y-121158000D01*
X118745000Y-121158000D02*
X118745000Y-121158000D01*
X105346500Y-131112500D02*
X108712000Y-131112500D01*
X110822500Y-131112500D02*
X111760000Y-130175000D01*
X108712000Y-131112500D02*
X110822500Y-131112500D01*
X153012140Y-129562860D02*
X152400000Y-130175000D01*
X153012140Y-125803660D02*
X153012140Y-129562860D01*
X139065000Y-123035000D02*
X139065000Y-122285000D01*
X139065000Y-123470000D02*
X139065000Y-123035000D01*
X140055000Y-124460000D02*
X139065000Y-123470000D01*
X140655000Y-124460000D02*
X140055000Y-124460000D01*
X139015000Y-122235000D02*
X139065000Y-122285000D01*
X135890000Y-122235000D02*
X139015000Y-122235000D01*
X153012140Y-125803660D02*
X153012140Y-124303980D01*
X153012140Y-124303980D02*
X151196580Y-122488420D01*
X151196580Y-122488420D02*
X151196580Y-122488420D01*
X135890000Y-122235000D02*
X133985000Y-122235000D01*
X133985000Y-122235000D02*
X133985000Y-122235000D01*
X133985000Y-122235000D02*
X126685000Y-122235000D01*
X103505000Y-127635000D02*
X103505000Y-127635000D01*
X103505000Y-127635000D02*
X104140000Y-127000000D01*
X126685000Y-122235000D02*
X121920000Y-127000000D01*
X104140000Y-127000000D02*
X121920000Y-127000000D01*
X108712000Y-129237500D02*
X108712000Y-127000000D01*
X99495000Y-96720000D02*
X97155000Y-99060000D01*
X102195000Y-96720000D02*
X99495000Y-96720000D01*
X97155000Y-99060000D02*
X97155000Y-109855000D01*
X109791500Y-123126500D02*
X106045000Y-119380000D01*
X106045000Y-119380000D02*
X106045000Y-116840000D01*
X106045000Y-116840000D02*
X105281998Y-116840000D01*
X105281998Y-116840000D02*
X104140000Y-116840000D01*
X104140000Y-116840000D02*
X97155000Y-109855000D01*
X111696500Y-123126500D02*
X109791500Y-123126500D01*
X112712500Y-123126500D02*
X111696500Y-123126500D01*
X114681000Y-121158000D02*
X112712500Y-123126500D01*
X113919000Y-117856000D02*
X114681000Y-118618000D01*
X112634000Y-117856000D02*
X113919000Y-117856000D01*
X111696500Y-118793500D02*
X111696500Y-120586500D01*
X112634000Y-117856000D02*
X111696500Y-118793500D01*
X136210000Y-108270000D02*
X135890000Y-107950000D01*
X135890000Y-109222792D02*
X135890000Y-107950000D01*
X135890000Y-110335000D02*
X135890000Y-109222792D01*
X136880000Y-111325000D02*
X135890000Y-110335000D01*
X137480000Y-111325000D02*
X136880000Y-111325000D01*
X136210000Y-94300000D02*
X135890000Y-93980000D01*
X136210000Y-97790000D02*
X136210000Y-94300000D01*
X122235000Y-107635000D02*
X120650000Y-109220000D01*
X125730000Y-107635000D02*
X122235000Y-107635000D01*
X148379000Y-144438000D02*
X147639000Y-143698000D01*
X147521500Y-143698000D02*
X146621500Y-143698000D01*
X147639000Y-143698000D02*
X147521500Y-143698000D01*
X148379000Y-145288000D02*
X148379000Y-144438000D01*
X105730000Y-94300000D02*
X105410000Y-93980000D01*
X105730000Y-97790000D02*
X105730000Y-94300000D01*
X139700000Y-130175000D02*
X139700000Y-144145000D01*
X139700000Y-144145000D02*
X138430000Y-145415000D01*
X125730000Y-145415000D02*
X123190000Y-147955000D01*
X138430000Y-145415000D02*
X125730000Y-145415000D01*
X148090000Y-154517500D02*
X147877500Y-154305000D01*
X148090000Y-155542500D02*
X148090000Y-154517500D01*
X145970000Y-154305000D02*
X145100000Y-153435000D01*
X147877500Y-154305000D02*
X145970000Y-154305000D01*
X148090000Y-156202502D02*
X148732498Y-156845000D01*
X148090000Y-155542500D02*
X148090000Y-156202502D01*
X150715001Y-156577501D02*
X150447502Y-156845000D01*
X150715001Y-153440001D02*
X150715001Y-156577501D01*
X150447502Y-156845000D02*
X148732498Y-156845000D01*
X150710000Y-153435000D02*
X150715001Y-153440001D01*
X150710000Y-152535000D02*
X150710000Y-153435000D01*
X137160000Y-147955000D02*
X137160000Y-149225000D01*
X130810000Y-147955000D02*
X130810000Y-149225000D01*
X125730000Y-147955000D02*
X125730000Y-149225000D01*
X142240000Y-149225000D02*
X142240000Y-147955000D01*
X136245000Y-100965000D02*
X133985000Y-103225000D01*
X136845000Y-100965000D02*
X136245000Y-100965000D01*
X133985000Y-103225000D02*
X133985000Y-109855000D01*
X133985000Y-109855000D02*
X138430000Y-114300000D01*
X135575000Y-117155000D02*
X135575000Y-118110000D01*
X135890000Y-116840000D02*
X135575000Y-117155000D01*
X143508590Y-116840000D02*
X144143590Y-117475000D01*
X144143590Y-117475000D02*
X146050000Y-117475000D01*
X146050000Y-117475000D02*
X149860000Y-121285000D01*
X149860000Y-130175000D02*
X151765000Y-128270000D01*
X151765000Y-128270000D02*
X151765000Y-124460000D01*
X151765000Y-124460000D02*
X149860000Y-122555000D01*
X149860000Y-121285000D02*
X149860000Y-122555000D01*
X138430000Y-114300000D02*
X138430000Y-116840000D01*
X137159998Y-116840000D02*
X138430000Y-116840000D01*
X138430000Y-116840000D02*
X143508590Y-116840000D01*
X121285000Y-148463000D02*
X122047000Y-149225000D01*
X122047000Y-149225000D02*
X142240000Y-149225000D01*
X137159998Y-116840000D02*
X135890000Y-116840000D01*
X149860000Y-130175000D02*
X147955000Y-132080000D01*
X147955000Y-132080000D02*
X143510000Y-132080000D01*
X143510000Y-132080000D02*
X142240000Y-133350000D01*
X142240000Y-133350000D02*
X142240000Y-147955000D01*
X144500000Y-153035000D02*
X144145000Y-152680000D01*
X145100000Y-153035000D02*
X144500000Y-153035000D01*
X143340000Y-147955000D02*
X142240000Y-147955000D01*
X144145000Y-148760000D02*
X143340000Y-147955000D01*
X144145000Y-152680000D02*
X144145000Y-148760000D01*
X121285000Y-141287500D02*
X122809000Y-139763500D01*
X117604000Y-137795000D02*
X121285000Y-141476000D01*
X121285000Y-148463000D02*
X121285000Y-141478000D01*
X121285000Y-141476000D02*
X121285000Y-141478000D01*
X121285000Y-141478000D02*
X121285000Y-141287500D01*
X135509000Y-118188500D02*
X135587500Y-118110000D01*
X119380000Y-114935000D02*
X119380000Y-116840000D01*
X121158000Y-118618000D02*
X122301000Y-118618000D01*
X119380000Y-116840000D02*
X121158000Y-118618000D01*
X123649500Y-118618000D02*
X124523500Y-117744000D01*
X122301000Y-118618000D02*
X123649500Y-118618000D01*
X135221500Y-117744000D02*
X135587500Y-118110000D01*
X124523500Y-117744000D02*
X135221500Y-117744000D01*
X142240000Y-130175000D02*
X140970000Y-131445000D01*
X140970000Y-131445000D02*
X140970000Y-144780000D01*
X140970000Y-144780000D02*
X139700000Y-146050000D01*
X136525000Y-146050000D02*
X134620000Y-147955000D01*
X139700000Y-146050000D02*
X136525000Y-146050000D01*
X150090000Y-154715000D02*
X150090000Y-155542500D01*
X148810000Y-153435000D02*
X150090000Y-154715000D01*
X146050000Y-151130000D02*
X147905000Y-151130000D01*
X148910000Y-152135000D02*
X148910000Y-153035000D01*
X147905000Y-151130000D02*
X148910000Y-152135000D01*
X146050000Y-151130000D02*
X145542000Y-150622000D01*
X145542000Y-150622000D02*
X145542000Y-148082000D01*
X145542000Y-148082000D02*
X145542000Y-148082000D01*
X122809000Y-137223500D02*
X134683500Y-137223500D01*
X134683500Y-137223500D02*
X134683500Y-137223500D01*
X146234990Y-116389990D02*
X144780000Y-114935000D01*
X156494990Y-118394990D02*
X154489990Y-116389990D01*
X145542000Y-148082000D02*
X145542000Y-145738998D01*
X149860000Y-132715000D02*
X155575000Y-132715000D01*
X155575000Y-132715000D02*
X156494990Y-131795010D01*
X154489990Y-116389990D02*
X146234990Y-116389990D01*
X145288000Y-145484998D02*
X145288000Y-134048500D01*
X145478500Y-133858000D02*
X145542000Y-133858000D01*
X145288000Y-134048500D02*
X145478500Y-133858000D01*
X145542000Y-145738998D02*
X145288000Y-145484998D01*
X145542000Y-133858000D02*
X146050000Y-133350000D01*
X146050000Y-133350000D02*
X149225000Y-133350000D01*
X149225000Y-133350000D02*
X149860000Y-132715000D01*
X156494990Y-131795010D02*
X156494990Y-118394990D01*
X147243910Y-153035000D02*
X147000000Y-153035000D01*
X149090000Y-154881090D02*
X147243910Y-153035000D01*
X149090000Y-155542500D02*
X149090000Y-154881090D01*
X147000000Y-152135000D02*
X146630000Y-151765000D01*
X147000000Y-153035000D02*
X147000000Y-152135000D01*
X146630000Y-151765000D02*
X145415000Y-151765000D01*
X145415000Y-151765000D02*
X144780000Y-151130000D01*
X144780000Y-151130000D02*
X144780000Y-146050000D01*
X144780000Y-146050000D02*
X144780000Y-146050000D01*
X142240000Y-114935000D02*
X144145000Y-116840000D01*
X144145000Y-116840000D02*
X153670000Y-116840000D01*
X153670000Y-129540000D02*
X153670000Y-131445000D01*
X144780000Y-133350000D02*
X144780000Y-146050000D01*
X145415000Y-132715000D02*
X144780000Y-133350000D01*
X153670000Y-131445000D02*
X153162000Y-131953000D01*
X153162000Y-131953000D02*
X149352000Y-131953000D01*
X148590000Y-132715000D02*
X145415000Y-132715000D01*
X149352000Y-131953000D02*
X148590000Y-132715000D01*
X122809000Y-134683500D02*
X133413500Y-134683500D01*
X133413500Y-134683500D02*
X133413500Y-134683500D01*
X153670000Y-129540000D02*
X156044980Y-127165020D01*
X156044980Y-127165020D02*
X156044980Y-119380000D01*
X156044980Y-119380000D02*
X156044980Y-119214980D01*
X156044980Y-119214980D02*
X153670000Y-116840000D01*
X141539371Y-98320578D02*
X141539371Y-96694233D01*
X141539371Y-98770629D02*
X141539371Y-98320578D01*
X139345000Y-100965000D02*
X141539371Y-98770629D01*
X138745000Y-100965000D02*
X139345000Y-100965000D01*
X137984234Y-105544234D02*
X136845000Y-104405000D01*
X140389372Y-105544234D02*
X137984234Y-105544234D01*
X136845000Y-104405000D02*
X136845000Y-103505000D01*
X141539371Y-106694233D02*
X140389372Y-105544234D01*
X130810000Y-150495000D02*
X136525000Y-156210000D01*
X136525000Y-156210000D02*
X136525000Y-156210000D01*
X128270000Y-150495000D02*
X133985000Y-156210000D01*
X133985000Y-156210000D02*
X133985000Y-156210000D01*
X125730000Y-150495000D02*
X131445000Y-156210000D01*
X131445000Y-156210000D02*
X131445000Y-156210000D01*
X123190000Y-150495000D02*
X128905000Y-156210000D01*
X128905000Y-156210000D02*
X128905000Y-156210000D01*
X139065000Y-119535000D02*
X139065000Y-120285000D01*
X139065000Y-119100000D02*
X139065000Y-119535000D01*
X140055000Y-118110000D02*
X139065000Y-119100000D01*
X140655000Y-118110000D02*
X140055000Y-118110000D01*
X138075000Y-118110000D02*
X137475000Y-118110000D01*
X139065000Y-119100000D02*
X138075000Y-118110000D01*
X136790000Y-120335000D02*
X135890000Y-120335000D01*
X137475000Y-119650000D02*
X136790000Y-120335000D01*
X137475000Y-118110000D02*
X137475000Y-119650000D01*
X102395000Y-106770000D02*
X102395000Y-111920000D01*
X108331000Y-117856000D02*
X110759000Y-117856000D01*
X102395000Y-111920000D02*
X108331000Y-117856000D01*
X97790000Y-134540000D02*
X94895000Y-131645000D01*
X94895000Y-131645000D02*
X94295000Y-131645000D01*
X97790000Y-145540000D02*
X97790000Y-134540000D01*
X100205000Y-147955000D02*
X97790000Y-145540000D01*
X114160000Y-101285000D02*
X114420000Y-101545000D01*
X111760000Y-101285000D02*
X114160000Y-101285000D01*
X148971000Y-149542500D02*
X148971000Y-147574000D01*
X148971000Y-147574000D02*
X149225000Y-147320000D01*
X155405000Y-146138000D02*
X155405000Y-145288000D01*
X154223000Y-147320000D02*
X155405000Y-146138000D01*
X149225000Y-147320000D02*
X154223000Y-147320000D01*
X155405000Y-144438000D02*
X156210000Y-143633000D01*
X155405000Y-145288000D02*
X155405000Y-144438000D01*
X155487500Y-140335000D02*
X153987500Y-140335000D01*
X156210000Y-141057500D02*
X155487500Y-140335000D01*
X156210000Y-143633000D02*
X156210000Y-141057500D01*
X147748000Y-137590500D02*
X148399500Y-138242000D01*
X147748000Y-136649500D02*
X147748000Y-137590500D01*
X146973000Y-136649500D02*
X146970500Y-136652000D01*
X147748000Y-136649500D02*
X146973000Y-136649500D01*
X146970500Y-136652000D02*
X146558000Y-136652000D01*
X146558000Y-136652000D02*
X146558000Y-136652000D01*
X146558000Y-138382500D02*
X146558000Y-136652000D01*
X149095500Y-134749500D02*
X149225000Y-134620000D01*
X147748000Y-134749500D02*
X149095500Y-134749500D01*
X150179500Y-138382500D02*
X150304500Y-138382500D01*
X149225000Y-137428000D02*
X150179500Y-138382500D01*
X149225000Y-134620000D02*
X149225000Y-137428000D01*
X105730000Y-108270000D02*
X105410000Y-107950000D01*
X105730000Y-111760000D02*
X105730000Y-108270000D01*
X151204500Y-143698000D02*
X152286500Y-144780000D01*
X150304500Y-143698000D02*
X151204500Y-143698000D01*
X152286500Y-144780000D02*
X153205000Y-144780000D01*
X142555000Y-122600000D02*
X142240000Y-122285000D01*
X142555000Y-124460000D02*
X142555000Y-122600000D01*
X142542500Y-124460000D02*
X142542500Y-125427500D01*
X142542500Y-125427500D02*
X141605000Y-126365000D01*
X141605000Y-126365000D02*
X129540000Y-126365000D01*
X129540000Y-126365000D02*
X129540000Y-126365000D01*
X144062640Y-119306340D02*
X144912080Y-119306340D01*
X142851340Y-119306340D02*
X144062640Y-119306340D01*
X142555000Y-119010000D02*
X142851340Y-119306340D01*
X142555000Y-118110000D02*
X142555000Y-119010000D01*
X142468660Y-119306340D02*
X142240000Y-119535000D01*
X142240000Y-119535000D02*
X142240000Y-120285000D01*
X142851340Y-119306340D02*
X142468660Y-119306340D01*
X89900000Y-130770000D02*
X90495000Y-130175000D01*
X89900000Y-131645000D02*
X89900000Y-130770000D01*
X94869000Y-130175000D02*
X96901000Y-132207000D01*
X124968000Y-132207000D02*
X127000000Y-130175000D01*
X96901000Y-132207000D02*
X124968000Y-132207000D01*
X92329000Y-130175000D02*
X92395000Y-130241000D01*
X92329000Y-130175000D02*
X94869000Y-130175000D01*
X92395000Y-130241000D02*
X92395000Y-131645000D01*
X90495000Y-130175000D02*
X92329000Y-130175000D01*
X122301000Y-123698000D02*
X124523500Y-121475500D01*
X124523500Y-121475500D02*
X124523500Y-119619000D01*
X131841000Y-119619000D02*
X131889500Y-119570500D01*
X124523500Y-119619000D02*
X131841000Y-119619000D01*
X138745000Y-103505000D02*
X142240000Y-103505000D01*
X142240000Y-103505000D02*
X149860000Y-111125000D01*
X149860000Y-111125000D02*
X149860000Y-114935000D01*
X131445000Y-92395000D02*
X145100000Y-92395000D01*
X145100000Y-92395000D02*
X147320000Y-94615000D01*
X147320000Y-94615000D02*
X147320000Y-107315000D01*
X139380000Y-114615000D02*
X139700000Y-114935000D01*
X139380000Y-111325000D02*
X139380000Y-114615000D01*
X137160000Y-114935000D02*
X132715000Y-110490000D01*
X138110000Y-98690000D02*
X137740000Y-99060000D01*
X138110000Y-97790000D02*
X138110000Y-98690000D01*
X137740000Y-99060000D02*
X136525000Y-99060000D01*
X136525000Y-99060000D02*
X132715000Y-102870000D01*
X132715000Y-110490000D02*
X132715000Y-102870000D01*
X129220000Y-109535000D02*
X134620000Y-114935000D01*
X125730000Y-109535000D02*
X129220000Y-109535000D01*
X129404990Y-112259990D02*
X132080000Y-114935000D01*
X116840000Y-112259990D02*
X129404990Y-112259990D01*
X107630000Y-97790000D02*
X107630000Y-103049990D01*
X107630000Y-103049990D02*
X116840000Y-112259990D01*
X107630000Y-111760000D02*
X107630000Y-112710000D01*
X127315000Y-112710000D02*
X129540000Y-114935000D01*
X107630000Y-112710000D02*
X127315000Y-112710000D01*
X111760000Y-103185000D02*
X111760000Y-104775000D01*
X111760000Y-104775000D02*
X111760000Y-104775000D01*
X111760000Y-98820000D02*
X110095000Y-98820000D01*
X110095000Y-98820000D02*
X110095000Y-98820000D01*
X147957500Y-141798000D02*
X148145500Y-141986000D01*
X146621500Y-141798000D02*
X147957500Y-141798000D01*
X150035000Y-125805000D02*
X150035000Y-127460000D01*
X150035000Y-127460000D02*
X149225000Y-128270000D01*
X149225000Y-128270000D02*
X118745000Y-128270000D01*
X118745000Y-128270000D02*
X116840000Y-130175000D01*
X146011900Y-125803660D02*
X145976340Y-125803660D01*
X145185000Y-125805000D02*
X143355000Y-127635000D01*
X146035000Y-125805000D02*
X145185000Y-125805000D01*
X116840000Y-127635000D02*
X114300000Y-130175000D01*
X143355000Y-127635000D02*
X116840000Y-127635000D01*
X105346500Y-129237500D02*
X103505000Y-129237500D01*
X103505000Y-129237500D02*
X103505000Y-129237500D01*
X114045000Y-96920000D02*
X114420000Y-96545000D01*
X111760000Y-96920000D02*
X114045000Y-96920000D01*
X130150000Y-96545000D02*
X128920000Y-96545000D01*
X131445000Y-94295000D02*
X131445000Y-95250000D01*
X131445000Y-95250000D02*
X130150000Y-96545000D01*
X148399500Y-140142000D02*
X148399500Y-139382500D01*
X148399500Y-139382500D02*
X151014502Y-139382500D01*
X151014502Y-139382500D02*
X151638000Y-138759002D01*
X151223000Y-134749500D02*
X150448000Y-134749500D01*
X151638000Y-135164500D02*
X151223000Y-134749500D01*
X151638000Y-138759002D02*
X151638000Y-135164500D01*
X151204500Y-141798000D02*
X151511000Y-141491500D01*
X150304500Y-141798000D02*
X151204500Y-141798000D01*
X151014502Y-139382500D02*
X151511000Y-139954000D01*
X151511000Y-141491500D02*
X151511000Y-139954000D01*
X103632000Y-118999000D02*
X103695500Y-119062500D01*
X100139500Y-118999000D02*
X103632000Y-118999000D01*
X103592000Y-121499000D02*
X103695500Y-121602500D01*
X100139500Y-121499000D02*
X103592000Y-121499000D01*
X103052000Y-123499000D02*
X103695500Y-124142500D01*
X100139500Y-123499000D02*
X103052000Y-123499000D01*
M02*
