G04 #@! TF.GenerationSoftware,KiCad,Pcbnew,(5.1.5)-3*
G04 #@! TF.CreationDate,2020-01-19T12:10:18+09:00*
G04 #@! TF.ProjectId,MOMI,4d4f4d49-2e6b-4696-9361-645f70636258,rev?*
G04 #@! TF.SameCoordinates,Original*
G04 #@! TF.FileFunction,Copper,L2,Bot*
G04 #@! TF.FilePolarity,Positive*
%FSLAX46Y46*%
G04 Gerber Fmt 4.6, Leading zero omitted, Abs format (unit mm)*
G04 Created by KiCad (PCBNEW (5.1.5)-3) date 2020-01-19 12:10:18*
%MOMM*%
%LPD*%
G04 APERTURE LIST*
%ADD10R,1.350000X1.350000*%
%ADD11C,3.000000*%
%ADD12R,3.600000X2.800000*%
%ADD13C,2.000000*%
%ADD14R,1.800000X1.800000*%
%ADD15C,1.800000*%
%ADD16R,1.700000X1.700000*%
%ADD17O,1.700000X1.700000*%
%ADD18R,1.600000X1.600000*%
%ADD19C,1.600000*%
%ADD20C,0.100000*%
%ADD21O,1.200000X1.750000*%
%ADD22R,2.500000X1.500000*%
%ADD23O,2.500000X1.500000*%
%ADD24O,3.500000X2.200000*%
%ADD25C,2.300000*%
%ADD26O,1.800000X1.800000*%
%ADD27C,0.800000*%
%ADD28C,2.540000*%
%ADD29C,0.250000*%
%ADD30C,0.254000*%
G04 APERTURE END LIST*
D10*
X132080000Y-124460000D03*
D11*
X107694000Y-147955000D03*
X107694000Y-137795000D03*
X117604000Y-137795000D03*
X117604000Y-147955000D03*
X117604000Y-155575000D03*
X100205000Y-155575000D03*
X100205000Y-147955000D03*
X100205000Y-137795000D03*
X90295000Y-137795000D03*
X90295000Y-147955000D03*
D12*
X121920000Y-93345000D03*
X121920000Y-104745000D03*
D13*
X128920000Y-96545000D03*
X128920000Y-101545000D03*
X114420000Y-96545000D03*
X114420000Y-99045000D03*
X114420000Y-101545000D03*
D14*
X138430000Y-107950000D03*
D15*
X135890000Y-107950000D03*
X135890000Y-93980000D03*
D14*
X138430000Y-93980000D03*
X123190000Y-109220000D03*
D15*
X120650000Y-109220000D03*
X105410000Y-93980000D03*
D14*
X107950000Y-93980000D03*
X107950000Y-107950000D03*
D15*
X105410000Y-107950000D03*
D16*
X130810000Y-147955000D03*
D17*
X130810000Y-150495000D03*
X128270000Y-147955000D03*
X128270000Y-150495000D03*
X125730000Y-147955000D03*
X125730000Y-150495000D03*
X123190000Y-147955000D03*
X123190000Y-150495000D03*
X134620000Y-150495000D03*
X134620000Y-147955000D03*
X137160000Y-150495000D03*
X137160000Y-147955000D03*
X139700000Y-150495000D03*
X139700000Y-147955000D03*
X142240000Y-150495000D03*
D16*
X142240000Y-147955000D03*
D11*
X97429500Y-129069000D03*
X97429500Y-115929000D03*
D18*
X100139500Y-118999000D03*
D19*
X100139500Y-121499000D03*
X100139500Y-123499000D03*
X100139500Y-125999000D03*
D16*
X154940000Y-114935000D03*
D17*
X152400000Y-114935000D03*
X149860000Y-114935000D03*
X147320000Y-114935000D03*
X144780000Y-114935000D03*
X142240000Y-114935000D03*
X139700000Y-114935000D03*
X137160000Y-114935000D03*
X134620000Y-114935000D03*
X132080000Y-114935000D03*
X129540000Y-114935000D03*
X127000000Y-114935000D03*
X124460000Y-114935000D03*
X121920000Y-114935000D03*
X119380000Y-114935000D03*
X116840000Y-114935000D03*
X114300000Y-114935000D03*
X111760000Y-114935000D03*
X154940000Y-130175000D03*
X152400000Y-130175000D03*
X149860000Y-130175000D03*
X147320000Y-130175000D03*
X144780000Y-130175000D03*
X142240000Y-130175000D03*
X139700000Y-130175000D03*
X137160000Y-130175000D03*
X134620000Y-130175000D03*
X132080000Y-130175000D03*
X129540000Y-130175000D03*
X127000000Y-130175000D03*
X124460000Y-130175000D03*
X121920000Y-130175000D03*
X119380000Y-130175000D03*
X116840000Y-130175000D03*
X114300000Y-130175000D03*
D16*
X111760000Y-130175000D03*
X154813000Y-159258000D03*
D17*
X154813000Y-156718000D03*
X154813000Y-154178000D03*
X154813000Y-151638000D03*
X154813000Y-149098000D03*
D16*
X122809000Y-142303500D03*
D17*
X122809000Y-139763500D03*
X122809000Y-137223500D03*
X122809000Y-134683500D03*
G04 #@! TA.AperFunction,ComponentPad*
D20*
G36*
X149345505Y-148922704D02*
G01*
X149369773Y-148926304D01*
X149393572Y-148932265D01*
X149416671Y-148940530D01*
X149438850Y-148951020D01*
X149459893Y-148963632D01*
X149479599Y-148978247D01*
X149497777Y-148994723D01*
X149514253Y-149012901D01*
X149528868Y-149032607D01*
X149541480Y-149053650D01*
X149551970Y-149075829D01*
X149560235Y-149098928D01*
X149566196Y-149122727D01*
X149569796Y-149146995D01*
X149571000Y-149171499D01*
X149571000Y-150421501D01*
X149569796Y-150446005D01*
X149566196Y-150470273D01*
X149560235Y-150494072D01*
X149551970Y-150517171D01*
X149541480Y-150539350D01*
X149528868Y-150560393D01*
X149514253Y-150580099D01*
X149497777Y-150598277D01*
X149479599Y-150614753D01*
X149459893Y-150629368D01*
X149438850Y-150641980D01*
X149416671Y-150652470D01*
X149393572Y-150660735D01*
X149369773Y-150666696D01*
X149345505Y-150670296D01*
X149321001Y-150671500D01*
X148620999Y-150671500D01*
X148596495Y-150670296D01*
X148572227Y-150666696D01*
X148548428Y-150660735D01*
X148525329Y-150652470D01*
X148503150Y-150641980D01*
X148482107Y-150629368D01*
X148462401Y-150614753D01*
X148444223Y-150598277D01*
X148427747Y-150580099D01*
X148413132Y-150560393D01*
X148400520Y-150539350D01*
X148390030Y-150517171D01*
X148381765Y-150494072D01*
X148375804Y-150470273D01*
X148372204Y-150446005D01*
X148371000Y-150421501D01*
X148371000Y-149171499D01*
X148372204Y-149146995D01*
X148375804Y-149122727D01*
X148381765Y-149098928D01*
X148390030Y-149075829D01*
X148400520Y-149053650D01*
X148413132Y-149032607D01*
X148427747Y-149012901D01*
X148444223Y-148994723D01*
X148462401Y-148978247D01*
X148482107Y-148963632D01*
X148503150Y-148951020D01*
X148525329Y-148940530D01*
X148548428Y-148932265D01*
X148572227Y-148926304D01*
X148596495Y-148922704D01*
X148620999Y-148921500D01*
X149321001Y-148921500D01*
X149345505Y-148922704D01*
G37*
G04 #@! TD.AperFunction*
D21*
X146971000Y-149796500D03*
D22*
X154114500Y-140525500D03*
D23*
X154114500Y-138525500D03*
X154114500Y-136525500D03*
D24*
X154114500Y-142625500D03*
X154114500Y-134425500D03*
D13*
X89895000Y-99270000D03*
D25*
X102395000Y-106770000D03*
X99895000Y-109270000D03*
X99895000Y-101770000D03*
X99895000Y-94270000D03*
D13*
X89895000Y-104270000D03*
D25*
X102395000Y-96770000D03*
X141489371Y-106744233D03*
D13*
X153989371Y-99244233D03*
D25*
X143989371Y-109244233D03*
X143989371Y-101744233D03*
X143989371Y-94244233D03*
X141489371Y-96744233D03*
D13*
X153989371Y-104244233D03*
D17*
X103759000Y-124079000D03*
X103759000Y-121539000D03*
D16*
X103759000Y-118999000D03*
D18*
X114681000Y-118618000D03*
D19*
X114681000Y-121158000D03*
X114681000Y-123698000D03*
X122301000Y-123698000D03*
X122301000Y-121158000D03*
X122301000Y-118618000D03*
D26*
X111696500Y-123126500D03*
D14*
X111696500Y-120586500D03*
D27*
X88900000Y-133985000D03*
X133477000Y-146431000D03*
X147090000Y-157480000D03*
X118745000Y-121158000D03*
X151196580Y-122488420D03*
X133985000Y-122235000D03*
X103505000Y-127635000D03*
X145542000Y-148082000D03*
X134683500Y-137223500D03*
X144780000Y-146050000D03*
X133413500Y-134683500D03*
X136525000Y-156210000D03*
X133985000Y-156210000D03*
X131445000Y-156210000D03*
X128905000Y-156210000D03*
X146558000Y-136652000D03*
X149225000Y-134620000D03*
X129540000Y-126365000D03*
X131889500Y-119570500D03*
X147320000Y-107315000D03*
X111760000Y-104775000D03*
X110095000Y-98820000D03*
X148145500Y-141986000D03*
X103505000Y-129237500D03*
D28*
X154940000Y-114935000D02*
X154940000Y-112395000D01*
X152400000Y-130175000D02*
X152400000Y-127635000D01*
D29*
X115314000Y-155575000D02*
X107694000Y-147955000D01*
X117604000Y-155575000D02*
X115314000Y-155575000D01*
X103505000Y-127635000D02*
X102679500Y-128460500D01*
X102679500Y-142940500D02*
X107694000Y-147955000D01*
X102679500Y-128460500D02*
X102679500Y-142940500D01*
X117729000Y-100711000D02*
X117729000Y-113284000D01*
X114420000Y-99045000D02*
X116063000Y-99045000D01*
X117729000Y-113284000D02*
X119380000Y-114935000D01*
X116063000Y-99045000D02*
X117729000Y-100711000D01*
X134683500Y-137223500D02*
X145542000Y-148082000D01*
X133413500Y-134683500D02*
X144780000Y-146050000D01*
X142240000Y-150495000D02*
X136525000Y-156210000D01*
X127000000Y-114935000D02*
X130810000Y-118745000D01*
X130810000Y-118745000D02*
X130810000Y-145669998D01*
X130810000Y-145669998D02*
X132270001Y-147129999D01*
X132270001Y-148780001D02*
X130682501Y-150367501D01*
X132270001Y-147129999D02*
X132270001Y-148780001D01*
X139700000Y-150495000D02*
X133985000Y-156210000D01*
X124460000Y-114935000D02*
X128270000Y-118745000D01*
X129540000Y-147320000D02*
X128270000Y-146050000D01*
X128270000Y-150495000D02*
X129540000Y-149225000D01*
X128270000Y-118745000D02*
X128270000Y-146050000D01*
X129540000Y-149225000D02*
X129540000Y-147320000D01*
X137160000Y-150495000D02*
X131445000Y-156210000D01*
X121920000Y-114935000D02*
X125730000Y-118745000D01*
X125730000Y-118745000D02*
X125730000Y-130175000D01*
X125730000Y-130175000D02*
X125730000Y-146050000D01*
X127000000Y-147320000D02*
X125730000Y-146050000D01*
X125730000Y-150495000D02*
X127000000Y-149225000D01*
X127000000Y-149225000D02*
X127000000Y-147320000D01*
X134620000Y-150495000D02*
X128905000Y-156210000D01*
X124460000Y-149225000D02*
X123190000Y-150495000D01*
X124460000Y-130175000D02*
X124460000Y-149225000D01*
X103505000Y-114935000D02*
X111760000Y-114935000D01*
X102110000Y-116330000D02*
X103505000Y-114935000D01*
X100205000Y-137795000D02*
X102110000Y-135890000D01*
X102110000Y-135890000D02*
X102110000Y-116330000D01*
X152400000Y-139700000D02*
X153511250Y-140811250D01*
X146558000Y-136652000D02*
X149352000Y-136652000D01*
X149352000Y-136652000D02*
X152400000Y-139700000D01*
X148590000Y-133985000D02*
X149225000Y-134620000D01*
X149225000Y-134620000D02*
X149225000Y-134620000D01*
X148590000Y-133985000D02*
X148590000Y-128905000D01*
X148590000Y-128905000D02*
X147955000Y-128270000D01*
X147955000Y-128270000D02*
X132715000Y-128270000D01*
X132080000Y-127635000D02*
X132080000Y-124460000D01*
X132715000Y-128270000D02*
X132080000Y-127635000D01*
X129540000Y-126365000D02*
X129540000Y-130175000D01*
X152400000Y-114935000D02*
X150876000Y-116459000D01*
X150876000Y-116459000D02*
X135001000Y-116459000D01*
X135001000Y-116459000D02*
X131889500Y-119570500D01*
X131889500Y-119570500D02*
X131889500Y-119570500D01*
X147320000Y-114935000D02*
X147320000Y-107315000D01*
X147320000Y-107315000D02*
X147320000Y-107315000D01*
X111760000Y-109855000D02*
X116840000Y-114935000D01*
X111760000Y-104775000D02*
X111760000Y-109855000D01*
X110095000Y-110730000D02*
X114300000Y-114935000D01*
X110095000Y-98820000D02*
X110095000Y-110730000D01*
X155487500Y-138335000D02*
X156210000Y-137612500D01*
X156210000Y-131445000D02*
X154940000Y-130175000D01*
X156210000Y-137612500D02*
X156210000Y-131445000D01*
X148145500Y-141986000D02*
X150241000Y-144081500D01*
X150241000Y-144081500D02*
X155448000Y-144081500D01*
X155448000Y-144081500D02*
X156210000Y-143319500D01*
X156210000Y-139057500D02*
X155487500Y-138335000D01*
X155487500Y-138335000D02*
X153987500Y-138335000D01*
X156210000Y-143319500D02*
X156210000Y-139057500D01*
X147320000Y-130175000D02*
X145415000Y-132080000D01*
X145415000Y-132080000D02*
X145415000Y-140335000D01*
X145415000Y-140335000D02*
X149860000Y-144780000D01*
X154813000Y-147895919D02*
X151697081Y-144780000D01*
X154813000Y-149098000D02*
X154813000Y-147895919D01*
X151697081Y-144780000D02*
X149860000Y-144780000D01*
X153289000Y-149987000D02*
X154813000Y-151511000D01*
X144780000Y-130175000D02*
X144780000Y-140970000D01*
X144780000Y-140970000D02*
X149225000Y-145415000D01*
X153289000Y-149987000D02*
X153289000Y-147320000D01*
X151384000Y-145415000D02*
X149225000Y-145415000D01*
X153289000Y-147320000D02*
X151384000Y-145415000D01*
X152781000Y-152019000D02*
X154813000Y-154051000D01*
X137160000Y-130175000D02*
X137160000Y-134620000D01*
X137160000Y-134620000D02*
X148590000Y-146050000D01*
X152781000Y-152019000D02*
X152781000Y-147955000D01*
X150876000Y-146050000D02*
X148590000Y-146050000D01*
X152781000Y-147955000D02*
X150876000Y-146050000D01*
X152273000Y-154051000D02*
X154813000Y-156591000D01*
X134620000Y-130175000D02*
X134620000Y-133350000D01*
X134620000Y-133350000D02*
X147955000Y-146685000D01*
X147955000Y-146685000D02*
X150495000Y-146685000D01*
X152273000Y-154051000D02*
X152273000Y-148590000D01*
X152273000Y-148590000D02*
X152273000Y-148463000D01*
X152273000Y-148463000D02*
X150495000Y-146685000D01*
X151765000Y-156083000D02*
X154813000Y-159131000D01*
X132080000Y-130175000D02*
X132080000Y-132080000D01*
X132080000Y-132080000D02*
X147320000Y-147320000D01*
X147320000Y-147320000D02*
X149860000Y-147320000D01*
X149860000Y-147320000D02*
X151765000Y-149225000D01*
X151765000Y-149225000D02*
X151765000Y-156083000D01*
X103505000Y-129237500D02*
X103505000Y-138430000D01*
X113030000Y-147955000D02*
X117604000Y-147955000D01*
X103505000Y-138430000D02*
X113030000Y-147955000D01*
D30*
G36*
X154813000Y-118797606D02*
G01*
X154813000Y-121178273D01*
X154771411Y-121170000D01*
X154498589Y-121170000D01*
X154231011Y-121223225D01*
X153978957Y-121327629D01*
X153752114Y-121479201D01*
X153559201Y-121672114D01*
X153407629Y-121898957D01*
X153303225Y-122151011D01*
X153250000Y-122418589D01*
X153250000Y-122691411D01*
X153303225Y-122958989D01*
X153407629Y-123211043D01*
X153559201Y-123437886D01*
X153752114Y-123630799D01*
X153978957Y-123782371D01*
X154231011Y-123886775D01*
X154498589Y-123940000D01*
X154771411Y-123940000D01*
X154813000Y-123931727D01*
X154813000Y-126947394D01*
X153617394Y-128143000D01*
X148902802Y-128143000D01*
X148518803Y-127759002D01*
X148495001Y-127729999D01*
X148379276Y-127635026D01*
X148247247Y-127564454D01*
X148103986Y-127520997D01*
X147992333Y-127510000D01*
X147992322Y-127510000D01*
X147955000Y-127506324D01*
X147917678Y-127510000D01*
X133029802Y-127510000D01*
X132840000Y-127320199D01*
X132840000Y-125764701D01*
X132879482Y-125760812D01*
X132999180Y-125724502D01*
X133109494Y-125665537D01*
X133206185Y-125586185D01*
X133285537Y-125489494D01*
X133344502Y-125379180D01*
X133380812Y-125259482D01*
X133393072Y-125135000D01*
X133393072Y-123785000D01*
X133380812Y-123660518D01*
X133344502Y-123540820D01*
X133285537Y-123430506D01*
X133206185Y-123333815D01*
X133109494Y-123254463D01*
X132999180Y-123195498D01*
X132879482Y-123159188D01*
X132755000Y-123146928D01*
X131572000Y-123146928D01*
X131572000Y-122418589D01*
X146250000Y-122418589D01*
X146250000Y-122691411D01*
X146303225Y-122958989D01*
X146407629Y-123211043D01*
X146559201Y-123437886D01*
X146752114Y-123630799D01*
X146978957Y-123782371D01*
X147231011Y-123886775D01*
X147498589Y-123940000D01*
X147771411Y-123940000D01*
X148038989Y-123886775D01*
X148291043Y-123782371D01*
X148517886Y-123630799D01*
X148710799Y-123437886D01*
X148862371Y-123211043D01*
X148966775Y-122958989D01*
X149020000Y-122691411D01*
X149020000Y-122418589D01*
X148966775Y-122151011D01*
X148862371Y-121898957D01*
X148710799Y-121672114D01*
X148517886Y-121479201D01*
X148291043Y-121327629D01*
X148038989Y-121223225D01*
X147771411Y-121170000D01*
X147498589Y-121170000D01*
X147231011Y-121223225D01*
X146978957Y-121327629D01*
X146752114Y-121479201D01*
X146559201Y-121672114D01*
X146407629Y-121898957D01*
X146303225Y-122151011D01*
X146250000Y-122418589D01*
X131572000Y-122418589D01*
X131572000Y-121337606D01*
X132506766Y-120402840D01*
X132549274Y-120374437D01*
X132693437Y-120230274D01*
X132721840Y-120187766D01*
X135307606Y-117602000D01*
X153617394Y-117602000D01*
X154813000Y-118797606D01*
G37*
X154813000Y-118797606D02*
X154813000Y-121178273D01*
X154771411Y-121170000D01*
X154498589Y-121170000D01*
X154231011Y-121223225D01*
X153978957Y-121327629D01*
X153752114Y-121479201D01*
X153559201Y-121672114D01*
X153407629Y-121898957D01*
X153303225Y-122151011D01*
X153250000Y-122418589D01*
X153250000Y-122691411D01*
X153303225Y-122958989D01*
X153407629Y-123211043D01*
X153559201Y-123437886D01*
X153752114Y-123630799D01*
X153978957Y-123782371D01*
X154231011Y-123886775D01*
X154498589Y-123940000D01*
X154771411Y-123940000D01*
X154813000Y-123931727D01*
X154813000Y-126947394D01*
X153617394Y-128143000D01*
X148902802Y-128143000D01*
X148518803Y-127759002D01*
X148495001Y-127729999D01*
X148379276Y-127635026D01*
X148247247Y-127564454D01*
X148103986Y-127520997D01*
X147992333Y-127510000D01*
X147992322Y-127510000D01*
X147955000Y-127506324D01*
X147917678Y-127510000D01*
X133029802Y-127510000D01*
X132840000Y-127320199D01*
X132840000Y-125764701D01*
X132879482Y-125760812D01*
X132999180Y-125724502D01*
X133109494Y-125665537D01*
X133206185Y-125586185D01*
X133285537Y-125489494D01*
X133344502Y-125379180D01*
X133380812Y-125259482D01*
X133393072Y-125135000D01*
X133393072Y-123785000D01*
X133380812Y-123660518D01*
X133344502Y-123540820D01*
X133285537Y-123430506D01*
X133206185Y-123333815D01*
X133109494Y-123254463D01*
X132999180Y-123195498D01*
X132879482Y-123159188D01*
X132755000Y-123146928D01*
X131572000Y-123146928D01*
X131572000Y-122418589D01*
X146250000Y-122418589D01*
X146250000Y-122691411D01*
X146303225Y-122958989D01*
X146407629Y-123211043D01*
X146559201Y-123437886D01*
X146752114Y-123630799D01*
X146978957Y-123782371D01*
X147231011Y-123886775D01*
X147498589Y-123940000D01*
X147771411Y-123940000D01*
X148038989Y-123886775D01*
X148291043Y-123782371D01*
X148517886Y-123630799D01*
X148710799Y-123437886D01*
X148862371Y-123211043D01*
X148966775Y-122958989D01*
X149020000Y-122691411D01*
X149020000Y-122418589D01*
X148966775Y-122151011D01*
X148862371Y-121898957D01*
X148710799Y-121672114D01*
X148517886Y-121479201D01*
X148291043Y-121327629D01*
X148038989Y-121223225D01*
X147771411Y-121170000D01*
X147498589Y-121170000D01*
X147231011Y-121223225D01*
X146978957Y-121327629D01*
X146752114Y-121479201D01*
X146559201Y-121672114D01*
X146407629Y-121898957D01*
X146303225Y-122151011D01*
X146250000Y-122418589D01*
X131572000Y-122418589D01*
X131572000Y-121337606D01*
X132506766Y-120402840D01*
X132549274Y-120374437D01*
X132693437Y-120230274D01*
X132721840Y-120187766D01*
X135307606Y-117602000D01*
X153617394Y-117602000D01*
X154813000Y-118797606D01*
G36*
X119481928Y-94745000D02*
G01*
X119494188Y-94869482D01*
X119530498Y-94989180D01*
X119589463Y-95099494D01*
X119668815Y-95196185D01*
X119765506Y-95275537D01*
X119875820Y-95334502D01*
X119995518Y-95370812D01*
X120120000Y-95383072D01*
X123720000Y-95383072D01*
X123844482Y-95370812D01*
X123964180Y-95334502D01*
X124074494Y-95275537D01*
X124171185Y-95196185D01*
X124250537Y-95099494D01*
X124309502Y-94989180D01*
X124345812Y-94869482D01*
X124358072Y-94745000D01*
X124358072Y-93828816D01*
X134355000Y-93828816D01*
X134355000Y-94131184D01*
X134413989Y-94427743D01*
X134529701Y-94707095D01*
X134697688Y-94958505D01*
X134911495Y-95172312D01*
X135162905Y-95340299D01*
X135442257Y-95456011D01*
X135738816Y-95515000D01*
X136041184Y-95515000D01*
X136337743Y-95456011D01*
X136617095Y-95340299D01*
X136868505Y-95172312D01*
X136934944Y-95105873D01*
X136940498Y-95124180D01*
X136999463Y-95234494D01*
X137078815Y-95331185D01*
X137175506Y-95410537D01*
X137285820Y-95469502D01*
X137405518Y-95505812D01*
X137530000Y-95518072D01*
X138144250Y-95515000D01*
X138303000Y-95356250D01*
X138303000Y-94107000D01*
X138557000Y-94107000D01*
X138557000Y-95356250D01*
X138715750Y-95515000D01*
X139330000Y-95518072D01*
X139454482Y-95505812D01*
X139574180Y-95469502D01*
X139684494Y-95410537D01*
X139781185Y-95331185D01*
X139860537Y-95234494D01*
X139919502Y-95124180D01*
X139955812Y-95004482D01*
X139968072Y-94880000D01*
X139965000Y-94265750D01*
X139806250Y-94107000D01*
X138557000Y-94107000D01*
X138303000Y-94107000D01*
X138283000Y-94107000D01*
X138283000Y-93853000D01*
X138303000Y-93853000D01*
X138303000Y-92603750D01*
X138557000Y-92603750D01*
X138557000Y-93853000D01*
X139806250Y-93853000D01*
X139965000Y-93694250D01*
X139968072Y-93080000D01*
X139955812Y-92955518D01*
X139919502Y-92835820D01*
X139860537Y-92725506D01*
X139781185Y-92628815D01*
X139684494Y-92549463D01*
X139574180Y-92490498D01*
X139454482Y-92454188D01*
X139330000Y-92441928D01*
X138715750Y-92445000D01*
X138557000Y-92603750D01*
X138303000Y-92603750D01*
X138144250Y-92445000D01*
X137530000Y-92441928D01*
X137405518Y-92454188D01*
X137285820Y-92490498D01*
X137175506Y-92549463D01*
X137078815Y-92628815D01*
X136999463Y-92725506D01*
X136940498Y-92835820D01*
X136934944Y-92854127D01*
X136868505Y-92787688D01*
X136617095Y-92619701D01*
X136337743Y-92503989D01*
X136041184Y-92445000D01*
X135738816Y-92445000D01*
X135442257Y-92503989D01*
X135162905Y-92619701D01*
X134911495Y-92787688D01*
X134697688Y-93001495D01*
X134529701Y-93252905D01*
X134413989Y-93532257D01*
X134355000Y-93828816D01*
X124358072Y-93828816D01*
X124358072Y-92202000D01*
X156083000Y-92202000D01*
X156083000Y-113521593D01*
X156034180Y-113495498D01*
X155914482Y-113459188D01*
X155790000Y-113446928D01*
X155225750Y-113450000D01*
X155067000Y-113608750D01*
X155067000Y-114808000D01*
X154813000Y-114808000D01*
X154813000Y-113608750D01*
X154654250Y-113450000D01*
X154090000Y-113446928D01*
X153965518Y-113459188D01*
X153845820Y-113495498D01*
X153735506Y-113554463D01*
X153638815Y-113633815D01*
X153559463Y-113730506D01*
X153500498Y-113840820D01*
X153478487Y-113913380D01*
X153346632Y-113781525D01*
X153103411Y-113619010D01*
X152833158Y-113507068D01*
X152546260Y-113450000D01*
X152253740Y-113450000D01*
X151966842Y-113507068D01*
X151696589Y-113619010D01*
X151453368Y-113781525D01*
X151246525Y-113988368D01*
X151130000Y-114162760D01*
X151013475Y-113988368D01*
X150806632Y-113781525D01*
X150563411Y-113619010D01*
X150293158Y-113507068D01*
X150006260Y-113450000D01*
X149713740Y-113450000D01*
X149426842Y-113507068D01*
X149156589Y-113619010D01*
X148913368Y-113781525D01*
X148706525Y-113988368D01*
X148590000Y-114162760D01*
X148473475Y-113988368D01*
X148266632Y-113781525D01*
X148080000Y-113656822D01*
X148080000Y-108018711D01*
X148123937Y-107974774D01*
X148237205Y-107805256D01*
X148315226Y-107616898D01*
X148355000Y-107416939D01*
X148355000Y-107213061D01*
X148315226Y-107013102D01*
X148237205Y-106824744D01*
X148123937Y-106655226D01*
X147979774Y-106511063D01*
X147810256Y-106397795D01*
X147621898Y-106319774D01*
X147421939Y-106280000D01*
X147218061Y-106280000D01*
X147018102Y-106319774D01*
X146829744Y-106397795D01*
X146660226Y-106511063D01*
X146516063Y-106655226D01*
X146402795Y-106824744D01*
X146324774Y-107013102D01*
X146285000Y-107213061D01*
X146285000Y-107416939D01*
X146324774Y-107616898D01*
X146402795Y-107805256D01*
X146516063Y-107974774D01*
X146560001Y-108018712D01*
X146560000Y-113656821D01*
X146373368Y-113781525D01*
X146166525Y-113988368D01*
X146050000Y-114162760D01*
X145933475Y-113988368D01*
X145726632Y-113781525D01*
X145483411Y-113619010D01*
X145213158Y-113507068D01*
X144926260Y-113450000D01*
X144633740Y-113450000D01*
X144346842Y-113507068D01*
X144076589Y-113619010D01*
X143833368Y-113781525D01*
X143626525Y-113988368D01*
X143510000Y-114162760D01*
X143393475Y-113988368D01*
X143186632Y-113781525D01*
X142943411Y-113619010D01*
X142673158Y-113507068D01*
X142386260Y-113450000D01*
X142093740Y-113450000D01*
X141806842Y-113507068D01*
X141536589Y-113619010D01*
X141293368Y-113781525D01*
X141086525Y-113988368D01*
X140970000Y-114162760D01*
X140853475Y-113988368D01*
X140646632Y-113781525D01*
X140403411Y-113619010D01*
X140133158Y-113507068D01*
X139846260Y-113450000D01*
X139553740Y-113450000D01*
X139266842Y-113507068D01*
X138996589Y-113619010D01*
X138753368Y-113781525D01*
X138546525Y-113988368D01*
X138430000Y-114162760D01*
X138313475Y-113988368D01*
X138106632Y-113781525D01*
X137863411Y-113619010D01*
X137593158Y-113507068D01*
X137306260Y-113450000D01*
X137013740Y-113450000D01*
X136726842Y-113507068D01*
X136456589Y-113619010D01*
X136213368Y-113781525D01*
X136006525Y-113988368D01*
X135890000Y-114162760D01*
X135773475Y-113988368D01*
X135566632Y-113781525D01*
X135323411Y-113619010D01*
X135053158Y-113507068D01*
X134766260Y-113450000D01*
X134473740Y-113450000D01*
X134186842Y-113507068D01*
X133916589Y-113619010D01*
X133673368Y-113781525D01*
X133466525Y-113988368D01*
X133350000Y-114162760D01*
X133233475Y-113988368D01*
X133026632Y-113781525D01*
X132783411Y-113619010D01*
X132513158Y-113507068D01*
X132226260Y-113450000D01*
X131933740Y-113450000D01*
X131646842Y-113507068D01*
X131376589Y-113619010D01*
X131133368Y-113781525D01*
X130926525Y-113988368D01*
X130810000Y-114162760D01*
X130693475Y-113988368D01*
X130486632Y-113781525D01*
X130243411Y-113619010D01*
X129973158Y-113507068D01*
X129686260Y-113450000D01*
X129393740Y-113450000D01*
X129106842Y-113507068D01*
X128836589Y-113619010D01*
X128593368Y-113781525D01*
X128386525Y-113988368D01*
X128270000Y-114162760D01*
X128153475Y-113988368D01*
X127946632Y-113781525D01*
X127703411Y-113619010D01*
X127433158Y-113507068D01*
X127146260Y-113450000D01*
X126853740Y-113450000D01*
X126566842Y-113507068D01*
X126296589Y-113619010D01*
X126053368Y-113781525D01*
X125846525Y-113988368D01*
X125730000Y-114162760D01*
X125613475Y-113988368D01*
X125406632Y-113781525D01*
X125163411Y-113619010D01*
X124893158Y-113507068D01*
X124606260Y-113450000D01*
X124313740Y-113450000D01*
X124026842Y-113507068D01*
X123756589Y-113619010D01*
X123513368Y-113781525D01*
X123306525Y-113988368D01*
X123190000Y-114162760D01*
X123073475Y-113988368D01*
X122866632Y-113781525D01*
X122623411Y-113619010D01*
X122353158Y-113507068D01*
X122066260Y-113450000D01*
X121773740Y-113450000D01*
X121486842Y-113507068D01*
X121216589Y-113619010D01*
X120973368Y-113781525D01*
X120766525Y-113988368D01*
X120650000Y-114162760D01*
X120533475Y-113988368D01*
X120326632Y-113781525D01*
X120083411Y-113619010D01*
X119813158Y-113507068D01*
X119526260Y-113450000D01*
X119233740Y-113450000D01*
X119013592Y-113493791D01*
X118489000Y-112969199D01*
X118489000Y-109068816D01*
X119115000Y-109068816D01*
X119115000Y-109371184D01*
X119173989Y-109667743D01*
X119289701Y-109947095D01*
X119457688Y-110198505D01*
X119671495Y-110412312D01*
X119922905Y-110580299D01*
X120202257Y-110696011D01*
X120498816Y-110755000D01*
X120801184Y-110755000D01*
X121097743Y-110696011D01*
X121377095Y-110580299D01*
X121628505Y-110412312D01*
X121694944Y-110345873D01*
X121700498Y-110364180D01*
X121759463Y-110474494D01*
X121838815Y-110571185D01*
X121935506Y-110650537D01*
X122045820Y-110709502D01*
X122165518Y-110745812D01*
X122290000Y-110758072D01*
X122904250Y-110755000D01*
X123063000Y-110596250D01*
X123063000Y-109347000D01*
X123317000Y-109347000D01*
X123317000Y-110596250D01*
X123475750Y-110755000D01*
X124090000Y-110758072D01*
X124214482Y-110745812D01*
X124334180Y-110709502D01*
X124444494Y-110650537D01*
X124541185Y-110571185D01*
X124620537Y-110474494D01*
X124679502Y-110364180D01*
X124715812Y-110244482D01*
X124728072Y-110120000D01*
X124725000Y-109505750D01*
X124566250Y-109347000D01*
X123317000Y-109347000D01*
X123063000Y-109347000D01*
X123043000Y-109347000D01*
X123043000Y-109093000D01*
X123063000Y-109093000D01*
X123063000Y-107843750D01*
X123317000Y-107843750D01*
X123317000Y-109093000D01*
X124566250Y-109093000D01*
X124725000Y-108934250D01*
X124728072Y-108320000D01*
X124715812Y-108195518D01*
X124679502Y-108075820D01*
X124620537Y-107965506D01*
X124541185Y-107868815D01*
X124455891Y-107798816D01*
X134355000Y-107798816D01*
X134355000Y-108101184D01*
X134413989Y-108397743D01*
X134529701Y-108677095D01*
X134697688Y-108928505D01*
X134911495Y-109142312D01*
X135162905Y-109310299D01*
X135442257Y-109426011D01*
X135738816Y-109485000D01*
X136041184Y-109485000D01*
X136337743Y-109426011D01*
X136617095Y-109310299D01*
X136868505Y-109142312D01*
X136934944Y-109075873D01*
X136940498Y-109094180D01*
X136999463Y-109204494D01*
X137078815Y-109301185D01*
X137175506Y-109380537D01*
X137285820Y-109439502D01*
X137405518Y-109475812D01*
X137530000Y-109488072D01*
X138144250Y-109485000D01*
X138303000Y-109326250D01*
X138303000Y-108077000D01*
X138557000Y-108077000D01*
X138557000Y-109326250D01*
X138715750Y-109485000D01*
X139330000Y-109488072D01*
X139454482Y-109475812D01*
X139574180Y-109439502D01*
X139684494Y-109380537D01*
X139781185Y-109301185D01*
X139860537Y-109204494D01*
X139919502Y-109094180D01*
X139955812Y-108974482D01*
X139968072Y-108850000D01*
X139965000Y-108235750D01*
X139806250Y-108077000D01*
X138557000Y-108077000D01*
X138303000Y-108077000D01*
X138283000Y-108077000D01*
X138283000Y-107823000D01*
X138303000Y-107823000D01*
X138303000Y-106573750D01*
X138557000Y-106573750D01*
X138557000Y-107823000D01*
X139806250Y-107823000D01*
X139960387Y-107668863D01*
X140102871Y-107882104D01*
X140351500Y-108130733D01*
X140643856Y-108326080D01*
X140968706Y-108460637D01*
X141313564Y-108529233D01*
X141665178Y-108529233D01*
X142010036Y-108460637D01*
X142334886Y-108326080D01*
X142553795Y-108179809D01*
X142407524Y-108398718D01*
X142272967Y-108723568D01*
X142204371Y-109068426D01*
X142204371Y-109420040D01*
X142272967Y-109764898D01*
X142407524Y-110089748D01*
X142602871Y-110382104D01*
X142851500Y-110630733D01*
X143143856Y-110826080D01*
X143468706Y-110960637D01*
X143813564Y-111029233D01*
X144165178Y-111029233D01*
X144510036Y-110960637D01*
X144834886Y-110826080D01*
X145127242Y-110630733D01*
X145375871Y-110382104D01*
X145571218Y-110089748D01*
X145705775Y-109764898D01*
X145774371Y-109420040D01*
X145774371Y-109068426D01*
X145705775Y-108723568D01*
X145571218Y-108398718D01*
X145375871Y-108106362D01*
X145127242Y-107857733D01*
X144834886Y-107662386D01*
X144510036Y-107527829D01*
X144165178Y-107459233D01*
X143813564Y-107459233D01*
X143468706Y-107527829D01*
X143143856Y-107662386D01*
X142924947Y-107808657D01*
X143071218Y-107589748D01*
X143205775Y-107264898D01*
X143274371Y-106920040D01*
X143274371Y-106568426D01*
X143205775Y-106223568D01*
X143071218Y-105898718D01*
X142875871Y-105606362D01*
X142627242Y-105357733D01*
X142334886Y-105162386D01*
X142010036Y-105027829D01*
X141665178Y-104959233D01*
X141313564Y-104959233D01*
X140968706Y-105027829D01*
X140643856Y-105162386D01*
X140351500Y-105357733D01*
X140102871Y-105606362D01*
X139907524Y-105898718D01*
X139772967Y-106223568D01*
X139709954Y-106540358D01*
X139684494Y-106519463D01*
X139574180Y-106460498D01*
X139454482Y-106424188D01*
X139330000Y-106411928D01*
X138715750Y-106415000D01*
X138557000Y-106573750D01*
X138303000Y-106573750D01*
X138144250Y-106415000D01*
X137530000Y-106411928D01*
X137405518Y-106424188D01*
X137285820Y-106460498D01*
X137175506Y-106519463D01*
X137078815Y-106598815D01*
X136999463Y-106695506D01*
X136940498Y-106805820D01*
X136934944Y-106824127D01*
X136868505Y-106757688D01*
X136617095Y-106589701D01*
X136337743Y-106473989D01*
X136041184Y-106415000D01*
X135738816Y-106415000D01*
X135442257Y-106473989D01*
X135162905Y-106589701D01*
X134911495Y-106757688D01*
X134697688Y-106971495D01*
X134529701Y-107222905D01*
X134413989Y-107502257D01*
X134355000Y-107798816D01*
X124455891Y-107798816D01*
X124444494Y-107789463D01*
X124334180Y-107730498D01*
X124214482Y-107694188D01*
X124090000Y-107681928D01*
X123475750Y-107685000D01*
X123317000Y-107843750D01*
X123063000Y-107843750D01*
X122904250Y-107685000D01*
X122290000Y-107681928D01*
X122165518Y-107694188D01*
X122045820Y-107730498D01*
X121935506Y-107789463D01*
X121838815Y-107868815D01*
X121759463Y-107965506D01*
X121700498Y-108075820D01*
X121694944Y-108094127D01*
X121628505Y-108027688D01*
X121377095Y-107859701D01*
X121097743Y-107743989D01*
X120801184Y-107685000D01*
X120498816Y-107685000D01*
X120202257Y-107743989D01*
X119922905Y-107859701D01*
X119671495Y-108027688D01*
X119457688Y-108241495D01*
X119289701Y-108492905D01*
X119173989Y-108772257D01*
X119115000Y-109068816D01*
X118489000Y-109068816D01*
X118489000Y-103345000D01*
X119481928Y-103345000D01*
X119481928Y-106145000D01*
X119494188Y-106269482D01*
X119530498Y-106389180D01*
X119589463Y-106499494D01*
X119668815Y-106596185D01*
X119765506Y-106675537D01*
X119875820Y-106734502D01*
X119995518Y-106770812D01*
X120120000Y-106783072D01*
X123720000Y-106783072D01*
X123844482Y-106770812D01*
X123964180Y-106734502D01*
X124074494Y-106675537D01*
X124171185Y-106596185D01*
X124250537Y-106499494D01*
X124309502Y-106389180D01*
X124345812Y-106269482D01*
X124358072Y-106145000D01*
X124358072Y-104083200D01*
X152354371Y-104083200D01*
X152354371Y-104405266D01*
X152417203Y-104721145D01*
X152540453Y-105018696D01*
X152719384Y-105286485D01*
X152947119Y-105514220D01*
X153214908Y-105693151D01*
X153512459Y-105816401D01*
X153828338Y-105879233D01*
X154150404Y-105879233D01*
X154466283Y-105816401D01*
X154763834Y-105693151D01*
X155031623Y-105514220D01*
X155259358Y-105286485D01*
X155438289Y-105018696D01*
X155561539Y-104721145D01*
X155624371Y-104405266D01*
X155624371Y-104083200D01*
X155561539Y-103767321D01*
X155438289Y-103469770D01*
X155259358Y-103201981D01*
X155031623Y-102974246D01*
X154763834Y-102795315D01*
X154466283Y-102672065D01*
X154150404Y-102609233D01*
X153828338Y-102609233D01*
X153512459Y-102672065D01*
X153214908Y-102795315D01*
X152947119Y-102974246D01*
X152719384Y-103201981D01*
X152540453Y-103469770D01*
X152417203Y-103767321D01*
X152354371Y-104083200D01*
X124358072Y-104083200D01*
X124358072Y-103345000D01*
X124345812Y-103220518D01*
X124309502Y-103100820D01*
X124250537Y-102990506D01*
X124171185Y-102893815D01*
X124074494Y-102814463D01*
X123964180Y-102755498D01*
X123844482Y-102719188D01*
X123720000Y-102706928D01*
X120120000Y-102706928D01*
X119995518Y-102719188D01*
X119875820Y-102755498D01*
X119765506Y-102814463D01*
X119668815Y-102893815D01*
X119589463Y-102990506D01*
X119530498Y-103100820D01*
X119494188Y-103220518D01*
X119481928Y-103345000D01*
X118489000Y-103345000D01*
X118489000Y-102680413D01*
X127964192Y-102680413D01*
X128059956Y-102944814D01*
X128349571Y-103085704D01*
X128661108Y-103167384D01*
X128982595Y-103186718D01*
X129301675Y-103142961D01*
X129606088Y-103037795D01*
X129701901Y-102986582D01*
X142926627Y-102986582D01*
X143040489Y-103266323D01*
X143355667Y-103422194D01*
X143695197Y-103513582D01*
X144046032Y-103536974D01*
X144394690Y-103491473D01*
X144727771Y-103378827D01*
X144938253Y-103266323D01*
X145052115Y-102986582D01*
X143989371Y-101923838D01*
X142926627Y-102986582D01*
X129701901Y-102986582D01*
X129780044Y-102944814D01*
X129875808Y-102680413D01*
X128920000Y-101724605D01*
X127964192Y-102680413D01*
X118489000Y-102680413D01*
X118489000Y-101607595D01*
X127278282Y-101607595D01*
X127322039Y-101926675D01*
X127427205Y-102231088D01*
X127520186Y-102405044D01*
X127784587Y-102500808D01*
X128740395Y-101545000D01*
X129099605Y-101545000D01*
X130055413Y-102500808D01*
X130319814Y-102405044D01*
X130460704Y-102115429D01*
X130542384Y-101803892D01*
X130542564Y-101800894D01*
X142196630Y-101800894D01*
X142242131Y-102149552D01*
X142354777Y-102482633D01*
X142467281Y-102693115D01*
X142747022Y-102806977D01*
X143809766Y-101744233D01*
X144168976Y-101744233D01*
X145231720Y-102806977D01*
X145511461Y-102693115D01*
X145667332Y-102377937D01*
X145758720Y-102038407D01*
X145782112Y-101687572D01*
X145736611Y-101338914D01*
X145623965Y-101005833D01*
X145511461Y-100795351D01*
X145231720Y-100681489D01*
X144168976Y-101744233D01*
X143809766Y-101744233D01*
X142747022Y-100681489D01*
X142467281Y-100795351D01*
X142311410Y-101110529D01*
X142220022Y-101450059D01*
X142196630Y-101800894D01*
X130542564Y-101800894D01*
X130561718Y-101482405D01*
X130517961Y-101163325D01*
X130412795Y-100858912D01*
X130319814Y-100684956D01*
X130055413Y-100589192D01*
X129099605Y-101545000D01*
X128740395Y-101545000D01*
X127784587Y-100589192D01*
X127520186Y-100684956D01*
X127379296Y-100974571D01*
X127297616Y-101286108D01*
X127278282Y-101607595D01*
X118489000Y-101607595D01*
X118489000Y-100748325D01*
X118492676Y-100711000D01*
X118489000Y-100673675D01*
X118489000Y-100673667D01*
X118478003Y-100562014D01*
X118434546Y-100418753D01*
X118429647Y-100409587D01*
X127964192Y-100409587D01*
X128920000Y-101365395D01*
X129783511Y-100501884D01*
X142926627Y-100501884D01*
X143989371Y-101564628D01*
X145052115Y-100501884D01*
X144938253Y-100222143D01*
X144623075Y-100066272D01*
X144283545Y-99974884D01*
X143932710Y-99951492D01*
X143584052Y-99996993D01*
X143250971Y-100109639D01*
X143040489Y-100222143D01*
X142926627Y-100501884D01*
X129783511Y-100501884D01*
X129875808Y-100409587D01*
X129780044Y-100145186D01*
X129490429Y-100004296D01*
X129178892Y-99922616D01*
X128857405Y-99903282D01*
X128538325Y-99947039D01*
X128233912Y-100052205D01*
X128059956Y-100145186D01*
X127964192Y-100409587D01*
X118429647Y-100409587D01*
X118363974Y-100286724D01*
X118269001Y-100170999D01*
X118240004Y-100147202D01*
X117176002Y-99083200D01*
X152354371Y-99083200D01*
X152354371Y-99405266D01*
X152417203Y-99721145D01*
X152540453Y-100018696D01*
X152719384Y-100286485D01*
X152947119Y-100514220D01*
X153214908Y-100693151D01*
X153512459Y-100816401D01*
X153828338Y-100879233D01*
X154150404Y-100879233D01*
X154466283Y-100816401D01*
X154763834Y-100693151D01*
X155031623Y-100514220D01*
X155259358Y-100286485D01*
X155438289Y-100018696D01*
X155561539Y-99721145D01*
X155624371Y-99405266D01*
X155624371Y-99083200D01*
X155561539Y-98767321D01*
X155438289Y-98469770D01*
X155259358Y-98201981D01*
X155031623Y-97974246D01*
X154763834Y-97795315D01*
X154466283Y-97672065D01*
X154150404Y-97609233D01*
X153828338Y-97609233D01*
X153512459Y-97672065D01*
X153214908Y-97795315D01*
X152947119Y-97974246D01*
X152719384Y-98201981D01*
X152540453Y-98469770D01*
X152417203Y-98767321D01*
X152354371Y-99083200D01*
X117176002Y-99083200D01*
X116626804Y-98534003D01*
X116603001Y-98504999D01*
X116487276Y-98410026D01*
X116355247Y-98339454D01*
X116211986Y-98295997D01*
X116100333Y-98285000D01*
X116100322Y-98285000D01*
X116063000Y-98281324D01*
X116025678Y-98285000D01*
X115874909Y-98285000D01*
X115868918Y-98270537D01*
X115689987Y-98002748D01*
X115482239Y-97795000D01*
X115689987Y-97587252D01*
X115868918Y-97319463D01*
X115992168Y-97021912D01*
X116055000Y-96706033D01*
X116055000Y-96383967D01*
X127285000Y-96383967D01*
X127285000Y-96706033D01*
X127347832Y-97021912D01*
X127471082Y-97319463D01*
X127650013Y-97587252D01*
X127877748Y-97814987D01*
X128145537Y-97993918D01*
X128443088Y-98117168D01*
X128758967Y-98180000D01*
X129081033Y-98180000D01*
X129396912Y-98117168D01*
X129694463Y-97993918D01*
X129962252Y-97814987D01*
X130189987Y-97587252D01*
X130368918Y-97319463D01*
X130492168Y-97021912D01*
X130555000Y-96706033D01*
X130555000Y-96568426D01*
X139704371Y-96568426D01*
X139704371Y-96920040D01*
X139772967Y-97264898D01*
X139907524Y-97589748D01*
X140102871Y-97882104D01*
X140351500Y-98130733D01*
X140643856Y-98326080D01*
X140968706Y-98460637D01*
X141313564Y-98529233D01*
X141665178Y-98529233D01*
X142010036Y-98460637D01*
X142334886Y-98326080D01*
X142627242Y-98130733D01*
X142875871Y-97882104D01*
X143071218Y-97589748D01*
X143205775Y-97264898D01*
X143274371Y-96920040D01*
X143274371Y-96568426D01*
X143205775Y-96223568D01*
X143071218Y-95898718D01*
X142924947Y-95679809D01*
X143143856Y-95826080D01*
X143468706Y-95960637D01*
X143813564Y-96029233D01*
X144165178Y-96029233D01*
X144510036Y-95960637D01*
X144834886Y-95826080D01*
X145127242Y-95630733D01*
X145375871Y-95382104D01*
X145571218Y-95089748D01*
X145705775Y-94764898D01*
X145774371Y-94420040D01*
X145774371Y-94068426D01*
X145705775Y-93723568D01*
X145571218Y-93398718D01*
X145375871Y-93106362D01*
X145127242Y-92857733D01*
X144834886Y-92662386D01*
X144510036Y-92527829D01*
X144165178Y-92459233D01*
X143813564Y-92459233D01*
X143468706Y-92527829D01*
X143143856Y-92662386D01*
X142851500Y-92857733D01*
X142602871Y-93106362D01*
X142407524Y-93398718D01*
X142272967Y-93723568D01*
X142204371Y-94068426D01*
X142204371Y-94420040D01*
X142272967Y-94764898D01*
X142407524Y-95089748D01*
X142553795Y-95308657D01*
X142334886Y-95162386D01*
X142010036Y-95027829D01*
X141665178Y-94959233D01*
X141313564Y-94959233D01*
X140968706Y-95027829D01*
X140643856Y-95162386D01*
X140351500Y-95357733D01*
X140102871Y-95606362D01*
X139907524Y-95898718D01*
X139772967Y-96223568D01*
X139704371Y-96568426D01*
X130555000Y-96568426D01*
X130555000Y-96383967D01*
X130492168Y-96068088D01*
X130368918Y-95770537D01*
X130189987Y-95502748D01*
X129962252Y-95275013D01*
X129694463Y-95096082D01*
X129396912Y-94972832D01*
X129081033Y-94910000D01*
X128758967Y-94910000D01*
X128443088Y-94972832D01*
X128145537Y-95096082D01*
X127877748Y-95275013D01*
X127650013Y-95502748D01*
X127471082Y-95770537D01*
X127347832Y-96068088D01*
X127285000Y-96383967D01*
X116055000Y-96383967D01*
X115992168Y-96068088D01*
X115868918Y-95770537D01*
X115689987Y-95502748D01*
X115462252Y-95275013D01*
X115194463Y-95096082D01*
X114896912Y-94972832D01*
X114581033Y-94910000D01*
X114258967Y-94910000D01*
X113943088Y-94972832D01*
X113645537Y-95096082D01*
X113377748Y-95275013D01*
X113150013Y-95502748D01*
X112971082Y-95770537D01*
X112847832Y-96068088D01*
X112785000Y-96383967D01*
X112785000Y-96706033D01*
X112847832Y-97021912D01*
X112971082Y-97319463D01*
X113150013Y-97587252D01*
X113357761Y-97795000D01*
X113150013Y-98002748D01*
X112971082Y-98270537D01*
X112847832Y-98568088D01*
X112785000Y-98883967D01*
X112785000Y-99206033D01*
X112847832Y-99521912D01*
X112971082Y-99819463D01*
X113150013Y-100087252D01*
X113357761Y-100295000D01*
X113150013Y-100502748D01*
X112971082Y-100770537D01*
X112847832Y-101068088D01*
X112785000Y-101383967D01*
X112785000Y-101706033D01*
X112847832Y-102021912D01*
X112971082Y-102319463D01*
X113150013Y-102587252D01*
X113377748Y-102814987D01*
X113645537Y-102993918D01*
X113943088Y-103117168D01*
X114258967Y-103180000D01*
X114581033Y-103180000D01*
X114896912Y-103117168D01*
X115194463Y-102993918D01*
X115462252Y-102814987D01*
X115689987Y-102587252D01*
X115868918Y-102319463D01*
X115992168Y-102021912D01*
X116055000Y-101706033D01*
X116055000Y-101383967D01*
X115992168Y-101068088D01*
X115868918Y-100770537D01*
X115689987Y-100502748D01*
X115482239Y-100295000D01*
X115689987Y-100087252D01*
X115826358Y-99883159D01*
X116969000Y-101025802D01*
X116969001Y-113246668D01*
X116965324Y-113284000D01*
X116979998Y-113432985D01*
X116985159Y-113450000D01*
X116693740Y-113450000D01*
X116473592Y-113493790D01*
X112520000Y-109540199D01*
X112520000Y-105478711D01*
X112563937Y-105434774D01*
X112677205Y-105265256D01*
X112755226Y-105076898D01*
X112795000Y-104876939D01*
X112795000Y-104673061D01*
X112755226Y-104473102D01*
X112677205Y-104284744D01*
X112563937Y-104115226D01*
X112419774Y-103971063D01*
X112250256Y-103857795D01*
X112061898Y-103779774D01*
X111861939Y-103740000D01*
X111658061Y-103740000D01*
X111458102Y-103779774D01*
X111269744Y-103857795D01*
X111100226Y-103971063D01*
X110956063Y-104115226D01*
X110855000Y-104266478D01*
X110855000Y-99523711D01*
X110898937Y-99479774D01*
X111012205Y-99310256D01*
X111090226Y-99121898D01*
X111130000Y-98921939D01*
X111130000Y-98718061D01*
X111090226Y-98518102D01*
X111012205Y-98329744D01*
X110898937Y-98160226D01*
X110754774Y-98016063D01*
X110585256Y-97902795D01*
X110396898Y-97824774D01*
X110196939Y-97785000D01*
X109993061Y-97785000D01*
X109793102Y-97824774D01*
X109604744Y-97902795D01*
X109435226Y-98016063D01*
X109291063Y-98160226D01*
X109177795Y-98329744D01*
X109099774Y-98518102D01*
X109060000Y-98718061D01*
X109060000Y-98921939D01*
X109099774Y-99121898D01*
X109177795Y-99310256D01*
X109291063Y-99479774D01*
X109335000Y-99523711D01*
X109335001Y-106640020D01*
X109301185Y-106598815D01*
X109204494Y-106519463D01*
X109094180Y-106460498D01*
X108974482Y-106424188D01*
X108850000Y-106411928D01*
X108235750Y-106415000D01*
X108077000Y-106573750D01*
X108077000Y-107823000D01*
X108097000Y-107823000D01*
X108097000Y-108077000D01*
X108077000Y-108077000D01*
X108077000Y-109326250D01*
X108235750Y-109485000D01*
X108850000Y-109488072D01*
X108974482Y-109475812D01*
X109094180Y-109439502D01*
X109204494Y-109380537D01*
X109301185Y-109301185D01*
X109335001Y-109259980D01*
X109335001Y-110692668D01*
X109331324Y-110730000D01*
X109345998Y-110878985D01*
X109389454Y-111022246D01*
X109460026Y-111154276D01*
X109531201Y-111241002D01*
X109555000Y-111270001D01*
X109583998Y-111293799D01*
X111740198Y-113450000D01*
X111613740Y-113450000D01*
X111326842Y-113507068D01*
X111056589Y-113619010D01*
X110813368Y-113781525D01*
X110606525Y-113988368D01*
X110481822Y-114175000D01*
X103542323Y-114175000D01*
X103505000Y-114171324D01*
X103467677Y-114175000D01*
X103467667Y-114175000D01*
X103356014Y-114185997D01*
X103212753Y-114229454D01*
X103080723Y-114300026D01*
X102997083Y-114368668D01*
X102964999Y-114394999D01*
X102941201Y-114423997D01*
X101598998Y-115766201D01*
X101570000Y-115789999D01*
X101546202Y-115818997D01*
X101546201Y-115818998D01*
X101475026Y-115905724D01*
X101404454Y-116037754D01*
X101360998Y-116181015D01*
X101346324Y-116330000D01*
X101350001Y-116367333D01*
X101350001Y-117714427D01*
X101293994Y-117668463D01*
X101183680Y-117609498D01*
X101063982Y-117573188D01*
X100939500Y-117560928D01*
X99339500Y-117560928D01*
X99215018Y-117573188D01*
X99095320Y-117609498D01*
X98985006Y-117668463D01*
X98888315Y-117747815D01*
X98808963Y-117844506D01*
X98749998Y-117954820D01*
X98713688Y-118074518D01*
X98701428Y-118199000D01*
X98701428Y-119799000D01*
X98713688Y-119923482D01*
X98749998Y-120043180D01*
X98808963Y-120153494D01*
X98888315Y-120250185D01*
X98985006Y-120329537D01*
X99095320Y-120388502D01*
X99191443Y-120417661D01*
X99024863Y-120584241D01*
X98867820Y-120819273D01*
X98759647Y-121080426D01*
X98704500Y-121357665D01*
X98704500Y-121640335D01*
X98759647Y-121917574D01*
X98867820Y-122178727D01*
X99024863Y-122413759D01*
X99110104Y-122499000D01*
X99024863Y-122584241D01*
X98867820Y-122819273D01*
X98759647Y-123080426D01*
X98704500Y-123357665D01*
X98704500Y-123640335D01*
X98759647Y-123917574D01*
X98867820Y-124178727D01*
X99024863Y-124413759D01*
X99224741Y-124613637D01*
X99425369Y-124747692D01*
X99397986Y-124762329D01*
X99326403Y-125006298D01*
X100139500Y-125819395D01*
X100952597Y-125006298D01*
X100881014Y-124762329D01*
X100852159Y-124748676D01*
X101054259Y-124613637D01*
X101254137Y-124413759D01*
X101350001Y-124270289D01*
X101350001Y-125249807D01*
X101132202Y-125185903D01*
X100319105Y-125999000D01*
X101132202Y-126812097D01*
X101350000Y-126748193D01*
X101350000Y-135575198D01*
X101079058Y-135846140D01*
X100827756Y-135742047D01*
X100415279Y-135660000D01*
X99994721Y-135660000D01*
X99582244Y-135742047D01*
X99193698Y-135902988D01*
X98844017Y-136136637D01*
X98546637Y-136434017D01*
X98312988Y-136783698D01*
X98152047Y-137172244D01*
X98070000Y-137584721D01*
X98070000Y-138005279D01*
X98152047Y-138417756D01*
X98312988Y-138806302D01*
X98546637Y-139155983D01*
X98844017Y-139453363D01*
X99193698Y-139687012D01*
X99582244Y-139847953D01*
X99994721Y-139930000D01*
X100415279Y-139930000D01*
X100827756Y-139847953D01*
X101216302Y-139687012D01*
X101565983Y-139453363D01*
X101863363Y-139155983D01*
X101919501Y-139071967D01*
X101919501Y-142903168D01*
X101915824Y-142940500D01*
X101930498Y-143089485D01*
X101973954Y-143232746D01*
X102044526Y-143364776D01*
X102111617Y-143446526D01*
X102139500Y-143480501D01*
X102168498Y-143504299D01*
X105745140Y-147080942D01*
X105641047Y-147332244D01*
X105559000Y-147744721D01*
X105559000Y-148165279D01*
X105641047Y-148577756D01*
X105801988Y-148966302D01*
X106035637Y-149315983D01*
X106333017Y-149613363D01*
X106682698Y-149847012D01*
X107071244Y-150007953D01*
X107483721Y-150090000D01*
X107904279Y-150090000D01*
X108316756Y-150007953D01*
X108568059Y-149903860D01*
X114750201Y-156086003D01*
X114773999Y-156115001D01*
X114889724Y-156209974D01*
X115021753Y-156280546D01*
X115165014Y-156324003D01*
X115276667Y-156335000D01*
X115276676Y-156335000D01*
X115313999Y-156338676D01*
X115351322Y-156335000D01*
X115607895Y-156335000D01*
X115711988Y-156586302D01*
X115945637Y-156935983D01*
X116243017Y-157233363D01*
X116592698Y-157467012D01*
X116981244Y-157627953D01*
X117393721Y-157710000D01*
X117814279Y-157710000D01*
X118226756Y-157627953D01*
X118615302Y-157467012D01*
X118964983Y-157233363D01*
X119262363Y-156935983D01*
X119496012Y-156586302D01*
X119656953Y-156197756D01*
X119739000Y-155785279D01*
X119739000Y-155364721D01*
X119656953Y-154952244D01*
X119496012Y-154563698D01*
X119262363Y-154214017D01*
X118964983Y-153916637D01*
X118615302Y-153682988D01*
X118226756Y-153522047D01*
X117814279Y-153440000D01*
X117393721Y-153440000D01*
X116981244Y-153522047D01*
X116592698Y-153682988D01*
X116243017Y-153916637D01*
X115945637Y-154214017D01*
X115711988Y-154563698D01*
X115614019Y-154800217D01*
X109642860Y-148829059D01*
X109746953Y-148577756D01*
X109829000Y-148165279D01*
X109829000Y-147744721D01*
X109746953Y-147332244D01*
X109586012Y-146943698D01*
X109352363Y-146594017D01*
X109054983Y-146296637D01*
X108705302Y-146062988D01*
X108316756Y-145902047D01*
X107904279Y-145820000D01*
X107483721Y-145820000D01*
X107071244Y-145902047D01*
X106819942Y-146006140D01*
X103439500Y-142625699D01*
X103439500Y-139439301D01*
X112466200Y-148466002D01*
X112489999Y-148495001D01*
X112605724Y-148589974D01*
X112737753Y-148660546D01*
X112881014Y-148704003D01*
X112992667Y-148715000D01*
X112992676Y-148715000D01*
X113029999Y-148718676D01*
X113067322Y-148715000D01*
X115607895Y-148715000D01*
X115711988Y-148966302D01*
X115945637Y-149315983D01*
X116243017Y-149613363D01*
X116592698Y-149847012D01*
X116981244Y-150007953D01*
X117393721Y-150090000D01*
X117814279Y-150090000D01*
X118226756Y-150007953D01*
X118615302Y-149847012D01*
X118964983Y-149613363D01*
X119262363Y-149315983D01*
X119496012Y-148966302D01*
X119656953Y-148577756D01*
X119739000Y-148165279D01*
X119739000Y-147744721D01*
X119656953Y-147332244D01*
X119496012Y-146943698D01*
X119262363Y-146594017D01*
X118964983Y-146296637D01*
X118615302Y-146062988D01*
X118226756Y-145902047D01*
X117814279Y-145820000D01*
X117393721Y-145820000D01*
X116981244Y-145902047D01*
X116592698Y-146062988D01*
X116243017Y-146296637D01*
X115945637Y-146594017D01*
X115711988Y-146943698D01*
X115607895Y-147195000D01*
X113344802Y-147195000D01*
X108802211Y-142652409D01*
X110389000Y-142652409D01*
X110389000Y-143097591D01*
X110475851Y-143534218D01*
X110646214Y-143945511D01*
X110893544Y-144315666D01*
X111208334Y-144630456D01*
X111578489Y-144877786D01*
X111989782Y-145048149D01*
X112426409Y-145135000D01*
X112871591Y-145135000D01*
X113308218Y-145048149D01*
X113719511Y-144877786D01*
X114089666Y-144630456D01*
X114404456Y-144315666D01*
X114651786Y-143945511D01*
X114822149Y-143534218D01*
X114897878Y-143153500D01*
X121320928Y-143153500D01*
X121333188Y-143277982D01*
X121369498Y-143397680D01*
X121428463Y-143507994D01*
X121507815Y-143604685D01*
X121604506Y-143684037D01*
X121714820Y-143743002D01*
X121834518Y-143779312D01*
X121959000Y-143791572D01*
X122523250Y-143788500D01*
X122682000Y-143629750D01*
X122682000Y-142430500D01*
X121482750Y-142430500D01*
X121324000Y-142589250D01*
X121320928Y-143153500D01*
X114897878Y-143153500D01*
X114909000Y-143097591D01*
X114909000Y-142652409D01*
X114822149Y-142215782D01*
X114651786Y-141804489D01*
X114404456Y-141434334D01*
X114089666Y-141119544D01*
X113719511Y-140872214D01*
X113308218Y-140701851D01*
X112871591Y-140615000D01*
X112426409Y-140615000D01*
X111989782Y-140701851D01*
X111578489Y-140872214D01*
X111208334Y-141119544D01*
X110893544Y-141434334D01*
X110646214Y-141804489D01*
X110475851Y-142215782D01*
X110389000Y-142652409D01*
X108802211Y-142652409D01*
X104265000Y-138115199D01*
X104265000Y-137584721D01*
X105559000Y-137584721D01*
X105559000Y-138005279D01*
X105641047Y-138417756D01*
X105801988Y-138806302D01*
X106035637Y-139155983D01*
X106333017Y-139453363D01*
X106682698Y-139687012D01*
X107071244Y-139847953D01*
X107483721Y-139930000D01*
X107904279Y-139930000D01*
X108316756Y-139847953D01*
X108705302Y-139687012D01*
X109054983Y-139453363D01*
X109352363Y-139155983D01*
X109586012Y-138806302D01*
X109746953Y-138417756D01*
X109829000Y-138005279D01*
X109829000Y-137584721D01*
X115469000Y-137584721D01*
X115469000Y-138005279D01*
X115551047Y-138417756D01*
X115711988Y-138806302D01*
X115945637Y-139155983D01*
X116243017Y-139453363D01*
X116592698Y-139687012D01*
X116981244Y-139847953D01*
X117393721Y-139930000D01*
X117814279Y-139930000D01*
X118226756Y-139847953D01*
X118615302Y-139687012D01*
X118964983Y-139453363D01*
X119262363Y-139155983D01*
X119496012Y-138806302D01*
X119656953Y-138417756D01*
X119739000Y-138005279D01*
X119739000Y-137584721D01*
X119656953Y-137172244D01*
X119496012Y-136783698D01*
X119262363Y-136434017D01*
X118964983Y-136136637D01*
X118615302Y-135902988D01*
X118226756Y-135742047D01*
X117814279Y-135660000D01*
X117393721Y-135660000D01*
X116981244Y-135742047D01*
X116592698Y-135902988D01*
X116243017Y-136136637D01*
X115945637Y-136434017D01*
X115711988Y-136783698D01*
X115551047Y-137172244D01*
X115469000Y-137584721D01*
X109829000Y-137584721D01*
X109746953Y-137172244D01*
X109586012Y-136783698D01*
X109352363Y-136434017D01*
X109054983Y-136136637D01*
X108705302Y-135902988D01*
X108316756Y-135742047D01*
X107904279Y-135660000D01*
X107483721Y-135660000D01*
X107071244Y-135742047D01*
X106682698Y-135902988D01*
X106333017Y-136136637D01*
X106035637Y-136434017D01*
X105801988Y-136783698D01*
X105641047Y-137172244D01*
X105559000Y-137584721D01*
X104265000Y-137584721D01*
X104265000Y-129941211D01*
X104308937Y-129897274D01*
X104422205Y-129727756D01*
X104500226Y-129539398D01*
X104540000Y-129339439D01*
X104540000Y-129325000D01*
X110271928Y-129325000D01*
X110271928Y-131025000D01*
X110284188Y-131149482D01*
X110320498Y-131269180D01*
X110379463Y-131379494D01*
X110458815Y-131476185D01*
X110555506Y-131555537D01*
X110665820Y-131614502D01*
X110785518Y-131650812D01*
X110910000Y-131663072D01*
X112610000Y-131663072D01*
X112734482Y-131650812D01*
X112854180Y-131614502D01*
X112964494Y-131555537D01*
X113061185Y-131476185D01*
X113140537Y-131379494D01*
X113199502Y-131269180D01*
X113221513Y-131196620D01*
X113353368Y-131328475D01*
X113596589Y-131490990D01*
X113866842Y-131602932D01*
X114153740Y-131660000D01*
X114446260Y-131660000D01*
X114733158Y-131602932D01*
X115003411Y-131490990D01*
X115246632Y-131328475D01*
X115453475Y-131121632D01*
X115570000Y-130947240D01*
X115686525Y-131121632D01*
X115893368Y-131328475D01*
X116136589Y-131490990D01*
X116406842Y-131602932D01*
X116693740Y-131660000D01*
X116986260Y-131660000D01*
X117273158Y-131602932D01*
X117543411Y-131490990D01*
X117786632Y-131328475D01*
X117993475Y-131121632D01*
X118115195Y-130939466D01*
X118184822Y-131056355D01*
X118379731Y-131272588D01*
X118613080Y-131446641D01*
X118875901Y-131571825D01*
X119023110Y-131616476D01*
X119253000Y-131495155D01*
X119253000Y-130302000D01*
X119233000Y-130302000D01*
X119233000Y-130048000D01*
X119253000Y-130048000D01*
X119253000Y-128854845D01*
X119023110Y-128733524D01*
X118875901Y-128778175D01*
X118613080Y-128903359D01*
X118379731Y-129077412D01*
X118184822Y-129293645D01*
X118115195Y-129410534D01*
X117993475Y-129228368D01*
X117786632Y-129021525D01*
X117543411Y-128859010D01*
X117273158Y-128747068D01*
X116986260Y-128690000D01*
X116693740Y-128690000D01*
X116406842Y-128747068D01*
X116136589Y-128859010D01*
X115893368Y-129021525D01*
X115686525Y-129228368D01*
X115570000Y-129402760D01*
X115453475Y-129228368D01*
X115246632Y-129021525D01*
X115003411Y-128859010D01*
X114733158Y-128747068D01*
X114446260Y-128690000D01*
X114153740Y-128690000D01*
X113866842Y-128747068D01*
X113596589Y-128859010D01*
X113353368Y-129021525D01*
X113221513Y-129153380D01*
X113199502Y-129080820D01*
X113140537Y-128970506D01*
X113061185Y-128873815D01*
X112964494Y-128794463D01*
X112854180Y-128735498D01*
X112734482Y-128699188D01*
X112610000Y-128686928D01*
X110910000Y-128686928D01*
X110785518Y-128699188D01*
X110665820Y-128735498D01*
X110555506Y-128794463D01*
X110458815Y-128873815D01*
X110379463Y-128970506D01*
X110320498Y-129080820D01*
X110284188Y-129200518D01*
X110271928Y-129325000D01*
X104540000Y-129325000D01*
X104540000Y-129135561D01*
X104500226Y-128935602D01*
X104422205Y-128747244D01*
X104308937Y-128577726D01*
X104167461Y-128436250D01*
X104308937Y-128294774D01*
X104422205Y-128125256D01*
X104500226Y-127936898D01*
X104540000Y-127736939D01*
X104540000Y-127533061D01*
X104500226Y-127333102D01*
X104422205Y-127144744D01*
X104308937Y-126975226D01*
X104164774Y-126831063D01*
X103995256Y-126717795D01*
X103806898Y-126639774D01*
X103606939Y-126600000D01*
X103403061Y-126600000D01*
X103203102Y-126639774D01*
X103014744Y-126717795D01*
X102870000Y-126814510D01*
X102870000Y-125270983D01*
X103055589Y-125394990D01*
X103325842Y-125506932D01*
X103612740Y-125564000D01*
X103905260Y-125564000D01*
X104192158Y-125506932D01*
X104462411Y-125394990D01*
X104705632Y-125232475D01*
X104912475Y-125025632D01*
X105074990Y-124782411D01*
X105186932Y-124512158D01*
X105244000Y-124225260D01*
X105244000Y-123932740D01*
X105186932Y-123645842D01*
X105074990Y-123375589D01*
X104912475Y-123132368D01*
X104705632Y-122925525D01*
X104531240Y-122809000D01*
X104705632Y-122692475D01*
X104912475Y-122485632D01*
X105074990Y-122242411D01*
X105186932Y-121972158D01*
X105244000Y-121685260D01*
X105244000Y-121392740D01*
X105186932Y-121105842D01*
X105074990Y-120835589D01*
X104912475Y-120592368D01*
X104780620Y-120460513D01*
X104853180Y-120438502D01*
X104963494Y-120379537D01*
X105060185Y-120300185D01*
X105139537Y-120203494D01*
X105198502Y-120093180D01*
X105234812Y-119973482D01*
X105247072Y-119849000D01*
X105247072Y-119686500D01*
X110158428Y-119686500D01*
X110158428Y-121486500D01*
X110170688Y-121610982D01*
X110206998Y-121730680D01*
X110265963Y-121840994D01*
X110345315Y-121937685D01*
X110442006Y-122017037D01*
X110552320Y-122076002D01*
X110570627Y-122081556D01*
X110504188Y-122147995D01*
X110336201Y-122399405D01*
X110220489Y-122678757D01*
X110161500Y-122975316D01*
X110161500Y-123277684D01*
X110220489Y-123574243D01*
X110336201Y-123853595D01*
X110504188Y-124105005D01*
X110717995Y-124318812D01*
X110969405Y-124486799D01*
X111248757Y-124602511D01*
X111545316Y-124661500D01*
X111847684Y-124661500D01*
X112144243Y-124602511D01*
X112423595Y-124486799D01*
X112675005Y-124318812D01*
X112888812Y-124105005D01*
X113056799Y-123853595D01*
X113172511Y-123574243D01*
X113231500Y-123277684D01*
X113231500Y-122975316D01*
X113172511Y-122678757D01*
X113056799Y-122399405D01*
X112888812Y-122147995D01*
X112822373Y-122081556D01*
X112840680Y-122076002D01*
X112950994Y-122017037D01*
X113047685Y-121937685D01*
X113127037Y-121840994D01*
X113186002Y-121730680D01*
X113222312Y-121610982D01*
X113234572Y-121486500D01*
X113234572Y-119686500D01*
X113222312Y-119562018D01*
X113186002Y-119442320D01*
X113127037Y-119332006D01*
X113047685Y-119235315D01*
X112950994Y-119155963D01*
X112840680Y-119096998D01*
X112720982Y-119060688D01*
X112596500Y-119048428D01*
X110796500Y-119048428D01*
X110672018Y-119060688D01*
X110552320Y-119096998D01*
X110442006Y-119155963D01*
X110345315Y-119235315D01*
X110265963Y-119332006D01*
X110206998Y-119442320D01*
X110170688Y-119562018D01*
X110158428Y-119686500D01*
X105247072Y-119686500D01*
X105247072Y-118149000D01*
X105234812Y-118024518D01*
X105198502Y-117904820D01*
X105152096Y-117818000D01*
X113242928Y-117818000D01*
X113242928Y-119418000D01*
X113255188Y-119542482D01*
X113291498Y-119662180D01*
X113350463Y-119772494D01*
X113429815Y-119869185D01*
X113526506Y-119948537D01*
X113636820Y-120007502D01*
X113756518Y-120043812D01*
X113764961Y-120044643D01*
X113566363Y-120243241D01*
X113409320Y-120478273D01*
X113301147Y-120739426D01*
X113246000Y-121016665D01*
X113246000Y-121299335D01*
X113301147Y-121576574D01*
X113409320Y-121837727D01*
X113566363Y-122072759D01*
X113766241Y-122272637D01*
X113998759Y-122428000D01*
X113766241Y-122583363D01*
X113566363Y-122783241D01*
X113409320Y-123018273D01*
X113301147Y-123279426D01*
X113246000Y-123556665D01*
X113246000Y-123839335D01*
X113301147Y-124116574D01*
X113409320Y-124377727D01*
X113566363Y-124612759D01*
X113766241Y-124812637D01*
X114001273Y-124969680D01*
X114262426Y-125077853D01*
X114539665Y-125133000D01*
X114822335Y-125133000D01*
X115099574Y-125077853D01*
X115360727Y-124969680D01*
X115595759Y-124812637D01*
X115795637Y-124612759D01*
X115952680Y-124377727D01*
X116060853Y-124116574D01*
X116116000Y-123839335D01*
X116116000Y-123556665D01*
X120866000Y-123556665D01*
X120866000Y-123839335D01*
X120921147Y-124116574D01*
X121029320Y-124377727D01*
X121186363Y-124612759D01*
X121386241Y-124812637D01*
X121621273Y-124969680D01*
X121882426Y-125077853D01*
X122159665Y-125133000D01*
X122442335Y-125133000D01*
X122719574Y-125077853D01*
X122980727Y-124969680D01*
X123215759Y-124812637D01*
X123415637Y-124612759D01*
X123572680Y-124377727D01*
X123680853Y-124116574D01*
X123736000Y-123839335D01*
X123736000Y-123556665D01*
X123680853Y-123279426D01*
X123572680Y-123018273D01*
X123415637Y-122783241D01*
X123215759Y-122583363D01*
X122981872Y-122427085D01*
X123042514Y-122394671D01*
X123114097Y-122150702D01*
X122301000Y-121337605D01*
X121487903Y-122150702D01*
X121559486Y-122394671D01*
X121623992Y-122425194D01*
X121621273Y-122426320D01*
X121386241Y-122583363D01*
X121186363Y-122783241D01*
X121029320Y-123018273D01*
X120921147Y-123279426D01*
X120866000Y-123556665D01*
X116116000Y-123556665D01*
X116060853Y-123279426D01*
X115952680Y-123018273D01*
X115795637Y-122783241D01*
X115595759Y-122583363D01*
X115363241Y-122428000D01*
X115595759Y-122272637D01*
X115795637Y-122072759D01*
X115952680Y-121837727D01*
X116060853Y-121576574D01*
X116116000Y-121299335D01*
X116116000Y-121228512D01*
X120860783Y-121228512D01*
X120902213Y-121508130D01*
X120997397Y-121774292D01*
X121064329Y-121899514D01*
X121308298Y-121971097D01*
X122121395Y-121158000D01*
X122480605Y-121158000D01*
X123293702Y-121971097D01*
X123537671Y-121899514D01*
X123658571Y-121644004D01*
X123727300Y-121369816D01*
X123741217Y-121087488D01*
X123699787Y-120807870D01*
X123604603Y-120541708D01*
X123537671Y-120416486D01*
X123293702Y-120344903D01*
X122480605Y-121158000D01*
X122121395Y-121158000D01*
X121308298Y-120344903D01*
X121064329Y-120416486D01*
X120943429Y-120671996D01*
X120874700Y-120946184D01*
X120860783Y-121228512D01*
X116116000Y-121228512D01*
X116116000Y-121016665D01*
X116060853Y-120739426D01*
X115952680Y-120478273D01*
X115795637Y-120243241D01*
X115597039Y-120044643D01*
X115605482Y-120043812D01*
X115725180Y-120007502D01*
X115835494Y-119948537D01*
X115932185Y-119869185D01*
X116011537Y-119772494D01*
X116070502Y-119662180D01*
X116106812Y-119542482D01*
X116119072Y-119418000D01*
X116119072Y-118476665D01*
X120866000Y-118476665D01*
X120866000Y-118759335D01*
X120921147Y-119036574D01*
X121029320Y-119297727D01*
X121186363Y-119532759D01*
X121386241Y-119732637D01*
X121620128Y-119888915D01*
X121559486Y-119921329D01*
X121487903Y-120165298D01*
X122301000Y-120978395D01*
X123114097Y-120165298D01*
X123042514Y-119921329D01*
X122978008Y-119890806D01*
X122980727Y-119889680D01*
X123215759Y-119732637D01*
X123415637Y-119532759D01*
X123572680Y-119297727D01*
X123680853Y-119036574D01*
X123736000Y-118759335D01*
X123736000Y-118476665D01*
X123680853Y-118199426D01*
X123572680Y-117938273D01*
X123415637Y-117703241D01*
X123215759Y-117503363D01*
X122980727Y-117346320D01*
X122719574Y-117238147D01*
X122442335Y-117183000D01*
X122159665Y-117183000D01*
X121882426Y-117238147D01*
X121621273Y-117346320D01*
X121386241Y-117503363D01*
X121186363Y-117703241D01*
X121029320Y-117938273D01*
X120921147Y-118199426D01*
X120866000Y-118476665D01*
X116119072Y-118476665D01*
X116119072Y-117818000D01*
X116106812Y-117693518D01*
X116070502Y-117573820D01*
X116011537Y-117463506D01*
X115932185Y-117366815D01*
X115835494Y-117287463D01*
X115725180Y-117228498D01*
X115605482Y-117192188D01*
X115481000Y-117179928D01*
X113881000Y-117179928D01*
X113756518Y-117192188D01*
X113636820Y-117228498D01*
X113526506Y-117287463D01*
X113429815Y-117366815D01*
X113350463Y-117463506D01*
X113291498Y-117573820D01*
X113255188Y-117693518D01*
X113242928Y-117818000D01*
X105152096Y-117818000D01*
X105139537Y-117794506D01*
X105060185Y-117697815D01*
X104963494Y-117618463D01*
X104853180Y-117559498D01*
X104733482Y-117523188D01*
X104609000Y-117510928D01*
X102909000Y-117510928D01*
X102870000Y-117514769D01*
X102870000Y-116644801D01*
X103819802Y-115695000D01*
X110481822Y-115695000D01*
X110606525Y-115881632D01*
X110813368Y-116088475D01*
X111056589Y-116250990D01*
X111326842Y-116362932D01*
X111613740Y-116420000D01*
X111906260Y-116420000D01*
X112193158Y-116362932D01*
X112463411Y-116250990D01*
X112706632Y-116088475D01*
X112913475Y-115881632D01*
X113030000Y-115707240D01*
X113146525Y-115881632D01*
X113353368Y-116088475D01*
X113596589Y-116250990D01*
X113866842Y-116362932D01*
X114153740Y-116420000D01*
X114446260Y-116420000D01*
X114733158Y-116362932D01*
X115003411Y-116250990D01*
X115246632Y-116088475D01*
X115453475Y-115881632D01*
X115570000Y-115707240D01*
X115686525Y-115881632D01*
X115893368Y-116088475D01*
X116136589Y-116250990D01*
X116406842Y-116362932D01*
X116693740Y-116420000D01*
X116986260Y-116420000D01*
X117273158Y-116362932D01*
X117543411Y-116250990D01*
X117786632Y-116088475D01*
X117993475Y-115881632D01*
X118110000Y-115707240D01*
X118226525Y-115881632D01*
X118433368Y-116088475D01*
X118676589Y-116250990D01*
X118946842Y-116362932D01*
X119233740Y-116420000D01*
X119526260Y-116420000D01*
X119813158Y-116362932D01*
X120083411Y-116250990D01*
X120326632Y-116088475D01*
X120533475Y-115881632D01*
X120650000Y-115707240D01*
X120766525Y-115881632D01*
X120973368Y-116088475D01*
X121216589Y-116250990D01*
X121486842Y-116362932D01*
X121773740Y-116420000D01*
X122066260Y-116420000D01*
X122286408Y-116376209D01*
X124970000Y-119059802D01*
X124970001Y-128778897D01*
X124893158Y-128747068D01*
X124606260Y-128690000D01*
X124313740Y-128690000D01*
X124026842Y-128747068D01*
X123756589Y-128859010D01*
X123513368Y-129021525D01*
X123306525Y-129228368D01*
X123190000Y-129402760D01*
X123073475Y-129228368D01*
X122866632Y-129021525D01*
X122623411Y-128859010D01*
X122353158Y-128747068D01*
X122066260Y-128690000D01*
X121773740Y-128690000D01*
X121486842Y-128747068D01*
X121216589Y-128859010D01*
X120973368Y-129021525D01*
X120766525Y-129228368D01*
X120644805Y-129410534D01*
X120575178Y-129293645D01*
X120380269Y-129077412D01*
X120146920Y-128903359D01*
X119884099Y-128778175D01*
X119736890Y-128733524D01*
X119507000Y-128854845D01*
X119507000Y-130048000D01*
X119527000Y-130048000D01*
X119527000Y-130302000D01*
X119507000Y-130302000D01*
X119507000Y-131495155D01*
X119736890Y-131616476D01*
X119884099Y-131571825D01*
X120146920Y-131446641D01*
X120380269Y-131272588D01*
X120575178Y-131056355D01*
X120644805Y-130939466D01*
X120766525Y-131121632D01*
X120973368Y-131328475D01*
X121216589Y-131490990D01*
X121486842Y-131602932D01*
X121773740Y-131660000D01*
X122066260Y-131660000D01*
X122353158Y-131602932D01*
X122623411Y-131490990D01*
X122866632Y-131328475D01*
X123073475Y-131121632D01*
X123190000Y-130947240D01*
X123306525Y-131121632D01*
X123513368Y-131328475D01*
X123700000Y-131453179D01*
X123700000Y-133492853D01*
X123512411Y-133367510D01*
X123242158Y-133255568D01*
X122955260Y-133198500D01*
X122662740Y-133198500D01*
X122375842Y-133255568D01*
X122105589Y-133367510D01*
X121862368Y-133530025D01*
X121655525Y-133736868D01*
X121493010Y-133980089D01*
X121381068Y-134250342D01*
X121324000Y-134537240D01*
X121324000Y-134829760D01*
X121381068Y-135116658D01*
X121493010Y-135386911D01*
X121655525Y-135630132D01*
X121862368Y-135836975D01*
X122036760Y-135953500D01*
X121862368Y-136070025D01*
X121655525Y-136276868D01*
X121493010Y-136520089D01*
X121381068Y-136790342D01*
X121324000Y-137077240D01*
X121324000Y-137369760D01*
X121381068Y-137656658D01*
X121493010Y-137926911D01*
X121655525Y-138170132D01*
X121862368Y-138376975D01*
X122036760Y-138493500D01*
X121862368Y-138610025D01*
X121655525Y-138816868D01*
X121493010Y-139060089D01*
X121381068Y-139330342D01*
X121324000Y-139617240D01*
X121324000Y-139909760D01*
X121381068Y-140196658D01*
X121493010Y-140466911D01*
X121655525Y-140710132D01*
X121787380Y-140841987D01*
X121714820Y-140863998D01*
X121604506Y-140922963D01*
X121507815Y-141002315D01*
X121428463Y-141099006D01*
X121369498Y-141209320D01*
X121333188Y-141329018D01*
X121320928Y-141453500D01*
X121324000Y-142017750D01*
X121482750Y-142176500D01*
X122682000Y-142176500D01*
X122682000Y-142156500D01*
X122936000Y-142156500D01*
X122936000Y-142176500D01*
X122956000Y-142176500D01*
X122956000Y-142430500D01*
X122936000Y-142430500D01*
X122936000Y-143629750D01*
X123094750Y-143788500D01*
X123659000Y-143791572D01*
X123700001Y-143787534D01*
X123700001Y-146558897D01*
X123623158Y-146527068D01*
X123336260Y-146470000D01*
X123043740Y-146470000D01*
X122756842Y-146527068D01*
X122486589Y-146639010D01*
X122243368Y-146801525D01*
X122036525Y-147008368D01*
X121874010Y-147251589D01*
X121762068Y-147521842D01*
X121705000Y-147808740D01*
X121705000Y-148101260D01*
X121762068Y-148388158D01*
X121874010Y-148658411D01*
X122036525Y-148901632D01*
X122243368Y-149108475D01*
X122417760Y-149225000D01*
X122243368Y-149341525D01*
X122036525Y-149548368D01*
X121874010Y-149791589D01*
X121762068Y-150061842D01*
X121705000Y-150348740D01*
X121705000Y-150641260D01*
X121762068Y-150928158D01*
X121874010Y-151198411D01*
X122036525Y-151441632D01*
X122243368Y-151648475D01*
X122486589Y-151810990D01*
X122756842Y-151922932D01*
X123043740Y-151980000D01*
X123336260Y-151980000D01*
X123623158Y-151922932D01*
X123893411Y-151810990D01*
X124136632Y-151648475D01*
X124343475Y-151441632D01*
X124460000Y-151267240D01*
X124576525Y-151441632D01*
X124783368Y-151648475D01*
X125026589Y-151810990D01*
X125296842Y-151922932D01*
X125583740Y-151980000D01*
X125876260Y-151980000D01*
X126163158Y-151922932D01*
X126433411Y-151810990D01*
X126676632Y-151648475D01*
X126883475Y-151441632D01*
X127000000Y-151267240D01*
X127116525Y-151441632D01*
X127323368Y-151648475D01*
X127566589Y-151810990D01*
X127836842Y-151922932D01*
X128123740Y-151980000D01*
X128416260Y-151980000D01*
X128703158Y-151922932D01*
X128973411Y-151810990D01*
X129216632Y-151648475D01*
X129423475Y-151441632D01*
X129540000Y-151267240D01*
X129656525Y-151441632D01*
X129863368Y-151648475D01*
X130106589Y-151810990D01*
X130376842Y-151922932D01*
X130663740Y-151980000D01*
X130956260Y-151980000D01*
X131243158Y-151922932D01*
X131513411Y-151810990D01*
X131756632Y-151648475D01*
X131963475Y-151441632D01*
X132125990Y-151198411D01*
X132237932Y-150928158D01*
X132295000Y-150641260D01*
X132295000Y-150348740D01*
X132237932Y-150061842D01*
X132186685Y-149938119D01*
X132781004Y-149343800D01*
X132810002Y-149320002D01*
X132857331Y-149262332D01*
X132904975Y-149204278D01*
X132975547Y-149072248D01*
X132982544Y-149049180D01*
X133019004Y-148928987D01*
X133030001Y-148817334D01*
X133030001Y-148817325D01*
X133033677Y-148780002D01*
X133030001Y-148742679D01*
X133030001Y-147167321D01*
X133033677Y-147129998D01*
X133030001Y-147092675D01*
X133030001Y-147092666D01*
X133019004Y-146981013D01*
X132975547Y-146837752D01*
X132904975Y-146705723D01*
X132810002Y-146589998D01*
X132781005Y-146566201D01*
X131570000Y-145355197D01*
X131570000Y-132644801D01*
X132784320Y-133859121D01*
X132753726Y-133879563D01*
X132609563Y-134023726D01*
X132496295Y-134193244D01*
X132418274Y-134381602D01*
X132378500Y-134581561D01*
X132378500Y-134785439D01*
X132418274Y-134985398D01*
X132496295Y-135173756D01*
X132609563Y-135343274D01*
X132753726Y-135487437D01*
X132923244Y-135600705D01*
X133111602Y-135678726D01*
X133311561Y-135718500D01*
X133373699Y-135718500D01*
X134054320Y-136399121D01*
X134023726Y-136419563D01*
X133879563Y-136563726D01*
X133766295Y-136733244D01*
X133688274Y-136921602D01*
X133648500Y-137121561D01*
X133648500Y-137325439D01*
X133688274Y-137525398D01*
X133766295Y-137713756D01*
X133879563Y-137883274D01*
X134023726Y-138027437D01*
X134193244Y-138140705D01*
X134381602Y-138218726D01*
X134581561Y-138258500D01*
X134643699Y-138258500D01*
X142852126Y-146466928D01*
X141390000Y-146466928D01*
X141265518Y-146479188D01*
X141145820Y-146515498D01*
X141035506Y-146574463D01*
X140938815Y-146653815D01*
X140859463Y-146750506D01*
X140800498Y-146860820D01*
X140776034Y-146941466D01*
X140700269Y-146857412D01*
X140466920Y-146683359D01*
X140204099Y-146558175D01*
X140056890Y-146513524D01*
X139827000Y-146634845D01*
X139827000Y-147828000D01*
X139847000Y-147828000D01*
X139847000Y-148082000D01*
X139827000Y-148082000D01*
X139827000Y-148102000D01*
X139573000Y-148102000D01*
X139573000Y-148082000D01*
X139553000Y-148082000D01*
X139553000Y-147828000D01*
X139573000Y-147828000D01*
X139573000Y-146634845D01*
X139343110Y-146513524D01*
X139195901Y-146558175D01*
X138933080Y-146683359D01*
X138699731Y-146857412D01*
X138504822Y-147073645D01*
X138435195Y-147190534D01*
X138313475Y-147008368D01*
X138106632Y-146801525D01*
X137863411Y-146639010D01*
X137593158Y-146527068D01*
X137306260Y-146470000D01*
X137013740Y-146470000D01*
X136726842Y-146527068D01*
X136456589Y-146639010D01*
X136213368Y-146801525D01*
X136006525Y-147008368D01*
X135890000Y-147182760D01*
X135773475Y-147008368D01*
X135566632Y-146801525D01*
X135323411Y-146639010D01*
X135053158Y-146527068D01*
X134766260Y-146470000D01*
X134473740Y-146470000D01*
X134186842Y-146527068D01*
X133916589Y-146639010D01*
X133673368Y-146801525D01*
X133466525Y-147008368D01*
X133304010Y-147251589D01*
X133192068Y-147521842D01*
X133135000Y-147808740D01*
X133135000Y-148101260D01*
X133192068Y-148388158D01*
X133304010Y-148658411D01*
X133466525Y-148901632D01*
X133673368Y-149108475D01*
X133847760Y-149225000D01*
X133673368Y-149341525D01*
X133466525Y-149548368D01*
X133304010Y-149791589D01*
X133192068Y-150061842D01*
X133135000Y-150348740D01*
X133135000Y-150641260D01*
X133178790Y-150861408D01*
X128865199Y-155175000D01*
X128803061Y-155175000D01*
X128603102Y-155214774D01*
X128414744Y-155292795D01*
X128245226Y-155406063D01*
X128101063Y-155550226D01*
X127987795Y-155719744D01*
X127909774Y-155908102D01*
X127870000Y-156108061D01*
X127870000Y-156311939D01*
X127909774Y-156511898D01*
X127987795Y-156700256D01*
X128101063Y-156869774D01*
X128245226Y-157013937D01*
X128414744Y-157127205D01*
X128603102Y-157205226D01*
X128803061Y-157245000D01*
X129006939Y-157245000D01*
X129206898Y-157205226D01*
X129395256Y-157127205D01*
X129564774Y-157013937D01*
X129708937Y-156869774D01*
X129822205Y-156700256D01*
X129900226Y-156511898D01*
X129940000Y-156311939D01*
X129940000Y-156249801D01*
X134253592Y-151936210D01*
X134473740Y-151980000D01*
X134600198Y-151980000D01*
X131405199Y-155175000D01*
X131343061Y-155175000D01*
X131143102Y-155214774D01*
X130954744Y-155292795D01*
X130785226Y-155406063D01*
X130641063Y-155550226D01*
X130527795Y-155719744D01*
X130449774Y-155908102D01*
X130410000Y-156108061D01*
X130410000Y-156311939D01*
X130449774Y-156511898D01*
X130527795Y-156700256D01*
X130641063Y-156869774D01*
X130785226Y-157013937D01*
X130954744Y-157127205D01*
X131143102Y-157205226D01*
X131343061Y-157245000D01*
X131546939Y-157245000D01*
X131746898Y-157205226D01*
X131935256Y-157127205D01*
X132104774Y-157013937D01*
X132248937Y-156869774D01*
X132362205Y-156700256D01*
X132440226Y-156511898D01*
X132480000Y-156311939D01*
X132480000Y-156249801D01*
X136793592Y-151936210D01*
X137013740Y-151980000D01*
X137140198Y-151980000D01*
X133945199Y-155175000D01*
X133883061Y-155175000D01*
X133683102Y-155214774D01*
X133494744Y-155292795D01*
X133325226Y-155406063D01*
X133181063Y-155550226D01*
X133067795Y-155719744D01*
X132989774Y-155908102D01*
X132950000Y-156108061D01*
X132950000Y-156311939D01*
X132989774Y-156511898D01*
X133067795Y-156700256D01*
X133181063Y-156869774D01*
X133325226Y-157013937D01*
X133494744Y-157127205D01*
X133683102Y-157205226D01*
X133883061Y-157245000D01*
X134086939Y-157245000D01*
X134286898Y-157205226D01*
X134475256Y-157127205D01*
X134644774Y-157013937D01*
X134788937Y-156869774D01*
X134902205Y-156700256D01*
X134980226Y-156511898D01*
X135020000Y-156311939D01*
X135020000Y-156249801D01*
X139333592Y-151936210D01*
X139553740Y-151980000D01*
X139680198Y-151980000D01*
X136485199Y-155175000D01*
X136423061Y-155175000D01*
X136223102Y-155214774D01*
X136034744Y-155292795D01*
X135865226Y-155406063D01*
X135721063Y-155550226D01*
X135607795Y-155719744D01*
X135529774Y-155908102D01*
X135490000Y-156108061D01*
X135490000Y-156311939D01*
X135529774Y-156511898D01*
X135607795Y-156700256D01*
X135721063Y-156869774D01*
X135865226Y-157013937D01*
X136034744Y-157127205D01*
X136223102Y-157205226D01*
X136423061Y-157245000D01*
X136626939Y-157245000D01*
X136826898Y-157205226D01*
X137015256Y-157127205D01*
X137184774Y-157013937D01*
X137328937Y-156869774D01*
X137442205Y-156700256D01*
X137520226Y-156511898D01*
X137560000Y-156311939D01*
X137560000Y-156249801D01*
X141873592Y-151936210D01*
X142093740Y-151980000D01*
X142386260Y-151980000D01*
X142673158Y-151922932D01*
X142943411Y-151810990D01*
X143186632Y-151648475D01*
X143393475Y-151441632D01*
X143555990Y-151198411D01*
X143667932Y-150928158D01*
X143725000Y-150641260D01*
X143725000Y-150348740D01*
X143667932Y-150061842D01*
X143610630Y-149923500D01*
X145736000Y-149923500D01*
X145736000Y-150198500D01*
X145784507Y-150436996D01*
X145878610Y-150661446D01*
X146014693Y-150863225D01*
X146187526Y-151034578D01*
X146390467Y-151168921D01*
X146615718Y-151261091D01*
X146653391Y-151264962D01*
X146844000Y-151140231D01*
X146844000Y-149923500D01*
X145736000Y-149923500D01*
X143610630Y-149923500D01*
X143555990Y-149791589D01*
X143393475Y-149548368D01*
X143261620Y-149416513D01*
X143334180Y-149394502D01*
X143444494Y-149335537D01*
X143541185Y-149256185D01*
X143620537Y-149159494D01*
X143679502Y-149049180D01*
X143715812Y-148929482D01*
X143728072Y-148805000D01*
X143728072Y-147342874D01*
X144507000Y-148121802D01*
X144507000Y-148183939D01*
X144546774Y-148383898D01*
X144624795Y-148572256D01*
X144738063Y-148741774D01*
X144882226Y-148885937D01*
X145051744Y-148999205D01*
X145240102Y-149077226D01*
X145440061Y-149117000D01*
X145643939Y-149117000D01*
X145815137Y-149082947D01*
X145784507Y-149156004D01*
X145736000Y-149394500D01*
X145736000Y-149669500D01*
X146844000Y-149669500D01*
X146844000Y-149649500D01*
X146929894Y-149649500D01*
X147118000Y-149837606D01*
X147118000Y-149923500D01*
X147098000Y-149923500D01*
X147098000Y-151140231D01*
X147288609Y-151264962D01*
X147326282Y-151261091D01*
X147551533Y-151168921D01*
X147754474Y-151034578D01*
X147880033Y-150910094D01*
X147882595Y-150914887D01*
X147993038Y-151049462D01*
X148127613Y-151159905D01*
X148281149Y-151241972D01*
X148447745Y-151292508D01*
X148620999Y-151309572D01*
X149321001Y-151309572D01*
X149494255Y-151292508D01*
X149611310Y-151257000D01*
X150442394Y-151257000D01*
X151005000Y-151819606D01*
X151005001Y-156045668D01*
X151001324Y-156083000D01*
X151015998Y-156231985D01*
X151059454Y-156375246D01*
X151130026Y-156507276D01*
X151201201Y-156594002D01*
X151225000Y-156623001D01*
X151253998Y-156646799D01*
X153324928Y-158717730D01*
X153324928Y-160108000D01*
X153337188Y-160232482D01*
X153373498Y-160352180D01*
X153432463Y-160462494D01*
X153486222Y-160528000D01*
X87757000Y-160528000D01*
X87757000Y-157066653D01*
X98892952Y-157066653D01*
X99048962Y-157382214D01*
X99423745Y-157573020D01*
X99828551Y-157687044D01*
X100247824Y-157719902D01*
X100665451Y-157670334D01*
X101065383Y-157540243D01*
X101361038Y-157382214D01*
X101517048Y-157066653D01*
X100205000Y-155754605D01*
X98892952Y-157066653D01*
X87757000Y-157066653D01*
X87757000Y-155617824D01*
X98060098Y-155617824D01*
X98109666Y-156035451D01*
X98239757Y-156435383D01*
X98397786Y-156731038D01*
X98713347Y-156887048D01*
X100025395Y-155575000D01*
X100384605Y-155575000D01*
X101696653Y-156887048D01*
X102012214Y-156731038D01*
X102203020Y-156356255D01*
X102317044Y-155951449D01*
X102349902Y-155532176D01*
X102300334Y-155114549D01*
X102170243Y-154714617D01*
X102012214Y-154418962D01*
X101696653Y-154262952D01*
X100384605Y-155575000D01*
X100025395Y-155575000D01*
X98713347Y-154262952D01*
X98397786Y-154418962D01*
X98206980Y-154793745D01*
X98092956Y-155198551D01*
X98060098Y-155617824D01*
X87757000Y-155617824D01*
X87757000Y-154083347D01*
X98892952Y-154083347D01*
X100205000Y-155395395D01*
X101517048Y-154083347D01*
X101361038Y-153767786D01*
X100986255Y-153576980D01*
X100581449Y-153462956D01*
X100162176Y-153430098D01*
X99744549Y-153479666D01*
X99344617Y-153609757D01*
X99048962Y-153767786D01*
X98892952Y-154083347D01*
X87757000Y-154083347D01*
X87757000Y-147744721D01*
X88160000Y-147744721D01*
X88160000Y-148165279D01*
X88242047Y-148577756D01*
X88402988Y-148966302D01*
X88636637Y-149315983D01*
X88934017Y-149613363D01*
X89283698Y-149847012D01*
X89672244Y-150007953D01*
X90084721Y-150090000D01*
X90505279Y-150090000D01*
X90917756Y-150007953D01*
X91306302Y-149847012D01*
X91655983Y-149613363D01*
X91953363Y-149315983D01*
X92187012Y-148966302D01*
X92347953Y-148577756D01*
X92430000Y-148165279D01*
X92430000Y-147744721D01*
X98070000Y-147744721D01*
X98070000Y-148165279D01*
X98152047Y-148577756D01*
X98312988Y-148966302D01*
X98546637Y-149315983D01*
X98844017Y-149613363D01*
X99193698Y-149847012D01*
X99582244Y-150007953D01*
X99994721Y-150090000D01*
X100415279Y-150090000D01*
X100827756Y-150007953D01*
X101216302Y-149847012D01*
X101565983Y-149613363D01*
X101863363Y-149315983D01*
X102097012Y-148966302D01*
X102257953Y-148577756D01*
X102340000Y-148165279D01*
X102340000Y-147744721D01*
X102257953Y-147332244D01*
X102097012Y-146943698D01*
X101863363Y-146594017D01*
X101565983Y-146296637D01*
X101216302Y-146062988D01*
X100827756Y-145902047D01*
X100415279Y-145820000D01*
X99994721Y-145820000D01*
X99582244Y-145902047D01*
X99193698Y-146062988D01*
X98844017Y-146296637D01*
X98546637Y-146594017D01*
X98312988Y-146943698D01*
X98152047Y-147332244D01*
X98070000Y-147744721D01*
X92430000Y-147744721D01*
X92347953Y-147332244D01*
X92187012Y-146943698D01*
X91953363Y-146594017D01*
X91655983Y-146296637D01*
X91306302Y-146062988D01*
X90917756Y-145902047D01*
X90505279Y-145820000D01*
X90084721Y-145820000D01*
X89672244Y-145902047D01*
X89283698Y-146062988D01*
X88934017Y-146296637D01*
X88636637Y-146594017D01*
X88402988Y-146943698D01*
X88242047Y-147332244D01*
X88160000Y-147744721D01*
X87757000Y-147744721D01*
X87757000Y-142652409D01*
X92990000Y-142652409D01*
X92990000Y-143097591D01*
X93076851Y-143534218D01*
X93247214Y-143945511D01*
X93494544Y-144315666D01*
X93809334Y-144630456D01*
X94179489Y-144877786D01*
X94590782Y-145048149D01*
X95027409Y-145135000D01*
X95472591Y-145135000D01*
X95909218Y-145048149D01*
X96320511Y-144877786D01*
X96690666Y-144630456D01*
X97005456Y-144315666D01*
X97252786Y-143945511D01*
X97423149Y-143534218D01*
X97510000Y-143097591D01*
X97510000Y-142652409D01*
X97423149Y-142215782D01*
X97252786Y-141804489D01*
X97005456Y-141434334D01*
X96690666Y-141119544D01*
X96320511Y-140872214D01*
X95909218Y-140701851D01*
X95472591Y-140615000D01*
X95027409Y-140615000D01*
X94590782Y-140701851D01*
X94179489Y-140872214D01*
X93809334Y-141119544D01*
X93494544Y-141434334D01*
X93247214Y-141804489D01*
X93076851Y-142215782D01*
X92990000Y-142652409D01*
X87757000Y-142652409D01*
X87757000Y-137584721D01*
X88160000Y-137584721D01*
X88160000Y-138005279D01*
X88242047Y-138417756D01*
X88402988Y-138806302D01*
X88636637Y-139155983D01*
X88934017Y-139453363D01*
X89283698Y-139687012D01*
X89672244Y-139847953D01*
X90084721Y-139930000D01*
X90505279Y-139930000D01*
X90917756Y-139847953D01*
X91306302Y-139687012D01*
X91655983Y-139453363D01*
X91953363Y-139155983D01*
X92187012Y-138806302D01*
X92347953Y-138417756D01*
X92430000Y-138005279D01*
X92430000Y-137584721D01*
X92347953Y-137172244D01*
X92187012Y-136783698D01*
X91953363Y-136434017D01*
X91655983Y-136136637D01*
X91306302Y-135902988D01*
X90917756Y-135742047D01*
X90505279Y-135660000D01*
X90084721Y-135660000D01*
X89672244Y-135742047D01*
X89283698Y-135902988D01*
X88934017Y-136136637D01*
X88636637Y-136434017D01*
X88402988Y-136783698D01*
X88242047Y-137172244D01*
X88160000Y-137584721D01*
X87757000Y-137584721D01*
X87757000Y-130560653D01*
X96117452Y-130560653D01*
X96273462Y-130876214D01*
X96648245Y-131067020D01*
X97053051Y-131181044D01*
X97472324Y-131213902D01*
X97889951Y-131164334D01*
X98289883Y-131034243D01*
X98585538Y-130876214D01*
X98741548Y-130560653D01*
X97429500Y-129248605D01*
X96117452Y-130560653D01*
X87757000Y-130560653D01*
X87757000Y-129111824D01*
X95284598Y-129111824D01*
X95334166Y-129529451D01*
X95464257Y-129929383D01*
X95622286Y-130225038D01*
X95937847Y-130381048D01*
X97249895Y-129069000D01*
X97609105Y-129069000D01*
X98921153Y-130381048D01*
X99236714Y-130225038D01*
X99427520Y-129850255D01*
X99541544Y-129445449D01*
X99574402Y-129026176D01*
X99524834Y-128608549D01*
X99394743Y-128208617D01*
X99236714Y-127912962D01*
X98921153Y-127756952D01*
X97609105Y-129069000D01*
X97249895Y-129069000D01*
X95937847Y-127756952D01*
X95622286Y-127912962D01*
X95431480Y-128287745D01*
X95317456Y-128692551D01*
X95284598Y-129111824D01*
X87757000Y-129111824D01*
X87757000Y-127577347D01*
X96117452Y-127577347D01*
X97429500Y-128889395D01*
X98741548Y-127577347D01*
X98585538Y-127261786D01*
X98210755Y-127070980D01*
X97929304Y-126991702D01*
X99326403Y-126991702D01*
X99397986Y-127235671D01*
X99653496Y-127356571D01*
X99927684Y-127425300D01*
X100210012Y-127439217D01*
X100489630Y-127397787D01*
X100755792Y-127302603D01*
X100881014Y-127235671D01*
X100952597Y-126991702D01*
X100139500Y-126178605D01*
X99326403Y-126991702D01*
X97929304Y-126991702D01*
X97805949Y-126956956D01*
X97386676Y-126924098D01*
X96969049Y-126973666D01*
X96569117Y-127103757D01*
X96273462Y-127261786D01*
X96117452Y-127577347D01*
X87757000Y-127577347D01*
X87757000Y-126069512D01*
X98699283Y-126069512D01*
X98740713Y-126349130D01*
X98835897Y-126615292D01*
X98902829Y-126740514D01*
X99146798Y-126812097D01*
X99959895Y-125999000D01*
X99146798Y-125185903D01*
X98902829Y-125257486D01*
X98781929Y-125512996D01*
X98713200Y-125787184D01*
X98699283Y-126069512D01*
X87757000Y-126069512D01*
X87757000Y-117420653D01*
X96117452Y-117420653D01*
X96273462Y-117736214D01*
X96648245Y-117927020D01*
X97053051Y-118041044D01*
X97472324Y-118073902D01*
X97889951Y-118024334D01*
X98289883Y-117894243D01*
X98585538Y-117736214D01*
X98741548Y-117420653D01*
X97429500Y-116108605D01*
X96117452Y-117420653D01*
X87757000Y-117420653D01*
X87757000Y-115971824D01*
X95284598Y-115971824D01*
X95334166Y-116389451D01*
X95464257Y-116789383D01*
X95622286Y-117085038D01*
X95937847Y-117241048D01*
X97249895Y-115929000D01*
X97609105Y-115929000D01*
X98921153Y-117241048D01*
X99236714Y-117085038D01*
X99427520Y-116710255D01*
X99541544Y-116305449D01*
X99574402Y-115886176D01*
X99524834Y-115468549D01*
X99394743Y-115068617D01*
X99236714Y-114772962D01*
X98921153Y-114616952D01*
X97609105Y-115929000D01*
X97249895Y-115929000D01*
X95937847Y-114616952D01*
X95622286Y-114772962D01*
X95431480Y-115147745D01*
X95317456Y-115552551D01*
X95284598Y-115971824D01*
X87757000Y-115971824D01*
X87757000Y-114437347D01*
X96117452Y-114437347D01*
X97429500Y-115749395D01*
X98741548Y-114437347D01*
X98585538Y-114121786D01*
X98210755Y-113930980D01*
X97805949Y-113816956D01*
X97386676Y-113784098D01*
X96969049Y-113833666D01*
X96569117Y-113963757D01*
X96273462Y-114121786D01*
X96117452Y-114437347D01*
X87757000Y-114437347D01*
X87757000Y-109094193D01*
X98110000Y-109094193D01*
X98110000Y-109445807D01*
X98178596Y-109790665D01*
X98313153Y-110115515D01*
X98508500Y-110407871D01*
X98757129Y-110656500D01*
X99049485Y-110851847D01*
X99374335Y-110986404D01*
X99719193Y-111055000D01*
X100070807Y-111055000D01*
X100415665Y-110986404D01*
X100740515Y-110851847D01*
X101032871Y-110656500D01*
X101281500Y-110407871D01*
X101476847Y-110115515D01*
X101611404Y-109790665D01*
X101680000Y-109445807D01*
X101680000Y-109094193D01*
X101611404Y-108749335D01*
X101476847Y-108424485D01*
X101330576Y-108205576D01*
X101549485Y-108351847D01*
X101874335Y-108486404D01*
X102219193Y-108555000D01*
X102570807Y-108555000D01*
X102915665Y-108486404D01*
X103240515Y-108351847D01*
X103532871Y-108156500D01*
X103781500Y-107907871D01*
X103883745Y-107754851D01*
X103875000Y-107798816D01*
X103875000Y-108101184D01*
X103933989Y-108397743D01*
X104049701Y-108677095D01*
X104217688Y-108928505D01*
X104431495Y-109142312D01*
X104682905Y-109310299D01*
X104962257Y-109426011D01*
X105258816Y-109485000D01*
X105561184Y-109485000D01*
X105857743Y-109426011D01*
X106137095Y-109310299D01*
X106388505Y-109142312D01*
X106454944Y-109075873D01*
X106460498Y-109094180D01*
X106519463Y-109204494D01*
X106598815Y-109301185D01*
X106695506Y-109380537D01*
X106805820Y-109439502D01*
X106925518Y-109475812D01*
X107050000Y-109488072D01*
X107664250Y-109485000D01*
X107823000Y-109326250D01*
X107823000Y-108077000D01*
X107803000Y-108077000D01*
X107803000Y-107823000D01*
X107823000Y-107823000D01*
X107823000Y-106573750D01*
X107664250Y-106415000D01*
X107050000Y-106411928D01*
X106925518Y-106424188D01*
X106805820Y-106460498D01*
X106695506Y-106519463D01*
X106598815Y-106598815D01*
X106519463Y-106695506D01*
X106460498Y-106805820D01*
X106454944Y-106824127D01*
X106388505Y-106757688D01*
X106137095Y-106589701D01*
X105857743Y-106473989D01*
X105561184Y-106415000D01*
X105258816Y-106415000D01*
X104962257Y-106473989D01*
X104682905Y-106589701D01*
X104431495Y-106757688D01*
X104217688Y-106971495D01*
X104156750Y-107062696D01*
X104180000Y-106945807D01*
X104180000Y-106594193D01*
X104111404Y-106249335D01*
X103976847Y-105924485D01*
X103781500Y-105632129D01*
X103532871Y-105383500D01*
X103240515Y-105188153D01*
X102915665Y-105053596D01*
X102570807Y-104985000D01*
X102219193Y-104985000D01*
X101874335Y-105053596D01*
X101549485Y-105188153D01*
X101257129Y-105383500D01*
X101008500Y-105632129D01*
X100813153Y-105924485D01*
X100678596Y-106249335D01*
X100610000Y-106594193D01*
X100610000Y-106945807D01*
X100678596Y-107290665D01*
X100813153Y-107615515D01*
X100959424Y-107834424D01*
X100740515Y-107688153D01*
X100415665Y-107553596D01*
X100070807Y-107485000D01*
X99719193Y-107485000D01*
X99374335Y-107553596D01*
X99049485Y-107688153D01*
X98757129Y-107883500D01*
X98508500Y-108132129D01*
X98313153Y-108424485D01*
X98178596Y-108749335D01*
X98110000Y-109094193D01*
X87757000Y-109094193D01*
X87757000Y-104108967D01*
X88260000Y-104108967D01*
X88260000Y-104431033D01*
X88322832Y-104746912D01*
X88446082Y-105044463D01*
X88625013Y-105312252D01*
X88852748Y-105539987D01*
X89120537Y-105718918D01*
X89418088Y-105842168D01*
X89733967Y-105905000D01*
X90056033Y-105905000D01*
X90371912Y-105842168D01*
X90669463Y-105718918D01*
X90937252Y-105539987D01*
X91164987Y-105312252D01*
X91343918Y-105044463D01*
X91467168Y-104746912D01*
X91530000Y-104431033D01*
X91530000Y-104108967D01*
X91467168Y-103793088D01*
X91343918Y-103495537D01*
X91164987Y-103227748D01*
X90937252Y-103000013D01*
X90669463Y-102821082D01*
X90371912Y-102697832D01*
X90056033Y-102635000D01*
X89733967Y-102635000D01*
X89418088Y-102697832D01*
X89120537Y-102821082D01*
X88852748Y-103000013D01*
X88625013Y-103227748D01*
X88446082Y-103495537D01*
X88322832Y-103793088D01*
X88260000Y-104108967D01*
X87757000Y-104108967D01*
X87757000Y-101594193D01*
X98110000Y-101594193D01*
X98110000Y-101945807D01*
X98178596Y-102290665D01*
X98313153Y-102615515D01*
X98508500Y-102907871D01*
X98757129Y-103156500D01*
X99049485Y-103351847D01*
X99374335Y-103486404D01*
X99719193Y-103555000D01*
X100070807Y-103555000D01*
X100415665Y-103486404D01*
X100740515Y-103351847D01*
X101032871Y-103156500D01*
X101281500Y-102907871D01*
X101476847Y-102615515D01*
X101611404Y-102290665D01*
X101680000Y-101945807D01*
X101680000Y-101594193D01*
X101611404Y-101249335D01*
X101476847Y-100924485D01*
X101281500Y-100632129D01*
X101032871Y-100383500D01*
X100740515Y-100188153D01*
X100415665Y-100053596D01*
X100070807Y-99985000D01*
X99719193Y-99985000D01*
X99374335Y-100053596D01*
X99049485Y-100188153D01*
X98757129Y-100383500D01*
X98508500Y-100632129D01*
X98313153Y-100924485D01*
X98178596Y-101249335D01*
X98110000Y-101594193D01*
X87757000Y-101594193D01*
X87757000Y-99108967D01*
X88260000Y-99108967D01*
X88260000Y-99431033D01*
X88322832Y-99746912D01*
X88446082Y-100044463D01*
X88625013Y-100312252D01*
X88852748Y-100539987D01*
X89120537Y-100718918D01*
X89418088Y-100842168D01*
X89733967Y-100905000D01*
X90056033Y-100905000D01*
X90371912Y-100842168D01*
X90669463Y-100718918D01*
X90937252Y-100539987D01*
X91164987Y-100312252D01*
X91343918Y-100044463D01*
X91467168Y-99746912D01*
X91530000Y-99431033D01*
X91530000Y-99108967D01*
X91467168Y-98793088D01*
X91343918Y-98495537D01*
X91164987Y-98227748D01*
X90937252Y-98000013D01*
X90669463Y-97821082D01*
X90371912Y-97697832D01*
X90056033Y-97635000D01*
X89733967Y-97635000D01*
X89418088Y-97697832D01*
X89120537Y-97821082D01*
X88852748Y-98000013D01*
X88625013Y-98227748D01*
X88446082Y-98495537D01*
X88322832Y-98793088D01*
X88260000Y-99108967D01*
X87757000Y-99108967D01*
X87757000Y-94094193D01*
X98110000Y-94094193D01*
X98110000Y-94445807D01*
X98178596Y-94790665D01*
X98313153Y-95115515D01*
X98508500Y-95407871D01*
X98757129Y-95656500D01*
X99049485Y-95851847D01*
X99374335Y-95986404D01*
X99719193Y-96055000D01*
X100070807Y-96055000D01*
X100415665Y-95986404D01*
X100740515Y-95851847D01*
X100959424Y-95705576D01*
X100813153Y-95924485D01*
X100678596Y-96249335D01*
X100610000Y-96594193D01*
X100610000Y-96945807D01*
X100678596Y-97290665D01*
X100813153Y-97615515D01*
X101008500Y-97907871D01*
X101257129Y-98156500D01*
X101549485Y-98351847D01*
X101874335Y-98486404D01*
X102219193Y-98555000D01*
X102570807Y-98555000D01*
X102915665Y-98486404D01*
X103240515Y-98351847D01*
X103532871Y-98156500D01*
X103781500Y-97907871D01*
X103976847Y-97615515D01*
X104111404Y-97290665D01*
X104180000Y-96945807D01*
X104180000Y-96594193D01*
X104111404Y-96249335D01*
X103976847Y-95924485D01*
X103781500Y-95632129D01*
X103532871Y-95383500D01*
X103240515Y-95188153D01*
X102915665Y-95053596D01*
X102570807Y-94985000D01*
X102219193Y-94985000D01*
X101874335Y-95053596D01*
X101549485Y-95188153D01*
X101330576Y-95334424D01*
X101476847Y-95115515D01*
X101611404Y-94790665D01*
X101680000Y-94445807D01*
X101680000Y-94094193D01*
X101627214Y-93828816D01*
X103875000Y-93828816D01*
X103875000Y-94131184D01*
X103933989Y-94427743D01*
X104049701Y-94707095D01*
X104217688Y-94958505D01*
X104431495Y-95172312D01*
X104682905Y-95340299D01*
X104962257Y-95456011D01*
X105258816Y-95515000D01*
X105561184Y-95515000D01*
X105857743Y-95456011D01*
X106137095Y-95340299D01*
X106388505Y-95172312D01*
X106454944Y-95105873D01*
X106460498Y-95124180D01*
X106519463Y-95234494D01*
X106598815Y-95331185D01*
X106695506Y-95410537D01*
X106805820Y-95469502D01*
X106925518Y-95505812D01*
X107050000Y-95518072D01*
X107664250Y-95515000D01*
X107823000Y-95356250D01*
X107823000Y-94107000D01*
X108077000Y-94107000D01*
X108077000Y-95356250D01*
X108235750Y-95515000D01*
X108850000Y-95518072D01*
X108974482Y-95505812D01*
X109094180Y-95469502D01*
X109204494Y-95410537D01*
X109301185Y-95331185D01*
X109380537Y-95234494D01*
X109439502Y-95124180D01*
X109475812Y-95004482D01*
X109488072Y-94880000D01*
X109485000Y-94265750D01*
X109326250Y-94107000D01*
X108077000Y-94107000D01*
X107823000Y-94107000D01*
X107803000Y-94107000D01*
X107803000Y-93853000D01*
X107823000Y-93853000D01*
X107823000Y-92603750D01*
X108077000Y-92603750D01*
X108077000Y-93853000D01*
X109326250Y-93853000D01*
X109485000Y-93694250D01*
X109488072Y-93080000D01*
X109475812Y-92955518D01*
X109439502Y-92835820D01*
X109380537Y-92725506D01*
X109301185Y-92628815D01*
X109204494Y-92549463D01*
X109094180Y-92490498D01*
X108974482Y-92454188D01*
X108850000Y-92441928D01*
X108235750Y-92445000D01*
X108077000Y-92603750D01*
X107823000Y-92603750D01*
X107664250Y-92445000D01*
X107050000Y-92441928D01*
X106925518Y-92454188D01*
X106805820Y-92490498D01*
X106695506Y-92549463D01*
X106598815Y-92628815D01*
X106519463Y-92725506D01*
X106460498Y-92835820D01*
X106454944Y-92854127D01*
X106388505Y-92787688D01*
X106137095Y-92619701D01*
X105857743Y-92503989D01*
X105561184Y-92445000D01*
X105258816Y-92445000D01*
X104962257Y-92503989D01*
X104682905Y-92619701D01*
X104431495Y-92787688D01*
X104217688Y-93001495D01*
X104049701Y-93252905D01*
X103933989Y-93532257D01*
X103875000Y-93828816D01*
X101627214Y-93828816D01*
X101611404Y-93749335D01*
X101476847Y-93424485D01*
X101281500Y-93132129D01*
X101032871Y-92883500D01*
X100740515Y-92688153D01*
X100415665Y-92553596D01*
X100070807Y-92485000D01*
X99719193Y-92485000D01*
X99374335Y-92553596D01*
X99049485Y-92688153D01*
X98757129Y-92883500D01*
X98508500Y-93132129D01*
X98313153Y-93424485D01*
X98178596Y-93749335D01*
X98110000Y-94094193D01*
X87757000Y-94094193D01*
X87757000Y-92202000D01*
X119481928Y-92202000D01*
X119481928Y-94745000D01*
G37*
X119481928Y-94745000D02*
X119494188Y-94869482D01*
X119530498Y-94989180D01*
X119589463Y-95099494D01*
X119668815Y-95196185D01*
X119765506Y-95275537D01*
X119875820Y-95334502D01*
X119995518Y-95370812D01*
X120120000Y-95383072D01*
X123720000Y-95383072D01*
X123844482Y-95370812D01*
X123964180Y-95334502D01*
X124074494Y-95275537D01*
X124171185Y-95196185D01*
X124250537Y-95099494D01*
X124309502Y-94989180D01*
X124345812Y-94869482D01*
X124358072Y-94745000D01*
X124358072Y-93828816D01*
X134355000Y-93828816D01*
X134355000Y-94131184D01*
X134413989Y-94427743D01*
X134529701Y-94707095D01*
X134697688Y-94958505D01*
X134911495Y-95172312D01*
X135162905Y-95340299D01*
X135442257Y-95456011D01*
X135738816Y-95515000D01*
X136041184Y-95515000D01*
X136337743Y-95456011D01*
X136617095Y-95340299D01*
X136868505Y-95172312D01*
X136934944Y-95105873D01*
X136940498Y-95124180D01*
X136999463Y-95234494D01*
X137078815Y-95331185D01*
X137175506Y-95410537D01*
X137285820Y-95469502D01*
X137405518Y-95505812D01*
X137530000Y-95518072D01*
X138144250Y-95515000D01*
X138303000Y-95356250D01*
X138303000Y-94107000D01*
X138557000Y-94107000D01*
X138557000Y-95356250D01*
X138715750Y-95515000D01*
X139330000Y-95518072D01*
X139454482Y-95505812D01*
X139574180Y-95469502D01*
X139684494Y-95410537D01*
X139781185Y-95331185D01*
X139860537Y-95234494D01*
X139919502Y-95124180D01*
X139955812Y-95004482D01*
X139968072Y-94880000D01*
X139965000Y-94265750D01*
X139806250Y-94107000D01*
X138557000Y-94107000D01*
X138303000Y-94107000D01*
X138283000Y-94107000D01*
X138283000Y-93853000D01*
X138303000Y-93853000D01*
X138303000Y-92603750D01*
X138557000Y-92603750D01*
X138557000Y-93853000D01*
X139806250Y-93853000D01*
X139965000Y-93694250D01*
X139968072Y-93080000D01*
X139955812Y-92955518D01*
X139919502Y-92835820D01*
X139860537Y-92725506D01*
X139781185Y-92628815D01*
X139684494Y-92549463D01*
X139574180Y-92490498D01*
X139454482Y-92454188D01*
X139330000Y-92441928D01*
X138715750Y-92445000D01*
X138557000Y-92603750D01*
X138303000Y-92603750D01*
X138144250Y-92445000D01*
X137530000Y-92441928D01*
X137405518Y-92454188D01*
X137285820Y-92490498D01*
X137175506Y-92549463D01*
X137078815Y-92628815D01*
X136999463Y-92725506D01*
X136940498Y-92835820D01*
X136934944Y-92854127D01*
X136868505Y-92787688D01*
X136617095Y-92619701D01*
X136337743Y-92503989D01*
X136041184Y-92445000D01*
X135738816Y-92445000D01*
X135442257Y-92503989D01*
X135162905Y-92619701D01*
X134911495Y-92787688D01*
X134697688Y-93001495D01*
X134529701Y-93252905D01*
X134413989Y-93532257D01*
X134355000Y-93828816D01*
X124358072Y-93828816D01*
X124358072Y-92202000D01*
X156083000Y-92202000D01*
X156083000Y-113521593D01*
X156034180Y-113495498D01*
X155914482Y-113459188D01*
X155790000Y-113446928D01*
X155225750Y-113450000D01*
X155067000Y-113608750D01*
X155067000Y-114808000D01*
X154813000Y-114808000D01*
X154813000Y-113608750D01*
X154654250Y-113450000D01*
X154090000Y-113446928D01*
X153965518Y-113459188D01*
X153845820Y-113495498D01*
X153735506Y-113554463D01*
X153638815Y-113633815D01*
X153559463Y-113730506D01*
X153500498Y-113840820D01*
X153478487Y-113913380D01*
X153346632Y-113781525D01*
X153103411Y-113619010D01*
X152833158Y-113507068D01*
X152546260Y-113450000D01*
X152253740Y-113450000D01*
X151966842Y-113507068D01*
X151696589Y-113619010D01*
X151453368Y-113781525D01*
X151246525Y-113988368D01*
X151130000Y-114162760D01*
X151013475Y-113988368D01*
X150806632Y-113781525D01*
X150563411Y-113619010D01*
X150293158Y-113507068D01*
X150006260Y-113450000D01*
X149713740Y-113450000D01*
X149426842Y-113507068D01*
X149156589Y-113619010D01*
X148913368Y-113781525D01*
X148706525Y-113988368D01*
X148590000Y-114162760D01*
X148473475Y-113988368D01*
X148266632Y-113781525D01*
X148080000Y-113656822D01*
X148080000Y-108018711D01*
X148123937Y-107974774D01*
X148237205Y-107805256D01*
X148315226Y-107616898D01*
X148355000Y-107416939D01*
X148355000Y-107213061D01*
X148315226Y-107013102D01*
X148237205Y-106824744D01*
X148123937Y-106655226D01*
X147979774Y-106511063D01*
X147810256Y-106397795D01*
X147621898Y-106319774D01*
X147421939Y-106280000D01*
X147218061Y-106280000D01*
X147018102Y-106319774D01*
X146829744Y-106397795D01*
X146660226Y-106511063D01*
X146516063Y-106655226D01*
X146402795Y-106824744D01*
X146324774Y-107013102D01*
X146285000Y-107213061D01*
X146285000Y-107416939D01*
X146324774Y-107616898D01*
X146402795Y-107805256D01*
X146516063Y-107974774D01*
X146560001Y-108018712D01*
X146560000Y-113656821D01*
X146373368Y-113781525D01*
X146166525Y-113988368D01*
X146050000Y-114162760D01*
X145933475Y-113988368D01*
X145726632Y-113781525D01*
X145483411Y-113619010D01*
X145213158Y-113507068D01*
X144926260Y-113450000D01*
X144633740Y-113450000D01*
X144346842Y-113507068D01*
X144076589Y-113619010D01*
X143833368Y-113781525D01*
X143626525Y-113988368D01*
X143510000Y-114162760D01*
X143393475Y-113988368D01*
X143186632Y-113781525D01*
X142943411Y-113619010D01*
X142673158Y-113507068D01*
X142386260Y-113450000D01*
X142093740Y-113450000D01*
X141806842Y-113507068D01*
X141536589Y-113619010D01*
X141293368Y-113781525D01*
X141086525Y-113988368D01*
X140970000Y-114162760D01*
X140853475Y-113988368D01*
X140646632Y-113781525D01*
X140403411Y-113619010D01*
X140133158Y-113507068D01*
X139846260Y-113450000D01*
X139553740Y-113450000D01*
X139266842Y-113507068D01*
X138996589Y-113619010D01*
X138753368Y-113781525D01*
X138546525Y-113988368D01*
X138430000Y-114162760D01*
X138313475Y-113988368D01*
X138106632Y-113781525D01*
X137863411Y-113619010D01*
X137593158Y-113507068D01*
X137306260Y-113450000D01*
X137013740Y-113450000D01*
X136726842Y-113507068D01*
X136456589Y-113619010D01*
X136213368Y-113781525D01*
X136006525Y-113988368D01*
X135890000Y-114162760D01*
X135773475Y-113988368D01*
X135566632Y-113781525D01*
X135323411Y-113619010D01*
X135053158Y-113507068D01*
X134766260Y-113450000D01*
X134473740Y-113450000D01*
X134186842Y-113507068D01*
X133916589Y-113619010D01*
X133673368Y-113781525D01*
X133466525Y-113988368D01*
X133350000Y-114162760D01*
X133233475Y-113988368D01*
X133026632Y-113781525D01*
X132783411Y-113619010D01*
X132513158Y-113507068D01*
X132226260Y-113450000D01*
X131933740Y-113450000D01*
X131646842Y-113507068D01*
X131376589Y-113619010D01*
X131133368Y-113781525D01*
X130926525Y-113988368D01*
X130810000Y-114162760D01*
X130693475Y-113988368D01*
X130486632Y-113781525D01*
X130243411Y-113619010D01*
X129973158Y-113507068D01*
X129686260Y-113450000D01*
X129393740Y-113450000D01*
X129106842Y-113507068D01*
X128836589Y-113619010D01*
X128593368Y-113781525D01*
X128386525Y-113988368D01*
X128270000Y-114162760D01*
X128153475Y-113988368D01*
X127946632Y-113781525D01*
X127703411Y-113619010D01*
X127433158Y-113507068D01*
X127146260Y-113450000D01*
X126853740Y-113450000D01*
X126566842Y-113507068D01*
X126296589Y-113619010D01*
X126053368Y-113781525D01*
X125846525Y-113988368D01*
X125730000Y-114162760D01*
X125613475Y-113988368D01*
X125406632Y-113781525D01*
X125163411Y-113619010D01*
X124893158Y-113507068D01*
X124606260Y-113450000D01*
X124313740Y-113450000D01*
X124026842Y-113507068D01*
X123756589Y-113619010D01*
X123513368Y-113781525D01*
X123306525Y-113988368D01*
X123190000Y-114162760D01*
X123073475Y-113988368D01*
X122866632Y-113781525D01*
X122623411Y-113619010D01*
X122353158Y-113507068D01*
X122066260Y-113450000D01*
X121773740Y-113450000D01*
X121486842Y-113507068D01*
X121216589Y-113619010D01*
X120973368Y-113781525D01*
X120766525Y-113988368D01*
X120650000Y-114162760D01*
X120533475Y-113988368D01*
X120326632Y-113781525D01*
X120083411Y-113619010D01*
X119813158Y-113507068D01*
X119526260Y-113450000D01*
X119233740Y-113450000D01*
X119013592Y-113493791D01*
X118489000Y-112969199D01*
X118489000Y-109068816D01*
X119115000Y-109068816D01*
X119115000Y-109371184D01*
X119173989Y-109667743D01*
X119289701Y-109947095D01*
X119457688Y-110198505D01*
X119671495Y-110412312D01*
X119922905Y-110580299D01*
X120202257Y-110696011D01*
X120498816Y-110755000D01*
X120801184Y-110755000D01*
X121097743Y-110696011D01*
X121377095Y-110580299D01*
X121628505Y-110412312D01*
X121694944Y-110345873D01*
X121700498Y-110364180D01*
X121759463Y-110474494D01*
X121838815Y-110571185D01*
X121935506Y-110650537D01*
X122045820Y-110709502D01*
X122165518Y-110745812D01*
X122290000Y-110758072D01*
X122904250Y-110755000D01*
X123063000Y-110596250D01*
X123063000Y-109347000D01*
X123317000Y-109347000D01*
X123317000Y-110596250D01*
X123475750Y-110755000D01*
X124090000Y-110758072D01*
X124214482Y-110745812D01*
X124334180Y-110709502D01*
X124444494Y-110650537D01*
X124541185Y-110571185D01*
X124620537Y-110474494D01*
X124679502Y-110364180D01*
X124715812Y-110244482D01*
X124728072Y-110120000D01*
X124725000Y-109505750D01*
X124566250Y-109347000D01*
X123317000Y-109347000D01*
X123063000Y-109347000D01*
X123043000Y-109347000D01*
X123043000Y-109093000D01*
X123063000Y-109093000D01*
X123063000Y-107843750D01*
X123317000Y-107843750D01*
X123317000Y-109093000D01*
X124566250Y-109093000D01*
X124725000Y-108934250D01*
X124728072Y-108320000D01*
X124715812Y-108195518D01*
X124679502Y-108075820D01*
X124620537Y-107965506D01*
X124541185Y-107868815D01*
X124455891Y-107798816D01*
X134355000Y-107798816D01*
X134355000Y-108101184D01*
X134413989Y-108397743D01*
X134529701Y-108677095D01*
X134697688Y-108928505D01*
X134911495Y-109142312D01*
X135162905Y-109310299D01*
X135442257Y-109426011D01*
X135738816Y-109485000D01*
X136041184Y-109485000D01*
X136337743Y-109426011D01*
X136617095Y-109310299D01*
X136868505Y-109142312D01*
X136934944Y-109075873D01*
X136940498Y-109094180D01*
X136999463Y-109204494D01*
X137078815Y-109301185D01*
X137175506Y-109380537D01*
X137285820Y-109439502D01*
X137405518Y-109475812D01*
X137530000Y-109488072D01*
X138144250Y-109485000D01*
X138303000Y-109326250D01*
X138303000Y-108077000D01*
X138557000Y-108077000D01*
X138557000Y-109326250D01*
X138715750Y-109485000D01*
X139330000Y-109488072D01*
X139454482Y-109475812D01*
X139574180Y-109439502D01*
X139684494Y-109380537D01*
X139781185Y-109301185D01*
X139860537Y-109204494D01*
X139919502Y-109094180D01*
X139955812Y-108974482D01*
X139968072Y-108850000D01*
X139965000Y-108235750D01*
X139806250Y-108077000D01*
X138557000Y-108077000D01*
X138303000Y-108077000D01*
X138283000Y-108077000D01*
X138283000Y-107823000D01*
X138303000Y-107823000D01*
X138303000Y-106573750D01*
X138557000Y-106573750D01*
X138557000Y-107823000D01*
X139806250Y-107823000D01*
X139960387Y-107668863D01*
X140102871Y-107882104D01*
X140351500Y-108130733D01*
X140643856Y-108326080D01*
X140968706Y-108460637D01*
X141313564Y-108529233D01*
X141665178Y-108529233D01*
X142010036Y-108460637D01*
X142334886Y-108326080D01*
X142553795Y-108179809D01*
X142407524Y-108398718D01*
X142272967Y-108723568D01*
X142204371Y-109068426D01*
X142204371Y-109420040D01*
X142272967Y-109764898D01*
X142407524Y-110089748D01*
X142602871Y-110382104D01*
X142851500Y-110630733D01*
X143143856Y-110826080D01*
X143468706Y-110960637D01*
X143813564Y-111029233D01*
X144165178Y-111029233D01*
X144510036Y-110960637D01*
X144834886Y-110826080D01*
X145127242Y-110630733D01*
X145375871Y-110382104D01*
X145571218Y-110089748D01*
X145705775Y-109764898D01*
X145774371Y-109420040D01*
X145774371Y-109068426D01*
X145705775Y-108723568D01*
X145571218Y-108398718D01*
X145375871Y-108106362D01*
X145127242Y-107857733D01*
X144834886Y-107662386D01*
X144510036Y-107527829D01*
X144165178Y-107459233D01*
X143813564Y-107459233D01*
X143468706Y-107527829D01*
X143143856Y-107662386D01*
X142924947Y-107808657D01*
X143071218Y-107589748D01*
X143205775Y-107264898D01*
X143274371Y-106920040D01*
X143274371Y-106568426D01*
X143205775Y-106223568D01*
X143071218Y-105898718D01*
X142875871Y-105606362D01*
X142627242Y-105357733D01*
X142334886Y-105162386D01*
X142010036Y-105027829D01*
X141665178Y-104959233D01*
X141313564Y-104959233D01*
X140968706Y-105027829D01*
X140643856Y-105162386D01*
X140351500Y-105357733D01*
X140102871Y-105606362D01*
X139907524Y-105898718D01*
X139772967Y-106223568D01*
X139709954Y-106540358D01*
X139684494Y-106519463D01*
X139574180Y-106460498D01*
X139454482Y-106424188D01*
X139330000Y-106411928D01*
X138715750Y-106415000D01*
X138557000Y-106573750D01*
X138303000Y-106573750D01*
X138144250Y-106415000D01*
X137530000Y-106411928D01*
X137405518Y-106424188D01*
X137285820Y-106460498D01*
X137175506Y-106519463D01*
X137078815Y-106598815D01*
X136999463Y-106695506D01*
X136940498Y-106805820D01*
X136934944Y-106824127D01*
X136868505Y-106757688D01*
X136617095Y-106589701D01*
X136337743Y-106473989D01*
X136041184Y-106415000D01*
X135738816Y-106415000D01*
X135442257Y-106473989D01*
X135162905Y-106589701D01*
X134911495Y-106757688D01*
X134697688Y-106971495D01*
X134529701Y-107222905D01*
X134413989Y-107502257D01*
X134355000Y-107798816D01*
X124455891Y-107798816D01*
X124444494Y-107789463D01*
X124334180Y-107730498D01*
X124214482Y-107694188D01*
X124090000Y-107681928D01*
X123475750Y-107685000D01*
X123317000Y-107843750D01*
X123063000Y-107843750D01*
X122904250Y-107685000D01*
X122290000Y-107681928D01*
X122165518Y-107694188D01*
X122045820Y-107730498D01*
X121935506Y-107789463D01*
X121838815Y-107868815D01*
X121759463Y-107965506D01*
X121700498Y-108075820D01*
X121694944Y-108094127D01*
X121628505Y-108027688D01*
X121377095Y-107859701D01*
X121097743Y-107743989D01*
X120801184Y-107685000D01*
X120498816Y-107685000D01*
X120202257Y-107743989D01*
X119922905Y-107859701D01*
X119671495Y-108027688D01*
X119457688Y-108241495D01*
X119289701Y-108492905D01*
X119173989Y-108772257D01*
X119115000Y-109068816D01*
X118489000Y-109068816D01*
X118489000Y-103345000D01*
X119481928Y-103345000D01*
X119481928Y-106145000D01*
X119494188Y-106269482D01*
X119530498Y-106389180D01*
X119589463Y-106499494D01*
X119668815Y-106596185D01*
X119765506Y-106675537D01*
X119875820Y-106734502D01*
X119995518Y-106770812D01*
X120120000Y-106783072D01*
X123720000Y-106783072D01*
X123844482Y-106770812D01*
X123964180Y-106734502D01*
X124074494Y-106675537D01*
X124171185Y-106596185D01*
X124250537Y-106499494D01*
X124309502Y-106389180D01*
X124345812Y-106269482D01*
X124358072Y-106145000D01*
X124358072Y-104083200D01*
X152354371Y-104083200D01*
X152354371Y-104405266D01*
X152417203Y-104721145D01*
X152540453Y-105018696D01*
X152719384Y-105286485D01*
X152947119Y-105514220D01*
X153214908Y-105693151D01*
X153512459Y-105816401D01*
X153828338Y-105879233D01*
X154150404Y-105879233D01*
X154466283Y-105816401D01*
X154763834Y-105693151D01*
X155031623Y-105514220D01*
X155259358Y-105286485D01*
X155438289Y-105018696D01*
X155561539Y-104721145D01*
X155624371Y-104405266D01*
X155624371Y-104083200D01*
X155561539Y-103767321D01*
X155438289Y-103469770D01*
X155259358Y-103201981D01*
X155031623Y-102974246D01*
X154763834Y-102795315D01*
X154466283Y-102672065D01*
X154150404Y-102609233D01*
X153828338Y-102609233D01*
X153512459Y-102672065D01*
X153214908Y-102795315D01*
X152947119Y-102974246D01*
X152719384Y-103201981D01*
X152540453Y-103469770D01*
X152417203Y-103767321D01*
X152354371Y-104083200D01*
X124358072Y-104083200D01*
X124358072Y-103345000D01*
X124345812Y-103220518D01*
X124309502Y-103100820D01*
X124250537Y-102990506D01*
X124171185Y-102893815D01*
X124074494Y-102814463D01*
X123964180Y-102755498D01*
X123844482Y-102719188D01*
X123720000Y-102706928D01*
X120120000Y-102706928D01*
X119995518Y-102719188D01*
X119875820Y-102755498D01*
X119765506Y-102814463D01*
X119668815Y-102893815D01*
X119589463Y-102990506D01*
X119530498Y-103100820D01*
X119494188Y-103220518D01*
X119481928Y-103345000D01*
X118489000Y-103345000D01*
X118489000Y-102680413D01*
X127964192Y-102680413D01*
X128059956Y-102944814D01*
X128349571Y-103085704D01*
X128661108Y-103167384D01*
X128982595Y-103186718D01*
X129301675Y-103142961D01*
X129606088Y-103037795D01*
X129701901Y-102986582D01*
X142926627Y-102986582D01*
X143040489Y-103266323D01*
X143355667Y-103422194D01*
X143695197Y-103513582D01*
X144046032Y-103536974D01*
X144394690Y-103491473D01*
X144727771Y-103378827D01*
X144938253Y-103266323D01*
X145052115Y-102986582D01*
X143989371Y-101923838D01*
X142926627Y-102986582D01*
X129701901Y-102986582D01*
X129780044Y-102944814D01*
X129875808Y-102680413D01*
X128920000Y-101724605D01*
X127964192Y-102680413D01*
X118489000Y-102680413D01*
X118489000Y-101607595D01*
X127278282Y-101607595D01*
X127322039Y-101926675D01*
X127427205Y-102231088D01*
X127520186Y-102405044D01*
X127784587Y-102500808D01*
X128740395Y-101545000D01*
X129099605Y-101545000D01*
X130055413Y-102500808D01*
X130319814Y-102405044D01*
X130460704Y-102115429D01*
X130542384Y-101803892D01*
X130542564Y-101800894D01*
X142196630Y-101800894D01*
X142242131Y-102149552D01*
X142354777Y-102482633D01*
X142467281Y-102693115D01*
X142747022Y-102806977D01*
X143809766Y-101744233D01*
X144168976Y-101744233D01*
X145231720Y-102806977D01*
X145511461Y-102693115D01*
X145667332Y-102377937D01*
X145758720Y-102038407D01*
X145782112Y-101687572D01*
X145736611Y-101338914D01*
X145623965Y-101005833D01*
X145511461Y-100795351D01*
X145231720Y-100681489D01*
X144168976Y-101744233D01*
X143809766Y-101744233D01*
X142747022Y-100681489D01*
X142467281Y-100795351D01*
X142311410Y-101110529D01*
X142220022Y-101450059D01*
X142196630Y-101800894D01*
X130542564Y-101800894D01*
X130561718Y-101482405D01*
X130517961Y-101163325D01*
X130412795Y-100858912D01*
X130319814Y-100684956D01*
X130055413Y-100589192D01*
X129099605Y-101545000D01*
X128740395Y-101545000D01*
X127784587Y-100589192D01*
X127520186Y-100684956D01*
X127379296Y-100974571D01*
X127297616Y-101286108D01*
X127278282Y-101607595D01*
X118489000Y-101607595D01*
X118489000Y-100748325D01*
X118492676Y-100711000D01*
X118489000Y-100673675D01*
X118489000Y-100673667D01*
X118478003Y-100562014D01*
X118434546Y-100418753D01*
X118429647Y-100409587D01*
X127964192Y-100409587D01*
X128920000Y-101365395D01*
X129783511Y-100501884D01*
X142926627Y-100501884D01*
X143989371Y-101564628D01*
X145052115Y-100501884D01*
X144938253Y-100222143D01*
X144623075Y-100066272D01*
X144283545Y-99974884D01*
X143932710Y-99951492D01*
X143584052Y-99996993D01*
X143250971Y-100109639D01*
X143040489Y-100222143D01*
X142926627Y-100501884D01*
X129783511Y-100501884D01*
X129875808Y-100409587D01*
X129780044Y-100145186D01*
X129490429Y-100004296D01*
X129178892Y-99922616D01*
X128857405Y-99903282D01*
X128538325Y-99947039D01*
X128233912Y-100052205D01*
X128059956Y-100145186D01*
X127964192Y-100409587D01*
X118429647Y-100409587D01*
X118363974Y-100286724D01*
X118269001Y-100170999D01*
X118240004Y-100147202D01*
X117176002Y-99083200D01*
X152354371Y-99083200D01*
X152354371Y-99405266D01*
X152417203Y-99721145D01*
X152540453Y-100018696D01*
X152719384Y-100286485D01*
X152947119Y-100514220D01*
X153214908Y-100693151D01*
X153512459Y-100816401D01*
X153828338Y-100879233D01*
X154150404Y-100879233D01*
X154466283Y-100816401D01*
X154763834Y-100693151D01*
X155031623Y-100514220D01*
X155259358Y-100286485D01*
X155438289Y-100018696D01*
X155561539Y-99721145D01*
X155624371Y-99405266D01*
X155624371Y-99083200D01*
X155561539Y-98767321D01*
X155438289Y-98469770D01*
X155259358Y-98201981D01*
X155031623Y-97974246D01*
X154763834Y-97795315D01*
X154466283Y-97672065D01*
X154150404Y-97609233D01*
X153828338Y-97609233D01*
X153512459Y-97672065D01*
X153214908Y-97795315D01*
X152947119Y-97974246D01*
X152719384Y-98201981D01*
X152540453Y-98469770D01*
X152417203Y-98767321D01*
X152354371Y-99083200D01*
X117176002Y-99083200D01*
X116626804Y-98534003D01*
X116603001Y-98504999D01*
X116487276Y-98410026D01*
X116355247Y-98339454D01*
X116211986Y-98295997D01*
X116100333Y-98285000D01*
X116100322Y-98285000D01*
X116063000Y-98281324D01*
X116025678Y-98285000D01*
X115874909Y-98285000D01*
X115868918Y-98270537D01*
X115689987Y-98002748D01*
X115482239Y-97795000D01*
X115689987Y-97587252D01*
X115868918Y-97319463D01*
X115992168Y-97021912D01*
X116055000Y-96706033D01*
X116055000Y-96383967D01*
X127285000Y-96383967D01*
X127285000Y-96706033D01*
X127347832Y-97021912D01*
X127471082Y-97319463D01*
X127650013Y-97587252D01*
X127877748Y-97814987D01*
X128145537Y-97993918D01*
X128443088Y-98117168D01*
X128758967Y-98180000D01*
X129081033Y-98180000D01*
X129396912Y-98117168D01*
X129694463Y-97993918D01*
X129962252Y-97814987D01*
X130189987Y-97587252D01*
X130368918Y-97319463D01*
X130492168Y-97021912D01*
X130555000Y-96706033D01*
X130555000Y-96568426D01*
X139704371Y-96568426D01*
X139704371Y-96920040D01*
X139772967Y-97264898D01*
X139907524Y-97589748D01*
X140102871Y-97882104D01*
X140351500Y-98130733D01*
X140643856Y-98326080D01*
X140968706Y-98460637D01*
X141313564Y-98529233D01*
X141665178Y-98529233D01*
X142010036Y-98460637D01*
X142334886Y-98326080D01*
X142627242Y-98130733D01*
X142875871Y-97882104D01*
X143071218Y-97589748D01*
X143205775Y-97264898D01*
X143274371Y-96920040D01*
X143274371Y-96568426D01*
X143205775Y-96223568D01*
X143071218Y-95898718D01*
X142924947Y-95679809D01*
X143143856Y-95826080D01*
X143468706Y-95960637D01*
X143813564Y-96029233D01*
X144165178Y-96029233D01*
X144510036Y-95960637D01*
X144834886Y-95826080D01*
X145127242Y-95630733D01*
X145375871Y-95382104D01*
X145571218Y-95089748D01*
X145705775Y-94764898D01*
X145774371Y-94420040D01*
X145774371Y-94068426D01*
X145705775Y-93723568D01*
X145571218Y-93398718D01*
X145375871Y-93106362D01*
X145127242Y-92857733D01*
X144834886Y-92662386D01*
X144510036Y-92527829D01*
X144165178Y-92459233D01*
X143813564Y-92459233D01*
X143468706Y-92527829D01*
X143143856Y-92662386D01*
X142851500Y-92857733D01*
X142602871Y-93106362D01*
X142407524Y-93398718D01*
X142272967Y-93723568D01*
X142204371Y-94068426D01*
X142204371Y-94420040D01*
X142272967Y-94764898D01*
X142407524Y-95089748D01*
X142553795Y-95308657D01*
X142334886Y-95162386D01*
X142010036Y-95027829D01*
X141665178Y-94959233D01*
X141313564Y-94959233D01*
X140968706Y-95027829D01*
X140643856Y-95162386D01*
X140351500Y-95357733D01*
X140102871Y-95606362D01*
X139907524Y-95898718D01*
X139772967Y-96223568D01*
X139704371Y-96568426D01*
X130555000Y-96568426D01*
X130555000Y-96383967D01*
X130492168Y-96068088D01*
X130368918Y-95770537D01*
X130189987Y-95502748D01*
X129962252Y-95275013D01*
X129694463Y-95096082D01*
X129396912Y-94972832D01*
X129081033Y-94910000D01*
X128758967Y-94910000D01*
X128443088Y-94972832D01*
X128145537Y-95096082D01*
X127877748Y-95275013D01*
X127650013Y-95502748D01*
X127471082Y-95770537D01*
X127347832Y-96068088D01*
X127285000Y-96383967D01*
X116055000Y-96383967D01*
X115992168Y-96068088D01*
X115868918Y-95770537D01*
X115689987Y-95502748D01*
X115462252Y-95275013D01*
X115194463Y-95096082D01*
X114896912Y-94972832D01*
X114581033Y-94910000D01*
X114258967Y-94910000D01*
X113943088Y-94972832D01*
X113645537Y-95096082D01*
X113377748Y-95275013D01*
X113150013Y-95502748D01*
X112971082Y-95770537D01*
X112847832Y-96068088D01*
X112785000Y-96383967D01*
X112785000Y-96706033D01*
X112847832Y-97021912D01*
X112971082Y-97319463D01*
X113150013Y-97587252D01*
X113357761Y-97795000D01*
X113150013Y-98002748D01*
X112971082Y-98270537D01*
X112847832Y-98568088D01*
X112785000Y-98883967D01*
X112785000Y-99206033D01*
X112847832Y-99521912D01*
X112971082Y-99819463D01*
X113150013Y-100087252D01*
X113357761Y-100295000D01*
X113150013Y-100502748D01*
X112971082Y-100770537D01*
X112847832Y-101068088D01*
X112785000Y-101383967D01*
X112785000Y-101706033D01*
X112847832Y-102021912D01*
X112971082Y-102319463D01*
X113150013Y-102587252D01*
X113377748Y-102814987D01*
X113645537Y-102993918D01*
X113943088Y-103117168D01*
X114258967Y-103180000D01*
X114581033Y-103180000D01*
X114896912Y-103117168D01*
X115194463Y-102993918D01*
X115462252Y-102814987D01*
X115689987Y-102587252D01*
X115868918Y-102319463D01*
X115992168Y-102021912D01*
X116055000Y-101706033D01*
X116055000Y-101383967D01*
X115992168Y-101068088D01*
X115868918Y-100770537D01*
X115689987Y-100502748D01*
X115482239Y-100295000D01*
X115689987Y-100087252D01*
X115826358Y-99883159D01*
X116969000Y-101025802D01*
X116969001Y-113246668D01*
X116965324Y-113284000D01*
X116979998Y-113432985D01*
X116985159Y-113450000D01*
X116693740Y-113450000D01*
X116473592Y-113493790D01*
X112520000Y-109540199D01*
X112520000Y-105478711D01*
X112563937Y-105434774D01*
X112677205Y-105265256D01*
X112755226Y-105076898D01*
X112795000Y-104876939D01*
X112795000Y-104673061D01*
X112755226Y-104473102D01*
X112677205Y-104284744D01*
X112563937Y-104115226D01*
X112419774Y-103971063D01*
X112250256Y-103857795D01*
X112061898Y-103779774D01*
X111861939Y-103740000D01*
X111658061Y-103740000D01*
X111458102Y-103779774D01*
X111269744Y-103857795D01*
X111100226Y-103971063D01*
X110956063Y-104115226D01*
X110855000Y-104266478D01*
X110855000Y-99523711D01*
X110898937Y-99479774D01*
X111012205Y-99310256D01*
X111090226Y-99121898D01*
X111130000Y-98921939D01*
X111130000Y-98718061D01*
X111090226Y-98518102D01*
X111012205Y-98329744D01*
X110898937Y-98160226D01*
X110754774Y-98016063D01*
X110585256Y-97902795D01*
X110396898Y-97824774D01*
X110196939Y-97785000D01*
X109993061Y-97785000D01*
X109793102Y-97824774D01*
X109604744Y-97902795D01*
X109435226Y-98016063D01*
X109291063Y-98160226D01*
X109177795Y-98329744D01*
X109099774Y-98518102D01*
X109060000Y-98718061D01*
X109060000Y-98921939D01*
X109099774Y-99121898D01*
X109177795Y-99310256D01*
X109291063Y-99479774D01*
X109335000Y-99523711D01*
X109335001Y-106640020D01*
X109301185Y-106598815D01*
X109204494Y-106519463D01*
X109094180Y-106460498D01*
X108974482Y-106424188D01*
X108850000Y-106411928D01*
X108235750Y-106415000D01*
X108077000Y-106573750D01*
X108077000Y-107823000D01*
X108097000Y-107823000D01*
X108097000Y-108077000D01*
X108077000Y-108077000D01*
X108077000Y-109326250D01*
X108235750Y-109485000D01*
X108850000Y-109488072D01*
X108974482Y-109475812D01*
X109094180Y-109439502D01*
X109204494Y-109380537D01*
X109301185Y-109301185D01*
X109335001Y-109259980D01*
X109335001Y-110692668D01*
X109331324Y-110730000D01*
X109345998Y-110878985D01*
X109389454Y-111022246D01*
X109460026Y-111154276D01*
X109531201Y-111241002D01*
X109555000Y-111270001D01*
X109583998Y-111293799D01*
X111740198Y-113450000D01*
X111613740Y-113450000D01*
X111326842Y-113507068D01*
X111056589Y-113619010D01*
X110813368Y-113781525D01*
X110606525Y-113988368D01*
X110481822Y-114175000D01*
X103542323Y-114175000D01*
X103505000Y-114171324D01*
X103467677Y-114175000D01*
X103467667Y-114175000D01*
X103356014Y-114185997D01*
X103212753Y-114229454D01*
X103080723Y-114300026D01*
X102997083Y-114368668D01*
X102964999Y-114394999D01*
X102941201Y-114423997D01*
X101598998Y-115766201D01*
X101570000Y-115789999D01*
X101546202Y-115818997D01*
X101546201Y-115818998D01*
X101475026Y-115905724D01*
X101404454Y-116037754D01*
X101360998Y-116181015D01*
X101346324Y-116330000D01*
X101350001Y-116367333D01*
X101350001Y-117714427D01*
X101293994Y-117668463D01*
X101183680Y-117609498D01*
X101063982Y-117573188D01*
X100939500Y-117560928D01*
X99339500Y-117560928D01*
X99215018Y-117573188D01*
X99095320Y-117609498D01*
X98985006Y-117668463D01*
X98888315Y-117747815D01*
X98808963Y-117844506D01*
X98749998Y-117954820D01*
X98713688Y-118074518D01*
X98701428Y-118199000D01*
X98701428Y-119799000D01*
X98713688Y-119923482D01*
X98749998Y-120043180D01*
X98808963Y-120153494D01*
X98888315Y-120250185D01*
X98985006Y-120329537D01*
X99095320Y-120388502D01*
X99191443Y-120417661D01*
X99024863Y-120584241D01*
X98867820Y-120819273D01*
X98759647Y-121080426D01*
X98704500Y-121357665D01*
X98704500Y-121640335D01*
X98759647Y-121917574D01*
X98867820Y-122178727D01*
X99024863Y-122413759D01*
X99110104Y-122499000D01*
X99024863Y-122584241D01*
X98867820Y-122819273D01*
X98759647Y-123080426D01*
X98704500Y-123357665D01*
X98704500Y-123640335D01*
X98759647Y-123917574D01*
X98867820Y-124178727D01*
X99024863Y-124413759D01*
X99224741Y-124613637D01*
X99425369Y-124747692D01*
X99397986Y-124762329D01*
X99326403Y-125006298D01*
X100139500Y-125819395D01*
X100952597Y-125006298D01*
X100881014Y-124762329D01*
X100852159Y-124748676D01*
X101054259Y-124613637D01*
X101254137Y-124413759D01*
X101350001Y-124270289D01*
X101350001Y-125249807D01*
X101132202Y-125185903D01*
X100319105Y-125999000D01*
X101132202Y-126812097D01*
X101350000Y-126748193D01*
X101350000Y-135575198D01*
X101079058Y-135846140D01*
X100827756Y-135742047D01*
X100415279Y-135660000D01*
X99994721Y-135660000D01*
X99582244Y-135742047D01*
X99193698Y-135902988D01*
X98844017Y-136136637D01*
X98546637Y-136434017D01*
X98312988Y-136783698D01*
X98152047Y-137172244D01*
X98070000Y-137584721D01*
X98070000Y-138005279D01*
X98152047Y-138417756D01*
X98312988Y-138806302D01*
X98546637Y-139155983D01*
X98844017Y-139453363D01*
X99193698Y-139687012D01*
X99582244Y-139847953D01*
X99994721Y-139930000D01*
X100415279Y-139930000D01*
X100827756Y-139847953D01*
X101216302Y-139687012D01*
X101565983Y-139453363D01*
X101863363Y-139155983D01*
X101919501Y-139071967D01*
X101919501Y-142903168D01*
X101915824Y-142940500D01*
X101930498Y-143089485D01*
X101973954Y-143232746D01*
X102044526Y-143364776D01*
X102111617Y-143446526D01*
X102139500Y-143480501D01*
X102168498Y-143504299D01*
X105745140Y-147080942D01*
X105641047Y-147332244D01*
X105559000Y-147744721D01*
X105559000Y-148165279D01*
X105641047Y-148577756D01*
X105801988Y-148966302D01*
X106035637Y-149315983D01*
X106333017Y-149613363D01*
X106682698Y-149847012D01*
X107071244Y-150007953D01*
X107483721Y-150090000D01*
X107904279Y-150090000D01*
X108316756Y-150007953D01*
X108568059Y-149903860D01*
X114750201Y-156086003D01*
X114773999Y-156115001D01*
X114889724Y-156209974D01*
X115021753Y-156280546D01*
X115165014Y-156324003D01*
X115276667Y-156335000D01*
X115276676Y-156335000D01*
X115313999Y-156338676D01*
X115351322Y-156335000D01*
X115607895Y-156335000D01*
X115711988Y-156586302D01*
X115945637Y-156935983D01*
X116243017Y-157233363D01*
X116592698Y-157467012D01*
X116981244Y-157627953D01*
X117393721Y-157710000D01*
X117814279Y-157710000D01*
X118226756Y-157627953D01*
X118615302Y-157467012D01*
X118964983Y-157233363D01*
X119262363Y-156935983D01*
X119496012Y-156586302D01*
X119656953Y-156197756D01*
X119739000Y-155785279D01*
X119739000Y-155364721D01*
X119656953Y-154952244D01*
X119496012Y-154563698D01*
X119262363Y-154214017D01*
X118964983Y-153916637D01*
X118615302Y-153682988D01*
X118226756Y-153522047D01*
X117814279Y-153440000D01*
X117393721Y-153440000D01*
X116981244Y-153522047D01*
X116592698Y-153682988D01*
X116243017Y-153916637D01*
X115945637Y-154214017D01*
X115711988Y-154563698D01*
X115614019Y-154800217D01*
X109642860Y-148829059D01*
X109746953Y-148577756D01*
X109829000Y-148165279D01*
X109829000Y-147744721D01*
X109746953Y-147332244D01*
X109586012Y-146943698D01*
X109352363Y-146594017D01*
X109054983Y-146296637D01*
X108705302Y-146062988D01*
X108316756Y-145902047D01*
X107904279Y-145820000D01*
X107483721Y-145820000D01*
X107071244Y-145902047D01*
X106819942Y-146006140D01*
X103439500Y-142625699D01*
X103439500Y-139439301D01*
X112466200Y-148466002D01*
X112489999Y-148495001D01*
X112605724Y-148589974D01*
X112737753Y-148660546D01*
X112881014Y-148704003D01*
X112992667Y-148715000D01*
X112992676Y-148715000D01*
X113029999Y-148718676D01*
X113067322Y-148715000D01*
X115607895Y-148715000D01*
X115711988Y-148966302D01*
X115945637Y-149315983D01*
X116243017Y-149613363D01*
X116592698Y-149847012D01*
X116981244Y-150007953D01*
X117393721Y-150090000D01*
X117814279Y-150090000D01*
X118226756Y-150007953D01*
X118615302Y-149847012D01*
X118964983Y-149613363D01*
X119262363Y-149315983D01*
X119496012Y-148966302D01*
X119656953Y-148577756D01*
X119739000Y-148165279D01*
X119739000Y-147744721D01*
X119656953Y-147332244D01*
X119496012Y-146943698D01*
X119262363Y-146594017D01*
X118964983Y-146296637D01*
X118615302Y-146062988D01*
X118226756Y-145902047D01*
X117814279Y-145820000D01*
X117393721Y-145820000D01*
X116981244Y-145902047D01*
X116592698Y-146062988D01*
X116243017Y-146296637D01*
X115945637Y-146594017D01*
X115711988Y-146943698D01*
X115607895Y-147195000D01*
X113344802Y-147195000D01*
X108802211Y-142652409D01*
X110389000Y-142652409D01*
X110389000Y-143097591D01*
X110475851Y-143534218D01*
X110646214Y-143945511D01*
X110893544Y-144315666D01*
X111208334Y-144630456D01*
X111578489Y-144877786D01*
X111989782Y-145048149D01*
X112426409Y-145135000D01*
X112871591Y-145135000D01*
X113308218Y-145048149D01*
X113719511Y-144877786D01*
X114089666Y-144630456D01*
X114404456Y-144315666D01*
X114651786Y-143945511D01*
X114822149Y-143534218D01*
X114897878Y-143153500D01*
X121320928Y-143153500D01*
X121333188Y-143277982D01*
X121369498Y-143397680D01*
X121428463Y-143507994D01*
X121507815Y-143604685D01*
X121604506Y-143684037D01*
X121714820Y-143743002D01*
X121834518Y-143779312D01*
X121959000Y-143791572D01*
X122523250Y-143788500D01*
X122682000Y-143629750D01*
X122682000Y-142430500D01*
X121482750Y-142430500D01*
X121324000Y-142589250D01*
X121320928Y-143153500D01*
X114897878Y-143153500D01*
X114909000Y-143097591D01*
X114909000Y-142652409D01*
X114822149Y-142215782D01*
X114651786Y-141804489D01*
X114404456Y-141434334D01*
X114089666Y-141119544D01*
X113719511Y-140872214D01*
X113308218Y-140701851D01*
X112871591Y-140615000D01*
X112426409Y-140615000D01*
X111989782Y-140701851D01*
X111578489Y-140872214D01*
X111208334Y-141119544D01*
X110893544Y-141434334D01*
X110646214Y-141804489D01*
X110475851Y-142215782D01*
X110389000Y-142652409D01*
X108802211Y-142652409D01*
X104265000Y-138115199D01*
X104265000Y-137584721D01*
X105559000Y-137584721D01*
X105559000Y-138005279D01*
X105641047Y-138417756D01*
X105801988Y-138806302D01*
X106035637Y-139155983D01*
X106333017Y-139453363D01*
X106682698Y-139687012D01*
X107071244Y-139847953D01*
X107483721Y-139930000D01*
X107904279Y-139930000D01*
X108316756Y-139847953D01*
X108705302Y-139687012D01*
X109054983Y-139453363D01*
X109352363Y-139155983D01*
X109586012Y-138806302D01*
X109746953Y-138417756D01*
X109829000Y-138005279D01*
X109829000Y-137584721D01*
X115469000Y-137584721D01*
X115469000Y-138005279D01*
X115551047Y-138417756D01*
X115711988Y-138806302D01*
X115945637Y-139155983D01*
X116243017Y-139453363D01*
X116592698Y-139687012D01*
X116981244Y-139847953D01*
X117393721Y-139930000D01*
X117814279Y-139930000D01*
X118226756Y-139847953D01*
X118615302Y-139687012D01*
X118964983Y-139453363D01*
X119262363Y-139155983D01*
X119496012Y-138806302D01*
X119656953Y-138417756D01*
X119739000Y-138005279D01*
X119739000Y-137584721D01*
X119656953Y-137172244D01*
X119496012Y-136783698D01*
X119262363Y-136434017D01*
X118964983Y-136136637D01*
X118615302Y-135902988D01*
X118226756Y-135742047D01*
X117814279Y-135660000D01*
X117393721Y-135660000D01*
X116981244Y-135742047D01*
X116592698Y-135902988D01*
X116243017Y-136136637D01*
X115945637Y-136434017D01*
X115711988Y-136783698D01*
X115551047Y-137172244D01*
X115469000Y-137584721D01*
X109829000Y-137584721D01*
X109746953Y-137172244D01*
X109586012Y-136783698D01*
X109352363Y-136434017D01*
X109054983Y-136136637D01*
X108705302Y-135902988D01*
X108316756Y-135742047D01*
X107904279Y-135660000D01*
X107483721Y-135660000D01*
X107071244Y-135742047D01*
X106682698Y-135902988D01*
X106333017Y-136136637D01*
X106035637Y-136434017D01*
X105801988Y-136783698D01*
X105641047Y-137172244D01*
X105559000Y-137584721D01*
X104265000Y-137584721D01*
X104265000Y-129941211D01*
X104308937Y-129897274D01*
X104422205Y-129727756D01*
X104500226Y-129539398D01*
X104540000Y-129339439D01*
X104540000Y-129325000D01*
X110271928Y-129325000D01*
X110271928Y-131025000D01*
X110284188Y-131149482D01*
X110320498Y-131269180D01*
X110379463Y-131379494D01*
X110458815Y-131476185D01*
X110555506Y-131555537D01*
X110665820Y-131614502D01*
X110785518Y-131650812D01*
X110910000Y-131663072D01*
X112610000Y-131663072D01*
X112734482Y-131650812D01*
X112854180Y-131614502D01*
X112964494Y-131555537D01*
X113061185Y-131476185D01*
X113140537Y-131379494D01*
X113199502Y-131269180D01*
X113221513Y-131196620D01*
X113353368Y-131328475D01*
X113596589Y-131490990D01*
X113866842Y-131602932D01*
X114153740Y-131660000D01*
X114446260Y-131660000D01*
X114733158Y-131602932D01*
X115003411Y-131490990D01*
X115246632Y-131328475D01*
X115453475Y-131121632D01*
X115570000Y-130947240D01*
X115686525Y-131121632D01*
X115893368Y-131328475D01*
X116136589Y-131490990D01*
X116406842Y-131602932D01*
X116693740Y-131660000D01*
X116986260Y-131660000D01*
X117273158Y-131602932D01*
X117543411Y-131490990D01*
X117786632Y-131328475D01*
X117993475Y-131121632D01*
X118115195Y-130939466D01*
X118184822Y-131056355D01*
X118379731Y-131272588D01*
X118613080Y-131446641D01*
X118875901Y-131571825D01*
X119023110Y-131616476D01*
X119253000Y-131495155D01*
X119253000Y-130302000D01*
X119233000Y-130302000D01*
X119233000Y-130048000D01*
X119253000Y-130048000D01*
X119253000Y-128854845D01*
X119023110Y-128733524D01*
X118875901Y-128778175D01*
X118613080Y-128903359D01*
X118379731Y-129077412D01*
X118184822Y-129293645D01*
X118115195Y-129410534D01*
X117993475Y-129228368D01*
X117786632Y-129021525D01*
X117543411Y-128859010D01*
X117273158Y-128747068D01*
X116986260Y-128690000D01*
X116693740Y-128690000D01*
X116406842Y-128747068D01*
X116136589Y-128859010D01*
X115893368Y-129021525D01*
X115686525Y-129228368D01*
X115570000Y-129402760D01*
X115453475Y-129228368D01*
X115246632Y-129021525D01*
X115003411Y-128859010D01*
X114733158Y-128747068D01*
X114446260Y-128690000D01*
X114153740Y-128690000D01*
X113866842Y-128747068D01*
X113596589Y-128859010D01*
X113353368Y-129021525D01*
X113221513Y-129153380D01*
X113199502Y-129080820D01*
X113140537Y-128970506D01*
X113061185Y-128873815D01*
X112964494Y-128794463D01*
X112854180Y-128735498D01*
X112734482Y-128699188D01*
X112610000Y-128686928D01*
X110910000Y-128686928D01*
X110785518Y-128699188D01*
X110665820Y-128735498D01*
X110555506Y-128794463D01*
X110458815Y-128873815D01*
X110379463Y-128970506D01*
X110320498Y-129080820D01*
X110284188Y-129200518D01*
X110271928Y-129325000D01*
X104540000Y-129325000D01*
X104540000Y-129135561D01*
X104500226Y-128935602D01*
X104422205Y-128747244D01*
X104308937Y-128577726D01*
X104167461Y-128436250D01*
X104308937Y-128294774D01*
X104422205Y-128125256D01*
X104500226Y-127936898D01*
X104540000Y-127736939D01*
X104540000Y-127533061D01*
X104500226Y-127333102D01*
X104422205Y-127144744D01*
X104308937Y-126975226D01*
X104164774Y-126831063D01*
X103995256Y-126717795D01*
X103806898Y-126639774D01*
X103606939Y-126600000D01*
X103403061Y-126600000D01*
X103203102Y-126639774D01*
X103014744Y-126717795D01*
X102870000Y-126814510D01*
X102870000Y-125270983D01*
X103055589Y-125394990D01*
X103325842Y-125506932D01*
X103612740Y-125564000D01*
X103905260Y-125564000D01*
X104192158Y-125506932D01*
X104462411Y-125394990D01*
X104705632Y-125232475D01*
X104912475Y-125025632D01*
X105074990Y-124782411D01*
X105186932Y-124512158D01*
X105244000Y-124225260D01*
X105244000Y-123932740D01*
X105186932Y-123645842D01*
X105074990Y-123375589D01*
X104912475Y-123132368D01*
X104705632Y-122925525D01*
X104531240Y-122809000D01*
X104705632Y-122692475D01*
X104912475Y-122485632D01*
X105074990Y-122242411D01*
X105186932Y-121972158D01*
X105244000Y-121685260D01*
X105244000Y-121392740D01*
X105186932Y-121105842D01*
X105074990Y-120835589D01*
X104912475Y-120592368D01*
X104780620Y-120460513D01*
X104853180Y-120438502D01*
X104963494Y-120379537D01*
X105060185Y-120300185D01*
X105139537Y-120203494D01*
X105198502Y-120093180D01*
X105234812Y-119973482D01*
X105247072Y-119849000D01*
X105247072Y-119686500D01*
X110158428Y-119686500D01*
X110158428Y-121486500D01*
X110170688Y-121610982D01*
X110206998Y-121730680D01*
X110265963Y-121840994D01*
X110345315Y-121937685D01*
X110442006Y-122017037D01*
X110552320Y-122076002D01*
X110570627Y-122081556D01*
X110504188Y-122147995D01*
X110336201Y-122399405D01*
X110220489Y-122678757D01*
X110161500Y-122975316D01*
X110161500Y-123277684D01*
X110220489Y-123574243D01*
X110336201Y-123853595D01*
X110504188Y-124105005D01*
X110717995Y-124318812D01*
X110969405Y-124486799D01*
X111248757Y-124602511D01*
X111545316Y-124661500D01*
X111847684Y-124661500D01*
X112144243Y-124602511D01*
X112423595Y-124486799D01*
X112675005Y-124318812D01*
X112888812Y-124105005D01*
X113056799Y-123853595D01*
X113172511Y-123574243D01*
X113231500Y-123277684D01*
X113231500Y-122975316D01*
X113172511Y-122678757D01*
X113056799Y-122399405D01*
X112888812Y-122147995D01*
X112822373Y-122081556D01*
X112840680Y-122076002D01*
X112950994Y-122017037D01*
X113047685Y-121937685D01*
X113127037Y-121840994D01*
X113186002Y-121730680D01*
X113222312Y-121610982D01*
X113234572Y-121486500D01*
X113234572Y-119686500D01*
X113222312Y-119562018D01*
X113186002Y-119442320D01*
X113127037Y-119332006D01*
X113047685Y-119235315D01*
X112950994Y-119155963D01*
X112840680Y-119096998D01*
X112720982Y-119060688D01*
X112596500Y-119048428D01*
X110796500Y-119048428D01*
X110672018Y-119060688D01*
X110552320Y-119096998D01*
X110442006Y-119155963D01*
X110345315Y-119235315D01*
X110265963Y-119332006D01*
X110206998Y-119442320D01*
X110170688Y-119562018D01*
X110158428Y-119686500D01*
X105247072Y-119686500D01*
X105247072Y-118149000D01*
X105234812Y-118024518D01*
X105198502Y-117904820D01*
X105152096Y-117818000D01*
X113242928Y-117818000D01*
X113242928Y-119418000D01*
X113255188Y-119542482D01*
X113291498Y-119662180D01*
X113350463Y-119772494D01*
X113429815Y-119869185D01*
X113526506Y-119948537D01*
X113636820Y-120007502D01*
X113756518Y-120043812D01*
X113764961Y-120044643D01*
X113566363Y-120243241D01*
X113409320Y-120478273D01*
X113301147Y-120739426D01*
X113246000Y-121016665D01*
X113246000Y-121299335D01*
X113301147Y-121576574D01*
X113409320Y-121837727D01*
X113566363Y-122072759D01*
X113766241Y-122272637D01*
X113998759Y-122428000D01*
X113766241Y-122583363D01*
X113566363Y-122783241D01*
X113409320Y-123018273D01*
X113301147Y-123279426D01*
X113246000Y-123556665D01*
X113246000Y-123839335D01*
X113301147Y-124116574D01*
X113409320Y-124377727D01*
X113566363Y-124612759D01*
X113766241Y-124812637D01*
X114001273Y-124969680D01*
X114262426Y-125077853D01*
X114539665Y-125133000D01*
X114822335Y-125133000D01*
X115099574Y-125077853D01*
X115360727Y-124969680D01*
X115595759Y-124812637D01*
X115795637Y-124612759D01*
X115952680Y-124377727D01*
X116060853Y-124116574D01*
X116116000Y-123839335D01*
X116116000Y-123556665D01*
X120866000Y-123556665D01*
X120866000Y-123839335D01*
X120921147Y-124116574D01*
X121029320Y-124377727D01*
X121186363Y-124612759D01*
X121386241Y-124812637D01*
X121621273Y-124969680D01*
X121882426Y-125077853D01*
X122159665Y-125133000D01*
X122442335Y-125133000D01*
X122719574Y-125077853D01*
X122980727Y-124969680D01*
X123215759Y-124812637D01*
X123415637Y-124612759D01*
X123572680Y-124377727D01*
X123680853Y-124116574D01*
X123736000Y-123839335D01*
X123736000Y-123556665D01*
X123680853Y-123279426D01*
X123572680Y-123018273D01*
X123415637Y-122783241D01*
X123215759Y-122583363D01*
X122981872Y-122427085D01*
X123042514Y-122394671D01*
X123114097Y-122150702D01*
X122301000Y-121337605D01*
X121487903Y-122150702D01*
X121559486Y-122394671D01*
X121623992Y-122425194D01*
X121621273Y-122426320D01*
X121386241Y-122583363D01*
X121186363Y-122783241D01*
X121029320Y-123018273D01*
X120921147Y-123279426D01*
X120866000Y-123556665D01*
X116116000Y-123556665D01*
X116060853Y-123279426D01*
X115952680Y-123018273D01*
X115795637Y-122783241D01*
X115595759Y-122583363D01*
X115363241Y-122428000D01*
X115595759Y-122272637D01*
X115795637Y-122072759D01*
X115952680Y-121837727D01*
X116060853Y-121576574D01*
X116116000Y-121299335D01*
X116116000Y-121228512D01*
X120860783Y-121228512D01*
X120902213Y-121508130D01*
X120997397Y-121774292D01*
X121064329Y-121899514D01*
X121308298Y-121971097D01*
X122121395Y-121158000D01*
X122480605Y-121158000D01*
X123293702Y-121971097D01*
X123537671Y-121899514D01*
X123658571Y-121644004D01*
X123727300Y-121369816D01*
X123741217Y-121087488D01*
X123699787Y-120807870D01*
X123604603Y-120541708D01*
X123537671Y-120416486D01*
X123293702Y-120344903D01*
X122480605Y-121158000D01*
X122121395Y-121158000D01*
X121308298Y-120344903D01*
X121064329Y-120416486D01*
X120943429Y-120671996D01*
X120874700Y-120946184D01*
X120860783Y-121228512D01*
X116116000Y-121228512D01*
X116116000Y-121016665D01*
X116060853Y-120739426D01*
X115952680Y-120478273D01*
X115795637Y-120243241D01*
X115597039Y-120044643D01*
X115605482Y-120043812D01*
X115725180Y-120007502D01*
X115835494Y-119948537D01*
X115932185Y-119869185D01*
X116011537Y-119772494D01*
X116070502Y-119662180D01*
X116106812Y-119542482D01*
X116119072Y-119418000D01*
X116119072Y-118476665D01*
X120866000Y-118476665D01*
X120866000Y-118759335D01*
X120921147Y-119036574D01*
X121029320Y-119297727D01*
X121186363Y-119532759D01*
X121386241Y-119732637D01*
X121620128Y-119888915D01*
X121559486Y-119921329D01*
X121487903Y-120165298D01*
X122301000Y-120978395D01*
X123114097Y-120165298D01*
X123042514Y-119921329D01*
X122978008Y-119890806D01*
X122980727Y-119889680D01*
X123215759Y-119732637D01*
X123415637Y-119532759D01*
X123572680Y-119297727D01*
X123680853Y-119036574D01*
X123736000Y-118759335D01*
X123736000Y-118476665D01*
X123680853Y-118199426D01*
X123572680Y-117938273D01*
X123415637Y-117703241D01*
X123215759Y-117503363D01*
X122980727Y-117346320D01*
X122719574Y-117238147D01*
X122442335Y-117183000D01*
X122159665Y-117183000D01*
X121882426Y-117238147D01*
X121621273Y-117346320D01*
X121386241Y-117503363D01*
X121186363Y-117703241D01*
X121029320Y-117938273D01*
X120921147Y-118199426D01*
X120866000Y-118476665D01*
X116119072Y-118476665D01*
X116119072Y-117818000D01*
X116106812Y-117693518D01*
X116070502Y-117573820D01*
X116011537Y-117463506D01*
X115932185Y-117366815D01*
X115835494Y-117287463D01*
X115725180Y-117228498D01*
X115605482Y-117192188D01*
X115481000Y-117179928D01*
X113881000Y-117179928D01*
X113756518Y-117192188D01*
X113636820Y-117228498D01*
X113526506Y-117287463D01*
X113429815Y-117366815D01*
X113350463Y-117463506D01*
X113291498Y-117573820D01*
X113255188Y-117693518D01*
X113242928Y-117818000D01*
X105152096Y-117818000D01*
X105139537Y-117794506D01*
X105060185Y-117697815D01*
X104963494Y-117618463D01*
X104853180Y-117559498D01*
X104733482Y-117523188D01*
X104609000Y-117510928D01*
X102909000Y-117510928D01*
X102870000Y-117514769D01*
X102870000Y-116644801D01*
X103819802Y-115695000D01*
X110481822Y-115695000D01*
X110606525Y-115881632D01*
X110813368Y-116088475D01*
X111056589Y-116250990D01*
X111326842Y-116362932D01*
X111613740Y-116420000D01*
X111906260Y-116420000D01*
X112193158Y-116362932D01*
X112463411Y-116250990D01*
X112706632Y-116088475D01*
X112913475Y-115881632D01*
X113030000Y-115707240D01*
X113146525Y-115881632D01*
X113353368Y-116088475D01*
X113596589Y-116250990D01*
X113866842Y-116362932D01*
X114153740Y-116420000D01*
X114446260Y-116420000D01*
X114733158Y-116362932D01*
X115003411Y-116250990D01*
X115246632Y-116088475D01*
X115453475Y-115881632D01*
X115570000Y-115707240D01*
X115686525Y-115881632D01*
X115893368Y-116088475D01*
X116136589Y-116250990D01*
X116406842Y-116362932D01*
X116693740Y-116420000D01*
X116986260Y-116420000D01*
X117273158Y-116362932D01*
X117543411Y-116250990D01*
X117786632Y-116088475D01*
X117993475Y-115881632D01*
X118110000Y-115707240D01*
X118226525Y-115881632D01*
X118433368Y-116088475D01*
X118676589Y-116250990D01*
X118946842Y-116362932D01*
X119233740Y-116420000D01*
X119526260Y-116420000D01*
X119813158Y-116362932D01*
X120083411Y-116250990D01*
X120326632Y-116088475D01*
X120533475Y-115881632D01*
X120650000Y-115707240D01*
X120766525Y-115881632D01*
X120973368Y-116088475D01*
X121216589Y-116250990D01*
X121486842Y-116362932D01*
X121773740Y-116420000D01*
X122066260Y-116420000D01*
X122286408Y-116376209D01*
X124970000Y-119059802D01*
X124970001Y-128778897D01*
X124893158Y-128747068D01*
X124606260Y-128690000D01*
X124313740Y-128690000D01*
X124026842Y-128747068D01*
X123756589Y-128859010D01*
X123513368Y-129021525D01*
X123306525Y-129228368D01*
X123190000Y-129402760D01*
X123073475Y-129228368D01*
X122866632Y-129021525D01*
X122623411Y-128859010D01*
X122353158Y-128747068D01*
X122066260Y-128690000D01*
X121773740Y-128690000D01*
X121486842Y-128747068D01*
X121216589Y-128859010D01*
X120973368Y-129021525D01*
X120766525Y-129228368D01*
X120644805Y-129410534D01*
X120575178Y-129293645D01*
X120380269Y-129077412D01*
X120146920Y-128903359D01*
X119884099Y-128778175D01*
X119736890Y-128733524D01*
X119507000Y-128854845D01*
X119507000Y-130048000D01*
X119527000Y-130048000D01*
X119527000Y-130302000D01*
X119507000Y-130302000D01*
X119507000Y-131495155D01*
X119736890Y-131616476D01*
X119884099Y-131571825D01*
X120146920Y-131446641D01*
X120380269Y-131272588D01*
X120575178Y-131056355D01*
X120644805Y-130939466D01*
X120766525Y-131121632D01*
X120973368Y-131328475D01*
X121216589Y-131490990D01*
X121486842Y-131602932D01*
X121773740Y-131660000D01*
X122066260Y-131660000D01*
X122353158Y-131602932D01*
X122623411Y-131490990D01*
X122866632Y-131328475D01*
X123073475Y-131121632D01*
X123190000Y-130947240D01*
X123306525Y-131121632D01*
X123513368Y-131328475D01*
X123700000Y-131453179D01*
X123700000Y-133492853D01*
X123512411Y-133367510D01*
X123242158Y-133255568D01*
X122955260Y-133198500D01*
X122662740Y-133198500D01*
X122375842Y-133255568D01*
X122105589Y-133367510D01*
X121862368Y-133530025D01*
X121655525Y-133736868D01*
X121493010Y-133980089D01*
X121381068Y-134250342D01*
X121324000Y-134537240D01*
X121324000Y-134829760D01*
X121381068Y-135116658D01*
X121493010Y-135386911D01*
X121655525Y-135630132D01*
X121862368Y-135836975D01*
X122036760Y-135953500D01*
X121862368Y-136070025D01*
X121655525Y-136276868D01*
X121493010Y-136520089D01*
X121381068Y-136790342D01*
X121324000Y-137077240D01*
X121324000Y-137369760D01*
X121381068Y-137656658D01*
X121493010Y-137926911D01*
X121655525Y-138170132D01*
X121862368Y-138376975D01*
X122036760Y-138493500D01*
X121862368Y-138610025D01*
X121655525Y-138816868D01*
X121493010Y-139060089D01*
X121381068Y-139330342D01*
X121324000Y-139617240D01*
X121324000Y-139909760D01*
X121381068Y-140196658D01*
X121493010Y-140466911D01*
X121655525Y-140710132D01*
X121787380Y-140841987D01*
X121714820Y-140863998D01*
X121604506Y-140922963D01*
X121507815Y-141002315D01*
X121428463Y-141099006D01*
X121369498Y-141209320D01*
X121333188Y-141329018D01*
X121320928Y-141453500D01*
X121324000Y-142017750D01*
X121482750Y-142176500D01*
X122682000Y-142176500D01*
X122682000Y-142156500D01*
X122936000Y-142156500D01*
X122936000Y-142176500D01*
X122956000Y-142176500D01*
X122956000Y-142430500D01*
X122936000Y-142430500D01*
X122936000Y-143629750D01*
X123094750Y-143788500D01*
X123659000Y-143791572D01*
X123700001Y-143787534D01*
X123700001Y-146558897D01*
X123623158Y-146527068D01*
X123336260Y-146470000D01*
X123043740Y-146470000D01*
X122756842Y-146527068D01*
X122486589Y-146639010D01*
X122243368Y-146801525D01*
X122036525Y-147008368D01*
X121874010Y-147251589D01*
X121762068Y-147521842D01*
X121705000Y-147808740D01*
X121705000Y-148101260D01*
X121762068Y-148388158D01*
X121874010Y-148658411D01*
X122036525Y-148901632D01*
X122243368Y-149108475D01*
X122417760Y-149225000D01*
X122243368Y-149341525D01*
X122036525Y-149548368D01*
X121874010Y-149791589D01*
X121762068Y-150061842D01*
X121705000Y-150348740D01*
X121705000Y-150641260D01*
X121762068Y-150928158D01*
X121874010Y-151198411D01*
X122036525Y-151441632D01*
X122243368Y-151648475D01*
X122486589Y-151810990D01*
X122756842Y-151922932D01*
X123043740Y-151980000D01*
X123336260Y-151980000D01*
X123623158Y-151922932D01*
X123893411Y-151810990D01*
X124136632Y-151648475D01*
X124343475Y-151441632D01*
X124460000Y-151267240D01*
X124576525Y-151441632D01*
X124783368Y-151648475D01*
X125026589Y-151810990D01*
X125296842Y-151922932D01*
X125583740Y-151980000D01*
X125876260Y-151980000D01*
X126163158Y-151922932D01*
X126433411Y-151810990D01*
X126676632Y-151648475D01*
X126883475Y-151441632D01*
X127000000Y-151267240D01*
X127116525Y-151441632D01*
X127323368Y-151648475D01*
X127566589Y-151810990D01*
X127836842Y-151922932D01*
X128123740Y-151980000D01*
X128416260Y-151980000D01*
X128703158Y-151922932D01*
X128973411Y-151810990D01*
X129216632Y-151648475D01*
X129423475Y-151441632D01*
X129540000Y-151267240D01*
X129656525Y-151441632D01*
X129863368Y-151648475D01*
X130106589Y-151810990D01*
X130376842Y-151922932D01*
X130663740Y-151980000D01*
X130956260Y-151980000D01*
X131243158Y-151922932D01*
X131513411Y-151810990D01*
X131756632Y-151648475D01*
X131963475Y-151441632D01*
X132125990Y-151198411D01*
X132237932Y-150928158D01*
X132295000Y-150641260D01*
X132295000Y-150348740D01*
X132237932Y-150061842D01*
X132186685Y-149938119D01*
X132781004Y-149343800D01*
X132810002Y-149320002D01*
X132857331Y-149262332D01*
X132904975Y-149204278D01*
X132975547Y-149072248D01*
X132982544Y-149049180D01*
X133019004Y-148928987D01*
X133030001Y-148817334D01*
X133030001Y-148817325D01*
X133033677Y-148780002D01*
X133030001Y-148742679D01*
X133030001Y-147167321D01*
X133033677Y-147129998D01*
X133030001Y-147092675D01*
X133030001Y-147092666D01*
X133019004Y-146981013D01*
X132975547Y-146837752D01*
X132904975Y-146705723D01*
X132810002Y-146589998D01*
X132781005Y-146566201D01*
X131570000Y-145355197D01*
X131570000Y-132644801D01*
X132784320Y-133859121D01*
X132753726Y-133879563D01*
X132609563Y-134023726D01*
X132496295Y-134193244D01*
X132418274Y-134381602D01*
X132378500Y-134581561D01*
X132378500Y-134785439D01*
X132418274Y-134985398D01*
X132496295Y-135173756D01*
X132609563Y-135343274D01*
X132753726Y-135487437D01*
X132923244Y-135600705D01*
X133111602Y-135678726D01*
X133311561Y-135718500D01*
X133373699Y-135718500D01*
X134054320Y-136399121D01*
X134023726Y-136419563D01*
X133879563Y-136563726D01*
X133766295Y-136733244D01*
X133688274Y-136921602D01*
X133648500Y-137121561D01*
X133648500Y-137325439D01*
X133688274Y-137525398D01*
X133766295Y-137713756D01*
X133879563Y-137883274D01*
X134023726Y-138027437D01*
X134193244Y-138140705D01*
X134381602Y-138218726D01*
X134581561Y-138258500D01*
X134643699Y-138258500D01*
X142852126Y-146466928D01*
X141390000Y-146466928D01*
X141265518Y-146479188D01*
X141145820Y-146515498D01*
X141035506Y-146574463D01*
X140938815Y-146653815D01*
X140859463Y-146750506D01*
X140800498Y-146860820D01*
X140776034Y-146941466D01*
X140700269Y-146857412D01*
X140466920Y-146683359D01*
X140204099Y-146558175D01*
X140056890Y-146513524D01*
X139827000Y-146634845D01*
X139827000Y-147828000D01*
X139847000Y-147828000D01*
X139847000Y-148082000D01*
X139827000Y-148082000D01*
X139827000Y-148102000D01*
X139573000Y-148102000D01*
X139573000Y-148082000D01*
X139553000Y-148082000D01*
X139553000Y-147828000D01*
X139573000Y-147828000D01*
X139573000Y-146634845D01*
X139343110Y-146513524D01*
X139195901Y-146558175D01*
X138933080Y-146683359D01*
X138699731Y-146857412D01*
X138504822Y-147073645D01*
X138435195Y-147190534D01*
X138313475Y-147008368D01*
X138106632Y-146801525D01*
X137863411Y-146639010D01*
X137593158Y-146527068D01*
X137306260Y-146470000D01*
X137013740Y-146470000D01*
X136726842Y-146527068D01*
X136456589Y-146639010D01*
X136213368Y-146801525D01*
X136006525Y-147008368D01*
X135890000Y-147182760D01*
X135773475Y-147008368D01*
X135566632Y-146801525D01*
X135323411Y-146639010D01*
X135053158Y-146527068D01*
X134766260Y-146470000D01*
X134473740Y-146470000D01*
X134186842Y-146527068D01*
X133916589Y-146639010D01*
X133673368Y-146801525D01*
X133466525Y-147008368D01*
X133304010Y-147251589D01*
X133192068Y-147521842D01*
X133135000Y-147808740D01*
X133135000Y-148101260D01*
X133192068Y-148388158D01*
X133304010Y-148658411D01*
X133466525Y-148901632D01*
X133673368Y-149108475D01*
X133847760Y-149225000D01*
X133673368Y-149341525D01*
X133466525Y-149548368D01*
X133304010Y-149791589D01*
X133192068Y-150061842D01*
X133135000Y-150348740D01*
X133135000Y-150641260D01*
X133178790Y-150861408D01*
X128865199Y-155175000D01*
X128803061Y-155175000D01*
X128603102Y-155214774D01*
X128414744Y-155292795D01*
X128245226Y-155406063D01*
X128101063Y-155550226D01*
X127987795Y-155719744D01*
X127909774Y-155908102D01*
X127870000Y-156108061D01*
X127870000Y-156311939D01*
X127909774Y-156511898D01*
X127987795Y-156700256D01*
X128101063Y-156869774D01*
X128245226Y-157013937D01*
X128414744Y-157127205D01*
X128603102Y-157205226D01*
X128803061Y-157245000D01*
X129006939Y-157245000D01*
X129206898Y-157205226D01*
X129395256Y-157127205D01*
X129564774Y-157013937D01*
X129708937Y-156869774D01*
X129822205Y-156700256D01*
X129900226Y-156511898D01*
X129940000Y-156311939D01*
X129940000Y-156249801D01*
X134253592Y-151936210D01*
X134473740Y-151980000D01*
X134600198Y-151980000D01*
X131405199Y-155175000D01*
X131343061Y-155175000D01*
X131143102Y-155214774D01*
X130954744Y-155292795D01*
X130785226Y-155406063D01*
X130641063Y-155550226D01*
X130527795Y-155719744D01*
X130449774Y-155908102D01*
X130410000Y-156108061D01*
X130410000Y-156311939D01*
X130449774Y-156511898D01*
X130527795Y-156700256D01*
X130641063Y-156869774D01*
X130785226Y-157013937D01*
X130954744Y-157127205D01*
X131143102Y-157205226D01*
X131343061Y-157245000D01*
X131546939Y-157245000D01*
X131746898Y-157205226D01*
X131935256Y-157127205D01*
X132104774Y-157013937D01*
X132248937Y-156869774D01*
X132362205Y-156700256D01*
X132440226Y-156511898D01*
X132480000Y-156311939D01*
X132480000Y-156249801D01*
X136793592Y-151936210D01*
X137013740Y-151980000D01*
X137140198Y-151980000D01*
X133945199Y-155175000D01*
X133883061Y-155175000D01*
X133683102Y-155214774D01*
X133494744Y-155292795D01*
X133325226Y-155406063D01*
X133181063Y-155550226D01*
X133067795Y-155719744D01*
X132989774Y-155908102D01*
X132950000Y-156108061D01*
X132950000Y-156311939D01*
X132989774Y-156511898D01*
X133067795Y-156700256D01*
X133181063Y-156869774D01*
X133325226Y-157013937D01*
X133494744Y-157127205D01*
X133683102Y-157205226D01*
X133883061Y-157245000D01*
X134086939Y-157245000D01*
X134286898Y-157205226D01*
X134475256Y-157127205D01*
X134644774Y-157013937D01*
X134788937Y-156869774D01*
X134902205Y-156700256D01*
X134980226Y-156511898D01*
X135020000Y-156311939D01*
X135020000Y-156249801D01*
X139333592Y-151936210D01*
X139553740Y-151980000D01*
X139680198Y-151980000D01*
X136485199Y-155175000D01*
X136423061Y-155175000D01*
X136223102Y-155214774D01*
X136034744Y-155292795D01*
X135865226Y-155406063D01*
X135721063Y-155550226D01*
X135607795Y-155719744D01*
X135529774Y-155908102D01*
X135490000Y-156108061D01*
X135490000Y-156311939D01*
X135529774Y-156511898D01*
X135607795Y-156700256D01*
X135721063Y-156869774D01*
X135865226Y-157013937D01*
X136034744Y-157127205D01*
X136223102Y-157205226D01*
X136423061Y-157245000D01*
X136626939Y-157245000D01*
X136826898Y-157205226D01*
X137015256Y-157127205D01*
X137184774Y-157013937D01*
X137328937Y-156869774D01*
X137442205Y-156700256D01*
X137520226Y-156511898D01*
X137560000Y-156311939D01*
X137560000Y-156249801D01*
X141873592Y-151936210D01*
X142093740Y-151980000D01*
X142386260Y-151980000D01*
X142673158Y-151922932D01*
X142943411Y-151810990D01*
X143186632Y-151648475D01*
X143393475Y-151441632D01*
X143555990Y-151198411D01*
X143667932Y-150928158D01*
X143725000Y-150641260D01*
X143725000Y-150348740D01*
X143667932Y-150061842D01*
X143610630Y-149923500D01*
X145736000Y-149923500D01*
X145736000Y-150198500D01*
X145784507Y-150436996D01*
X145878610Y-150661446D01*
X146014693Y-150863225D01*
X146187526Y-151034578D01*
X146390467Y-151168921D01*
X146615718Y-151261091D01*
X146653391Y-151264962D01*
X146844000Y-151140231D01*
X146844000Y-149923500D01*
X145736000Y-149923500D01*
X143610630Y-149923500D01*
X143555990Y-149791589D01*
X143393475Y-149548368D01*
X143261620Y-149416513D01*
X143334180Y-149394502D01*
X143444494Y-149335537D01*
X143541185Y-149256185D01*
X143620537Y-149159494D01*
X143679502Y-149049180D01*
X143715812Y-148929482D01*
X143728072Y-148805000D01*
X143728072Y-147342874D01*
X144507000Y-148121802D01*
X144507000Y-148183939D01*
X144546774Y-148383898D01*
X144624795Y-148572256D01*
X144738063Y-148741774D01*
X144882226Y-148885937D01*
X145051744Y-148999205D01*
X145240102Y-149077226D01*
X145440061Y-149117000D01*
X145643939Y-149117000D01*
X145815137Y-149082947D01*
X145784507Y-149156004D01*
X145736000Y-149394500D01*
X145736000Y-149669500D01*
X146844000Y-149669500D01*
X146844000Y-149649500D01*
X146929894Y-149649500D01*
X147118000Y-149837606D01*
X147118000Y-149923500D01*
X147098000Y-149923500D01*
X147098000Y-151140231D01*
X147288609Y-151264962D01*
X147326282Y-151261091D01*
X147551533Y-151168921D01*
X147754474Y-151034578D01*
X147880033Y-150910094D01*
X147882595Y-150914887D01*
X147993038Y-151049462D01*
X148127613Y-151159905D01*
X148281149Y-151241972D01*
X148447745Y-151292508D01*
X148620999Y-151309572D01*
X149321001Y-151309572D01*
X149494255Y-151292508D01*
X149611310Y-151257000D01*
X150442394Y-151257000D01*
X151005000Y-151819606D01*
X151005001Y-156045668D01*
X151001324Y-156083000D01*
X151015998Y-156231985D01*
X151059454Y-156375246D01*
X151130026Y-156507276D01*
X151201201Y-156594002D01*
X151225000Y-156623001D01*
X151253998Y-156646799D01*
X153324928Y-158717730D01*
X153324928Y-160108000D01*
X153337188Y-160232482D01*
X153373498Y-160352180D01*
X153432463Y-160462494D01*
X153486222Y-160528000D01*
X87757000Y-160528000D01*
X87757000Y-157066653D01*
X98892952Y-157066653D01*
X99048962Y-157382214D01*
X99423745Y-157573020D01*
X99828551Y-157687044D01*
X100247824Y-157719902D01*
X100665451Y-157670334D01*
X101065383Y-157540243D01*
X101361038Y-157382214D01*
X101517048Y-157066653D01*
X100205000Y-155754605D01*
X98892952Y-157066653D01*
X87757000Y-157066653D01*
X87757000Y-155617824D01*
X98060098Y-155617824D01*
X98109666Y-156035451D01*
X98239757Y-156435383D01*
X98397786Y-156731038D01*
X98713347Y-156887048D01*
X100025395Y-155575000D01*
X100384605Y-155575000D01*
X101696653Y-156887048D01*
X102012214Y-156731038D01*
X102203020Y-156356255D01*
X102317044Y-155951449D01*
X102349902Y-155532176D01*
X102300334Y-155114549D01*
X102170243Y-154714617D01*
X102012214Y-154418962D01*
X101696653Y-154262952D01*
X100384605Y-155575000D01*
X100025395Y-155575000D01*
X98713347Y-154262952D01*
X98397786Y-154418962D01*
X98206980Y-154793745D01*
X98092956Y-155198551D01*
X98060098Y-155617824D01*
X87757000Y-155617824D01*
X87757000Y-154083347D01*
X98892952Y-154083347D01*
X100205000Y-155395395D01*
X101517048Y-154083347D01*
X101361038Y-153767786D01*
X100986255Y-153576980D01*
X100581449Y-153462956D01*
X100162176Y-153430098D01*
X99744549Y-153479666D01*
X99344617Y-153609757D01*
X99048962Y-153767786D01*
X98892952Y-154083347D01*
X87757000Y-154083347D01*
X87757000Y-147744721D01*
X88160000Y-147744721D01*
X88160000Y-148165279D01*
X88242047Y-148577756D01*
X88402988Y-148966302D01*
X88636637Y-149315983D01*
X88934017Y-149613363D01*
X89283698Y-149847012D01*
X89672244Y-150007953D01*
X90084721Y-150090000D01*
X90505279Y-150090000D01*
X90917756Y-150007953D01*
X91306302Y-149847012D01*
X91655983Y-149613363D01*
X91953363Y-149315983D01*
X92187012Y-148966302D01*
X92347953Y-148577756D01*
X92430000Y-148165279D01*
X92430000Y-147744721D01*
X98070000Y-147744721D01*
X98070000Y-148165279D01*
X98152047Y-148577756D01*
X98312988Y-148966302D01*
X98546637Y-149315983D01*
X98844017Y-149613363D01*
X99193698Y-149847012D01*
X99582244Y-150007953D01*
X99994721Y-150090000D01*
X100415279Y-150090000D01*
X100827756Y-150007953D01*
X101216302Y-149847012D01*
X101565983Y-149613363D01*
X101863363Y-149315983D01*
X102097012Y-148966302D01*
X102257953Y-148577756D01*
X102340000Y-148165279D01*
X102340000Y-147744721D01*
X102257953Y-147332244D01*
X102097012Y-146943698D01*
X101863363Y-146594017D01*
X101565983Y-146296637D01*
X101216302Y-146062988D01*
X100827756Y-145902047D01*
X100415279Y-145820000D01*
X99994721Y-145820000D01*
X99582244Y-145902047D01*
X99193698Y-146062988D01*
X98844017Y-146296637D01*
X98546637Y-146594017D01*
X98312988Y-146943698D01*
X98152047Y-147332244D01*
X98070000Y-147744721D01*
X92430000Y-147744721D01*
X92347953Y-147332244D01*
X92187012Y-146943698D01*
X91953363Y-146594017D01*
X91655983Y-146296637D01*
X91306302Y-146062988D01*
X90917756Y-145902047D01*
X90505279Y-145820000D01*
X90084721Y-145820000D01*
X89672244Y-145902047D01*
X89283698Y-146062988D01*
X88934017Y-146296637D01*
X88636637Y-146594017D01*
X88402988Y-146943698D01*
X88242047Y-147332244D01*
X88160000Y-147744721D01*
X87757000Y-147744721D01*
X87757000Y-142652409D01*
X92990000Y-142652409D01*
X92990000Y-143097591D01*
X93076851Y-143534218D01*
X93247214Y-143945511D01*
X93494544Y-144315666D01*
X93809334Y-144630456D01*
X94179489Y-144877786D01*
X94590782Y-145048149D01*
X95027409Y-145135000D01*
X95472591Y-145135000D01*
X95909218Y-145048149D01*
X96320511Y-144877786D01*
X96690666Y-144630456D01*
X97005456Y-144315666D01*
X97252786Y-143945511D01*
X97423149Y-143534218D01*
X97510000Y-143097591D01*
X97510000Y-142652409D01*
X97423149Y-142215782D01*
X97252786Y-141804489D01*
X97005456Y-141434334D01*
X96690666Y-141119544D01*
X96320511Y-140872214D01*
X95909218Y-140701851D01*
X95472591Y-140615000D01*
X95027409Y-140615000D01*
X94590782Y-140701851D01*
X94179489Y-140872214D01*
X93809334Y-141119544D01*
X93494544Y-141434334D01*
X93247214Y-141804489D01*
X93076851Y-142215782D01*
X92990000Y-142652409D01*
X87757000Y-142652409D01*
X87757000Y-137584721D01*
X88160000Y-137584721D01*
X88160000Y-138005279D01*
X88242047Y-138417756D01*
X88402988Y-138806302D01*
X88636637Y-139155983D01*
X88934017Y-139453363D01*
X89283698Y-139687012D01*
X89672244Y-139847953D01*
X90084721Y-139930000D01*
X90505279Y-139930000D01*
X90917756Y-139847953D01*
X91306302Y-139687012D01*
X91655983Y-139453363D01*
X91953363Y-139155983D01*
X92187012Y-138806302D01*
X92347953Y-138417756D01*
X92430000Y-138005279D01*
X92430000Y-137584721D01*
X92347953Y-137172244D01*
X92187012Y-136783698D01*
X91953363Y-136434017D01*
X91655983Y-136136637D01*
X91306302Y-135902988D01*
X90917756Y-135742047D01*
X90505279Y-135660000D01*
X90084721Y-135660000D01*
X89672244Y-135742047D01*
X89283698Y-135902988D01*
X88934017Y-136136637D01*
X88636637Y-136434017D01*
X88402988Y-136783698D01*
X88242047Y-137172244D01*
X88160000Y-137584721D01*
X87757000Y-137584721D01*
X87757000Y-130560653D01*
X96117452Y-130560653D01*
X96273462Y-130876214D01*
X96648245Y-131067020D01*
X97053051Y-131181044D01*
X97472324Y-131213902D01*
X97889951Y-131164334D01*
X98289883Y-131034243D01*
X98585538Y-130876214D01*
X98741548Y-130560653D01*
X97429500Y-129248605D01*
X96117452Y-130560653D01*
X87757000Y-130560653D01*
X87757000Y-129111824D01*
X95284598Y-129111824D01*
X95334166Y-129529451D01*
X95464257Y-129929383D01*
X95622286Y-130225038D01*
X95937847Y-130381048D01*
X97249895Y-129069000D01*
X97609105Y-129069000D01*
X98921153Y-130381048D01*
X99236714Y-130225038D01*
X99427520Y-129850255D01*
X99541544Y-129445449D01*
X99574402Y-129026176D01*
X99524834Y-128608549D01*
X99394743Y-128208617D01*
X99236714Y-127912962D01*
X98921153Y-127756952D01*
X97609105Y-129069000D01*
X97249895Y-129069000D01*
X95937847Y-127756952D01*
X95622286Y-127912962D01*
X95431480Y-128287745D01*
X95317456Y-128692551D01*
X95284598Y-129111824D01*
X87757000Y-129111824D01*
X87757000Y-127577347D01*
X96117452Y-127577347D01*
X97429500Y-128889395D01*
X98741548Y-127577347D01*
X98585538Y-127261786D01*
X98210755Y-127070980D01*
X97929304Y-126991702D01*
X99326403Y-126991702D01*
X99397986Y-127235671D01*
X99653496Y-127356571D01*
X99927684Y-127425300D01*
X100210012Y-127439217D01*
X100489630Y-127397787D01*
X100755792Y-127302603D01*
X100881014Y-127235671D01*
X100952597Y-126991702D01*
X100139500Y-126178605D01*
X99326403Y-126991702D01*
X97929304Y-126991702D01*
X97805949Y-126956956D01*
X97386676Y-126924098D01*
X96969049Y-126973666D01*
X96569117Y-127103757D01*
X96273462Y-127261786D01*
X96117452Y-127577347D01*
X87757000Y-127577347D01*
X87757000Y-126069512D01*
X98699283Y-126069512D01*
X98740713Y-126349130D01*
X98835897Y-126615292D01*
X98902829Y-126740514D01*
X99146798Y-126812097D01*
X99959895Y-125999000D01*
X99146798Y-125185903D01*
X98902829Y-125257486D01*
X98781929Y-125512996D01*
X98713200Y-125787184D01*
X98699283Y-126069512D01*
X87757000Y-126069512D01*
X87757000Y-117420653D01*
X96117452Y-117420653D01*
X96273462Y-117736214D01*
X96648245Y-117927020D01*
X97053051Y-118041044D01*
X97472324Y-118073902D01*
X97889951Y-118024334D01*
X98289883Y-117894243D01*
X98585538Y-117736214D01*
X98741548Y-117420653D01*
X97429500Y-116108605D01*
X96117452Y-117420653D01*
X87757000Y-117420653D01*
X87757000Y-115971824D01*
X95284598Y-115971824D01*
X95334166Y-116389451D01*
X95464257Y-116789383D01*
X95622286Y-117085038D01*
X95937847Y-117241048D01*
X97249895Y-115929000D01*
X97609105Y-115929000D01*
X98921153Y-117241048D01*
X99236714Y-117085038D01*
X99427520Y-116710255D01*
X99541544Y-116305449D01*
X99574402Y-115886176D01*
X99524834Y-115468549D01*
X99394743Y-115068617D01*
X99236714Y-114772962D01*
X98921153Y-114616952D01*
X97609105Y-115929000D01*
X97249895Y-115929000D01*
X95937847Y-114616952D01*
X95622286Y-114772962D01*
X95431480Y-115147745D01*
X95317456Y-115552551D01*
X95284598Y-115971824D01*
X87757000Y-115971824D01*
X87757000Y-114437347D01*
X96117452Y-114437347D01*
X97429500Y-115749395D01*
X98741548Y-114437347D01*
X98585538Y-114121786D01*
X98210755Y-113930980D01*
X97805949Y-113816956D01*
X97386676Y-113784098D01*
X96969049Y-113833666D01*
X96569117Y-113963757D01*
X96273462Y-114121786D01*
X96117452Y-114437347D01*
X87757000Y-114437347D01*
X87757000Y-109094193D01*
X98110000Y-109094193D01*
X98110000Y-109445807D01*
X98178596Y-109790665D01*
X98313153Y-110115515D01*
X98508500Y-110407871D01*
X98757129Y-110656500D01*
X99049485Y-110851847D01*
X99374335Y-110986404D01*
X99719193Y-111055000D01*
X100070807Y-111055000D01*
X100415665Y-110986404D01*
X100740515Y-110851847D01*
X101032871Y-110656500D01*
X101281500Y-110407871D01*
X101476847Y-110115515D01*
X101611404Y-109790665D01*
X101680000Y-109445807D01*
X101680000Y-109094193D01*
X101611404Y-108749335D01*
X101476847Y-108424485D01*
X101330576Y-108205576D01*
X101549485Y-108351847D01*
X101874335Y-108486404D01*
X102219193Y-108555000D01*
X102570807Y-108555000D01*
X102915665Y-108486404D01*
X103240515Y-108351847D01*
X103532871Y-108156500D01*
X103781500Y-107907871D01*
X103883745Y-107754851D01*
X103875000Y-107798816D01*
X103875000Y-108101184D01*
X103933989Y-108397743D01*
X104049701Y-108677095D01*
X104217688Y-108928505D01*
X104431495Y-109142312D01*
X104682905Y-109310299D01*
X104962257Y-109426011D01*
X105258816Y-109485000D01*
X105561184Y-109485000D01*
X105857743Y-109426011D01*
X106137095Y-109310299D01*
X106388505Y-109142312D01*
X106454944Y-109075873D01*
X106460498Y-109094180D01*
X106519463Y-109204494D01*
X106598815Y-109301185D01*
X106695506Y-109380537D01*
X106805820Y-109439502D01*
X106925518Y-109475812D01*
X107050000Y-109488072D01*
X107664250Y-109485000D01*
X107823000Y-109326250D01*
X107823000Y-108077000D01*
X107803000Y-108077000D01*
X107803000Y-107823000D01*
X107823000Y-107823000D01*
X107823000Y-106573750D01*
X107664250Y-106415000D01*
X107050000Y-106411928D01*
X106925518Y-106424188D01*
X106805820Y-106460498D01*
X106695506Y-106519463D01*
X106598815Y-106598815D01*
X106519463Y-106695506D01*
X106460498Y-106805820D01*
X106454944Y-106824127D01*
X106388505Y-106757688D01*
X106137095Y-106589701D01*
X105857743Y-106473989D01*
X105561184Y-106415000D01*
X105258816Y-106415000D01*
X104962257Y-106473989D01*
X104682905Y-106589701D01*
X104431495Y-106757688D01*
X104217688Y-106971495D01*
X104156750Y-107062696D01*
X104180000Y-106945807D01*
X104180000Y-106594193D01*
X104111404Y-106249335D01*
X103976847Y-105924485D01*
X103781500Y-105632129D01*
X103532871Y-105383500D01*
X103240515Y-105188153D01*
X102915665Y-105053596D01*
X102570807Y-104985000D01*
X102219193Y-104985000D01*
X101874335Y-105053596D01*
X101549485Y-105188153D01*
X101257129Y-105383500D01*
X101008500Y-105632129D01*
X100813153Y-105924485D01*
X100678596Y-106249335D01*
X100610000Y-106594193D01*
X100610000Y-106945807D01*
X100678596Y-107290665D01*
X100813153Y-107615515D01*
X100959424Y-107834424D01*
X100740515Y-107688153D01*
X100415665Y-107553596D01*
X100070807Y-107485000D01*
X99719193Y-107485000D01*
X99374335Y-107553596D01*
X99049485Y-107688153D01*
X98757129Y-107883500D01*
X98508500Y-108132129D01*
X98313153Y-108424485D01*
X98178596Y-108749335D01*
X98110000Y-109094193D01*
X87757000Y-109094193D01*
X87757000Y-104108967D01*
X88260000Y-104108967D01*
X88260000Y-104431033D01*
X88322832Y-104746912D01*
X88446082Y-105044463D01*
X88625013Y-105312252D01*
X88852748Y-105539987D01*
X89120537Y-105718918D01*
X89418088Y-105842168D01*
X89733967Y-105905000D01*
X90056033Y-105905000D01*
X90371912Y-105842168D01*
X90669463Y-105718918D01*
X90937252Y-105539987D01*
X91164987Y-105312252D01*
X91343918Y-105044463D01*
X91467168Y-104746912D01*
X91530000Y-104431033D01*
X91530000Y-104108967D01*
X91467168Y-103793088D01*
X91343918Y-103495537D01*
X91164987Y-103227748D01*
X90937252Y-103000013D01*
X90669463Y-102821082D01*
X90371912Y-102697832D01*
X90056033Y-102635000D01*
X89733967Y-102635000D01*
X89418088Y-102697832D01*
X89120537Y-102821082D01*
X88852748Y-103000013D01*
X88625013Y-103227748D01*
X88446082Y-103495537D01*
X88322832Y-103793088D01*
X88260000Y-104108967D01*
X87757000Y-104108967D01*
X87757000Y-101594193D01*
X98110000Y-101594193D01*
X98110000Y-101945807D01*
X98178596Y-102290665D01*
X98313153Y-102615515D01*
X98508500Y-102907871D01*
X98757129Y-103156500D01*
X99049485Y-103351847D01*
X99374335Y-103486404D01*
X99719193Y-103555000D01*
X100070807Y-103555000D01*
X100415665Y-103486404D01*
X100740515Y-103351847D01*
X101032871Y-103156500D01*
X101281500Y-102907871D01*
X101476847Y-102615515D01*
X101611404Y-102290665D01*
X101680000Y-101945807D01*
X101680000Y-101594193D01*
X101611404Y-101249335D01*
X101476847Y-100924485D01*
X101281500Y-100632129D01*
X101032871Y-100383500D01*
X100740515Y-100188153D01*
X100415665Y-100053596D01*
X100070807Y-99985000D01*
X99719193Y-99985000D01*
X99374335Y-100053596D01*
X99049485Y-100188153D01*
X98757129Y-100383500D01*
X98508500Y-100632129D01*
X98313153Y-100924485D01*
X98178596Y-101249335D01*
X98110000Y-101594193D01*
X87757000Y-101594193D01*
X87757000Y-99108967D01*
X88260000Y-99108967D01*
X88260000Y-99431033D01*
X88322832Y-99746912D01*
X88446082Y-100044463D01*
X88625013Y-100312252D01*
X88852748Y-100539987D01*
X89120537Y-100718918D01*
X89418088Y-100842168D01*
X89733967Y-100905000D01*
X90056033Y-100905000D01*
X90371912Y-100842168D01*
X90669463Y-100718918D01*
X90937252Y-100539987D01*
X91164987Y-100312252D01*
X91343918Y-100044463D01*
X91467168Y-99746912D01*
X91530000Y-99431033D01*
X91530000Y-99108967D01*
X91467168Y-98793088D01*
X91343918Y-98495537D01*
X91164987Y-98227748D01*
X90937252Y-98000013D01*
X90669463Y-97821082D01*
X90371912Y-97697832D01*
X90056033Y-97635000D01*
X89733967Y-97635000D01*
X89418088Y-97697832D01*
X89120537Y-97821082D01*
X88852748Y-98000013D01*
X88625013Y-98227748D01*
X88446082Y-98495537D01*
X88322832Y-98793088D01*
X88260000Y-99108967D01*
X87757000Y-99108967D01*
X87757000Y-94094193D01*
X98110000Y-94094193D01*
X98110000Y-94445807D01*
X98178596Y-94790665D01*
X98313153Y-95115515D01*
X98508500Y-95407871D01*
X98757129Y-95656500D01*
X99049485Y-95851847D01*
X99374335Y-95986404D01*
X99719193Y-96055000D01*
X100070807Y-96055000D01*
X100415665Y-95986404D01*
X100740515Y-95851847D01*
X100959424Y-95705576D01*
X100813153Y-95924485D01*
X100678596Y-96249335D01*
X100610000Y-96594193D01*
X100610000Y-96945807D01*
X100678596Y-97290665D01*
X100813153Y-97615515D01*
X101008500Y-97907871D01*
X101257129Y-98156500D01*
X101549485Y-98351847D01*
X101874335Y-98486404D01*
X102219193Y-98555000D01*
X102570807Y-98555000D01*
X102915665Y-98486404D01*
X103240515Y-98351847D01*
X103532871Y-98156500D01*
X103781500Y-97907871D01*
X103976847Y-97615515D01*
X104111404Y-97290665D01*
X104180000Y-96945807D01*
X104180000Y-96594193D01*
X104111404Y-96249335D01*
X103976847Y-95924485D01*
X103781500Y-95632129D01*
X103532871Y-95383500D01*
X103240515Y-95188153D01*
X102915665Y-95053596D01*
X102570807Y-94985000D01*
X102219193Y-94985000D01*
X101874335Y-95053596D01*
X101549485Y-95188153D01*
X101330576Y-95334424D01*
X101476847Y-95115515D01*
X101611404Y-94790665D01*
X101680000Y-94445807D01*
X101680000Y-94094193D01*
X101627214Y-93828816D01*
X103875000Y-93828816D01*
X103875000Y-94131184D01*
X103933989Y-94427743D01*
X104049701Y-94707095D01*
X104217688Y-94958505D01*
X104431495Y-95172312D01*
X104682905Y-95340299D01*
X104962257Y-95456011D01*
X105258816Y-95515000D01*
X105561184Y-95515000D01*
X105857743Y-95456011D01*
X106137095Y-95340299D01*
X106388505Y-95172312D01*
X106454944Y-95105873D01*
X106460498Y-95124180D01*
X106519463Y-95234494D01*
X106598815Y-95331185D01*
X106695506Y-95410537D01*
X106805820Y-95469502D01*
X106925518Y-95505812D01*
X107050000Y-95518072D01*
X107664250Y-95515000D01*
X107823000Y-95356250D01*
X107823000Y-94107000D01*
X108077000Y-94107000D01*
X108077000Y-95356250D01*
X108235750Y-95515000D01*
X108850000Y-95518072D01*
X108974482Y-95505812D01*
X109094180Y-95469502D01*
X109204494Y-95410537D01*
X109301185Y-95331185D01*
X109380537Y-95234494D01*
X109439502Y-95124180D01*
X109475812Y-95004482D01*
X109488072Y-94880000D01*
X109485000Y-94265750D01*
X109326250Y-94107000D01*
X108077000Y-94107000D01*
X107823000Y-94107000D01*
X107803000Y-94107000D01*
X107803000Y-93853000D01*
X107823000Y-93853000D01*
X107823000Y-92603750D01*
X108077000Y-92603750D01*
X108077000Y-93853000D01*
X109326250Y-93853000D01*
X109485000Y-93694250D01*
X109488072Y-93080000D01*
X109475812Y-92955518D01*
X109439502Y-92835820D01*
X109380537Y-92725506D01*
X109301185Y-92628815D01*
X109204494Y-92549463D01*
X109094180Y-92490498D01*
X108974482Y-92454188D01*
X108850000Y-92441928D01*
X108235750Y-92445000D01*
X108077000Y-92603750D01*
X107823000Y-92603750D01*
X107664250Y-92445000D01*
X107050000Y-92441928D01*
X106925518Y-92454188D01*
X106805820Y-92490498D01*
X106695506Y-92549463D01*
X106598815Y-92628815D01*
X106519463Y-92725506D01*
X106460498Y-92835820D01*
X106454944Y-92854127D01*
X106388505Y-92787688D01*
X106137095Y-92619701D01*
X105857743Y-92503989D01*
X105561184Y-92445000D01*
X105258816Y-92445000D01*
X104962257Y-92503989D01*
X104682905Y-92619701D01*
X104431495Y-92787688D01*
X104217688Y-93001495D01*
X104049701Y-93252905D01*
X103933989Y-93532257D01*
X103875000Y-93828816D01*
X101627214Y-93828816D01*
X101611404Y-93749335D01*
X101476847Y-93424485D01*
X101281500Y-93132129D01*
X101032871Y-92883500D01*
X100740515Y-92688153D01*
X100415665Y-92553596D01*
X100070807Y-92485000D01*
X99719193Y-92485000D01*
X99374335Y-92553596D01*
X99049485Y-92688153D01*
X98757129Y-92883500D01*
X98508500Y-93132129D01*
X98313153Y-93424485D01*
X98178596Y-93749335D01*
X98110000Y-94094193D01*
X87757000Y-94094193D01*
X87757000Y-92202000D01*
X119481928Y-92202000D01*
X119481928Y-94745000D01*
G36*
X128397000Y-147828000D02*
G01*
X128417000Y-147828000D01*
X128417000Y-148082000D01*
X128397000Y-148082000D01*
X128397000Y-148102000D01*
X128143000Y-148102000D01*
X128143000Y-148082000D01*
X128123000Y-148082000D01*
X128123000Y-147828000D01*
X128143000Y-147828000D01*
X128143000Y-147808000D01*
X128397000Y-147808000D01*
X128397000Y-147828000D01*
G37*
X128397000Y-147828000D02*
X128417000Y-147828000D01*
X128417000Y-148082000D01*
X128397000Y-148082000D01*
X128397000Y-148102000D01*
X128143000Y-148102000D01*
X128143000Y-148082000D01*
X128123000Y-148082000D01*
X128123000Y-147828000D01*
X128143000Y-147828000D01*
X128143000Y-147808000D01*
X128397000Y-147808000D01*
X128397000Y-147828000D01*
M02*
