G04 #@! TF.GenerationSoftware,KiCad,Pcbnew,(5.1.5)-3*
G04 #@! TF.CreationDate,2020-01-19T12:10:18+09:00*
G04 #@! TF.ProjectId,MOMI,4d4f4d49-2e6b-4696-9361-645f70636258,rev?*
G04 #@! TF.SameCoordinates,Original*
G04 #@! TF.FileFunction,Soldermask,Bot*
G04 #@! TF.FilePolarity,Negative*
%FSLAX46Y46*%
G04 Gerber Fmt 4.6, Leading zero omitted, Abs format (unit mm)*
G04 Created by KiCad (PCBNEW (5.1.5)-3) date 2020-01-19 12:10:18*
%MOMM*%
%LPD*%
G04 APERTURE LIST*
%ADD10C,0.100000*%
G04 APERTURE END LIST*
D10*
G36*
X155714000Y-160159000D02*
G01*
X153912000Y-160159000D01*
X153912000Y-158357000D01*
X155714000Y-158357000D01*
X155714000Y-160159000D01*
G37*
G36*
X154926512Y-155821927D02*
G01*
X155075812Y-155851624D01*
X155239784Y-155919544D01*
X155387354Y-156018147D01*
X155512853Y-156143646D01*
X155611456Y-156291216D01*
X155679376Y-156455188D01*
X155714000Y-156629259D01*
X155714000Y-156806741D01*
X155679376Y-156980812D01*
X155611456Y-157144784D01*
X155512853Y-157292354D01*
X155387354Y-157417853D01*
X155239784Y-157516456D01*
X155075812Y-157584376D01*
X154926512Y-157614073D01*
X154901742Y-157619000D01*
X154724258Y-157619000D01*
X154699488Y-157614073D01*
X154550188Y-157584376D01*
X154386216Y-157516456D01*
X154238646Y-157417853D01*
X154113147Y-157292354D01*
X154014544Y-157144784D01*
X153946624Y-156980812D01*
X153912000Y-156806741D01*
X153912000Y-156629259D01*
X153946624Y-156455188D01*
X154014544Y-156291216D01*
X154113147Y-156143646D01*
X154238646Y-156018147D01*
X154386216Y-155919544D01*
X154550188Y-155851624D01*
X154699488Y-155821927D01*
X154724258Y-155817000D01*
X154901742Y-155817000D01*
X154926512Y-155821927D01*
G37*
G36*
X100507585Y-154053802D02*
G01*
X100657410Y-154083604D01*
X100939674Y-154200521D01*
X101193705Y-154370259D01*
X101409741Y-154586295D01*
X101579479Y-154840326D01*
X101696396Y-155122590D01*
X101756000Y-155422240D01*
X101756000Y-155727760D01*
X101696396Y-156027410D01*
X101579479Y-156309674D01*
X101409741Y-156563705D01*
X101193705Y-156779741D01*
X100939674Y-156949479D01*
X100657410Y-157066396D01*
X100507585Y-157096198D01*
X100357761Y-157126000D01*
X100052239Y-157126000D01*
X99902415Y-157096198D01*
X99752590Y-157066396D01*
X99470326Y-156949479D01*
X99216295Y-156779741D01*
X99000259Y-156563705D01*
X98830521Y-156309674D01*
X98713604Y-156027410D01*
X98654000Y-155727760D01*
X98654000Y-155422240D01*
X98713604Y-155122590D01*
X98830521Y-154840326D01*
X99000259Y-154586295D01*
X99216295Y-154370259D01*
X99470326Y-154200521D01*
X99752590Y-154083604D01*
X99902415Y-154053802D01*
X100052239Y-154024000D01*
X100357761Y-154024000D01*
X100507585Y-154053802D01*
G37*
G36*
X117906585Y-154053802D02*
G01*
X118056410Y-154083604D01*
X118338674Y-154200521D01*
X118592705Y-154370259D01*
X118808741Y-154586295D01*
X118978479Y-154840326D01*
X119095396Y-155122590D01*
X119155000Y-155422240D01*
X119155000Y-155727760D01*
X119095396Y-156027410D01*
X118978479Y-156309674D01*
X118808741Y-156563705D01*
X118592705Y-156779741D01*
X118338674Y-156949479D01*
X118056410Y-157066396D01*
X117906585Y-157096198D01*
X117756761Y-157126000D01*
X117451239Y-157126000D01*
X117301415Y-157096198D01*
X117151590Y-157066396D01*
X116869326Y-156949479D01*
X116615295Y-156779741D01*
X116399259Y-156563705D01*
X116229521Y-156309674D01*
X116112604Y-156027410D01*
X116053000Y-155727760D01*
X116053000Y-155422240D01*
X116112604Y-155122590D01*
X116229521Y-154840326D01*
X116399259Y-154586295D01*
X116615295Y-154370259D01*
X116869326Y-154200521D01*
X117151590Y-154083604D01*
X117301415Y-154053802D01*
X117451239Y-154024000D01*
X117756761Y-154024000D01*
X117906585Y-154053802D01*
G37*
G36*
X154926512Y-153281927D02*
G01*
X155075812Y-153311624D01*
X155239784Y-153379544D01*
X155387354Y-153478147D01*
X155512853Y-153603646D01*
X155611456Y-153751216D01*
X155679376Y-153915188D01*
X155714000Y-154089259D01*
X155714000Y-154266741D01*
X155679376Y-154440812D01*
X155611456Y-154604784D01*
X155512853Y-154752354D01*
X155387354Y-154877853D01*
X155239784Y-154976456D01*
X155075812Y-155044376D01*
X154926512Y-155074073D01*
X154901742Y-155079000D01*
X154724258Y-155079000D01*
X154699488Y-155074073D01*
X154550188Y-155044376D01*
X154386216Y-154976456D01*
X154238646Y-154877853D01*
X154113147Y-154752354D01*
X154014544Y-154604784D01*
X153946624Y-154440812D01*
X153912000Y-154266741D01*
X153912000Y-154089259D01*
X153946624Y-153915188D01*
X154014544Y-153751216D01*
X154113147Y-153603646D01*
X154238646Y-153478147D01*
X154386216Y-153379544D01*
X154550188Y-153311624D01*
X154699488Y-153281927D01*
X154724258Y-153277000D01*
X154901742Y-153277000D01*
X154926512Y-153281927D01*
G37*
G36*
X154926512Y-150741927D02*
G01*
X155075812Y-150771624D01*
X155239784Y-150839544D01*
X155387354Y-150938147D01*
X155512853Y-151063646D01*
X155611456Y-151211216D01*
X155679376Y-151375188D01*
X155714000Y-151549259D01*
X155714000Y-151726741D01*
X155679376Y-151900812D01*
X155611456Y-152064784D01*
X155512853Y-152212354D01*
X155387354Y-152337853D01*
X155239784Y-152436456D01*
X155075812Y-152504376D01*
X154926512Y-152534073D01*
X154901742Y-152539000D01*
X154724258Y-152539000D01*
X154699488Y-152534073D01*
X154550188Y-152504376D01*
X154386216Y-152436456D01*
X154238646Y-152337853D01*
X154113147Y-152212354D01*
X154014544Y-152064784D01*
X153946624Y-151900812D01*
X153912000Y-151726741D01*
X153912000Y-151549259D01*
X153946624Y-151375188D01*
X154014544Y-151211216D01*
X154113147Y-151063646D01*
X154238646Y-150938147D01*
X154386216Y-150839544D01*
X154550188Y-150771624D01*
X154699488Y-150741927D01*
X154724258Y-150737000D01*
X154901742Y-150737000D01*
X154926512Y-150741927D01*
G37*
G36*
X123303512Y-149598927D02*
G01*
X123452812Y-149628624D01*
X123616784Y-149696544D01*
X123764354Y-149795147D01*
X123889853Y-149920646D01*
X123988456Y-150068216D01*
X124056376Y-150232188D01*
X124091000Y-150406259D01*
X124091000Y-150583741D01*
X124056376Y-150757812D01*
X123988456Y-150921784D01*
X123889853Y-151069354D01*
X123764354Y-151194853D01*
X123616784Y-151293456D01*
X123452812Y-151361376D01*
X123303512Y-151391073D01*
X123278742Y-151396000D01*
X123101258Y-151396000D01*
X123076488Y-151391073D01*
X122927188Y-151361376D01*
X122763216Y-151293456D01*
X122615646Y-151194853D01*
X122490147Y-151069354D01*
X122391544Y-150921784D01*
X122323624Y-150757812D01*
X122289000Y-150583741D01*
X122289000Y-150406259D01*
X122323624Y-150232188D01*
X122391544Y-150068216D01*
X122490147Y-149920646D01*
X122615646Y-149795147D01*
X122763216Y-149696544D01*
X122927188Y-149628624D01*
X123076488Y-149598927D01*
X123101258Y-149594000D01*
X123278742Y-149594000D01*
X123303512Y-149598927D01*
G37*
G36*
X125843512Y-149598927D02*
G01*
X125992812Y-149628624D01*
X126156784Y-149696544D01*
X126304354Y-149795147D01*
X126429853Y-149920646D01*
X126528456Y-150068216D01*
X126596376Y-150232188D01*
X126631000Y-150406259D01*
X126631000Y-150583741D01*
X126596376Y-150757812D01*
X126528456Y-150921784D01*
X126429853Y-151069354D01*
X126304354Y-151194853D01*
X126156784Y-151293456D01*
X125992812Y-151361376D01*
X125843512Y-151391073D01*
X125818742Y-151396000D01*
X125641258Y-151396000D01*
X125616488Y-151391073D01*
X125467188Y-151361376D01*
X125303216Y-151293456D01*
X125155646Y-151194853D01*
X125030147Y-151069354D01*
X124931544Y-150921784D01*
X124863624Y-150757812D01*
X124829000Y-150583741D01*
X124829000Y-150406259D01*
X124863624Y-150232188D01*
X124931544Y-150068216D01*
X125030147Y-149920646D01*
X125155646Y-149795147D01*
X125303216Y-149696544D01*
X125467188Y-149628624D01*
X125616488Y-149598927D01*
X125641258Y-149594000D01*
X125818742Y-149594000D01*
X125843512Y-149598927D01*
G37*
G36*
X134733512Y-149598927D02*
G01*
X134882812Y-149628624D01*
X135046784Y-149696544D01*
X135194354Y-149795147D01*
X135319853Y-149920646D01*
X135418456Y-150068216D01*
X135486376Y-150232188D01*
X135521000Y-150406259D01*
X135521000Y-150583741D01*
X135486376Y-150757812D01*
X135418456Y-150921784D01*
X135319853Y-151069354D01*
X135194354Y-151194853D01*
X135046784Y-151293456D01*
X134882812Y-151361376D01*
X134733512Y-151391073D01*
X134708742Y-151396000D01*
X134531258Y-151396000D01*
X134506488Y-151391073D01*
X134357188Y-151361376D01*
X134193216Y-151293456D01*
X134045646Y-151194853D01*
X133920147Y-151069354D01*
X133821544Y-150921784D01*
X133753624Y-150757812D01*
X133719000Y-150583741D01*
X133719000Y-150406259D01*
X133753624Y-150232188D01*
X133821544Y-150068216D01*
X133920147Y-149920646D01*
X134045646Y-149795147D01*
X134193216Y-149696544D01*
X134357188Y-149628624D01*
X134506488Y-149598927D01*
X134531258Y-149594000D01*
X134708742Y-149594000D01*
X134733512Y-149598927D01*
G37*
G36*
X137273512Y-149598927D02*
G01*
X137422812Y-149628624D01*
X137586784Y-149696544D01*
X137734354Y-149795147D01*
X137859853Y-149920646D01*
X137958456Y-150068216D01*
X138026376Y-150232188D01*
X138061000Y-150406259D01*
X138061000Y-150583741D01*
X138026376Y-150757812D01*
X137958456Y-150921784D01*
X137859853Y-151069354D01*
X137734354Y-151194853D01*
X137586784Y-151293456D01*
X137422812Y-151361376D01*
X137273512Y-151391073D01*
X137248742Y-151396000D01*
X137071258Y-151396000D01*
X137046488Y-151391073D01*
X136897188Y-151361376D01*
X136733216Y-151293456D01*
X136585646Y-151194853D01*
X136460147Y-151069354D01*
X136361544Y-150921784D01*
X136293624Y-150757812D01*
X136259000Y-150583741D01*
X136259000Y-150406259D01*
X136293624Y-150232188D01*
X136361544Y-150068216D01*
X136460147Y-149920646D01*
X136585646Y-149795147D01*
X136733216Y-149696544D01*
X136897188Y-149628624D01*
X137046488Y-149598927D01*
X137071258Y-149594000D01*
X137248742Y-149594000D01*
X137273512Y-149598927D01*
G37*
G36*
X128383512Y-149598927D02*
G01*
X128532812Y-149628624D01*
X128696784Y-149696544D01*
X128844354Y-149795147D01*
X128969853Y-149920646D01*
X129068456Y-150068216D01*
X129136376Y-150232188D01*
X129171000Y-150406259D01*
X129171000Y-150583741D01*
X129136376Y-150757812D01*
X129068456Y-150921784D01*
X128969853Y-151069354D01*
X128844354Y-151194853D01*
X128696784Y-151293456D01*
X128532812Y-151361376D01*
X128383512Y-151391073D01*
X128358742Y-151396000D01*
X128181258Y-151396000D01*
X128156488Y-151391073D01*
X128007188Y-151361376D01*
X127843216Y-151293456D01*
X127695646Y-151194853D01*
X127570147Y-151069354D01*
X127471544Y-150921784D01*
X127403624Y-150757812D01*
X127369000Y-150583741D01*
X127369000Y-150406259D01*
X127403624Y-150232188D01*
X127471544Y-150068216D01*
X127570147Y-149920646D01*
X127695646Y-149795147D01*
X127843216Y-149696544D01*
X128007188Y-149628624D01*
X128156488Y-149598927D01*
X128181258Y-149594000D01*
X128358742Y-149594000D01*
X128383512Y-149598927D01*
G37*
G36*
X139813512Y-149598927D02*
G01*
X139962812Y-149628624D01*
X140126784Y-149696544D01*
X140274354Y-149795147D01*
X140399853Y-149920646D01*
X140498456Y-150068216D01*
X140566376Y-150232188D01*
X140601000Y-150406259D01*
X140601000Y-150583741D01*
X140566376Y-150757812D01*
X140498456Y-150921784D01*
X140399853Y-151069354D01*
X140274354Y-151194853D01*
X140126784Y-151293456D01*
X139962812Y-151361376D01*
X139813512Y-151391073D01*
X139788742Y-151396000D01*
X139611258Y-151396000D01*
X139586488Y-151391073D01*
X139437188Y-151361376D01*
X139273216Y-151293456D01*
X139125646Y-151194853D01*
X139000147Y-151069354D01*
X138901544Y-150921784D01*
X138833624Y-150757812D01*
X138799000Y-150583741D01*
X138799000Y-150406259D01*
X138833624Y-150232188D01*
X138901544Y-150068216D01*
X139000147Y-149920646D01*
X139125646Y-149795147D01*
X139273216Y-149696544D01*
X139437188Y-149628624D01*
X139586488Y-149598927D01*
X139611258Y-149594000D01*
X139788742Y-149594000D01*
X139813512Y-149598927D01*
G37*
G36*
X142353512Y-149598927D02*
G01*
X142502812Y-149628624D01*
X142666784Y-149696544D01*
X142814354Y-149795147D01*
X142939853Y-149920646D01*
X143038456Y-150068216D01*
X143106376Y-150232188D01*
X143141000Y-150406259D01*
X143141000Y-150583741D01*
X143106376Y-150757812D01*
X143038456Y-150921784D01*
X142939853Y-151069354D01*
X142814354Y-151194853D01*
X142666784Y-151293456D01*
X142502812Y-151361376D01*
X142353512Y-151391073D01*
X142328742Y-151396000D01*
X142151258Y-151396000D01*
X142126488Y-151391073D01*
X141977188Y-151361376D01*
X141813216Y-151293456D01*
X141665646Y-151194853D01*
X141540147Y-151069354D01*
X141441544Y-150921784D01*
X141373624Y-150757812D01*
X141339000Y-150583741D01*
X141339000Y-150406259D01*
X141373624Y-150232188D01*
X141441544Y-150068216D01*
X141540147Y-149920646D01*
X141665646Y-149795147D01*
X141813216Y-149696544D01*
X141977188Y-149628624D01*
X142126488Y-149598927D01*
X142151258Y-149594000D01*
X142328742Y-149594000D01*
X142353512Y-149598927D01*
G37*
G36*
X130923512Y-149598927D02*
G01*
X131072812Y-149628624D01*
X131236784Y-149696544D01*
X131384354Y-149795147D01*
X131509853Y-149920646D01*
X131608456Y-150068216D01*
X131676376Y-150232188D01*
X131711000Y-150406259D01*
X131711000Y-150583741D01*
X131676376Y-150757812D01*
X131608456Y-150921784D01*
X131509853Y-151069354D01*
X131384354Y-151194853D01*
X131236784Y-151293456D01*
X131072812Y-151361376D01*
X130923512Y-151391073D01*
X130898742Y-151396000D01*
X130721258Y-151396000D01*
X130696488Y-151391073D01*
X130547188Y-151361376D01*
X130383216Y-151293456D01*
X130235646Y-151194853D01*
X130110147Y-151069354D01*
X130011544Y-150921784D01*
X129943624Y-150757812D01*
X129909000Y-150583741D01*
X129909000Y-150406259D01*
X129943624Y-150232188D01*
X130011544Y-150068216D01*
X130110147Y-149920646D01*
X130235646Y-149795147D01*
X130383216Y-149696544D01*
X130547188Y-149628624D01*
X130696488Y-149598927D01*
X130721258Y-149594000D01*
X130898742Y-149594000D01*
X130923512Y-149598927D01*
G37*
G36*
X147098618Y-148879920D02*
G01*
X147179400Y-148904425D01*
X147221336Y-148917146D01*
X147334425Y-148977594D01*
X147433554Y-149058946D01*
X147514906Y-149158075D01*
X147575354Y-149271164D01*
X147575355Y-149271168D01*
X147612580Y-149393882D01*
X147622000Y-149489527D01*
X147622000Y-150103473D01*
X147612580Y-150199118D01*
X147602548Y-150232188D01*
X147575354Y-150321836D01*
X147514906Y-150434925D01*
X147433554Y-150534053D01*
X147334424Y-150615406D01*
X147221335Y-150675854D01*
X147189403Y-150685540D01*
X147098617Y-150713080D01*
X146971000Y-150725649D01*
X146843382Y-150713080D01*
X146752596Y-150685540D01*
X146720664Y-150675854D01*
X146607575Y-150615406D01*
X146508447Y-150534054D01*
X146427094Y-150434924D01*
X146366646Y-150321835D01*
X146356960Y-150289903D01*
X146329420Y-150199117D01*
X146320000Y-150103472D01*
X146320000Y-149489527D01*
X146329420Y-149393882D01*
X146366645Y-149271168D01*
X146366645Y-149271167D01*
X146426205Y-149159740D01*
X146427095Y-149158074D01*
X146440493Y-149141749D01*
X146508447Y-149058946D01*
X146607576Y-148977594D01*
X146720665Y-148917146D01*
X146762601Y-148904425D01*
X146843383Y-148879920D01*
X146971000Y-148867351D01*
X147098618Y-148879920D01*
G37*
G36*
X149462242Y-148874904D02*
G01*
X149499337Y-148886157D01*
X149533515Y-148904425D01*
X149563481Y-148929019D01*
X149588075Y-148958985D01*
X149606343Y-148993163D01*
X149617596Y-149030258D01*
X149622000Y-149074974D01*
X149622000Y-150518026D01*
X149617596Y-150562742D01*
X149606343Y-150599837D01*
X149588075Y-150634015D01*
X149563481Y-150663981D01*
X149533515Y-150688575D01*
X149499337Y-150706843D01*
X149462242Y-150718096D01*
X149417526Y-150722500D01*
X148524474Y-150722500D01*
X148479758Y-150718096D01*
X148442663Y-150706843D01*
X148408485Y-150688575D01*
X148378519Y-150663981D01*
X148353925Y-150634015D01*
X148335657Y-150599837D01*
X148324404Y-150562742D01*
X148320000Y-150518026D01*
X148320000Y-149074974D01*
X148324404Y-149030258D01*
X148335657Y-148993163D01*
X148353925Y-148958985D01*
X148378519Y-148929019D01*
X148408485Y-148904425D01*
X148442663Y-148886157D01*
X148479758Y-148874904D01*
X148524474Y-148870500D01*
X149417526Y-148870500D01*
X149462242Y-148874904D01*
G37*
G36*
X154926512Y-148201927D02*
G01*
X155075812Y-148231624D01*
X155239784Y-148299544D01*
X155387354Y-148398147D01*
X155512853Y-148523646D01*
X155611456Y-148671216D01*
X155679376Y-148835188D01*
X155714000Y-149009259D01*
X155714000Y-149186741D01*
X155679376Y-149360812D01*
X155611456Y-149524784D01*
X155512853Y-149672354D01*
X155387354Y-149797853D01*
X155239784Y-149896456D01*
X155075812Y-149964376D01*
X154926512Y-149994073D01*
X154901742Y-149999000D01*
X154724258Y-149999000D01*
X154699488Y-149994073D01*
X154550188Y-149964376D01*
X154386216Y-149896456D01*
X154238646Y-149797853D01*
X154113147Y-149672354D01*
X154014544Y-149524784D01*
X153946624Y-149360812D01*
X153912000Y-149186741D01*
X153912000Y-149009259D01*
X153946624Y-148835188D01*
X154014544Y-148671216D01*
X154113147Y-148523646D01*
X154238646Y-148398147D01*
X154386216Y-148299544D01*
X154550188Y-148231624D01*
X154699488Y-148201927D01*
X154724258Y-148197000D01*
X154901742Y-148197000D01*
X154926512Y-148201927D01*
G37*
G36*
X100507585Y-146433802D02*
G01*
X100657410Y-146463604D01*
X100939674Y-146580521D01*
X101193705Y-146750259D01*
X101409741Y-146966295D01*
X101579479Y-147220326D01*
X101696396Y-147502590D01*
X101756000Y-147802240D01*
X101756000Y-148107760D01*
X101696396Y-148407410D01*
X101579479Y-148689674D01*
X101409741Y-148943705D01*
X101193705Y-149159741D01*
X100939674Y-149329479D01*
X100657410Y-149446396D01*
X100507585Y-149476198D01*
X100357761Y-149506000D01*
X100052239Y-149506000D01*
X99902415Y-149476198D01*
X99752590Y-149446396D01*
X99470326Y-149329479D01*
X99216295Y-149159741D01*
X99000259Y-148943705D01*
X98830521Y-148689674D01*
X98713604Y-148407410D01*
X98654000Y-148107760D01*
X98654000Y-147802240D01*
X98713604Y-147502590D01*
X98830521Y-147220326D01*
X99000259Y-146966295D01*
X99216295Y-146750259D01*
X99470326Y-146580521D01*
X99752590Y-146463604D01*
X99902415Y-146433802D01*
X100052239Y-146404000D01*
X100357761Y-146404000D01*
X100507585Y-146433802D01*
G37*
G36*
X90597585Y-146433802D02*
G01*
X90747410Y-146463604D01*
X91029674Y-146580521D01*
X91283705Y-146750259D01*
X91499741Y-146966295D01*
X91669479Y-147220326D01*
X91786396Y-147502590D01*
X91846000Y-147802240D01*
X91846000Y-148107760D01*
X91786396Y-148407410D01*
X91669479Y-148689674D01*
X91499741Y-148943705D01*
X91283705Y-149159741D01*
X91029674Y-149329479D01*
X90747410Y-149446396D01*
X90597585Y-149476198D01*
X90447761Y-149506000D01*
X90142239Y-149506000D01*
X89992415Y-149476198D01*
X89842590Y-149446396D01*
X89560326Y-149329479D01*
X89306295Y-149159741D01*
X89090259Y-148943705D01*
X88920521Y-148689674D01*
X88803604Y-148407410D01*
X88744000Y-148107760D01*
X88744000Y-147802240D01*
X88803604Y-147502590D01*
X88920521Y-147220326D01*
X89090259Y-146966295D01*
X89306295Y-146750259D01*
X89560326Y-146580521D01*
X89842590Y-146463604D01*
X89992415Y-146433802D01*
X90142239Y-146404000D01*
X90447761Y-146404000D01*
X90597585Y-146433802D01*
G37*
G36*
X107996585Y-146433802D02*
G01*
X108146410Y-146463604D01*
X108428674Y-146580521D01*
X108682705Y-146750259D01*
X108898741Y-146966295D01*
X109068479Y-147220326D01*
X109185396Y-147502590D01*
X109245000Y-147802240D01*
X109245000Y-148107760D01*
X109185396Y-148407410D01*
X109068479Y-148689674D01*
X108898741Y-148943705D01*
X108682705Y-149159741D01*
X108428674Y-149329479D01*
X108146410Y-149446396D01*
X107996585Y-149476198D01*
X107846761Y-149506000D01*
X107541239Y-149506000D01*
X107391415Y-149476198D01*
X107241590Y-149446396D01*
X106959326Y-149329479D01*
X106705295Y-149159741D01*
X106489259Y-148943705D01*
X106319521Y-148689674D01*
X106202604Y-148407410D01*
X106143000Y-148107760D01*
X106143000Y-147802240D01*
X106202604Y-147502590D01*
X106319521Y-147220326D01*
X106489259Y-146966295D01*
X106705295Y-146750259D01*
X106959326Y-146580521D01*
X107241590Y-146463604D01*
X107391415Y-146433802D01*
X107541239Y-146404000D01*
X107846761Y-146404000D01*
X107996585Y-146433802D01*
G37*
G36*
X117906585Y-146433802D02*
G01*
X118056410Y-146463604D01*
X118338674Y-146580521D01*
X118592705Y-146750259D01*
X118808741Y-146966295D01*
X118978479Y-147220326D01*
X119095396Y-147502590D01*
X119155000Y-147802240D01*
X119155000Y-148107760D01*
X119095396Y-148407410D01*
X118978479Y-148689674D01*
X118808741Y-148943705D01*
X118592705Y-149159741D01*
X118338674Y-149329479D01*
X118056410Y-149446396D01*
X117906585Y-149476198D01*
X117756761Y-149506000D01*
X117451239Y-149506000D01*
X117301415Y-149476198D01*
X117151590Y-149446396D01*
X116869326Y-149329479D01*
X116615295Y-149159741D01*
X116399259Y-148943705D01*
X116229521Y-148689674D01*
X116112604Y-148407410D01*
X116053000Y-148107760D01*
X116053000Y-147802240D01*
X116112604Y-147502590D01*
X116229521Y-147220326D01*
X116399259Y-146966295D01*
X116615295Y-146750259D01*
X116869326Y-146580521D01*
X117151590Y-146463604D01*
X117301415Y-146433802D01*
X117451239Y-146404000D01*
X117756761Y-146404000D01*
X117906585Y-146433802D01*
G37*
G36*
X143141000Y-148856000D02*
G01*
X141339000Y-148856000D01*
X141339000Y-147054000D01*
X143141000Y-147054000D01*
X143141000Y-148856000D01*
G37*
G36*
X125843512Y-147058927D02*
G01*
X125992812Y-147088624D01*
X126156784Y-147156544D01*
X126304354Y-147255147D01*
X126429853Y-147380646D01*
X126528456Y-147528216D01*
X126596376Y-147692188D01*
X126631000Y-147866259D01*
X126631000Y-148043741D01*
X126596376Y-148217812D01*
X126528456Y-148381784D01*
X126429853Y-148529354D01*
X126304354Y-148654853D01*
X126156784Y-148753456D01*
X125992812Y-148821376D01*
X125843512Y-148851073D01*
X125818742Y-148856000D01*
X125641258Y-148856000D01*
X125616488Y-148851073D01*
X125467188Y-148821376D01*
X125303216Y-148753456D01*
X125155646Y-148654853D01*
X125030147Y-148529354D01*
X124931544Y-148381784D01*
X124863624Y-148217812D01*
X124829000Y-148043741D01*
X124829000Y-147866259D01*
X124863624Y-147692188D01*
X124931544Y-147528216D01*
X125030147Y-147380646D01*
X125155646Y-147255147D01*
X125303216Y-147156544D01*
X125467188Y-147088624D01*
X125616488Y-147058927D01*
X125641258Y-147054000D01*
X125818742Y-147054000D01*
X125843512Y-147058927D01*
G37*
G36*
X128383512Y-147058927D02*
G01*
X128532812Y-147088624D01*
X128696784Y-147156544D01*
X128844354Y-147255147D01*
X128969853Y-147380646D01*
X129068456Y-147528216D01*
X129136376Y-147692188D01*
X129171000Y-147866259D01*
X129171000Y-148043741D01*
X129136376Y-148217812D01*
X129068456Y-148381784D01*
X128969853Y-148529354D01*
X128844354Y-148654853D01*
X128696784Y-148753456D01*
X128532812Y-148821376D01*
X128383512Y-148851073D01*
X128358742Y-148856000D01*
X128181258Y-148856000D01*
X128156488Y-148851073D01*
X128007188Y-148821376D01*
X127843216Y-148753456D01*
X127695646Y-148654853D01*
X127570147Y-148529354D01*
X127471544Y-148381784D01*
X127403624Y-148217812D01*
X127369000Y-148043741D01*
X127369000Y-147866259D01*
X127403624Y-147692188D01*
X127471544Y-147528216D01*
X127570147Y-147380646D01*
X127695646Y-147255147D01*
X127843216Y-147156544D01*
X128007188Y-147088624D01*
X128156488Y-147058927D01*
X128181258Y-147054000D01*
X128358742Y-147054000D01*
X128383512Y-147058927D01*
G37*
G36*
X131711000Y-148856000D02*
G01*
X129909000Y-148856000D01*
X129909000Y-147054000D01*
X131711000Y-147054000D01*
X131711000Y-148856000D01*
G37*
G36*
X123303512Y-147058927D02*
G01*
X123452812Y-147088624D01*
X123616784Y-147156544D01*
X123764354Y-147255147D01*
X123889853Y-147380646D01*
X123988456Y-147528216D01*
X124056376Y-147692188D01*
X124091000Y-147866259D01*
X124091000Y-148043741D01*
X124056376Y-148217812D01*
X123988456Y-148381784D01*
X123889853Y-148529354D01*
X123764354Y-148654853D01*
X123616784Y-148753456D01*
X123452812Y-148821376D01*
X123303512Y-148851073D01*
X123278742Y-148856000D01*
X123101258Y-148856000D01*
X123076488Y-148851073D01*
X122927188Y-148821376D01*
X122763216Y-148753456D01*
X122615646Y-148654853D01*
X122490147Y-148529354D01*
X122391544Y-148381784D01*
X122323624Y-148217812D01*
X122289000Y-148043741D01*
X122289000Y-147866259D01*
X122323624Y-147692188D01*
X122391544Y-147528216D01*
X122490147Y-147380646D01*
X122615646Y-147255147D01*
X122763216Y-147156544D01*
X122927188Y-147088624D01*
X123076488Y-147058927D01*
X123101258Y-147054000D01*
X123278742Y-147054000D01*
X123303512Y-147058927D01*
G37*
G36*
X134733512Y-147058927D02*
G01*
X134882812Y-147088624D01*
X135046784Y-147156544D01*
X135194354Y-147255147D01*
X135319853Y-147380646D01*
X135418456Y-147528216D01*
X135486376Y-147692188D01*
X135521000Y-147866259D01*
X135521000Y-148043741D01*
X135486376Y-148217812D01*
X135418456Y-148381784D01*
X135319853Y-148529354D01*
X135194354Y-148654853D01*
X135046784Y-148753456D01*
X134882812Y-148821376D01*
X134733512Y-148851073D01*
X134708742Y-148856000D01*
X134531258Y-148856000D01*
X134506488Y-148851073D01*
X134357188Y-148821376D01*
X134193216Y-148753456D01*
X134045646Y-148654853D01*
X133920147Y-148529354D01*
X133821544Y-148381784D01*
X133753624Y-148217812D01*
X133719000Y-148043741D01*
X133719000Y-147866259D01*
X133753624Y-147692188D01*
X133821544Y-147528216D01*
X133920147Y-147380646D01*
X134045646Y-147255147D01*
X134193216Y-147156544D01*
X134357188Y-147088624D01*
X134506488Y-147058927D01*
X134531258Y-147054000D01*
X134708742Y-147054000D01*
X134733512Y-147058927D01*
G37*
G36*
X137273512Y-147058927D02*
G01*
X137422812Y-147088624D01*
X137586784Y-147156544D01*
X137734354Y-147255147D01*
X137859853Y-147380646D01*
X137958456Y-147528216D01*
X138026376Y-147692188D01*
X138061000Y-147866259D01*
X138061000Y-148043741D01*
X138026376Y-148217812D01*
X137958456Y-148381784D01*
X137859853Y-148529354D01*
X137734354Y-148654853D01*
X137586784Y-148753456D01*
X137422812Y-148821376D01*
X137273512Y-148851073D01*
X137248742Y-148856000D01*
X137071258Y-148856000D01*
X137046488Y-148851073D01*
X136897188Y-148821376D01*
X136733216Y-148753456D01*
X136585646Y-148654853D01*
X136460147Y-148529354D01*
X136361544Y-148381784D01*
X136293624Y-148217812D01*
X136259000Y-148043741D01*
X136259000Y-147866259D01*
X136293624Y-147692188D01*
X136361544Y-147528216D01*
X136460147Y-147380646D01*
X136585646Y-147255147D01*
X136733216Y-147156544D01*
X136897188Y-147088624D01*
X137046488Y-147058927D01*
X137071258Y-147054000D01*
X137248742Y-147054000D01*
X137273512Y-147058927D01*
G37*
G36*
X139813512Y-147058927D02*
G01*
X139962812Y-147088624D01*
X140126784Y-147156544D01*
X140274354Y-147255147D01*
X140399853Y-147380646D01*
X140498456Y-147528216D01*
X140566376Y-147692188D01*
X140601000Y-147866259D01*
X140601000Y-148043741D01*
X140566376Y-148217812D01*
X140498456Y-148381784D01*
X140399853Y-148529354D01*
X140274354Y-148654853D01*
X140126784Y-148753456D01*
X139962812Y-148821376D01*
X139813512Y-148851073D01*
X139788742Y-148856000D01*
X139611258Y-148856000D01*
X139586488Y-148851073D01*
X139437188Y-148821376D01*
X139273216Y-148753456D01*
X139125646Y-148654853D01*
X139000147Y-148529354D01*
X138901544Y-148381784D01*
X138833624Y-148217812D01*
X138799000Y-148043741D01*
X138799000Y-147866259D01*
X138833624Y-147692188D01*
X138901544Y-147528216D01*
X139000147Y-147380646D01*
X139125646Y-147255147D01*
X139273216Y-147156544D01*
X139437188Y-147088624D01*
X139586488Y-147058927D01*
X139611258Y-147054000D01*
X139788742Y-147054000D01*
X139813512Y-147058927D01*
G37*
G36*
X95576971Y-141231204D02*
G01*
X95738871Y-141263408D01*
X96043883Y-141389748D01*
X96318387Y-141573166D01*
X96551834Y-141806613D01*
X96735252Y-142081117D01*
X96861592Y-142386129D01*
X96861592Y-142386130D01*
X96926000Y-142709927D01*
X96926000Y-143040073D01*
X96861592Y-143363871D01*
X96735252Y-143668883D01*
X96551834Y-143943387D01*
X96318387Y-144176834D01*
X96043883Y-144360252D01*
X95738871Y-144486592D01*
X95415073Y-144551000D01*
X95084927Y-144551000D01*
X94761129Y-144486592D01*
X94456117Y-144360252D01*
X94181613Y-144176834D01*
X93948166Y-143943387D01*
X93764748Y-143668883D01*
X93638408Y-143363871D01*
X93574000Y-143040073D01*
X93574000Y-142709927D01*
X93638408Y-142386130D01*
X93638408Y-142386129D01*
X93764748Y-142081117D01*
X93948166Y-141806613D01*
X94181613Y-141573166D01*
X94456117Y-141389748D01*
X94761129Y-141263408D01*
X94923029Y-141231204D01*
X95084927Y-141199000D01*
X95415073Y-141199000D01*
X95576971Y-141231204D01*
G37*
G36*
X112975971Y-141231204D02*
G01*
X113137871Y-141263408D01*
X113442883Y-141389748D01*
X113717387Y-141573166D01*
X113950834Y-141806613D01*
X114134252Y-142081117D01*
X114260592Y-142386129D01*
X114260592Y-142386130D01*
X114325000Y-142709927D01*
X114325000Y-143040073D01*
X114260592Y-143363871D01*
X114134252Y-143668883D01*
X113950834Y-143943387D01*
X113717387Y-144176834D01*
X113442883Y-144360252D01*
X113137871Y-144486592D01*
X112814073Y-144551000D01*
X112483927Y-144551000D01*
X112160129Y-144486592D01*
X111855117Y-144360252D01*
X111580613Y-144176834D01*
X111347166Y-143943387D01*
X111163748Y-143668883D01*
X111037408Y-143363871D01*
X110973000Y-143040073D01*
X110973000Y-142709927D01*
X111037408Y-142386130D01*
X111037408Y-142386129D01*
X111163748Y-142081117D01*
X111347166Y-141806613D01*
X111580613Y-141573166D01*
X111855117Y-141389748D01*
X112160129Y-141263408D01*
X112322029Y-141231204D01*
X112483927Y-141199000D01*
X112814073Y-141199000D01*
X112975971Y-141231204D01*
G37*
G36*
X155415500Y-141326500D02*
G01*
X155274945Y-141326500D01*
X155250559Y-141328902D01*
X155227110Y-141336015D01*
X155205499Y-141347566D01*
X155186557Y-141363111D01*
X155171012Y-141382053D01*
X155159461Y-141403664D01*
X155152348Y-141427113D01*
X155149946Y-141451499D01*
X155152348Y-141475885D01*
X155159461Y-141499334D01*
X155171012Y-141520945D01*
X155186557Y-141539887D01*
X155205499Y-141555432D01*
X155216021Y-141561738D01*
X155407055Y-141663847D01*
X155582318Y-141807682D01*
X155726153Y-141982945D01*
X155833029Y-142182898D01*
X155833030Y-142182900D01*
X155898846Y-142399865D01*
X155898846Y-142399866D01*
X155921069Y-142625500D01*
X155898846Y-142851134D01*
X155833029Y-143068102D01*
X155726153Y-143268055D01*
X155582318Y-143443318D01*
X155407055Y-143587153D01*
X155254149Y-143668882D01*
X155207100Y-143694030D01*
X154990135Y-143759846D01*
X154933771Y-143765397D01*
X154821045Y-143776500D01*
X153407955Y-143776500D01*
X153295229Y-143765397D01*
X153238865Y-143759846D01*
X153021900Y-143694030D01*
X152974851Y-143668882D01*
X152821945Y-143587153D01*
X152646682Y-143443318D01*
X152502847Y-143268055D01*
X152395971Y-143068102D01*
X152330154Y-142851134D01*
X152307931Y-142625500D01*
X152330154Y-142399866D01*
X152330154Y-142399865D01*
X152395970Y-142182900D01*
X152395971Y-142182898D01*
X152502847Y-141982945D01*
X152646682Y-141807682D01*
X152821945Y-141663847D01*
X153012979Y-141561738D01*
X153033353Y-141548125D01*
X153050680Y-141530798D01*
X153064294Y-141510423D01*
X153073672Y-141487785D01*
X153078452Y-141463751D01*
X153078452Y-141439247D01*
X153073672Y-141415214D01*
X153064294Y-141392575D01*
X153050681Y-141372201D01*
X153033354Y-141354874D01*
X153012979Y-141341260D01*
X152990341Y-141331882D01*
X152966307Y-141327102D01*
X152954055Y-141326500D01*
X152813500Y-141326500D01*
X152813500Y-139724500D01*
X155415500Y-139724500D01*
X155415500Y-141326500D01*
G37*
G36*
X123710000Y-143204500D02*
G01*
X121908000Y-143204500D01*
X121908000Y-141402500D01*
X123710000Y-141402500D01*
X123710000Y-143204500D01*
G37*
G36*
X122922512Y-138867427D02*
G01*
X123071812Y-138897124D01*
X123235784Y-138965044D01*
X123383354Y-139063647D01*
X123508853Y-139189146D01*
X123607456Y-139336716D01*
X123675376Y-139500688D01*
X123710000Y-139674759D01*
X123710000Y-139852241D01*
X123675376Y-140026312D01*
X123607456Y-140190284D01*
X123508853Y-140337854D01*
X123383354Y-140463353D01*
X123235784Y-140561956D01*
X123071812Y-140629876D01*
X122922512Y-140659573D01*
X122897742Y-140664500D01*
X122720258Y-140664500D01*
X122695488Y-140659573D01*
X122546188Y-140629876D01*
X122382216Y-140561956D01*
X122234646Y-140463353D01*
X122109147Y-140337854D01*
X122010544Y-140190284D01*
X121942624Y-140026312D01*
X121908000Y-139852241D01*
X121908000Y-139674759D01*
X121942624Y-139500688D01*
X122010544Y-139336716D01*
X122109147Y-139189146D01*
X122234646Y-139063647D01*
X122382216Y-138965044D01*
X122546188Y-138897124D01*
X122695488Y-138867427D01*
X122720258Y-138862500D01*
X122897742Y-138862500D01*
X122922512Y-138867427D01*
G37*
G36*
X117906585Y-136273802D02*
G01*
X118056410Y-136303604D01*
X118338674Y-136420521D01*
X118592705Y-136590259D01*
X118808741Y-136806295D01*
X118978479Y-137060326D01*
X119095396Y-137342590D01*
X119155000Y-137642240D01*
X119155000Y-137947760D01*
X119095396Y-138247410D01*
X118978479Y-138529674D01*
X118808741Y-138783705D01*
X118592705Y-138999741D01*
X118338674Y-139169479D01*
X118056410Y-139286396D01*
X117913060Y-139314910D01*
X117756761Y-139346000D01*
X117451239Y-139346000D01*
X117294940Y-139314910D01*
X117151590Y-139286396D01*
X116869326Y-139169479D01*
X116615295Y-138999741D01*
X116399259Y-138783705D01*
X116229521Y-138529674D01*
X116112604Y-138247410D01*
X116053000Y-137947760D01*
X116053000Y-137642240D01*
X116112604Y-137342590D01*
X116229521Y-137060326D01*
X116399259Y-136806295D01*
X116615295Y-136590259D01*
X116869326Y-136420521D01*
X117151590Y-136303604D01*
X117301415Y-136273802D01*
X117451239Y-136244000D01*
X117756761Y-136244000D01*
X117906585Y-136273802D01*
G37*
G36*
X107996585Y-136273802D02*
G01*
X108146410Y-136303604D01*
X108428674Y-136420521D01*
X108682705Y-136590259D01*
X108898741Y-136806295D01*
X109068479Y-137060326D01*
X109185396Y-137342590D01*
X109245000Y-137642240D01*
X109245000Y-137947760D01*
X109185396Y-138247410D01*
X109068479Y-138529674D01*
X108898741Y-138783705D01*
X108682705Y-138999741D01*
X108428674Y-139169479D01*
X108146410Y-139286396D01*
X108003060Y-139314910D01*
X107846761Y-139346000D01*
X107541239Y-139346000D01*
X107384940Y-139314910D01*
X107241590Y-139286396D01*
X106959326Y-139169479D01*
X106705295Y-138999741D01*
X106489259Y-138783705D01*
X106319521Y-138529674D01*
X106202604Y-138247410D01*
X106143000Y-137947760D01*
X106143000Y-137642240D01*
X106202604Y-137342590D01*
X106319521Y-137060326D01*
X106489259Y-136806295D01*
X106705295Y-136590259D01*
X106959326Y-136420521D01*
X107241590Y-136303604D01*
X107391415Y-136273802D01*
X107541239Y-136244000D01*
X107846761Y-136244000D01*
X107996585Y-136273802D01*
G37*
G36*
X100507585Y-136273802D02*
G01*
X100657410Y-136303604D01*
X100939674Y-136420521D01*
X101193705Y-136590259D01*
X101409741Y-136806295D01*
X101579479Y-137060326D01*
X101696396Y-137342590D01*
X101756000Y-137642240D01*
X101756000Y-137947760D01*
X101696396Y-138247410D01*
X101579479Y-138529674D01*
X101409741Y-138783705D01*
X101193705Y-138999741D01*
X100939674Y-139169479D01*
X100657410Y-139286396D01*
X100514060Y-139314910D01*
X100357761Y-139346000D01*
X100052239Y-139346000D01*
X99895940Y-139314910D01*
X99752590Y-139286396D01*
X99470326Y-139169479D01*
X99216295Y-138999741D01*
X99000259Y-138783705D01*
X98830521Y-138529674D01*
X98713604Y-138247410D01*
X98654000Y-137947760D01*
X98654000Y-137642240D01*
X98713604Y-137342590D01*
X98830521Y-137060326D01*
X99000259Y-136806295D01*
X99216295Y-136590259D01*
X99470326Y-136420521D01*
X99752590Y-136303604D01*
X99902415Y-136273802D01*
X100052239Y-136244000D01*
X100357761Y-136244000D01*
X100507585Y-136273802D01*
G37*
G36*
X90597585Y-136273802D02*
G01*
X90747410Y-136303604D01*
X91029674Y-136420521D01*
X91283705Y-136590259D01*
X91499741Y-136806295D01*
X91669479Y-137060326D01*
X91786396Y-137342590D01*
X91846000Y-137642240D01*
X91846000Y-137947760D01*
X91786396Y-138247410D01*
X91669479Y-138529674D01*
X91499741Y-138783705D01*
X91283705Y-138999741D01*
X91029674Y-139169479D01*
X90747410Y-139286396D01*
X90604060Y-139314910D01*
X90447761Y-139346000D01*
X90142239Y-139346000D01*
X89985940Y-139314910D01*
X89842590Y-139286396D01*
X89560326Y-139169479D01*
X89306295Y-138999741D01*
X89090259Y-138783705D01*
X88920521Y-138529674D01*
X88803604Y-138247410D01*
X88744000Y-137947760D01*
X88744000Y-137642240D01*
X88803604Y-137342590D01*
X88920521Y-137060326D01*
X89090259Y-136806295D01*
X89306295Y-136590259D01*
X89560326Y-136420521D01*
X89842590Y-136303604D01*
X89992415Y-136273802D01*
X90142239Y-136244000D01*
X90447761Y-136244000D01*
X90597585Y-136273802D01*
G37*
G36*
X154693071Y-137728363D02*
G01*
X154771523Y-137736090D01*
X154872182Y-137766625D01*
X154922513Y-137781892D01*
X155061665Y-137856271D01*
X155183633Y-137956367D01*
X155283729Y-138078335D01*
X155358108Y-138217487D01*
X155367185Y-138247410D01*
X155403910Y-138368477D01*
X155419375Y-138525500D01*
X155403910Y-138682523D01*
X155373375Y-138783182D01*
X155358108Y-138833513D01*
X155283729Y-138972665D01*
X155183633Y-139094633D01*
X155061665Y-139194729D01*
X154922513Y-139269108D01*
X154872182Y-139284375D01*
X154771523Y-139314910D01*
X154693071Y-139322637D01*
X154653846Y-139326500D01*
X153575154Y-139326500D01*
X153535929Y-139322637D01*
X153457477Y-139314910D01*
X153356818Y-139284375D01*
X153306487Y-139269108D01*
X153167335Y-139194729D01*
X153045367Y-139094633D01*
X152945271Y-138972665D01*
X152870892Y-138833513D01*
X152855625Y-138783182D01*
X152825090Y-138682523D01*
X152809625Y-138525500D01*
X152825090Y-138368477D01*
X152861815Y-138247410D01*
X152870892Y-138217487D01*
X152945271Y-138078335D01*
X153045367Y-137956367D01*
X153167335Y-137856271D01*
X153306487Y-137781892D01*
X153356818Y-137766625D01*
X153457477Y-137736090D01*
X153535929Y-137728363D01*
X153575154Y-137724500D01*
X154653846Y-137724500D01*
X154693071Y-137728363D01*
G37*
G36*
X122922512Y-136327427D02*
G01*
X123071812Y-136357124D01*
X123235784Y-136425044D01*
X123383354Y-136523647D01*
X123508853Y-136649146D01*
X123607456Y-136796716D01*
X123675376Y-136960688D01*
X123710000Y-137134759D01*
X123710000Y-137312241D01*
X123675376Y-137486312D01*
X123607456Y-137650284D01*
X123508853Y-137797854D01*
X123383354Y-137923353D01*
X123235784Y-138021956D01*
X123071812Y-138089876D01*
X122922512Y-138119573D01*
X122897742Y-138124500D01*
X122720258Y-138124500D01*
X122695488Y-138119573D01*
X122546188Y-138089876D01*
X122382216Y-138021956D01*
X122234646Y-137923353D01*
X122109147Y-137797854D01*
X122010544Y-137650284D01*
X121942624Y-137486312D01*
X121908000Y-137312241D01*
X121908000Y-137134759D01*
X121942624Y-136960688D01*
X122010544Y-136796716D01*
X122109147Y-136649146D01*
X122234646Y-136523647D01*
X122382216Y-136425044D01*
X122546188Y-136357124D01*
X122695488Y-136327427D01*
X122720258Y-136322500D01*
X122897742Y-136322500D01*
X122922512Y-136327427D01*
G37*
G36*
X154933771Y-133285603D02*
G01*
X154990135Y-133291154D01*
X155207100Y-133356970D01*
X155207102Y-133356971D01*
X155407055Y-133463847D01*
X155582318Y-133607682D01*
X155726153Y-133782945D01*
X155744422Y-133817125D01*
X155833030Y-133982900D01*
X155898846Y-134199865D01*
X155921069Y-134425500D01*
X155898846Y-134651135D01*
X155862109Y-134772241D01*
X155833029Y-134868102D01*
X155726153Y-135068055D01*
X155582318Y-135243318D01*
X155407055Y-135387153D01*
X155229689Y-135481956D01*
X155207100Y-135494030D01*
X154990135Y-135559846D01*
X154990131Y-135559846D01*
X154988016Y-135560488D01*
X154968303Y-135564409D01*
X154945664Y-135573785D01*
X154925290Y-135587399D01*
X154907962Y-135604725D01*
X154894348Y-135625099D01*
X154884970Y-135647738D01*
X154880189Y-135671771D01*
X154880189Y-135696275D01*
X154884969Y-135720309D01*
X154894345Y-135742948D01*
X154907959Y-135763322D01*
X154925285Y-135780650D01*
X154945661Y-135794265D01*
X155061665Y-135856271D01*
X155183633Y-135956367D01*
X155283729Y-136078335D01*
X155358108Y-136217487D01*
X155358108Y-136217488D01*
X155403910Y-136368477D01*
X155419375Y-136525500D01*
X155403910Y-136682523D01*
X155373375Y-136783182D01*
X155358108Y-136833513D01*
X155283729Y-136972665D01*
X155183633Y-137094633D01*
X155061665Y-137194729D01*
X154922513Y-137269108D01*
X154872182Y-137284375D01*
X154771523Y-137314910D01*
X154693071Y-137322637D01*
X154653846Y-137326500D01*
X153575154Y-137326500D01*
X153535929Y-137322637D01*
X153457477Y-137314910D01*
X153356818Y-137284375D01*
X153306487Y-137269108D01*
X153167335Y-137194729D01*
X153045367Y-137094633D01*
X152945271Y-136972665D01*
X152870892Y-136833513D01*
X152855625Y-136783182D01*
X152825090Y-136682523D01*
X152809625Y-136525500D01*
X152825090Y-136368477D01*
X152870892Y-136217488D01*
X152870892Y-136217487D01*
X152945271Y-136078335D01*
X153045367Y-135956367D01*
X153167335Y-135856271D01*
X153283339Y-135794265D01*
X153303713Y-135780651D01*
X153321040Y-135763324D01*
X153334654Y-135742950D01*
X153344031Y-135720311D01*
X153348811Y-135696277D01*
X153348811Y-135671773D01*
X153344030Y-135647740D01*
X153334653Y-135625101D01*
X153321039Y-135604727D01*
X153303712Y-135587400D01*
X153283338Y-135573786D01*
X153260699Y-135564409D01*
X153240984Y-135560488D01*
X153238869Y-135559846D01*
X153238865Y-135559846D01*
X153021900Y-135494030D01*
X152999311Y-135481956D01*
X152821945Y-135387153D01*
X152646682Y-135243318D01*
X152502847Y-135068055D01*
X152395971Y-134868102D01*
X152366892Y-134772241D01*
X152330154Y-134651135D01*
X152307931Y-134425500D01*
X152330154Y-134199865D01*
X152395970Y-133982900D01*
X152484578Y-133817125D01*
X152502847Y-133782945D01*
X152646682Y-133607682D01*
X152821945Y-133463847D01*
X153021898Y-133356971D01*
X153021900Y-133356970D01*
X153238865Y-133291154D01*
X153295229Y-133285603D01*
X153407955Y-133274500D01*
X154821045Y-133274500D01*
X154933771Y-133285603D01*
G37*
G36*
X122922512Y-133787427D02*
G01*
X123071812Y-133817124D01*
X123235784Y-133885044D01*
X123383354Y-133983647D01*
X123508853Y-134109146D01*
X123607456Y-134256716D01*
X123675376Y-134420688D01*
X123710000Y-134594759D01*
X123710000Y-134772241D01*
X123675376Y-134946312D01*
X123607456Y-135110284D01*
X123508853Y-135257854D01*
X123383354Y-135383353D01*
X123235784Y-135481956D01*
X123071812Y-135549876D01*
X122922512Y-135579573D01*
X122897742Y-135584500D01*
X122720258Y-135584500D01*
X122695488Y-135579573D01*
X122546188Y-135549876D01*
X122382216Y-135481956D01*
X122234646Y-135383353D01*
X122109147Y-135257854D01*
X122010544Y-135110284D01*
X121942624Y-134946312D01*
X121908000Y-134772241D01*
X121908000Y-134594759D01*
X121942624Y-134420688D01*
X122010544Y-134256716D01*
X122109147Y-134109146D01*
X122234646Y-133983647D01*
X122382216Y-133885044D01*
X122546188Y-133817124D01*
X122695488Y-133787427D01*
X122720258Y-133782500D01*
X122897742Y-133782500D01*
X122922512Y-133787427D01*
G37*
G36*
X129653512Y-129278927D02*
G01*
X129802812Y-129308624D01*
X129966784Y-129376544D01*
X130114354Y-129475147D01*
X130239853Y-129600646D01*
X130338456Y-129748216D01*
X130406376Y-129912188D01*
X130441000Y-130086259D01*
X130441000Y-130263741D01*
X130406376Y-130437812D01*
X130338456Y-130601784D01*
X130239853Y-130749354D01*
X130114354Y-130874853D01*
X129966784Y-130973456D01*
X129802812Y-131041376D01*
X129653512Y-131071073D01*
X129628742Y-131076000D01*
X129451258Y-131076000D01*
X129426488Y-131071073D01*
X129277188Y-131041376D01*
X129113216Y-130973456D01*
X128965646Y-130874853D01*
X128840147Y-130749354D01*
X128741544Y-130601784D01*
X128673624Y-130437812D01*
X128639000Y-130263741D01*
X128639000Y-130086259D01*
X128673624Y-129912188D01*
X128741544Y-129748216D01*
X128840147Y-129600646D01*
X128965646Y-129475147D01*
X129113216Y-129376544D01*
X129277188Y-129308624D01*
X129426488Y-129278927D01*
X129451258Y-129274000D01*
X129628742Y-129274000D01*
X129653512Y-129278927D01*
G37*
G36*
X137273512Y-129278927D02*
G01*
X137422812Y-129308624D01*
X137586784Y-129376544D01*
X137734354Y-129475147D01*
X137859853Y-129600646D01*
X137958456Y-129748216D01*
X138026376Y-129912188D01*
X138061000Y-130086259D01*
X138061000Y-130263741D01*
X138026376Y-130437812D01*
X137958456Y-130601784D01*
X137859853Y-130749354D01*
X137734354Y-130874853D01*
X137586784Y-130973456D01*
X137422812Y-131041376D01*
X137273512Y-131071073D01*
X137248742Y-131076000D01*
X137071258Y-131076000D01*
X137046488Y-131071073D01*
X136897188Y-131041376D01*
X136733216Y-130973456D01*
X136585646Y-130874853D01*
X136460147Y-130749354D01*
X136361544Y-130601784D01*
X136293624Y-130437812D01*
X136259000Y-130263741D01*
X136259000Y-130086259D01*
X136293624Y-129912188D01*
X136361544Y-129748216D01*
X136460147Y-129600646D01*
X136585646Y-129475147D01*
X136733216Y-129376544D01*
X136897188Y-129308624D01*
X137046488Y-129278927D01*
X137071258Y-129274000D01*
X137248742Y-129274000D01*
X137273512Y-129278927D01*
G37*
G36*
X127113512Y-129278927D02*
G01*
X127262812Y-129308624D01*
X127426784Y-129376544D01*
X127574354Y-129475147D01*
X127699853Y-129600646D01*
X127798456Y-129748216D01*
X127866376Y-129912188D01*
X127901000Y-130086259D01*
X127901000Y-130263741D01*
X127866376Y-130437812D01*
X127798456Y-130601784D01*
X127699853Y-130749354D01*
X127574354Y-130874853D01*
X127426784Y-130973456D01*
X127262812Y-131041376D01*
X127113512Y-131071073D01*
X127088742Y-131076000D01*
X126911258Y-131076000D01*
X126886488Y-131071073D01*
X126737188Y-131041376D01*
X126573216Y-130973456D01*
X126425646Y-130874853D01*
X126300147Y-130749354D01*
X126201544Y-130601784D01*
X126133624Y-130437812D01*
X126099000Y-130263741D01*
X126099000Y-130086259D01*
X126133624Y-129912188D01*
X126201544Y-129748216D01*
X126300147Y-129600646D01*
X126425646Y-129475147D01*
X126573216Y-129376544D01*
X126737188Y-129308624D01*
X126886488Y-129278927D01*
X126911258Y-129274000D01*
X127088742Y-129274000D01*
X127113512Y-129278927D01*
G37*
G36*
X124573512Y-129278927D02*
G01*
X124722812Y-129308624D01*
X124886784Y-129376544D01*
X125034354Y-129475147D01*
X125159853Y-129600646D01*
X125258456Y-129748216D01*
X125326376Y-129912188D01*
X125361000Y-130086259D01*
X125361000Y-130263741D01*
X125326376Y-130437812D01*
X125258456Y-130601784D01*
X125159853Y-130749354D01*
X125034354Y-130874853D01*
X124886784Y-130973456D01*
X124722812Y-131041376D01*
X124573512Y-131071073D01*
X124548742Y-131076000D01*
X124371258Y-131076000D01*
X124346488Y-131071073D01*
X124197188Y-131041376D01*
X124033216Y-130973456D01*
X123885646Y-130874853D01*
X123760147Y-130749354D01*
X123661544Y-130601784D01*
X123593624Y-130437812D01*
X123559000Y-130263741D01*
X123559000Y-130086259D01*
X123593624Y-129912188D01*
X123661544Y-129748216D01*
X123760147Y-129600646D01*
X123885646Y-129475147D01*
X124033216Y-129376544D01*
X124197188Y-129308624D01*
X124346488Y-129278927D01*
X124371258Y-129274000D01*
X124548742Y-129274000D01*
X124573512Y-129278927D01*
G37*
G36*
X122033512Y-129278927D02*
G01*
X122182812Y-129308624D01*
X122346784Y-129376544D01*
X122494354Y-129475147D01*
X122619853Y-129600646D01*
X122718456Y-129748216D01*
X122786376Y-129912188D01*
X122821000Y-130086259D01*
X122821000Y-130263741D01*
X122786376Y-130437812D01*
X122718456Y-130601784D01*
X122619853Y-130749354D01*
X122494354Y-130874853D01*
X122346784Y-130973456D01*
X122182812Y-131041376D01*
X122033512Y-131071073D01*
X122008742Y-131076000D01*
X121831258Y-131076000D01*
X121806488Y-131071073D01*
X121657188Y-131041376D01*
X121493216Y-130973456D01*
X121345646Y-130874853D01*
X121220147Y-130749354D01*
X121121544Y-130601784D01*
X121053624Y-130437812D01*
X121019000Y-130263741D01*
X121019000Y-130086259D01*
X121053624Y-129912188D01*
X121121544Y-129748216D01*
X121220147Y-129600646D01*
X121345646Y-129475147D01*
X121493216Y-129376544D01*
X121657188Y-129308624D01*
X121806488Y-129278927D01*
X121831258Y-129274000D01*
X122008742Y-129274000D01*
X122033512Y-129278927D01*
G37*
G36*
X116953512Y-129278927D02*
G01*
X117102812Y-129308624D01*
X117266784Y-129376544D01*
X117414354Y-129475147D01*
X117539853Y-129600646D01*
X117638456Y-129748216D01*
X117706376Y-129912188D01*
X117741000Y-130086259D01*
X117741000Y-130263741D01*
X117706376Y-130437812D01*
X117638456Y-130601784D01*
X117539853Y-130749354D01*
X117414354Y-130874853D01*
X117266784Y-130973456D01*
X117102812Y-131041376D01*
X116953512Y-131071073D01*
X116928742Y-131076000D01*
X116751258Y-131076000D01*
X116726488Y-131071073D01*
X116577188Y-131041376D01*
X116413216Y-130973456D01*
X116265646Y-130874853D01*
X116140147Y-130749354D01*
X116041544Y-130601784D01*
X115973624Y-130437812D01*
X115939000Y-130263741D01*
X115939000Y-130086259D01*
X115973624Y-129912188D01*
X116041544Y-129748216D01*
X116140147Y-129600646D01*
X116265646Y-129475147D01*
X116413216Y-129376544D01*
X116577188Y-129308624D01*
X116726488Y-129278927D01*
X116751258Y-129274000D01*
X116928742Y-129274000D01*
X116953512Y-129278927D01*
G37*
G36*
X114413512Y-129278927D02*
G01*
X114562812Y-129308624D01*
X114726784Y-129376544D01*
X114874354Y-129475147D01*
X114999853Y-129600646D01*
X115098456Y-129748216D01*
X115166376Y-129912188D01*
X115201000Y-130086259D01*
X115201000Y-130263741D01*
X115166376Y-130437812D01*
X115098456Y-130601784D01*
X114999853Y-130749354D01*
X114874354Y-130874853D01*
X114726784Y-130973456D01*
X114562812Y-131041376D01*
X114413512Y-131071073D01*
X114388742Y-131076000D01*
X114211258Y-131076000D01*
X114186488Y-131071073D01*
X114037188Y-131041376D01*
X113873216Y-130973456D01*
X113725646Y-130874853D01*
X113600147Y-130749354D01*
X113501544Y-130601784D01*
X113433624Y-130437812D01*
X113399000Y-130263741D01*
X113399000Y-130086259D01*
X113433624Y-129912188D01*
X113501544Y-129748216D01*
X113600147Y-129600646D01*
X113725646Y-129475147D01*
X113873216Y-129376544D01*
X114037188Y-129308624D01*
X114186488Y-129278927D01*
X114211258Y-129274000D01*
X114388742Y-129274000D01*
X114413512Y-129278927D01*
G37*
G36*
X112661000Y-131076000D02*
G01*
X110859000Y-131076000D01*
X110859000Y-129274000D01*
X112661000Y-129274000D01*
X112661000Y-131076000D01*
G37*
G36*
X155053512Y-129278927D02*
G01*
X155202812Y-129308624D01*
X155366784Y-129376544D01*
X155514354Y-129475147D01*
X155639853Y-129600646D01*
X155738456Y-129748216D01*
X155806376Y-129912188D01*
X155841000Y-130086259D01*
X155841000Y-130263741D01*
X155806376Y-130437812D01*
X155738456Y-130601784D01*
X155639853Y-130749354D01*
X155514354Y-130874853D01*
X155366784Y-130973456D01*
X155202812Y-131041376D01*
X155053512Y-131071073D01*
X155028742Y-131076000D01*
X154851258Y-131076000D01*
X154826488Y-131071073D01*
X154677188Y-131041376D01*
X154513216Y-130973456D01*
X154365646Y-130874853D01*
X154240147Y-130749354D01*
X154141544Y-130601784D01*
X154073624Y-130437812D01*
X154039000Y-130263741D01*
X154039000Y-130086259D01*
X154073624Y-129912188D01*
X154141544Y-129748216D01*
X154240147Y-129600646D01*
X154365646Y-129475147D01*
X154513216Y-129376544D01*
X154677188Y-129308624D01*
X154826488Y-129278927D01*
X154851258Y-129274000D01*
X155028742Y-129274000D01*
X155053512Y-129278927D01*
G37*
G36*
X132193512Y-129278927D02*
G01*
X132342812Y-129308624D01*
X132506784Y-129376544D01*
X132654354Y-129475147D01*
X132779853Y-129600646D01*
X132878456Y-129748216D01*
X132946376Y-129912188D01*
X132981000Y-130086259D01*
X132981000Y-130263741D01*
X132946376Y-130437812D01*
X132878456Y-130601784D01*
X132779853Y-130749354D01*
X132654354Y-130874853D01*
X132506784Y-130973456D01*
X132342812Y-131041376D01*
X132193512Y-131071073D01*
X132168742Y-131076000D01*
X131991258Y-131076000D01*
X131966488Y-131071073D01*
X131817188Y-131041376D01*
X131653216Y-130973456D01*
X131505646Y-130874853D01*
X131380147Y-130749354D01*
X131281544Y-130601784D01*
X131213624Y-130437812D01*
X131179000Y-130263741D01*
X131179000Y-130086259D01*
X131213624Y-129912188D01*
X131281544Y-129748216D01*
X131380147Y-129600646D01*
X131505646Y-129475147D01*
X131653216Y-129376544D01*
X131817188Y-129308624D01*
X131966488Y-129278927D01*
X131991258Y-129274000D01*
X132168742Y-129274000D01*
X132193512Y-129278927D01*
G37*
G36*
X134733512Y-129278927D02*
G01*
X134882812Y-129308624D01*
X135046784Y-129376544D01*
X135194354Y-129475147D01*
X135319853Y-129600646D01*
X135418456Y-129748216D01*
X135486376Y-129912188D01*
X135521000Y-130086259D01*
X135521000Y-130263741D01*
X135486376Y-130437812D01*
X135418456Y-130601784D01*
X135319853Y-130749354D01*
X135194354Y-130874853D01*
X135046784Y-130973456D01*
X134882812Y-131041376D01*
X134733512Y-131071073D01*
X134708742Y-131076000D01*
X134531258Y-131076000D01*
X134506488Y-131071073D01*
X134357188Y-131041376D01*
X134193216Y-130973456D01*
X134045646Y-130874853D01*
X133920147Y-130749354D01*
X133821544Y-130601784D01*
X133753624Y-130437812D01*
X133719000Y-130263741D01*
X133719000Y-130086259D01*
X133753624Y-129912188D01*
X133821544Y-129748216D01*
X133920147Y-129600646D01*
X134045646Y-129475147D01*
X134193216Y-129376544D01*
X134357188Y-129308624D01*
X134506488Y-129278927D01*
X134531258Y-129274000D01*
X134708742Y-129274000D01*
X134733512Y-129278927D01*
G37*
G36*
X139813512Y-129278927D02*
G01*
X139962812Y-129308624D01*
X140126784Y-129376544D01*
X140274354Y-129475147D01*
X140399853Y-129600646D01*
X140498456Y-129748216D01*
X140566376Y-129912188D01*
X140601000Y-130086259D01*
X140601000Y-130263741D01*
X140566376Y-130437812D01*
X140498456Y-130601784D01*
X140399853Y-130749354D01*
X140274354Y-130874853D01*
X140126784Y-130973456D01*
X139962812Y-131041376D01*
X139813512Y-131071073D01*
X139788742Y-131076000D01*
X139611258Y-131076000D01*
X139586488Y-131071073D01*
X139437188Y-131041376D01*
X139273216Y-130973456D01*
X139125646Y-130874853D01*
X139000147Y-130749354D01*
X138901544Y-130601784D01*
X138833624Y-130437812D01*
X138799000Y-130263741D01*
X138799000Y-130086259D01*
X138833624Y-129912188D01*
X138901544Y-129748216D01*
X139000147Y-129600646D01*
X139125646Y-129475147D01*
X139273216Y-129376544D01*
X139437188Y-129308624D01*
X139586488Y-129278927D01*
X139611258Y-129274000D01*
X139788742Y-129274000D01*
X139813512Y-129278927D01*
G37*
G36*
X142353512Y-129278927D02*
G01*
X142502812Y-129308624D01*
X142666784Y-129376544D01*
X142814354Y-129475147D01*
X142939853Y-129600646D01*
X143038456Y-129748216D01*
X143106376Y-129912188D01*
X143141000Y-130086259D01*
X143141000Y-130263741D01*
X143106376Y-130437812D01*
X143038456Y-130601784D01*
X142939853Y-130749354D01*
X142814354Y-130874853D01*
X142666784Y-130973456D01*
X142502812Y-131041376D01*
X142353512Y-131071073D01*
X142328742Y-131076000D01*
X142151258Y-131076000D01*
X142126488Y-131071073D01*
X141977188Y-131041376D01*
X141813216Y-130973456D01*
X141665646Y-130874853D01*
X141540147Y-130749354D01*
X141441544Y-130601784D01*
X141373624Y-130437812D01*
X141339000Y-130263741D01*
X141339000Y-130086259D01*
X141373624Y-129912188D01*
X141441544Y-129748216D01*
X141540147Y-129600646D01*
X141665646Y-129475147D01*
X141813216Y-129376544D01*
X141977188Y-129308624D01*
X142126488Y-129278927D01*
X142151258Y-129274000D01*
X142328742Y-129274000D01*
X142353512Y-129278927D01*
G37*
G36*
X144893512Y-129278927D02*
G01*
X145042812Y-129308624D01*
X145206784Y-129376544D01*
X145354354Y-129475147D01*
X145479853Y-129600646D01*
X145578456Y-129748216D01*
X145646376Y-129912188D01*
X145681000Y-130086259D01*
X145681000Y-130263741D01*
X145646376Y-130437812D01*
X145578456Y-130601784D01*
X145479853Y-130749354D01*
X145354354Y-130874853D01*
X145206784Y-130973456D01*
X145042812Y-131041376D01*
X144893512Y-131071073D01*
X144868742Y-131076000D01*
X144691258Y-131076000D01*
X144666488Y-131071073D01*
X144517188Y-131041376D01*
X144353216Y-130973456D01*
X144205646Y-130874853D01*
X144080147Y-130749354D01*
X143981544Y-130601784D01*
X143913624Y-130437812D01*
X143879000Y-130263741D01*
X143879000Y-130086259D01*
X143913624Y-129912188D01*
X143981544Y-129748216D01*
X144080147Y-129600646D01*
X144205646Y-129475147D01*
X144353216Y-129376544D01*
X144517188Y-129308624D01*
X144666488Y-129278927D01*
X144691258Y-129274000D01*
X144868742Y-129274000D01*
X144893512Y-129278927D01*
G37*
G36*
X147433512Y-129278927D02*
G01*
X147582812Y-129308624D01*
X147746784Y-129376544D01*
X147894354Y-129475147D01*
X148019853Y-129600646D01*
X148118456Y-129748216D01*
X148186376Y-129912188D01*
X148221000Y-130086259D01*
X148221000Y-130263741D01*
X148186376Y-130437812D01*
X148118456Y-130601784D01*
X148019853Y-130749354D01*
X147894354Y-130874853D01*
X147746784Y-130973456D01*
X147582812Y-131041376D01*
X147433512Y-131071073D01*
X147408742Y-131076000D01*
X147231258Y-131076000D01*
X147206488Y-131071073D01*
X147057188Y-131041376D01*
X146893216Y-130973456D01*
X146745646Y-130874853D01*
X146620147Y-130749354D01*
X146521544Y-130601784D01*
X146453624Y-130437812D01*
X146419000Y-130263741D01*
X146419000Y-130086259D01*
X146453624Y-129912188D01*
X146521544Y-129748216D01*
X146620147Y-129600646D01*
X146745646Y-129475147D01*
X146893216Y-129376544D01*
X147057188Y-129308624D01*
X147206488Y-129278927D01*
X147231258Y-129274000D01*
X147408742Y-129274000D01*
X147433512Y-129278927D01*
G37*
G36*
X149973512Y-129278927D02*
G01*
X150122812Y-129308624D01*
X150286784Y-129376544D01*
X150434354Y-129475147D01*
X150559853Y-129600646D01*
X150658456Y-129748216D01*
X150726376Y-129912188D01*
X150761000Y-130086259D01*
X150761000Y-130263741D01*
X150726376Y-130437812D01*
X150658456Y-130601784D01*
X150559853Y-130749354D01*
X150434354Y-130874853D01*
X150286784Y-130973456D01*
X150122812Y-131041376D01*
X149973512Y-131071073D01*
X149948742Y-131076000D01*
X149771258Y-131076000D01*
X149746488Y-131071073D01*
X149597188Y-131041376D01*
X149433216Y-130973456D01*
X149285646Y-130874853D01*
X149160147Y-130749354D01*
X149061544Y-130601784D01*
X148993624Y-130437812D01*
X148959000Y-130263741D01*
X148959000Y-130086259D01*
X148993624Y-129912188D01*
X149061544Y-129748216D01*
X149160147Y-129600646D01*
X149285646Y-129475147D01*
X149433216Y-129376544D01*
X149597188Y-129308624D01*
X149746488Y-129278927D01*
X149771258Y-129274000D01*
X149948742Y-129274000D01*
X149973512Y-129278927D01*
G37*
G36*
X152513512Y-129278927D02*
G01*
X152662812Y-129308624D01*
X152826784Y-129376544D01*
X152974354Y-129475147D01*
X153099853Y-129600646D01*
X153198456Y-129748216D01*
X153266376Y-129912188D01*
X153301000Y-130086259D01*
X153301000Y-130263741D01*
X153266376Y-130437812D01*
X153198456Y-130601784D01*
X153099853Y-130749354D01*
X152974354Y-130874853D01*
X152826784Y-130973456D01*
X152662812Y-131041376D01*
X152513512Y-131071073D01*
X152488742Y-131076000D01*
X152311258Y-131076000D01*
X152286488Y-131071073D01*
X152137188Y-131041376D01*
X151973216Y-130973456D01*
X151825646Y-130874853D01*
X151700147Y-130749354D01*
X151601544Y-130601784D01*
X151533624Y-130437812D01*
X151499000Y-130263741D01*
X151499000Y-130086259D01*
X151533624Y-129912188D01*
X151601544Y-129748216D01*
X151700147Y-129600646D01*
X151825646Y-129475147D01*
X151973216Y-129376544D01*
X152137188Y-129308624D01*
X152286488Y-129278927D01*
X152311258Y-129274000D01*
X152488742Y-129274000D01*
X152513512Y-129278927D01*
G37*
G36*
X119493512Y-129278927D02*
G01*
X119642812Y-129308624D01*
X119806784Y-129376544D01*
X119954354Y-129475147D01*
X120079853Y-129600646D01*
X120178456Y-129748216D01*
X120246376Y-129912188D01*
X120281000Y-130086259D01*
X120281000Y-130263741D01*
X120246376Y-130437812D01*
X120178456Y-130601784D01*
X120079853Y-130749354D01*
X119954354Y-130874853D01*
X119806784Y-130973456D01*
X119642812Y-131041376D01*
X119493512Y-131071073D01*
X119468742Y-131076000D01*
X119291258Y-131076000D01*
X119266488Y-131071073D01*
X119117188Y-131041376D01*
X118953216Y-130973456D01*
X118805646Y-130874853D01*
X118680147Y-130749354D01*
X118581544Y-130601784D01*
X118513624Y-130437812D01*
X118479000Y-130263741D01*
X118479000Y-130086259D01*
X118513624Y-129912188D01*
X118581544Y-129748216D01*
X118680147Y-129600646D01*
X118805646Y-129475147D01*
X118953216Y-129376544D01*
X119117188Y-129308624D01*
X119266488Y-129278927D01*
X119291258Y-129274000D01*
X119468742Y-129274000D01*
X119493512Y-129278927D01*
G37*
G36*
X97732085Y-127547802D02*
G01*
X97881910Y-127577604D01*
X98164174Y-127694521D01*
X98418205Y-127864259D01*
X98634241Y-128080295D01*
X98803979Y-128334326D01*
X98920896Y-128616590D01*
X98980500Y-128916240D01*
X98980500Y-129221760D01*
X98920896Y-129521410D01*
X98803979Y-129803674D01*
X98634241Y-130057705D01*
X98418205Y-130273741D01*
X98164174Y-130443479D01*
X97881910Y-130560396D01*
X97732085Y-130590198D01*
X97582261Y-130620000D01*
X97276739Y-130620000D01*
X97126915Y-130590198D01*
X96977090Y-130560396D01*
X96694826Y-130443479D01*
X96440795Y-130273741D01*
X96224759Y-130057705D01*
X96055021Y-129803674D01*
X95938104Y-129521410D01*
X95878500Y-129221760D01*
X95878500Y-128916240D01*
X95938104Y-128616590D01*
X96055021Y-128334326D01*
X96224759Y-128080295D01*
X96440795Y-127864259D01*
X96694826Y-127694521D01*
X96977090Y-127577604D01*
X97126915Y-127547802D01*
X97276739Y-127518000D01*
X97582261Y-127518000D01*
X97732085Y-127547802D01*
G37*
G36*
X100387728Y-125180703D02*
G01*
X100542600Y-125244853D01*
X100681981Y-125337985D01*
X100800515Y-125456519D01*
X100893647Y-125595900D01*
X100957797Y-125750772D01*
X100990500Y-125915184D01*
X100990500Y-126082816D01*
X100957797Y-126247228D01*
X100893647Y-126402100D01*
X100800515Y-126541481D01*
X100681981Y-126660015D01*
X100542600Y-126753147D01*
X100387728Y-126817297D01*
X100223316Y-126850000D01*
X100055684Y-126850000D01*
X99891272Y-126817297D01*
X99736400Y-126753147D01*
X99597019Y-126660015D01*
X99478485Y-126541481D01*
X99385353Y-126402100D01*
X99321203Y-126247228D01*
X99288500Y-126082816D01*
X99288500Y-125915184D01*
X99321203Y-125750772D01*
X99385353Y-125595900D01*
X99478485Y-125456519D01*
X99597019Y-125337985D01*
X99736400Y-125244853D01*
X99891272Y-125180703D01*
X100055684Y-125148000D01*
X100223316Y-125148000D01*
X100387728Y-125180703D01*
G37*
G36*
X132806000Y-125186000D02*
G01*
X131354000Y-125186000D01*
X131354000Y-123734000D01*
X132806000Y-123734000D01*
X132806000Y-125186000D01*
G37*
G36*
X103872512Y-123182927D02*
G01*
X104021812Y-123212624D01*
X104185784Y-123280544D01*
X104333354Y-123379147D01*
X104458853Y-123504646D01*
X104557456Y-123652216D01*
X104625376Y-123816188D01*
X104660000Y-123990259D01*
X104660000Y-124167741D01*
X104625376Y-124341812D01*
X104557456Y-124505784D01*
X104458853Y-124653354D01*
X104333354Y-124778853D01*
X104185784Y-124877456D01*
X104021812Y-124945376D01*
X103872512Y-124975073D01*
X103847742Y-124980000D01*
X103670258Y-124980000D01*
X103645488Y-124975073D01*
X103496188Y-124945376D01*
X103332216Y-124877456D01*
X103184646Y-124778853D01*
X103059147Y-124653354D01*
X102960544Y-124505784D01*
X102892624Y-124341812D01*
X102858000Y-124167741D01*
X102858000Y-123990259D01*
X102892624Y-123816188D01*
X102960544Y-123652216D01*
X103059147Y-123504646D01*
X103184646Y-123379147D01*
X103332216Y-123280544D01*
X103496188Y-123212624D01*
X103645488Y-123182927D01*
X103670258Y-123178000D01*
X103847742Y-123178000D01*
X103872512Y-123182927D01*
G37*
G36*
X122549228Y-122879703D02*
G01*
X122704100Y-122943853D01*
X122843481Y-123036985D01*
X122962015Y-123155519D01*
X123055147Y-123294900D01*
X123119297Y-123449772D01*
X123152000Y-123614184D01*
X123152000Y-123781816D01*
X123119297Y-123946228D01*
X123055147Y-124101100D01*
X122962015Y-124240481D01*
X122843481Y-124359015D01*
X122704100Y-124452147D01*
X122549228Y-124516297D01*
X122384816Y-124549000D01*
X122217184Y-124549000D01*
X122052772Y-124516297D01*
X121897900Y-124452147D01*
X121758519Y-124359015D01*
X121639985Y-124240481D01*
X121546853Y-124101100D01*
X121482703Y-123946228D01*
X121450000Y-123781816D01*
X121450000Y-123614184D01*
X121482703Y-123449772D01*
X121546853Y-123294900D01*
X121639985Y-123155519D01*
X121758519Y-123036985D01*
X121897900Y-122943853D01*
X122052772Y-122879703D01*
X122217184Y-122847000D01*
X122384816Y-122847000D01*
X122549228Y-122879703D01*
G37*
G36*
X114929228Y-122879703D02*
G01*
X115084100Y-122943853D01*
X115223481Y-123036985D01*
X115342015Y-123155519D01*
X115435147Y-123294900D01*
X115499297Y-123449772D01*
X115532000Y-123614184D01*
X115532000Y-123781816D01*
X115499297Y-123946228D01*
X115435147Y-124101100D01*
X115342015Y-124240481D01*
X115223481Y-124359015D01*
X115084100Y-124452147D01*
X114929228Y-124516297D01*
X114764816Y-124549000D01*
X114597184Y-124549000D01*
X114432772Y-124516297D01*
X114277900Y-124452147D01*
X114138519Y-124359015D01*
X114019985Y-124240481D01*
X113926853Y-124101100D01*
X113862703Y-123946228D01*
X113830000Y-123781816D01*
X113830000Y-123614184D01*
X113862703Y-123449772D01*
X113926853Y-123294900D01*
X114019985Y-123155519D01*
X114138519Y-123036985D01*
X114277900Y-122943853D01*
X114432772Y-122879703D01*
X114597184Y-122847000D01*
X114764816Y-122847000D01*
X114929228Y-122879703D01*
G37*
G36*
X100387728Y-122680703D02*
G01*
X100542600Y-122744853D01*
X100681981Y-122837985D01*
X100800515Y-122956519D01*
X100893647Y-123095900D01*
X100957797Y-123250772D01*
X100990500Y-123415184D01*
X100990500Y-123582816D01*
X100957797Y-123747228D01*
X100893647Y-123902100D01*
X100800515Y-124041481D01*
X100681981Y-124160015D01*
X100542600Y-124253147D01*
X100387728Y-124317297D01*
X100223316Y-124350000D01*
X100055684Y-124350000D01*
X99891272Y-124317297D01*
X99736400Y-124253147D01*
X99597019Y-124160015D01*
X99478485Y-124041481D01*
X99385353Y-123902100D01*
X99321203Y-123747228D01*
X99288500Y-123582816D01*
X99288500Y-123415184D01*
X99321203Y-123250772D01*
X99385353Y-123095900D01*
X99478485Y-122956519D01*
X99597019Y-122837985D01*
X99736400Y-122744853D01*
X99891272Y-122680703D01*
X100055684Y-122648000D01*
X100223316Y-122648000D01*
X100387728Y-122680703D01*
G37*
G36*
X111973895Y-122212046D02*
G01*
X112146966Y-122283734D01*
X112203273Y-122321357D01*
X112302727Y-122387810D01*
X112435190Y-122520273D01*
X112435191Y-122520275D01*
X112539266Y-122676034D01*
X112610954Y-122849105D01*
X112647500Y-123032833D01*
X112647500Y-123220167D01*
X112610954Y-123403895D01*
X112539266Y-123576966D01*
X112539265Y-123576967D01*
X112435190Y-123732727D01*
X112302727Y-123865190D01*
X112247487Y-123902100D01*
X112146966Y-123969266D01*
X111973895Y-124040954D01*
X111790167Y-124077500D01*
X111602833Y-124077500D01*
X111419105Y-124040954D01*
X111246034Y-123969266D01*
X111145513Y-123902100D01*
X111090273Y-123865190D01*
X110957810Y-123732727D01*
X110853735Y-123576967D01*
X110853734Y-123576966D01*
X110782046Y-123403895D01*
X110745500Y-123220167D01*
X110745500Y-123032833D01*
X110782046Y-122849105D01*
X110853734Y-122676034D01*
X110957809Y-122520275D01*
X110957810Y-122520273D01*
X111090273Y-122387810D01*
X111189727Y-122321357D01*
X111246034Y-122283734D01*
X111419105Y-122212046D01*
X111602833Y-122175500D01*
X111790167Y-122175500D01*
X111973895Y-122212046D01*
G37*
G36*
X154868642Y-121784781D02*
G01*
X155014414Y-121845162D01*
X155014416Y-121845163D01*
X155145608Y-121932822D01*
X155257178Y-122044392D01*
X155334434Y-122160015D01*
X155344838Y-122175586D01*
X155405219Y-122321358D01*
X155436000Y-122476107D01*
X155436000Y-122633893D01*
X155405219Y-122788642D01*
X155380174Y-122849105D01*
X155344837Y-122934416D01*
X155257178Y-123065608D01*
X155145608Y-123177178D01*
X155014416Y-123264837D01*
X155014415Y-123264838D01*
X155014414Y-123264838D01*
X154868642Y-123325219D01*
X154713893Y-123356000D01*
X154556107Y-123356000D01*
X154401358Y-123325219D01*
X154255586Y-123264838D01*
X154255585Y-123264838D01*
X154255584Y-123264837D01*
X154124392Y-123177178D01*
X154012822Y-123065608D01*
X153925163Y-122934416D01*
X153889826Y-122849105D01*
X153864781Y-122788642D01*
X153834000Y-122633893D01*
X153834000Y-122476107D01*
X153864781Y-122321358D01*
X153925162Y-122175586D01*
X153935566Y-122160015D01*
X154012822Y-122044392D01*
X154124392Y-121932822D01*
X154255584Y-121845163D01*
X154255586Y-121845162D01*
X154401358Y-121784781D01*
X154556107Y-121754000D01*
X154713893Y-121754000D01*
X154868642Y-121784781D01*
G37*
G36*
X147868642Y-121784781D02*
G01*
X148014414Y-121845162D01*
X148014416Y-121845163D01*
X148145608Y-121932822D01*
X148257178Y-122044392D01*
X148334434Y-122160015D01*
X148344838Y-122175586D01*
X148405219Y-122321358D01*
X148436000Y-122476107D01*
X148436000Y-122633893D01*
X148405219Y-122788642D01*
X148380174Y-122849105D01*
X148344837Y-122934416D01*
X148257178Y-123065608D01*
X148145608Y-123177178D01*
X148014416Y-123264837D01*
X148014415Y-123264838D01*
X148014414Y-123264838D01*
X147868642Y-123325219D01*
X147713893Y-123356000D01*
X147556107Y-123356000D01*
X147401358Y-123325219D01*
X147255586Y-123264838D01*
X147255585Y-123264838D01*
X147255584Y-123264837D01*
X147124392Y-123177178D01*
X147012822Y-123065608D01*
X146925163Y-122934416D01*
X146889826Y-122849105D01*
X146864781Y-122788642D01*
X146834000Y-122633893D01*
X146834000Y-122476107D01*
X146864781Y-122321358D01*
X146925162Y-122175586D01*
X146935566Y-122160015D01*
X147012822Y-122044392D01*
X147124392Y-121932822D01*
X147255584Y-121845163D01*
X147255586Y-121845162D01*
X147401358Y-121784781D01*
X147556107Y-121754000D01*
X147713893Y-121754000D01*
X147868642Y-121784781D01*
G37*
G36*
X103872512Y-120642927D02*
G01*
X104021812Y-120672624D01*
X104185784Y-120740544D01*
X104333354Y-120839147D01*
X104458853Y-120964646D01*
X104557456Y-121112216D01*
X104625376Y-121276188D01*
X104660000Y-121450259D01*
X104660000Y-121627741D01*
X104625376Y-121801812D01*
X104557456Y-121965784D01*
X104458853Y-122113354D01*
X104333354Y-122238853D01*
X104185784Y-122337456D01*
X104021812Y-122405376D01*
X103872512Y-122435073D01*
X103847742Y-122440000D01*
X103670258Y-122440000D01*
X103645488Y-122435073D01*
X103496188Y-122405376D01*
X103332216Y-122337456D01*
X103184646Y-122238853D01*
X103059147Y-122113354D01*
X102960544Y-121965784D01*
X102892624Y-121801812D01*
X102858000Y-121627741D01*
X102858000Y-121450259D01*
X102892624Y-121276188D01*
X102960544Y-121112216D01*
X103059147Y-120964646D01*
X103184646Y-120839147D01*
X103332216Y-120740544D01*
X103496188Y-120672624D01*
X103645488Y-120642927D01*
X103670258Y-120638000D01*
X103847742Y-120638000D01*
X103872512Y-120642927D01*
G37*
G36*
X100387728Y-120680703D02*
G01*
X100542600Y-120744853D01*
X100681981Y-120837985D01*
X100800515Y-120956519D01*
X100893647Y-121095900D01*
X100957797Y-121250772D01*
X100990500Y-121415184D01*
X100990500Y-121582816D01*
X100957797Y-121747228D01*
X100893647Y-121902100D01*
X100800515Y-122041481D01*
X100681981Y-122160015D01*
X100542600Y-122253147D01*
X100387728Y-122317297D01*
X100223316Y-122350000D01*
X100055684Y-122350000D01*
X99891272Y-122317297D01*
X99736400Y-122253147D01*
X99597019Y-122160015D01*
X99478485Y-122041481D01*
X99385353Y-121902100D01*
X99321203Y-121747228D01*
X99288500Y-121582816D01*
X99288500Y-121415184D01*
X99321203Y-121250772D01*
X99385353Y-121095900D01*
X99478485Y-120956519D01*
X99597019Y-120837985D01*
X99736400Y-120744853D01*
X99891272Y-120680703D01*
X100055684Y-120648000D01*
X100223316Y-120648000D01*
X100387728Y-120680703D01*
G37*
G36*
X114929228Y-120339703D02*
G01*
X115084100Y-120403853D01*
X115223481Y-120496985D01*
X115342015Y-120615519D01*
X115435147Y-120754900D01*
X115499297Y-120909772D01*
X115532000Y-121074184D01*
X115532000Y-121241816D01*
X115499297Y-121406228D01*
X115435147Y-121561100D01*
X115342015Y-121700481D01*
X115223481Y-121819015D01*
X115084100Y-121912147D01*
X114929228Y-121976297D01*
X114764816Y-122009000D01*
X114597184Y-122009000D01*
X114432772Y-121976297D01*
X114277900Y-121912147D01*
X114138519Y-121819015D01*
X114019985Y-121700481D01*
X113926853Y-121561100D01*
X113862703Y-121406228D01*
X113830000Y-121241816D01*
X113830000Y-121074184D01*
X113862703Y-120909772D01*
X113926853Y-120754900D01*
X114019985Y-120615519D01*
X114138519Y-120496985D01*
X114277900Y-120403853D01*
X114432772Y-120339703D01*
X114597184Y-120307000D01*
X114764816Y-120307000D01*
X114929228Y-120339703D01*
G37*
G36*
X122549228Y-120339703D02*
G01*
X122704100Y-120403853D01*
X122843481Y-120496985D01*
X122962015Y-120615519D01*
X123055147Y-120754900D01*
X123119297Y-120909772D01*
X123152000Y-121074184D01*
X123152000Y-121241816D01*
X123119297Y-121406228D01*
X123055147Y-121561100D01*
X122962015Y-121700481D01*
X122843481Y-121819015D01*
X122704100Y-121912147D01*
X122549228Y-121976297D01*
X122384816Y-122009000D01*
X122217184Y-122009000D01*
X122052772Y-121976297D01*
X121897900Y-121912147D01*
X121758519Y-121819015D01*
X121639985Y-121700481D01*
X121546853Y-121561100D01*
X121482703Y-121406228D01*
X121450000Y-121241816D01*
X121450000Y-121074184D01*
X121482703Y-120909772D01*
X121546853Y-120754900D01*
X121639985Y-120615519D01*
X121758519Y-120496985D01*
X121897900Y-120403853D01*
X122052772Y-120339703D01*
X122217184Y-120307000D01*
X122384816Y-120307000D01*
X122549228Y-120339703D01*
G37*
G36*
X112647500Y-121537500D02*
G01*
X110745500Y-121537500D01*
X110745500Y-119635500D01*
X112647500Y-119635500D01*
X112647500Y-121537500D01*
G37*
G36*
X104660000Y-119900000D02*
G01*
X102858000Y-119900000D01*
X102858000Y-118098000D01*
X104660000Y-118098000D01*
X104660000Y-119900000D01*
G37*
G36*
X100990500Y-119850000D02*
G01*
X99288500Y-119850000D01*
X99288500Y-118148000D01*
X100990500Y-118148000D01*
X100990500Y-119850000D01*
G37*
G36*
X115532000Y-119469000D02*
G01*
X113830000Y-119469000D01*
X113830000Y-117767000D01*
X115532000Y-117767000D01*
X115532000Y-119469000D01*
G37*
G36*
X122549228Y-117799703D02*
G01*
X122704100Y-117863853D01*
X122843481Y-117956985D01*
X122962015Y-118075519D01*
X123055147Y-118214900D01*
X123119297Y-118369772D01*
X123152000Y-118534184D01*
X123152000Y-118701816D01*
X123119297Y-118866228D01*
X123055147Y-119021100D01*
X122962015Y-119160481D01*
X122843481Y-119279015D01*
X122704100Y-119372147D01*
X122549228Y-119436297D01*
X122384816Y-119469000D01*
X122217184Y-119469000D01*
X122052772Y-119436297D01*
X121897900Y-119372147D01*
X121758519Y-119279015D01*
X121639985Y-119160481D01*
X121546853Y-119021100D01*
X121482703Y-118866228D01*
X121450000Y-118701816D01*
X121450000Y-118534184D01*
X121482703Y-118369772D01*
X121546853Y-118214900D01*
X121639985Y-118075519D01*
X121758519Y-117956985D01*
X121897900Y-117863853D01*
X122052772Y-117799703D01*
X122217184Y-117767000D01*
X122384816Y-117767000D01*
X122549228Y-117799703D01*
G37*
G36*
X97732085Y-114407802D02*
G01*
X97881910Y-114437604D01*
X98164174Y-114554521D01*
X98418205Y-114724259D01*
X98634241Y-114940295D01*
X98803979Y-115194326D01*
X98920896Y-115476590D01*
X98980500Y-115776240D01*
X98980500Y-116081760D01*
X98920896Y-116381410D01*
X98803979Y-116663674D01*
X98634241Y-116917705D01*
X98418205Y-117133741D01*
X98164174Y-117303479D01*
X97881910Y-117420396D01*
X97732085Y-117450198D01*
X97582261Y-117480000D01*
X97276739Y-117480000D01*
X97126915Y-117450198D01*
X96977090Y-117420396D01*
X96694826Y-117303479D01*
X96440795Y-117133741D01*
X96224759Y-116917705D01*
X96055021Y-116663674D01*
X95938104Y-116381410D01*
X95878500Y-116081760D01*
X95878500Y-115776240D01*
X95938104Y-115476590D01*
X96055021Y-115194326D01*
X96224759Y-114940295D01*
X96440795Y-114724259D01*
X96694826Y-114554521D01*
X96977090Y-114437604D01*
X97126915Y-114407802D01*
X97276739Y-114378000D01*
X97582261Y-114378000D01*
X97732085Y-114407802D01*
G37*
G36*
X155841000Y-115836000D02*
G01*
X154039000Y-115836000D01*
X154039000Y-114034000D01*
X155841000Y-114034000D01*
X155841000Y-115836000D01*
G37*
G36*
X152513512Y-114038927D02*
G01*
X152662812Y-114068624D01*
X152826784Y-114136544D01*
X152974354Y-114235147D01*
X153099853Y-114360646D01*
X153198456Y-114508216D01*
X153266376Y-114672188D01*
X153301000Y-114846259D01*
X153301000Y-115023741D01*
X153266376Y-115197812D01*
X153198456Y-115361784D01*
X153099853Y-115509354D01*
X152974354Y-115634853D01*
X152826784Y-115733456D01*
X152662812Y-115801376D01*
X152513512Y-115831073D01*
X152488742Y-115836000D01*
X152311258Y-115836000D01*
X152286488Y-115831073D01*
X152137188Y-115801376D01*
X151973216Y-115733456D01*
X151825646Y-115634853D01*
X151700147Y-115509354D01*
X151601544Y-115361784D01*
X151533624Y-115197812D01*
X151499000Y-115023741D01*
X151499000Y-114846259D01*
X151533624Y-114672188D01*
X151601544Y-114508216D01*
X151700147Y-114360646D01*
X151825646Y-114235147D01*
X151973216Y-114136544D01*
X152137188Y-114068624D01*
X152286488Y-114038927D01*
X152311258Y-114034000D01*
X152488742Y-114034000D01*
X152513512Y-114038927D01*
G37*
G36*
X149973512Y-114038927D02*
G01*
X150122812Y-114068624D01*
X150286784Y-114136544D01*
X150434354Y-114235147D01*
X150559853Y-114360646D01*
X150658456Y-114508216D01*
X150726376Y-114672188D01*
X150761000Y-114846259D01*
X150761000Y-115023741D01*
X150726376Y-115197812D01*
X150658456Y-115361784D01*
X150559853Y-115509354D01*
X150434354Y-115634853D01*
X150286784Y-115733456D01*
X150122812Y-115801376D01*
X149973512Y-115831073D01*
X149948742Y-115836000D01*
X149771258Y-115836000D01*
X149746488Y-115831073D01*
X149597188Y-115801376D01*
X149433216Y-115733456D01*
X149285646Y-115634853D01*
X149160147Y-115509354D01*
X149061544Y-115361784D01*
X148993624Y-115197812D01*
X148959000Y-115023741D01*
X148959000Y-114846259D01*
X148993624Y-114672188D01*
X149061544Y-114508216D01*
X149160147Y-114360646D01*
X149285646Y-114235147D01*
X149433216Y-114136544D01*
X149597188Y-114068624D01*
X149746488Y-114038927D01*
X149771258Y-114034000D01*
X149948742Y-114034000D01*
X149973512Y-114038927D01*
G37*
G36*
X147433512Y-114038927D02*
G01*
X147582812Y-114068624D01*
X147746784Y-114136544D01*
X147894354Y-114235147D01*
X148019853Y-114360646D01*
X148118456Y-114508216D01*
X148186376Y-114672188D01*
X148221000Y-114846259D01*
X148221000Y-115023741D01*
X148186376Y-115197812D01*
X148118456Y-115361784D01*
X148019853Y-115509354D01*
X147894354Y-115634853D01*
X147746784Y-115733456D01*
X147582812Y-115801376D01*
X147433512Y-115831073D01*
X147408742Y-115836000D01*
X147231258Y-115836000D01*
X147206488Y-115831073D01*
X147057188Y-115801376D01*
X146893216Y-115733456D01*
X146745646Y-115634853D01*
X146620147Y-115509354D01*
X146521544Y-115361784D01*
X146453624Y-115197812D01*
X146419000Y-115023741D01*
X146419000Y-114846259D01*
X146453624Y-114672188D01*
X146521544Y-114508216D01*
X146620147Y-114360646D01*
X146745646Y-114235147D01*
X146893216Y-114136544D01*
X147057188Y-114068624D01*
X147206488Y-114038927D01*
X147231258Y-114034000D01*
X147408742Y-114034000D01*
X147433512Y-114038927D01*
G37*
G36*
X144893512Y-114038927D02*
G01*
X145042812Y-114068624D01*
X145206784Y-114136544D01*
X145354354Y-114235147D01*
X145479853Y-114360646D01*
X145578456Y-114508216D01*
X145646376Y-114672188D01*
X145681000Y-114846259D01*
X145681000Y-115023741D01*
X145646376Y-115197812D01*
X145578456Y-115361784D01*
X145479853Y-115509354D01*
X145354354Y-115634853D01*
X145206784Y-115733456D01*
X145042812Y-115801376D01*
X144893512Y-115831073D01*
X144868742Y-115836000D01*
X144691258Y-115836000D01*
X144666488Y-115831073D01*
X144517188Y-115801376D01*
X144353216Y-115733456D01*
X144205646Y-115634853D01*
X144080147Y-115509354D01*
X143981544Y-115361784D01*
X143913624Y-115197812D01*
X143879000Y-115023741D01*
X143879000Y-114846259D01*
X143913624Y-114672188D01*
X143981544Y-114508216D01*
X144080147Y-114360646D01*
X144205646Y-114235147D01*
X144353216Y-114136544D01*
X144517188Y-114068624D01*
X144666488Y-114038927D01*
X144691258Y-114034000D01*
X144868742Y-114034000D01*
X144893512Y-114038927D01*
G37*
G36*
X142353512Y-114038927D02*
G01*
X142502812Y-114068624D01*
X142666784Y-114136544D01*
X142814354Y-114235147D01*
X142939853Y-114360646D01*
X143038456Y-114508216D01*
X143106376Y-114672188D01*
X143141000Y-114846259D01*
X143141000Y-115023741D01*
X143106376Y-115197812D01*
X143038456Y-115361784D01*
X142939853Y-115509354D01*
X142814354Y-115634853D01*
X142666784Y-115733456D01*
X142502812Y-115801376D01*
X142353512Y-115831073D01*
X142328742Y-115836000D01*
X142151258Y-115836000D01*
X142126488Y-115831073D01*
X141977188Y-115801376D01*
X141813216Y-115733456D01*
X141665646Y-115634853D01*
X141540147Y-115509354D01*
X141441544Y-115361784D01*
X141373624Y-115197812D01*
X141339000Y-115023741D01*
X141339000Y-114846259D01*
X141373624Y-114672188D01*
X141441544Y-114508216D01*
X141540147Y-114360646D01*
X141665646Y-114235147D01*
X141813216Y-114136544D01*
X141977188Y-114068624D01*
X142126488Y-114038927D01*
X142151258Y-114034000D01*
X142328742Y-114034000D01*
X142353512Y-114038927D01*
G37*
G36*
X139813512Y-114038927D02*
G01*
X139962812Y-114068624D01*
X140126784Y-114136544D01*
X140274354Y-114235147D01*
X140399853Y-114360646D01*
X140498456Y-114508216D01*
X140566376Y-114672188D01*
X140601000Y-114846259D01*
X140601000Y-115023741D01*
X140566376Y-115197812D01*
X140498456Y-115361784D01*
X140399853Y-115509354D01*
X140274354Y-115634853D01*
X140126784Y-115733456D01*
X139962812Y-115801376D01*
X139813512Y-115831073D01*
X139788742Y-115836000D01*
X139611258Y-115836000D01*
X139586488Y-115831073D01*
X139437188Y-115801376D01*
X139273216Y-115733456D01*
X139125646Y-115634853D01*
X139000147Y-115509354D01*
X138901544Y-115361784D01*
X138833624Y-115197812D01*
X138799000Y-115023741D01*
X138799000Y-114846259D01*
X138833624Y-114672188D01*
X138901544Y-114508216D01*
X139000147Y-114360646D01*
X139125646Y-114235147D01*
X139273216Y-114136544D01*
X139437188Y-114068624D01*
X139586488Y-114038927D01*
X139611258Y-114034000D01*
X139788742Y-114034000D01*
X139813512Y-114038927D01*
G37*
G36*
X137273512Y-114038927D02*
G01*
X137422812Y-114068624D01*
X137586784Y-114136544D01*
X137734354Y-114235147D01*
X137859853Y-114360646D01*
X137958456Y-114508216D01*
X138026376Y-114672188D01*
X138061000Y-114846259D01*
X138061000Y-115023741D01*
X138026376Y-115197812D01*
X137958456Y-115361784D01*
X137859853Y-115509354D01*
X137734354Y-115634853D01*
X137586784Y-115733456D01*
X137422812Y-115801376D01*
X137273512Y-115831073D01*
X137248742Y-115836000D01*
X137071258Y-115836000D01*
X137046488Y-115831073D01*
X136897188Y-115801376D01*
X136733216Y-115733456D01*
X136585646Y-115634853D01*
X136460147Y-115509354D01*
X136361544Y-115361784D01*
X136293624Y-115197812D01*
X136259000Y-115023741D01*
X136259000Y-114846259D01*
X136293624Y-114672188D01*
X136361544Y-114508216D01*
X136460147Y-114360646D01*
X136585646Y-114235147D01*
X136733216Y-114136544D01*
X136897188Y-114068624D01*
X137046488Y-114038927D01*
X137071258Y-114034000D01*
X137248742Y-114034000D01*
X137273512Y-114038927D01*
G37*
G36*
X111873512Y-114038927D02*
G01*
X112022812Y-114068624D01*
X112186784Y-114136544D01*
X112334354Y-114235147D01*
X112459853Y-114360646D01*
X112558456Y-114508216D01*
X112626376Y-114672188D01*
X112661000Y-114846259D01*
X112661000Y-115023741D01*
X112626376Y-115197812D01*
X112558456Y-115361784D01*
X112459853Y-115509354D01*
X112334354Y-115634853D01*
X112186784Y-115733456D01*
X112022812Y-115801376D01*
X111873512Y-115831073D01*
X111848742Y-115836000D01*
X111671258Y-115836000D01*
X111646488Y-115831073D01*
X111497188Y-115801376D01*
X111333216Y-115733456D01*
X111185646Y-115634853D01*
X111060147Y-115509354D01*
X110961544Y-115361784D01*
X110893624Y-115197812D01*
X110859000Y-115023741D01*
X110859000Y-114846259D01*
X110893624Y-114672188D01*
X110961544Y-114508216D01*
X111060147Y-114360646D01*
X111185646Y-114235147D01*
X111333216Y-114136544D01*
X111497188Y-114068624D01*
X111646488Y-114038927D01*
X111671258Y-114034000D01*
X111848742Y-114034000D01*
X111873512Y-114038927D01*
G37*
G36*
X116953512Y-114038927D02*
G01*
X117102812Y-114068624D01*
X117266784Y-114136544D01*
X117414354Y-114235147D01*
X117539853Y-114360646D01*
X117638456Y-114508216D01*
X117706376Y-114672188D01*
X117741000Y-114846259D01*
X117741000Y-115023741D01*
X117706376Y-115197812D01*
X117638456Y-115361784D01*
X117539853Y-115509354D01*
X117414354Y-115634853D01*
X117266784Y-115733456D01*
X117102812Y-115801376D01*
X116953512Y-115831073D01*
X116928742Y-115836000D01*
X116751258Y-115836000D01*
X116726488Y-115831073D01*
X116577188Y-115801376D01*
X116413216Y-115733456D01*
X116265646Y-115634853D01*
X116140147Y-115509354D01*
X116041544Y-115361784D01*
X115973624Y-115197812D01*
X115939000Y-115023741D01*
X115939000Y-114846259D01*
X115973624Y-114672188D01*
X116041544Y-114508216D01*
X116140147Y-114360646D01*
X116265646Y-114235147D01*
X116413216Y-114136544D01*
X116577188Y-114068624D01*
X116726488Y-114038927D01*
X116751258Y-114034000D01*
X116928742Y-114034000D01*
X116953512Y-114038927D01*
G37*
G36*
X114413512Y-114038927D02*
G01*
X114562812Y-114068624D01*
X114726784Y-114136544D01*
X114874354Y-114235147D01*
X114999853Y-114360646D01*
X115098456Y-114508216D01*
X115166376Y-114672188D01*
X115201000Y-114846259D01*
X115201000Y-115023741D01*
X115166376Y-115197812D01*
X115098456Y-115361784D01*
X114999853Y-115509354D01*
X114874354Y-115634853D01*
X114726784Y-115733456D01*
X114562812Y-115801376D01*
X114413512Y-115831073D01*
X114388742Y-115836000D01*
X114211258Y-115836000D01*
X114186488Y-115831073D01*
X114037188Y-115801376D01*
X113873216Y-115733456D01*
X113725646Y-115634853D01*
X113600147Y-115509354D01*
X113501544Y-115361784D01*
X113433624Y-115197812D01*
X113399000Y-115023741D01*
X113399000Y-114846259D01*
X113433624Y-114672188D01*
X113501544Y-114508216D01*
X113600147Y-114360646D01*
X113725646Y-114235147D01*
X113873216Y-114136544D01*
X114037188Y-114068624D01*
X114186488Y-114038927D01*
X114211258Y-114034000D01*
X114388742Y-114034000D01*
X114413512Y-114038927D01*
G37*
G36*
X134733512Y-114038927D02*
G01*
X134882812Y-114068624D01*
X135046784Y-114136544D01*
X135194354Y-114235147D01*
X135319853Y-114360646D01*
X135418456Y-114508216D01*
X135486376Y-114672188D01*
X135521000Y-114846259D01*
X135521000Y-115023741D01*
X135486376Y-115197812D01*
X135418456Y-115361784D01*
X135319853Y-115509354D01*
X135194354Y-115634853D01*
X135046784Y-115733456D01*
X134882812Y-115801376D01*
X134733512Y-115831073D01*
X134708742Y-115836000D01*
X134531258Y-115836000D01*
X134506488Y-115831073D01*
X134357188Y-115801376D01*
X134193216Y-115733456D01*
X134045646Y-115634853D01*
X133920147Y-115509354D01*
X133821544Y-115361784D01*
X133753624Y-115197812D01*
X133719000Y-115023741D01*
X133719000Y-114846259D01*
X133753624Y-114672188D01*
X133821544Y-114508216D01*
X133920147Y-114360646D01*
X134045646Y-114235147D01*
X134193216Y-114136544D01*
X134357188Y-114068624D01*
X134506488Y-114038927D01*
X134531258Y-114034000D01*
X134708742Y-114034000D01*
X134733512Y-114038927D01*
G37*
G36*
X124573512Y-114038927D02*
G01*
X124722812Y-114068624D01*
X124886784Y-114136544D01*
X125034354Y-114235147D01*
X125159853Y-114360646D01*
X125258456Y-114508216D01*
X125326376Y-114672188D01*
X125361000Y-114846259D01*
X125361000Y-115023741D01*
X125326376Y-115197812D01*
X125258456Y-115361784D01*
X125159853Y-115509354D01*
X125034354Y-115634853D01*
X124886784Y-115733456D01*
X124722812Y-115801376D01*
X124573512Y-115831073D01*
X124548742Y-115836000D01*
X124371258Y-115836000D01*
X124346488Y-115831073D01*
X124197188Y-115801376D01*
X124033216Y-115733456D01*
X123885646Y-115634853D01*
X123760147Y-115509354D01*
X123661544Y-115361784D01*
X123593624Y-115197812D01*
X123559000Y-115023741D01*
X123559000Y-114846259D01*
X123593624Y-114672188D01*
X123661544Y-114508216D01*
X123760147Y-114360646D01*
X123885646Y-114235147D01*
X124033216Y-114136544D01*
X124197188Y-114068624D01*
X124346488Y-114038927D01*
X124371258Y-114034000D01*
X124548742Y-114034000D01*
X124573512Y-114038927D01*
G37*
G36*
X132193512Y-114038927D02*
G01*
X132342812Y-114068624D01*
X132506784Y-114136544D01*
X132654354Y-114235147D01*
X132779853Y-114360646D01*
X132878456Y-114508216D01*
X132946376Y-114672188D01*
X132981000Y-114846259D01*
X132981000Y-115023741D01*
X132946376Y-115197812D01*
X132878456Y-115361784D01*
X132779853Y-115509354D01*
X132654354Y-115634853D01*
X132506784Y-115733456D01*
X132342812Y-115801376D01*
X132193512Y-115831073D01*
X132168742Y-115836000D01*
X131991258Y-115836000D01*
X131966488Y-115831073D01*
X131817188Y-115801376D01*
X131653216Y-115733456D01*
X131505646Y-115634853D01*
X131380147Y-115509354D01*
X131281544Y-115361784D01*
X131213624Y-115197812D01*
X131179000Y-115023741D01*
X131179000Y-114846259D01*
X131213624Y-114672188D01*
X131281544Y-114508216D01*
X131380147Y-114360646D01*
X131505646Y-114235147D01*
X131653216Y-114136544D01*
X131817188Y-114068624D01*
X131966488Y-114038927D01*
X131991258Y-114034000D01*
X132168742Y-114034000D01*
X132193512Y-114038927D01*
G37*
G36*
X129653512Y-114038927D02*
G01*
X129802812Y-114068624D01*
X129966784Y-114136544D01*
X130114354Y-114235147D01*
X130239853Y-114360646D01*
X130338456Y-114508216D01*
X130406376Y-114672188D01*
X130441000Y-114846259D01*
X130441000Y-115023741D01*
X130406376Y-115197812D01*
X130338456Y-115361784D01*
X130239853Y-115509354D01*
X130114354Y-115634853D01*
X129966784Y-115733456D01*
X129802812Y-115801376D01*
X129653512Y-115831073D01*
X129628742Y-115836000D01*
X129451258Y-115836000D01*
X129426488Y-115831073D01*
X129277188Y-115801376D01*
X129113216Y-115733456D01*
X128965646Y-115634853D01*
X128840147Y-115509354D01*
X128741544Y-115361784D01*
X128673624Y-115197812D01*
X128639000Y-115023741D01*
X128639000Y-114846259D01*
X128673624Y-114672188D01*
X128741544Y-114508216D01*
X128840147Y-114360646D01*
X128965646Y-114235147D01*
X129113216Y-114136544D01*
X129277188Y-114068624D01*
X129426488Y-114038927D01*
X129451258Y-114034000D01*
X129628742Y-114034000D01*
X129653512Y-114038927D01*
G37*
G36*
X127113512Y-114038927D02*
G01*
X127262812Y-114068624D01*
X127426784Y-114136544D01*
X127574354Y-114235147D01*
X127699853Y-114360646D01*
X127798456Y-114508216D01*
X127866376Y-114672188D01*
X127901000Y-114846259D01*
X127901000Y-115023741D01*
X127866376Y-115197812D01*
X127798456Y-115361784D01*
X127699853Y-115509354D01*
X127574354Y-115634853D01*
X127426784Y-115733456D01*
X127262812Y-115801376D01*
X127113512Y-115831073D01*
X127088742Y-115836000D01*
X126911258Y-115836000D01*
X126886488Y-115831073D01*
X126737188Y-115801376D01*
X126573216Y-115733456D01*
X126425646Y-115634853D01*
X126300147Y-115509354D01*
X126201544Y-115361784D01*
X126133624Y-115197812D01*
X126099000Y-115023741D01*
X126099000Y-114846259D01*
X126133624Y-114672188D01*
X126201544Y-114508216D01*
X126300147Y-114360646D01*
X126425646Y-114235147D01*
X126573216Y-114136544D01*
X126737188Y-114068624D01*
X126886488Y-114038927D01*
X126911258Y-114034000D01*
X127088742Y-114034000D01*
X127113512Y-114038927D01*
G37*
G36*
X122033512Y-114038927D02*
G01*
X122182812Y-114068624D01*
X122346784Y-114136544D01*
X122494354Y-114235147D01*
X122619853Y-114360646D01*
X122718456Y-114508216D01*
X122786376Y-114672188D01*
X122821000Y-114846259D01*
X122821000Y-115023741D01*
X122786376Y-115197812D01*
X122718456Y-115361784D01*
X122619853Y-115509354D01*
X122494354Y-115634853D01*
X122346784Y-115733456D01*
X122182812Y-115801376D01*
X122033512Y-115831073D01*
X122008742Y-115836000D01*
X121831258Y-115836000D01*
X121806488Y-115831073D01*
X121657188Y-115801376D01*
X121493216Y-115733456D01*
X121345646Y-115634853D01*
X121220147Y-115509354D01*
X121121544Y-115361784D01*
X121053624Y-115197812D01*
X121019000Y-115023741D01*
X121019000Y-114846259D01*
X121053624Y-114672188D01*
X121121544Y-114508216D01*
X121220147Y-114360646D01*
X121345646Y-114235147D01*
X121493216Y-114136544D01*
X121657188Y-114068624D01*
X121806488Y-114038927D01*
X121831258Y-114034000D01*
X122008742Y-114034000D01*
X122033512Y-114038927D01*
G37*
G36*
X119493512Y-114038927D02*
G01*
X119642812Y-114068624D01*
X119806784Y-114136544D01*
X119954354Y-114235147D01*
X120079853Y-114360646D01*
X120178456Y-114508216D01*
X120246376Y-114672188D01*
X120281000Y-114846259D01*
X120281000Y-115023741D01*
X120246376Y-115197812D01*
X120178456Y-115361784D01*
X120079853Y-115509354D01*
X119954354Y-115634853D01*
X119806784Y-115733456D01*
X119642812Y-115801376D01*
X119493512Y-115831073D01*
X119468742Y-115836000D01*
X119291258Y-115836000D01*
X119266488Y-115831073D01*
X119117188Y-115801376D01*
X118953216Y-115733456D01*
X118805646Y-115634853D01*
X118680147Y-115509354D01*
X118581544Y-115361784D01*
X118513624Y-115197812D01*
X118479000Y-115023741D01*
X118479000Y-114846259D01*
X118513624Y-114672188D01*
X118581544Y-114508216D01*
X118680147Y-114360646D01*
X118805646Y-114235147D01*
X118953216Y-114136544D01*
X119117188Y-114068624D01*
X119266488Y-114038927D01*
X119291258Y-114034000D01*
X119468742Y-114034000D01*
X119493512Y-114038927D01*
G37*
G36*
X100245318Y-108115153D02*
G01*
X100463885Y-108205687D01*
X100463887Y-108205688D01*
X100660593Y-108337122D01*
X100827878Y-108504407D01*
X100942095Y-108675346D01*
X100959313Y-108701115D01*
X101049847Y-108919682D01*
X101096000Y-109151710D01*
X101096000Y-109388290D01*
X101049847Y-109620318D01*
X101029074Y-109670467D01*
X100959312Y-109838887D01*
X100827878Y-110035593D01*
X100660593Y-110202878D01*
X100463887Y-110334312D01*
X100463886Y-110334313D01*
X100463885Y-110334313D01*
X100245318Y-110424847D01*
X100013290Y-110471000D01*
X99776710Y-110471000D01*
X99544682Y-110424847D01*
X99326115Y-110334313D01*
X99326114Y-110334313D01*
X99326113Y-110334312D01*
X99129407Y-110202878D01*
X98962122Y-110035593D01*
X98830688Y-109838887D01*
X98760926Y-109670467D01*
X98740153Y-109620318D01*
X98694000Y-109388290D01*
X98694000Y-109151710D01*
X98740153Y-108919682D01*
X98830687Y-108701115D01*
X98847905Y-108675346D01*
X98962122Y-108504407D01*
X99129407Y-108337122D01*
X99326113Y-108205688D01*
X99326115Y-108205687D01*
X99544682Y-108115153D01*
X99776710Y-108069000D01*
X100013290Y-108069000D01*
X100245318Y-108115153D01*
G37*
G36*
X144339689Y-108089386D02*
G01*
X144558256Y-108179920D01*
X144558258Y-108179921D01*
X144754964Y-108311355D01*
X144922249Y-108478640D01*
X145053683Y-108675346D01*
X145053684Y-108675348D01*
X145144218Y-108893915D01*
X145190371Y-109125943D01*
X145190371Y-109362523D01*
X145144218Y-109594551D01*
X145112772Y-109670467D01*
X145053683Y-109813120D01*
X144922249Y-110009826D01*
X144754964Y-110177111D01*
X144558258Y-110308545D01*
X144558257Y-110308546D01*
X144558256Y-110308546D01*
X144339689Y-110399080D01*
X144107661Y-110445233D01*
X143871081Y-110445233D01*
X143639053Y-110399080D01*
X143420486Y-110308546D01*
X143420485Y-110308546D01*
X143420484Y-110308545D01*
X143223778Y-110177111D01*
X143056493Y-110009826D01*
X142925059Y-109813120D01*
X142865970Y-109670467D01*
X142834524Y-109594551D01*
X142788371Y-109362523D01*
X142788371Y-109125943D01*
X142834524Y-108893915D01*
X142925058Y-108675348D01*
X142925059Y-108675346D01*
X143056493Y-108478640D01*
X143223778Y-108311355D01*
X143420484Y-108179921D01*
X143420486Y-108179920D01*
X143639053Y-108089386D01*
X143871081Y-108043233D01*
X144107661Y-108043233D01*
X144339689Y-108089386D01*
G37*
G36*
X124141000Y-110171000D02*
G01*
X122239000Y-110171000D01*
X122239000Y-108269000D01*
X124141000Y-108269000D01*
X124141000Y-110171000D01*
G37*
G36*
X120927395Y-108305546D02*
G01*
X121100466Y-108377234D01*
X121177818Y-108428919D01*
X121256227Y-108481310D01*
X121388690Y-108613773D01*
X121429833Y-108675348D01*
X121492766Y-108769534D01*
X121564454Y-108942605D01*
X121601000Y-109126333D01*
X121601000Y-109313667D01*
X121564454Y-109497395D01*
X121492766Y-109670466D01*
X121492765Y-109670467D01*
X121388690Y-109826227D01*
X121256227Y-109958690D01*
X121179698Y-110009825D01*
X121100466Y-110062766D01*
X120927395Y-110134454D01*
X120743667Y-110171000D01*
X120556333Y-110171000D01*
X120372605Y-110134454D01*
X120199534Y-110062766D01*
X120120302Y-110009825D01*
X120043773Y-109958690D01*
X119911310Y-109826227D01*
X119807235Y-109670467D01*
X119807234Y-109670466D01*
X119735546Y-109497395D01*
X119699000Y-109313667D01*
X119699000Y-109126333D01*
X119735546Y-108942605D01*
X119807234Y-108769534D01*
X119870167Y-108675348D01*
X119911310Y-108613773D01*
X120043773Y-108481310D01*
X120122182Y-108428919D01*
X120199534Y-108377234D01*
X120372605Y-108305546D01*
X120556333Y-108269000D01*
X120743667Y-108269000D01*
X120927395Y-108305546D01*
G37*
G36*
X139381000Y-108901000D02*
G01*
X137479000Y-108901000D01*
X137479000Y-106999000D01*
X139381000Y-106999000D01*
X139381000Y-108901000D01*
G37*
G36*
X136167395Y-107035546D02*
G01*
X136340466Y-107107234D01*
X136360049Y-107120319D01*
X136496227Y-107211310D01*
X136628690Y-107343773D01*
X136628691Y-107343775D01*
X136732766Y-107499534D01*
X136804454Y-107672605D01*
X136841000Y-107856333D01*
X136841000Y-108043667D01*
X136804454Y-108227395D01*
X136732766Y-108400466D01*
X136732765Y-108400467D01*
X136628690Y-108556227D01*
X136496227Y-108688690D01*
X136417818Y-108741081D01*
X136340466Y-108792766D01*
X136167395Y-108864454D01*
X135983667Y-108901000D01*
X135796333Y-108901000D01*
X135612605Y-108864454D01*
X135439534Y-108792766D01*
X135362182Y-108741081D01*
X135283773Y-108688690D01*
X135151310Y-108556227D01*
X135047235Y-108400467D01*
X135047234Y-108400466D01*
X134975546Y-108227395D01*
X134939000Y-108043667D01*
X134939000Y-107856333D01*
X134975546Y-107672605D01*
X135047234Y-107499534D01*
X135151309Y-107343775D01*
X135151310Y-107343773D01*
X135283773Y-107211310D01*
X135419951Y-107120319D01*
X135439534Y-107107234D01*
X135612605Y-107035546D01*
X135796333Y-106999000D01*
X135983667Y-106999000D01*
X136167395Y-107035546D01*
G37*
G36*
X108901000Y-108901000D02*
G01*
X106999000Y-108901000D01*
X106999000Y-106999000D01*
X108901000Y-106999000D01*
X108901000Y-108901000D01*
G37*
G36*
X105687395Y-107035546D02*
G01*
X105860466Y-107107234D01*
X105880049Y-107120319D01*
X106016227Y-107211310D01*
X106148690Y-107343773D01*
X106148691Y-107343775D01*
X106252766Y-107499534D01*
X106324454Y-107672605D01*
X106361000Y-107856333D01*
X106361000Y-108043667D01*
X106324454Y-108227395D01*
X106252766Y-108400466D01*
X106252765Y-108400467D01*
X106148690Y-108556227D01*
X106016227Y-108688690D01*
X105937818Y-108741081D01*
X105860466Y-108792766D01*
X105687395Y-108864454D01*
X105503667Y-108901000D01*
X105316333Y-108901000D01*
X105132605Y-108864454D01*
X104959534Y-108792766D01*
X104882182Y-108741081D01*
X104803773Y-108688690D01*
X104671310Y-108556227D01*
X104567235Y-108400467D01*
X104567234Y-108400466D01*
X104495546Y-108227395D01*
X104459000Y-108043667D01*
X104459000Y-107856333D01*
X104495546Y-107672605D01*
X104567234Y-107499534D01*
X104671309Y-107343775D01*
X104671310Y-107343773D01*
X104803773Y-107211310D01*
X104939951Y-107120319D01*
X104959534Y-107107234D01*
X105132605Y-107035546D01*
X105316333Y-106999000D01*
X105503667Y-106999000D01*
X105687395Y-107035546D01*
G37*
G36*
X102745318Y-105615153D02*
G01*
X102963885Y-105705687D01*
X102963887Y-105705688D01*
X103160593Y-105837122D01*
X103327878Y-106004407D01*
X103459312Y-106201113D01*
X103459313Y-106201115D01*
X103549847Y-106419682D01*
X103596000Y-106651710D01*
X103596000Y-106888290D01*
X103549847Y-107120318D01*
X103469986Y-107313118D01*
X103459312Y-107338887D01*
X103327878Y-107535593D01*
X103160593Y-107702878D01*
X102963887Y-107834312D01*
X102963886Y-107834313D01*
X102963885Y-107834313D01*
X102745318Y-107924847D01*
X102513290Y-107971000D01*
X102276710Y-107971000D01*
X102044682Y-107924847D01*
X101826115Y-107834313D01*
X101826114Y-107834313D01*
X101826113Y-107834312D01*
X101629407Y-107702878D01*
X101462122Y-107535593D01*
X101330688Y-107338887D01*
X101320014Y-107313118D01*
X101240153Y-107120318D01*
X101194000Y-106888290D01*
X101194000Y-106651710D01*
X101240153Y-106419682D01*
X101330687Y-106201115D01*
X101330688Y-106201113D01*
X101462122Y-106004407D01*
X101629407Y-105837122D01*
X101826113Y-105705688D01*
X101826115Y-105705687D01*
X102044682Y-105615153D01*
X102276710Y-105569000D01*
X102513290Y-105569000D01*
X102745318Y-105615153D01*
G37*
G36*
X141839689Y-105589386D02*
G01*
X142058256Y-105679920D01*
X142058258Y-105679921D01*
X142254964Y-105811355D01*
X142422249Y-105978640D01*
X142553683Y-106175346D01*
X142553684Y-106175348D01*
X142644218Y-106393915D01*
X142690371Y-106625943D01*
X142690371Y-106862523D01*
X142644218Y-107094551D01*
X142553684Y-107313118D01*
X142553683Y-107313120D01*
X142422249Y-107509826D01*
X142254964Y-107677111D01*
X142058258Y-107808545D01*
X142058257Y-107808546D01*
X142058256Y-107808546D01*
X141839689Y-107899080D01*
X141607661Y-107945233D01*
X141371081Y-107945233D01*
X141139053Y-107899080D01*
X140920486Y-107808546D01*
X140920485Y-107808546D01*
X140920484Y-107808545D01*
X140723778Y-107677111D01*
X140556493Y-107509826D01*
X140425059Y-107313120D01*
X140425058Y-107313118D01*
X140334524Y-107094551D01*
X140288371Y-106862523D01*
X140288371Y-106625943D01*
X140334524Y-106393915D01*
X140425058Y-106175348D01*
X140425059Y-106175346D01*
X140556493Y-105978640D01*
X140723778Y-105811355D01*
X140920484Y-105679921D01*
X140920486Y-105679920D01*
X141139053Y-105589386D01*
X141371081Y-105543233D01*
X141607661Y-105543233D01*
X141839689Y-105589386D01*
G37*
G36*
X123771000Y-106196000D02*
G01*
X120069000Y-106196000D01*
X120069000Y-103294000D01*
X123771000Y-103294000D01*
X123771000Y-106196000D01*
G37*
G36*
X90201564Y-103259389D02*
G01*
X90392833Y-103338615D01*
X90392835Y-103338616D01*
X90526410Y-103427868D01*
X90564973Y-103453635D01*
X90711365Y-103600027D01*
X90826385Y-103772167D01*
X90905611Y-103963436D01*
X90946000Y-104166484D01*
X90946000Y-104373516D01*
X90905611Y-104576564D01*
X90837058Y-104742066D01*
X90826384Y-104767835D01*
X90711365Y-104939973D01*
X90564973Y-105086365D01*
X90392835Y-105201384D01*
X90392834Y-105201385D01*
X90392833Y-105201385D01*
X90201564Y-105280611D01*
X89998516Y-105321000D01*
X89791484Y-105321000D01*
X89588436Y-105280611D01*
X89397167Y-105201385D01*
X89397166Y-105201385D01*
X89397165Y-105201384D01*
X89225027Y-105086365D01*
X89078635Y-104939973D01*
X88963616Y-104767835D01*
X88952942Y-104742066D01*
X88884389Y-104576564D01*
X88844000Y-104373516D01*
X88844000Y-104166484D01*
X88884389Y-103963436D01*
X88963615Y-103772167D01*
X89078635Y-103600027D01*
X89225027Y-103453635D01*
X89263590Y-103427868D01*
X89397165Y-103338616D01*
X89397167Y-103338615D01*
X89588436Y-103259389D01*
X89791484Y-103219000D01*
X89998516Y-103219000D01*
X90201564Y-103259389D01*
G37*
G36*
X154295935Y-103233622D02*
G01*
X154487204Y-103312848D01*
X154487206Y-103312849D01*
X154525769Y-103338616D01*
X154659344Y-103427868D01*
X154805736Y-103574260D01*
X154920756Y-103746400D01*
X154999982Y-103937669D01*
X155040371Y-104140717D01*
X155040371Y-104347749D01*
X154999982Y-104550797D01*
X154920756Y-104742066D01*
X154920755Y-104742068D01*
X154805736Y-104914206D01*
X154659344Y-105060598D01*
X154487206Y-105175617D01*
X154487205Y-105175618D01*
X154487204Y-105175618D01*
X154295935Y-105254844D01*
X154092887Y-105295233D01*
X153885855Y-105295233D01*
X153682807Y-105254844D01*
X153491538Y-105175618D01*
X153491537Y-105175618D01*
X153491536Y-105175617D01*
X153319398Y-105060598D01*
X153173006Y-104914206D01*
X153057987Y-104742068D01*
X153057986Y-104742066D01*
X152978760Y-104550797D01*
X152938371Y-104347749D01*
X152938371Y-104140717D01*
X152978760Y-103937669D01*
X153057986Y-103746400D01*
X153173006Y-103574260D01*
X153319398Y-103427868D01*
X153452973Y-103338616D01*
X153491536Y-103312849D01*
X153491538Y-103312848D01*
X153682807Y-103233622D01*
X153885855Y-103193233D01*
X154092887Y-103193233D01*
X154295935Y-103233622D01*
G37*
G36*
X100245318Y-100615153D02*
G01*
X100463885Y-100705687D01*
X100463887Y-100705688D01*
X100660593Y-100837122D01*
X100827878Y-101004407D01*
X100856449Y-101047167D01*
X100959313Y-101201115D01*
X101049847Y-101419682D01*
X101096000Y-101651710D01*
X101096000Y-101888290D01*
X101049847Y-102120318D01*
X101010639Y-102214973D01*
X100959312Y-102338887D01*
X100827878Y-102535593D01*
X100660593Y-102702878D01*
X100463887Y-102834312D01*
X100463886Y-102834313D01*
X100463885Y-102834313D01*
X100245318Y-102924847D01*
X100013290Y-102971000D01*
X99776710Y-102971000D01*
X99544682Y-102924847D01*
X99326115Y-102834313D01*
X99326114Y-102834313D01*
X99326113Y-102834312D01*
X99129407Y-102702878D01*
X98962122Y-102535593D01*
X98830688Y-102338887D01*
X98779361Y-102214973D01*
X98740153Y-102120318D01*
X98694000Y-101888290D01*
X98694000Y-101651710D01*
X98740153Y-101419682D01*
X98830687Y-101201115D01*
X98933551Y-101047167D01*
X98962122Y-101004407D01*
X99129407Y-100837122D01*
X99326113Y-100705688D01*
X99326115Y-100705687D01*
X99544682Y-100615153D01*
X99776710Y-100569000D01*
X100013290Y-100569000D01*
X100245318Y-100615153D01*
G37*
G36*
X144339689Y-100589386D02*
G01*
X144558256Y-100679920D01*
X144558258Y-100679921D01*
X144754964Y-100811355D01*
X144922249Y-100978640D01*
X145053683Y-101175346D01*
X145053684Y-101175348D01*
X145144218Y-101393915D01*
X145190371Y-101625943D01*
X145190371Y-101862523D01*
X145144218Y-102094551D01*
X145133544Y-102120319D01*
X145053683Y-102313120D01*
X144922249Y-102509826D01*
X144754964Y-102677111D01*
X144558258Y-102808545D01*
X144558257Y-102808546D01*
X144558256Y-102808546D01*
X144339689Y-102899080D01*
X144107661Y-102945233D01*
X143871081Y-102945233D01*
X143639053Y-102899080D01*
X143420486Y-102808546D01*
X143420485Y-102808546D01*
X143420484Y-102808545D01*
X143223778Y-102677111D01*
X143056493Y-102509826D01*
X142925059Y-102313120D01*
X142845198Y-102120319D01*
X142834524Y-102094551D01*
X142788371Y-101862523D01*
X142788371Y-101625943D01*
X142834524Y-101393915D01*
X142925058Y-101175348D01*
X142925059Y-101175346D01*
X143056493Y-100978640D01*
X143223778Y-100811355D01*
X143420484Y-100679921D01*
X143420486Y-100679920D01*
X143639053Y-100589386D01*
X143871081Y-100543233D01*
X144107661Y-100543233D01*
X144339689Y-100589386D01*
G37*
G36*
X114726564Y-100534389D02*
G01*
X114859341Y-100589387D01*
X114917835Y-100613616D01*
X115089973Y-100728635D01*
X115236365Y-100875027D01*
X115322815Y-101004408D01*
X115351385Y-101047167D01*
X115430611Y-101238436D01*
X115471000Y-101441484D01*
X115471000Y-101648516D01*
X115430611Y-101851564D01*
X115351385Y-102042833D01*
X115351384Y-102042835D01*
X115236365Y-102214973D01*
X115089973Y-102361365D01*
X114917835Y-102476384D01*
X114917834Y-102476385D01*
X114917833Y-102476385D01*
X114726564Y-102555611D01*
X114523516Y-102596000D01*
X114316484Y-102596000D01*
X114113436Y-102555611D01*
X113922167Y-102476385D01*
X113922166Y-102476385D01*
X113922165Y-102476384D01*
X113750027Y-102361365D01*
X113603635Y-102214973D01*
X113488616Y-102042835D01*
X113488615Y-102042833D01*
X113409389Y-101851564D01*
X113369000Y-101648516D01*
X113369000Y-101441484D01*
X113409389Y-101238436D01*
X113488615Y-101047167D01*
X113517186Y-101004408D01*
X113603635Y-100875027D01*
X113750027Y-100728635D01*
X113922165Y-100613616D01*
X113980659Y-100589387D01*
X114113436Y-100534389D01*
X114316484Y-100494000D01*
X114523516Y-100494000D01*
X114726564Y-100534389D01*
G37*
G36*
X129226564Y-100534389D02*
G01*
X129359341Y-100589387D01*
X129417835Y-100613616D01*
X129589973Y-100728635D01*
X129736365Y-100875027D01*
X129822815Y-101004408D01*
X129851385Y-101047167D01*
X129930611Y-101238436D01*
X129971000Y-101441484D01*
X129971000Y-101648516D01*
X129930611Y-101851564D01*
X129851385Y-102042833D01*
X129851384Y-102042835D01*
X129736365Y-102214973D01*
X129589973Y-102361365D01*
X129417835Y-102476384D01*
X129417834Y-102476385D01*
X129417833Y-102476385D01*
X129226564Y-102555611D01*
X129023516Y-102596000D01*
X128816484Y-102596000D01*
X128613436Y-102555611D01*
X128422167Y-102476385D01*
X128422166Y-102476385D01*
X128422165Y-102476384D01*
X128250027Y-102361365D01*
X128103635Y-102214973D01*
X127988616Y-102042835D01*
X127988615Y-102042833D01*
X127909389Y-101851564D01*
X127869000Y-101648516D01*
X127869000Y-101441484D01*
X127909389Y-101238436D01*
X127988615Y-101047167D01*
X128017186Y-101004408D01*
X128103635Y-100875027D01*
X128250027Y-100728635D01*
X128422165Y-100613616D01*
X128480659Y-100589387D01*
X128613436Y-100534389D01*
X128816484Y-100494000D01*
X129023516Y-100494000D01*
X129226564Y-100534389D01*
G37*
G36*
X90201564Y-98259389D02*
G01*
X90392833Y-98338615D01*
X90392835Y-98338616D01*
X90447328Y-98375027D01*
X90564973Y-98453635D01*
X90711365Y-98600027D01*
X90826385Y-98772167D01*
X90905611Y-98963436D01*
X90946000Y-99166484D01*
X90946000Y-99373516D01*
X90905611Y-99576564D01*
X90848280Y-99714973D01*
X90826384Y-99767835D01*
X90711365Y-99939973D01*
X90564973Y-100086365D01*
X90392835Y-100201384D01*
X90392834Y-100201385D01*
X90392833Y-100201385D01*
X90201564Y-100280611D01*
X89998516Y-100321000D01*
X89791484Y-100321000D01*
X89588436Y-100280611D01*
X89397167Y-100201385D01*
X89397166Y-100201385D01*
X89397165Y-100201384D01*
X89225027Y-100086365D01*
X89078635Y-99939973D01*
X88963616Y-99767835D01*
X88941720Y-99714973D01*
X88884389Y-99576564D01*
X88844000Y-99373516D01*
X88844000Y-99166484D01*
X88884389Y-98963436D01*
X88963615Y-98772167D01*
X89078635Y-98600027D01*
X89225027Y-98453635D01*
X89342672Y-98375027D01*
X89397165Y-98338616D01*
X89397167Y-98338615D01*
X89588436Y-98259389D01*
X89791484Y-98219000D01*
X89998516Y-98219000D01*
X90201564Y-98259389D01*
G37*
G36*
X154295935Y-98233622D02*
G01*
X154487204Y-98312848D01*
X154487206Y-98312849D01*
X154525769Y-98338616D01*
X154659344Y-98427868D01*
X154805736Y-98574260D01*
X154920756Y-98746400D01*
X154999982Y-98937669D01*
X155040371Y-99140717D01*
X155040371Y-99347749D01*
X154999982Y-99550797D01*
X154931978Y-99714973D01*
X154920755Y-99742068D01*
X154805736Y-99914206D01*
X154659344Y-100060598D01*
X154487206Y-100175617D01*
X154487205Y-100175618D01*
X154487204Y-100175618D01*
X154295935Y-100254844D01*
X154092887Y-100295233D01*
X153885855Y-100295233D01*
X153682807Y-100254844D01*
X153491538Y-100175618D01*
X153491537Y-100175618D01*
X153491536Y-100175617D01*
X153319398Y-100060598D01*
X153173006Y-99914206D01*
X153057987Y-99742068D01*
X153046764Y-99714973D01*
X152978760Y-99550797D01*
X152938371Y-99347749D01*
X152938371Y-99140717D01*
X152978760Y-98937669D01*
X153057986Y-98746400D01*
X153173006Y-98574260D01*
X153319398Y-98427868D01*
X153452973Y-98338616D01*
X153491536Y-98312849D01*
X153491538Y-98312848D01*
X153682807Y-98233622D01*
X153885855Y-98193233D01*
X154092887Y-98193233D01*
X154295935Y-98233622D01*
G37*
G36*
X114726564Y-98034389D02*
G01*
X114917833Y-98113615D01*
X114917835Y-98113616D01*
X115036990Y-98193233D01*
X115089973Y-98228635D01*
X115236365Y-98375027D01*
X115351385Y-98547167D01*
X115430611Y-98738436D01*
X115471000Y-98941484D01*
X115471000Y-99148516D01*
X115430611Y-99351564D01*
X115421518Y-99373516D01*
X115351384Y-99542835D01*
X115236365Y-99714973D01*
X115089973Y-99861365D01*
X114917835Y-99976384D01*
X114917834Y-99976385D01*
X114917833Y-99976385D01*
X114726564Y-100055611D01*
X114523516Y-100096000D01*
X114316484Y-100096000D01*
X114113436Y-100055611D01*
X113922167Y-99976385D01*
X113922166Y-99976385D01*
X113922165Y-99976384D01*
X113750027Y-99861365D01*
X113603635Y-99714973D01*
X113488616Y-99542835D01*
X113418482Y-99373516D01*
X113409389Y-99351564D01*
X113369000Y-99148516D01*
X113369000Y-98941484D01*
X113409389Y-98738436D01*
X113488615Y-98547167D01*
X113603635Y-98375027D01*
X113750027Y-98228635D01*
X113803010Y-98193233D01*
X113922165Y-98113616D01*
X113922167Y-98113615D01*
X114113436Y-98034389D01*
X114316484Y-97994000D01*
X114523516Y-97994000D01*
X114726564Y-98034389D01*
G37*
G36*
X102745318Y-95615153D02*
G01*
X102963885Y-95705687D01*
X102963887Y-95705688D01*
X103160593Y-95837122D01*
X103327878Y-96004407D01*
X103356449Y-96047167D01*
X103459313Y-96201115D01*
X103549847Y-96419682D01*
X103596000Y-96651710D01*
X103596000Y-96888290D01*
X103549847Y-97120318D01*
X103510639Y-97214973D01*
X103459312Y-97338887D01*
X103327878Y-97535593D01*
X103160593Y-97702878D01*
X102963887Y-97834312D01*
X102963886Y-97834313D01*
X102963885Y-97834313D01*
X102745318Y-97924847D01*
X102513290Y-97971000D01*
X102276710Y-97971000D01*
X102044682Y-97924847D01*
X101826115Y-97834313D01*
X101826114Y-97834313D01*
X101826113Y-97834312D01*
X101629407Y-97702878D01*
X101462122Y-97535593D01*
X101330688Y-97338887D01*
X101279361Y-97214973D01*
X101240153Y-97120318D01*
X101194000Y-96888290D01*
X101194000Y-96651710D01*
X101240153Y-96419682D01*
X101330687Y-96201115D01*
X101433551Y-96047167D01*
X101462122Y-96004407D01*
X101629407Y-95837122D01*
X101826113Y-95705688D01*
X101826115Y-95705687D01*
X102044682Y-95615153D01*
X102276710Y-95569000D01*
X102513290Y-95569000D01*
X102745318Y-95615153D01*
G37*
G36*
X141839689Y-95589386D02*
G01*
X142058256Y-95679920D01*
X142058258Y-95679921D01*
X142254964Y-95811355D01*
X142422249Y-95978640D01*
X142553683Y-96175346D01*
X142553684Y-96175348D01*
X142644218Y-96393915D01*
X142690371Y-96625943D01*
X142690371Y-96862523D01*
X142644218Y-97094551D01*
X142633544Y-97120319D01*
X142553683Y-97313120D01*
X142422249Y-97509826D01*
X142254964Y-97677111D01*
X142058258Y-97808545D01*
X142058257Y-97808546D01*
X142058256Y-97808546D01*
X141839689Y-97899080D01*
X141607661Y-97945233D01*
X141371081Y-97945233D01*
X141139053Y-97899080D01*
X140920486Y-97808546D01*
X140920485Y-97808546D01*
X140920484Y-97808545D01*
X140723778Y-97677111D01*
X140556493Y-97509826D01*
X140425059Y-97313120D01*
X140345198Y-97120319D01*
X140334524Y-97094551D01*
X140288371Y-96862523D01*
X140288371Y-96625943D01*
X140334524Y-96393915D01*
X140425058Y-96175348D01*
X140425059Y-96175346D01*
X140556493Y-95978640D01*
X140723778Y-95811355D01*
X140920484Y-95679921D01*
X140920486Y-95679920D01*
X141139053Y-95589386D01*
X141371081Y-95543233D01*
X141607661Y-95543233D01*
X141839689Y-95589386D01*
G37*
G36*
X114726564Y-95534389D02*
G01*
X114859341Y-95589387D01*
X114917835Y-95613616D01*
X115089973Y-95728635D01*
X115236365Y-95875027D01*
X115322815Y-96004408D01*
X115351385Y-96047167D01*
X115430611Y-96238436D01*
X115471000Y-96441484D01*
X115471000Y-96648516D01*
X115430611Y-96851564D01*
X115351385Y-97042833D01*
X115351384Y-97042835D01*
X115236365Y-97214973D01*
X115089973Y-97361365D01*
X114917835Y-97476384D01*
X114917834Y-97476385D01*
X114917833Y-97476385D01*
X114726564Y-97555611D01*
X114523516Y-97596000D01*
X114316484Y-97596000D01*
X114113436Y-97555611D01*
X113922167Y-97476385D01*
X113922166Y-97476385D01*
X113922165Y-97476384D01*
X113750027Y-97361365D01*
X113603635Y-97214973D01*
X113488616Y-97042835D01*
X113488615Y-97042833D01*
X113409389Y-96851564D01*
X113369000Y-96648516D01*
X113369000Y-96441484D01*
X113409389Y-96238436D01*
X113488615Y-96047167D01*
X113517186Y-96004408D01*
X113603635Y-95875027D01*
X113750027Y-95728635D01*
X113922165Y-95613616D01*
X113980659Y-95589387D01*
X114113436Y-95534389D01*
X114316484Y-95494000D01*
X114523516Y-95494000D01*
X114726564Y-95534389D01*
G37*
G36*
X129226564Y-95534389D02*
G01*
X129359341Y-95589387D01*
X129417835Y-95613616D01*
X129589973Y-95728635D01*
X129736365Y-95875027D01*
X129822815Y-96004408D01*
X129851385Y-96047167D01*
X129930611Y-96238436D01*
X129971000Y-96441484D01*
X129971000Y-96648516D01*
X129930611Y-96851564D01*
X129851385Y-97042833D01*
X129851384Y-97042835D01*
X129736365Y-97214973D01*
X129589973Y-97361365D01*
X129417835Y-97476384D01*
X129417834Y-97476385D01*
X129417833Y-97476385D01*
X129226564Y-97555611D01*
X129023516Y-97596000D01*
X128816484Y-97596000D01*
X128613436Y-97555611D01*
X128422167Y-97476385D01*
X128422166Y-97476385D01*
X128422165Y-97476384D01*
X128250027Y-97361365D01*
X128103635Y-97214973D01*
X127988616Y-97042835D01*
X127988615Y-97042833D01*
X127909389Y-96851564D01*
X127869000Y-96648516D01*
X127869000Y-96441484D01*
X127909389Y-96238436D01*
X127988615Y-96047167D01*
X128017186Y-96004408D01*
X128103635Y-95875027D01*
X128250027Y-95728635D01*
X128422165Y-95613616D01*
X128480659Y-95589387D01*
X128613436Y-95534389D01*
X128816484Y-95494000D01*
X129023516Y-95494000D01*
X129226564Y-95534389D01*
G37*
G36*
X100245318Y-93115153D02*
G01*
X100463885Y-93205687D01*
X100463887Y-93205688D01*
X100660593Y-93337122D01*
X100827878Y-93504407D01*
X100844667Y-93529534D01*
X100959313Y-93701115D01*
X101049847Y-93919682D01*
X101096000Y-94151710D01*
X101096000Y-94388290D01*
X101049847Y-94620318D01*
X100969986Y-94813118D01*
X100959312Y-94838887D01*
X100827878Y-95035593D01*
X100660593Y-95202878D01*
X100463887Y-95334312D01*
X100463886Y-95334313D01*
X100463885Y-95334313D01*
X100245318Y-95424847D01*
X100013290Y-95471000D01*
X99776710Y-95471000D01*
X99544682Y-95424847D01*
X99326115Y-95334313D01*
X99326114Y-95334313D01*
X99326113Y-95334312D01*
X99129407Y-95202878D01*
X98962122Y-95035593D01*
X98830688Y-94838887D01*
X98820014Y-94813118D01*
X98740153Y-94620318D01*
X98694000Y-94388290D01*
X98694000Y-94151710D01*
X98740153Y-93919682D01*
X98830687Y-93701115D01*
X98945333Y-93529534D01*
X98962122Y-93504407D01*
X99129407Y-93337122D01*
X99326113Y-93205688D01*
X99326115Y-93205687D01*
X99544682Y-93115153D01*
X99776710Y-93069000D01*
X100013290Y-93069000D01*
X100245318Y-93115153D01*
G37*
G36*
X144339689Y-93089386D02*
G01*
X144558256Y-93179920D01*
X144558258Y-93179921D01*
X144754964Y-93311355D01*
X144922249Y-93478640D01*
X144956254Y-93529533D01*
X145053684Y-93675348D01*
X145144218Y-93893915D01*
X145190371Y-94125943D01*
X145190371Y-94362523D01*
X145144218Y-94594551D01*
X145053684Y-94813118D01*
X145053683Y-94813120D01*
X144922249Y-95009826D01*
X144754964Y-95177111D01*
X144558258Y-95308545D01*
X144558257Y-95308546D01*
X144558256Y-95308546D01*
X144339689Y-95399080D01*
X144107661Y-95445233D01*
X143871081Y-95445233D01*
X143639053Y-95399080D01*
X143420486Y-95308546D01*
X143420485Y-95308546D01*
X143420484Y-95308545D01*
X143223778Y-95177111D01*
X143056493Y-95009826D01*
X142925059Y-94813120D01*
X142925058Y-94813118D01*
X142834524Y-94594551D01*
X142788371Y-94362523D01*
X142788371Y-94125943D01*
X142834524Y-93893915D01*
X142925058Y-93675348D01*
X143022488Y-93529533D01*
X143056493Y-93478640D01*
X143223778Y-93311355D01*
X143420484Y-93179921D01*
X143420486Y-93179920D01*
X143639053Y-93089386D01*
X143871081Y-93043233D01*
X144107661Y-93043233D01*
X144339689Y-93089386D01*
G37*
G36*
X108901000Y-94931000D02*
G01*
X106999000Y-94931000D01*
X106999000Y-93029000D01*
X108901000Y-93029000D01*
X108901000Y-94931000D01*
G37*
G36*
X105687395Y-93065546D02*
G01*
X105860466Y-93137234D01*
X105937818Y-93188919D01*
X106016227Y-93241310D01*
X106148690Y-93373773D01*
X106148691Y-93373775D01*
X106252766Y-93529534D01*
X106324454Y-93702605D01*
X106361000Y-93886333D01*
X106361000Y-94073667D01*
X106324454Y-94257395D01*
X106252766Y-94430466D01*
X106252765Y-94430467D01*
X106148690Y-94586227D01*
X106016227Y-94718690D01*
X105937818Y-94771081D01*
X105860466Y-94822766D01*
X105687395Y-94894454D01*
X105503667Y-94931000D01*
X105316333Y-94931000D01*
X105132605Y-94894454D01*
X104959534Y-94822766D01*
X104882182Y-94771081D01*
X104803773Y-94718690D01*
X104671310Y-94586227D01*
X104567235Y-94430467D01*
X104567234Y-94430466D01*
X104495546Y-94257395D01*
X104459000Y-94073667D01*
X104459000Y-93886333D01*
X104495546Y-93702605D01*
X104567234Y-93529534D01*
X104671309Y-93373775D01*
X104671310Y-93373773D01*
X104803773Y-93241310D01*
X104882182Y-93188919D01*
X104959534Y-93137234D01*
X105132605Y-93065546D01*
X105316333Y-93029000D01*
X105503667Y-93029000D01*
X105687395Y-93065546D01*
G37*
G36*
X139381000Y-94931000D02*
G01*
X137479000Y-94931000D01*
X137479000Y-93029000D01*
X139381000Y-93029000D01*
X139381000Y-94931000D01*
G37*
G36*
X136167395Y-93065546D02*
G01*
X136340466Y-93137234D01*
X136417818Y-93188919D01*
X136496227Y-93241310D01*
X136628690Y-93373773D01*
X136628691Y-93373775D01*
X136732766Y-93529534D01*
X136804454Y-93702605D01*
X136841000Y-93886333D01*
X136841000Y-94073667D01*
X136804454Y-94257395D01*
X136732766Y-94430466D01*
X136732765Y-94430467D01*
X136628690Y-94586227D01*
X136496227Y-94718690D01*
X136417818Y-94771081D01*
X136340466Y-94822766D01*
X136167395Y-94894454D01*
X135983667Y-94931000D01*
X135796333Y-94931000D01*
X135612605Y-94894454D01*
X135439534Y-94822766D01*
X135362182Y-94771081D01*
X135283773Y-94718690D01*
X135151310Y-94586227D01*
X135047235Y-94430467D01*
X135047234Y-94430466D01*
X134975546Y-94257395D01*
X134939000Y-94073667D01*
X134939000Y-93886333D01*
X134975546Y-93702605D01*
X135047234Y-93529534D01*
X135151309Y-93373775D01*
X135151310Y-93373773D01*
X135283773Y-93241310D01*
X135362182Y-93188919D01*
X135439534Y-93137234D01*
X135612605Y-93065546D01*
X135796333Y-93029000D01*
X135983667Y-93029000D01*
X136167395Y-93065546D01*
G37*
G36*
X123771000Y-94796000D02*
G01*
X120069000Y-94796000D01*
X120069000Y-91894000D01*
X123771000Y-91894000D01*
X123771000Y-94796000D01*
G37*
M02*
