G04 #@! TF.GenerationSoftware,KiCad,Pcbnew,(5.1.5)-3*
G04 #@! TF.CreationDate,2020-01-19T12:10:18+09:00*
G04 #@! TF.ProjectId,MOMI,4d4f4d49-2e6b-4696-9361-645f70636258,rev?*
G04 #@! TF.SameCoordinates,Original*
G04 #@! TF.FileFunction,Legend,Top*
G04 #@! TF.FilePolarity,Positive*
%FSLAX46Y46*%
G04 Gerber Fmt 4.6, Leading zero omitted, Abs format (unit mm)*
G04 Created by KiCad (PCBNEW (5.1.5)-3) date 2020-01-19 12:10:18*
%MOMM*%
%LPD*%
G04 APERTURE LIST*
%ADD10C,0.150000*%
%ADD11C,0.120000*%
%ADD12C,0.010000*%
%ADD13C,0.100000*%
G04 APERTURE END LIST*
D10*
X133040666Y-123975880D02*
X133374000Y-124975880D01*
X133707333Y-123975880D01*
X134040666Y-123975880D02*
X134040666Y-124785404D01*
X134088285Y-124880642D01*
X134135904Y-124928261D01*
X134231142Y-124975880D01*
X134421619Y-124975880D01*
X134516857Y-124928261D01*
X134564476Y-124880642D01*
X134612095Y-124785404D01*
X134612095Y-123975880D01*
X135040666Y-124928261D02*
X135183523Y-124975880D01*
X135421619Y-124975880D01*
X135516857Y-124928261D01*
X135564476Y-124880642D01*
X135612095Y-124785404D01*
X135612095Y-124690166D01*
X135564476Y-124594928D01*
X135516857Y-124547309D01*
X135421619Y-124499690D01*
X135231142Y-124452071D01*
X135135904Y-124404452D01*
X135088285Y-124356833D01*
X135040666Y-124261595D01*
X135040666Y-124166357D01*
X135088285Y-124071119D01*
X135135904Y-124023500D01*
X135231142Y-123975880D01*
X135469238Y-123975880D01*
X135612095Y-124023500D01*
X136374000Y-124452071D02*
X136516857Y-124499690D01*
X136564476Y-124547309D01*
X136612095Y-124642547D01*
X136612095Y-124785404D01*
X136564476Y-124880642D01*
X136516857Y-124928261D01*
X136421619Y-124975880D01*
X136040666Y-124975880D01*
X136040666Y-123975880D01*
X136374000Y-123975880D01*
X136469238Y-124023500D01*
X136516857Y-124071119D01*
X136564476Y-124166357D01*
X136564476Y-124261595D01*
X136516857Y-124356833D01*
X136469238Y-124404452D01*
X136374000Y-124452071D01*
X136040666Y-124452071D01*
D11*
X148209000Y-133350000D02*
X149479000Y-137604500D01*
X147510500Y-137731500D02*
X145796000Y-136779000D01*
X131020000Y-125520000D02*
X133140000Y-125520000D01*
X131020000Y-125460000D02*
X131020000Y-125520000D01*
X133140000Y-125460000D02*
X133140000Y-125520000D01*
X131020000Y-125460000D02*
X133140000Y-125460000D01*
X131020000Y-124460000D02*
X131020000Y-123400000D01*
X131020000Y-123400000D02*
X132080000Y-123400000D01*
D12*
G36*
X130903409Y-141657060D02*
G01*
X130955912Y-141682999D01*
X131020658Y-141728200D01*
X131067847Y-141777491D01*
X131100165Y-141839385D01*
X131120297Y-141922396D01*
X131130930Y-142035038D01*
X131134747Y-142185824D01*
X131134970Y-142250649D01*
X131134318Y-142392721D01*
X131131612Y-142494257D01*
X131125724Y-142564515D01*
X131115527Y-142612756D01*
X131099894Y-142648238D01*
X131083628Y-142672443D01*
X130979795Y-142775429D01*
X130857521Y-142837374D01*
X130725614Y-142856006D01*
X130592884Y-142829049D01*
X130550833Y-142809986D01*
X130450166Y-142757515D01*
X130450166Y-143579759D01*
X130523635Y-143541767D01*
X130620441Y-143512372D01*
X130739428Y-143504842D01*
X130858245Y-143518745D01*
X130947973Y-143549976D01*
X131022399Y-143609454D01*
X131085990Y-143694566D01*
X131090771Y-143703305D01*
X131110937Y-143744466D01*
X131125665Y-143785954D01*
X131135803Y-143836213D01*
X131142199Y-143903684D01*
X131145701Y-143996809D01*
X131147158Y-144124031D01*
X131147421Y-144267201D01*
X131147421Y-144723971D01*
X130873500Y-144723971D01*
X130873500Y-143881731D01*
X130796883Y-143817263D01*
X130717293Y-143765694D01*
X130641922Y-143756318D01*
X130566133Y-143780447D01*
X130525741Y-143804074D01*
X130495679Y-143837727D01*
X130474297Y-143888587D01*
X130459950Y-143963834D01*
X130450990Y-144070646D01*
X130445770Y-144216204D01*
X130443931Y-144313088D01*
X130437715Y-144711520D01*
X130306980Y-144719047D01*
X130176245Y-144726573D01*
X130176245Y-142254082D01*
X130450166Y-142254082D01*
X130457150Y-142391923D01*
X130480682Y-142487607D01*
X130524635Y-142547141D01*
X130592882Y-142576529D01*
X130661833Y-142582402D01*
X130739886Y-142575654D01*
X130791689Y-142549094D01*
X130824083Y-142513999D01*
X130849584Y-142476252D01*
X130864765Y-142434200D01*
X130871519Y-142375279D01*
X130871741Y-142286928D01*
X130869468Y-142212948D01*
X130864249Y-142101500D01*
X130856479Y-142028333D01*
X130843395Y-141981922D01*
X130822232Y-141950744D01*
X130802260Y-141932723D01*
X130718814Y-141893425D01*
X130620051Y-141887079D01*
X130563341Y-141900616D01*
X130507192Y-141948733D01*
X130469999Y-142042333D01*
X130451972Y-142180754D01*
X130450166Y-142254082D01*
X130176245Y-142254082D01*
X130176245Y-141636128D01*
X130313205Y-141636128D01*
X130395435Y-141639379D01*
X130437860Y-141650926D01*
X130450161Y-141673452D01*
X130450166Y-141674120D01*
X130455874Y-141696181D01*
X130481047Y-141693676D01*
X130531098Y-141669435D01*
X130647719Y-141632351D01*
X130778929Y-141628453D01*
X130903409Y-141657060D01*
G37*
X130903409Y-141657060D02*
X130955912Y-141682999D01*
X131020658Y-141728200D01*
X131067847Y-141777491D01*
X131100165Y-141839385D01*
X131120297Y-141922396D01*
X131130930Y-142035038D01*
X131134747Y-142185824D01*
X131134970Y-142250649D01*
X131134318Y-142392721D01*
X131131612Y-142494257D01*
X131125724Y-142564515D01*
X131115527Y-142612756D01*
X131099894Y-142648238D01*
X131083628Y-142672443D01*
X130979795Y-142775429D01*
X130857521Y-142837374D01*
X130725614Y-142856006D01*
X130592884Y-142829049D01*
X130550833Y-142809986D01*
X130450166Y-142757515D01*
X130450166Y-143579759D01*
X130523635Y-143541767D01*
X130620441Y-143512372D01*
X130739428Y-143504842D01*
X130858245Y-143518745D01*
X130947973Y-143549976D01*
X131022399Y-143609454D01*
X131085990Y-143694566D01*
X131090771Y-143703305D01*
X131110937Y-143744466D01*
X131125665Y-143785954D01*
X131135803Y-143836213D01*
X131142199Y-143903684D01*
X131145701Y-143996809D01*
X131147158Y-144124031D01*
X131147421Y-144267201D01*
X131147421Y-144723971D01*
X130873500Y-144723971D01*
X130873500Y-143881731D01*
X130796883Y-143817263D01*
X130717293Y-143765694D01*
X130641922Y-143756318D01*
X130566133Y-143780447D01*
X130525741Y-143804074D01*
X130495679Y-143837727D01*
X130474297Y-143888587D01*
X130459950Y-143963834D01*
X130450990Y-144070646D01*
X130445770Y-144216204D01*
X130443931Y-144313088D01*
X130437715Y-144711520D01*
X130306980Y-144719047D01*
X130176245Y-144726573D01*
X130176245Y-142254082D01*
X130450166Y-142254082D01*
X130457150Y-142391923D01*
X130480682Y-142487607D01*
X130524635Y-142547141D01*
X130592882Y-142576529D01*
X130661833Y-142582402D01*
X130739886Y-142575654D01*
X130791689Y-142549094D01*
X130824083Y-142513999D01*
X130849584Y-142476252D01*
X130864765Y-142434200D01*
X130871519Y-142375279D01*
X130871741Y-142286928D01*
X130869468Y-142212948D01*
X130864249Y-142101500D01*
X130856479Y-142028333D01*
X130843395Y-141981922D01*
X130822232Y-141950744D01*
X130802260Y-141932723D01*
X130718814Y-141893425D01*
X130620051Y-141887079D01*
X130563341Y-141900616D01*
X130507192Y-141948733D01*
X130469999Y-142042333D01*
X130451972Y-142180754D01*
X130450166Y-142254082D01*
X130176245Y-142254082D01*
X130176245Y-141636128D01*
X130313205Y-141636128D01*
X130395435Y-141639379D01*
X130437860Y-141650926D01*
X130450161Y-141673452D01*
X130450166Y-141674120D01*
X130455874Y-141696181D01*
X130481047Y-141693676D01*
X130531098Y-141669435D01*
X130647719Y-141632351D01*
X130778929Y-141628453D01*
X130903409Y-141657060D01*
G36*
X131942220Y-143513422D02*
G01*
X132059370Y-143544680D01*
X132148551Y-143601337D01*
X132211484Y-143675545D01*
X132231048Y-143707216D01*
X132245492Y-143740391D01*
X132255589Y-143782829D01*
X132262115Y-143842288D01*
X132265842Y-143926529D01*
X132267546Y-144043310D01*
X132268000Y-144200390D01*
X132268009Y-144242065D01*
X132268009Y-144723971D01*
X132148480Y-144723971D01*
X132072239Y-144718631D01*
X132015866Y-144705104D01*
X132001742Y-144696762D01*
X131963130Y-144682364D01*
X131923692Y-144696762D01*
X131858762Y-144714737D01*
X131764445Y-144721972D01*
X131659907Y-144718833D01*
X131564311Y-144705686D01*
X131508500Y-144688818D01*
X131400498Y-144619486D01*
X131333003Y-144523272D01*
X131302659Y-144395344D01*
X131302377Y-144392059D01*
X131305040Y-144335308D01*
X131545853Y-144335308D01*
X131566905Y-144399858D01*
X131601197Y-144436186D01*
X131670032Y-144463662D01*
X131760890Y-144474629D01*
X131853542Y-144469231D01*
X131927756Y-144447610D01*
X131948549Y-144433739D01*
X131984881Y-144369643D01*
X131994088Y-144296778D01*
X131994088Y-144201030D01*
X131856327Y-144201030D01*
X131725453Y-144211105D01*
X131626241Y-144239648D01*
X131564523Y-144284139D01*
X131545853Y-144335308D01*
X131305040Y-144335308D01*
X131308936Y-144252290D01*
X131355034Y-144141782D01*
X131441700Y-144058212D01*
X131453679Y-144050610D01*
X131505155Y-144025857D01*
X131568868Y-144010868D01*
X131657935Y-144003582D01*
X131763745Y-144001907D01*
X131994088Y-144001814D01*
X131994088Y-143905255D01*
X131984317Y-143830336D01*
X131959384Y-143780144D01*
X131956465Y-143777472D01*
X131900981Y-143755515D01*
X131817227Y-143747005D01*
X131724667Y-143751187D01*
X131642770Y-143767309D01*
X131594173Y-143791490D01*
X131567841Y-143810859D01*
X131540035Y-143814557D01*
X131501661Y-143798688D01*
X131443625Y-143759355D01*
X131356831Y-143692664D01*
X131348865Y-143686416D01*
X131352947Y-143663300D01*
X131387001Y-143624852D01*
X131438760Y-143582127D01*
X131495955Y-143546179D01*
X131513925Y-143537691D01*
X131579472Y-143520752D01*
X131675520Y-143508670D01*
X131782829Y-143503823D01*
X131787847Y-143503813D01*
X131942220Y-143513422D01*
G37*
X131942220Y-143513422D02*
X132059370Y-143544680D01*
X132148551Y-143601337D01*
X132211484Y-143675545D01*
X132231048Y-143707216D01*
X132245492Y-143740391D01*
X132255589Y-143782829D01*
X132262115Y-143842288D01*
X132265842Y-143926529D01*
X132267546Y-144043310D01*
X132268000Y-144200390D01*
X132268009Y-144242065D01*
X132268009Y-144723971D01*
X132148480Y-144723971D01*
X132072239Y-144718631D01*
X132015866Y-144705104D01*
X132001742Y-144696762D01*
X131963130Y-144682364D01*
X131923692Y-144696762D01*
X131858762Y-144714737D01*
X131764445Y-144721972D01*
X131659907Y-144718833D01*
X131564311Y-144705686D01*
X131508500Y-144688818D01*
X131400498Y-144619486D01*
X131333003Y-144523272D01*
X131302659Y-144395344D01*
X131302377Y-144392059D01*
X131305040Y-144335308D01*
X131545853Y-144335308D01*
X131566905Y-144399858D01*
X131601197Y-144436186D01*
X131670032Y-144463662D01*
X131760890Y-144474629D01*
X131853542Y-144469231D01*
X131927756Y-144447610D01*
X131948549Y-144433739D01*
X131984881Y-144369643D01*
X131994088Y-144296778D01*
X131994088Y-144201030D01*
X131856327Y-144201030D01*
X131725453Y-144211105D01*
X131626241Y-144239648D01*
X131564523Y-144284139D01*
X131545853Y-144335308D01*
X131305040Y-144335308D01*
X131308936Y-144252290D01*
X131355034Y-144141782D01*
X131441700Y-144058212D01*
X131453679Y-144050610D01*
X131505155Y-144025857D01*
X131568868Y-144010868D01*
X131657935Y-144003582D01*
X131763745Y-144001907D01*
X131994088Y-144001814D01*
X131994088Y-143905255D01*
X131984317Y-143830336D01*
X131959384Y-143780144D01*
X131956465Y-143777472D01*
X131900981Y-143755515D01*
X131817227Y-143747005D01*
X131724667Y-143751187D01*
X131642770Y-143767309D01*
X131594173Y-143791490D01*
X131567841Y-143810859D01*
X131540035Y-143814557D01*
X131501661Y-143798688D01*
X131443625Y-143759355D01*
X131356831Y-143692664D01*
X131348865Y-143686416D01*
X131352947Y-143663300D01*
X131387001Y-143624852D01*
X131438760Y-143582127D01*
X131495955Y-143546179D01*
X131513925Y-143537691D01*
X131579472Y-143520752D01*
X131675520Y-143508670D01*
X131782829Y-143503823D01*
X131787847Y-143503813D01*
X131942220Y-143513422D01*
G36*
X132716264Y-143506421D02*
G01*
X132753530Y-143517591D01*
X132765543Y-143542133D01*
X132766049Y-143553212D01*
X132768204Y-143584072D01*
X132783051Y-143588917D01*
X132823157Y-143567760D01*
X132846980Y-143553306D01*
X132922138Y-143522350D01*
X133011906Y-143507044D01*
X133106029Y-143505867D01*
X133194254Y-143517299D01*
X133266326Y-143539820D01*
X133311992Y-143571909D01*
X133320998Y-143612045D01*
X133316453Y-143622915D01*
X133283321Y-143668034D01*
X133231945Y-143723526D01*
X133222652Y-143732496D01*
X133173682Y-143773745D01*
X133131431Y-143787072D01*
X133072341Y-143777771D01*
X133048669Y-143771590D01*
X132975004Y-143756746D01*
X132923210Y-143763421D01*
X132879469Y-143786965D01*
X132839402Y-143818561D01*
X132809892Y-143858298D01*
X132789384Y-143913752D01*
X132776324Y-143992503D01*
X132769156Y-144102129D01*
X132766324Y-144250206D01*
X132766049Y-144339611D01*
X132766049Y-144723971D01*
X132517029Y-144723971D01*
X132517029Y-143503775D01*
X132641539Y-143503775D01*
X132716264Y-143506421D01*
G37*
X132716264Y-143506421D02*
X132753530Y-143517591D01*
X132765543Y-143542133D01*
X132766049Y-143553212D01*
X132768204Y-143584072D01*
X132783051Y-143588917D01*
X132823157Y-143567760D01*
X132846980Y-143553306D01*
X132922138Y-143522350D01*
X133011906Y-143507044D01*
X133106029Y-143505867D01*
X133194254Y-143517299D01*
X133266326Y-143539820D01*
X133311992Y-143571909D01*
X133320998Y-143612045D01*
X133316453Y-143622915D01*
X133283321Y-143668034D01*
X133231945Y-143723526D01*
X133222652Y-143732496D01*
X133173682Y-143773745D01*
X133131431Y-143787072D01*
X133072341Y-143777771D01*
X133048669Y-143771590D01*
X132975004Y-143756746D01*
X132923210Y-143763421D01*
X132879469Y-143786965D01*
X132839402Y-143818561D01*
X132809892Y-143858298D01*
X132789384Y-143913752D01*
X132776324Y-143992503D01*
X132769156Y-144102129D01*
X132766324Y-144250206D01*
X132766049Y-144339611D01*
X132766049Y-144723971D01*
X132517029Y-144723971D01*
X132517029Y-143503775D01*
X132641539Y-143503775D01*
X132716264Y-143506421D01*
G36*
X134285068Y-144723971D02*
G01*
X134148107Y-144723971D01*
X134068611Y-144721640D01*
X134027208Y-144711988D01*
X134012301Y-144691025D01*
X134011147Y-144676851D01*
X134008633Y-144648427D01*
X133992780Y-144642975D01*
X133951121Y-144660498D01*
X133918724Y-144676851D01*
X133794349Y-144715603D01*
X133659146Y-144717846D01*
X133549226Y-144688944D01*
X133446866Y-144619119D01*
X133368840Y-144516055D01*
X133326114Y-144394489D01*
X133325026Y-144387692D01*
X133318678Y-144313532D01*
X133315521Y-144207070D01*
X133315775Y-144126552D01*
X133587789Y-144126552D01*
X133594090Y-144233570D01*
X133608425Y-144321778D01*
X133627831Y-144371590D01*
X133701246Y-144439662D01*
X133788414Y-144464064D01*
X133878304Y-144444331D01*
X133955117Y-144385468D01*
X133984208Y-144345879D01*
X134001217Y-144298638D01*
X134009184Y-144229681D01*
X134011147Y-144126107D01*
X134007634Y-144023539D01*
X133998357Y-143933421D01*
X133985206Y-143873113D01*
X133983014Y-143867708D01*
X133929978Y-143803440D01*
X133852567Y-143768156D01*
X133765954Y-143762459D01*
X133685307Y-143786953D01*
X133625797Y-143842242D01*
X133619624Y-143853243D01*
X133600301Y-143920327D01*
X133589774Y-144016784D01*
X133587789Y-144126552D01*
X133315775Y-144126552D01*
X133315904Y-144085725D01*
X133317694Y-144020418D01*
X133329873Y-143858855D01*
X133355185Y-143737553D01*
X133397293Y-143647879D01*
X133459859Y-143581199D01*
X133520600Y-143542057D01*
X133605464Y-143514540D01*
X133711015Y-143505103D01*
X133819098Y-143512790D01*
X133911558Y-143536646D01*
X133960410Y-143565185D01*
X134011147Y-143611101D01*
X134011147Y-143030637D01*
X134285068Y-143030637D01*
X134285068Y-144723971D01*
G37*
X134285068Y-144723971D02*
X134148107Y-144723971D01*
X134068611Y-144721640D01*
X134027208Y-144711988D01*
X134012301Y-144691025D01*
X134011147Y-144676851D01*
X134008633Y-144648427D01*
X133992780Y-144642975D01*
X133951121Y-144660498D01*
X133918724Y-144676851D01*
X133794349Y-144715603D01*
X133659146Y-144717846D01*
X133549226Y-144688944D01*
X133446866Y-144619119D01*
X133368840Y-144516055D01*
X133326114Y-144394489D01*
X133325026Y-144387692D01*
X133318678Y-144313532D01*
X133315521Y-144207070D01*
X133315775Y-144126552D01*
X133587789Y-144126552D01*
X133594090Y-144233570D01*
X133608425Y-144321778D01*
X133627831Y-144371590D01*
X133701246Y-144439662D01*
X133788414Y-144464064D01*
X133878304Y-144444331D01*
X133955117Y-144385468D01*
X133984208Y-144345879D01*
X134001217Y-144298638D01*
X134009184Y-144229681D01*
X134011147Y-144126107D01*
X134007634Y-144023539D01*
X133998357Y-143933421D01*
X133985206Y-143873113D01*
X133983014Y-143867708D01*
X133929978Y-143803440D01*
X133852567Y-143768156D01*
X133765954Y-143762459D01*
X133685307Y-143786953D01*
X133625797Y-143842242D01*
X133619624Y-143853243D01*
X133600301Y-143920327D01*
X133589774Y-144016784D01*
X133587789Y-144126552D01*
X133315775Y-144126552D01*
X133315904Y-144085725D01*
X133317694Y-144020418D01*
X133329873Y-143858855D01*
X133355185Y-143737553D01*
X133397293Y-143647879D01*
X133459859Y-143581199D01*
X133520600Y-143542057D01*
X133605464Y-143514540D01*
X133711015Y-143505103D01*
X133819098Y-143512790D01*
X133911558Y-143536646D01*
X133960410Y-143565185D01*
X134011147Y-143611101D01*
X134011147Y-143030637D01*
X134285068Y-143030637D01*
X134285068Y-144723971D01*
G36*
X135241028Y-143508832D02*
G01*
X135339514Y-143516226D01*
X135468276Y-143902206D01*
X135597037Y-144288186D01*
X135637411Y-144151226D01*
X135661707Y-144066583D01*
X135693667Y-143952197D01*
X135728179Y-143826463D01*
X135746428Y-143759020D01*
X135815071Y-143503775D01*
X136098273Y-143503775D01*
X136013622Y-143771471D01*
X135971935Y-143903138D01*
X135921574Y-144061958D01*
X135868981Y-144227628D01*
X135822030Y-144375343D01*
X135715089Y-144711520D01*
X135484161Y-144726544D01*
X135421550Y-144519816D01*
X135382938Y-144391396D01*
X135340800Y-144249822D01*
X135303972Y-144124785D01*
X135302518Y-144119809D01*
X135275011Y-144035086D01*
X135250742Y-143977278D01*
X135233743Y-143955418D01*
X135230250Y-143957946D01*
X135217990Y-143991836D01*
X135194695Y-144064430D01*
X135163200Y-144166601D01*
X135126342Y-144289220D01*
X135106399Y-144356667D01*
X134998395Y-144723971D01*
X134769179Y-144723971D01*
X134585939Y-144145000D01*
X134534463Y-143982591D01*
X134487570Y-143835102D01*
X134447477Y-143709460D01*
X134416397Y-143612595D01*
X134396545Y-143551434D01*
X134390511Y-143533565D01*
X134395288Y-143515268D01*
X134432797Y-143507255D01*
X134510855Y-143508057D01*
X134523074Y-143508663D01*
X134667826Y-143516226D01*
X134762630Y-143864853D01*
X134797477Y-143991997D01*
X134828617Y-144103765D01*
X134853309Y-144190453D01*
X134868812Y-144242356D01*
X134871676Y-144250818D01*
X134883546Y-144241087D01*
X134907483Y-144190672D01*
X134940739Y-144106435D01*
X134980564Y-143995241D01*
X135014230Y-143894797D01*
X135142541Y-143501439D01*
X135241028Y-143508832D01*
G37*
X135241028Y-143508832D02*
X135339514Y-143516226D01*
X135468276Y-143902206D01*
X135597037Y-144288186D01*
X135637411Y-144151226D01*
X135661707Y-144066583D01*
X135693667Y-143952197D01*
X135728179Y-143826463D01*
X135746428Y-143759020D01*
X135815071Y-143503775D01*
X136098273Y-143503775D01*
X136013622Y-143771471D01*
X135971935Y-143903138D01*
X135921574Y-144061958D01*
X135868981Y-144227628D01*
X135822030Y-144375343D01*
X135715089Y-144711520D01*
X135484161Y-144726544D01*
X135421550Y-144519816D01*
X135382938Y-144391396D01*
X135340800Y-144249822D01*
X135303972Y-144124785D01*
X135302518Y-144119809D01*
X135275011Y-144035086D01*
X135250742Y-143977278D01*
X135233743Y-143955418D01*
X135230250Y-143957946D01*
X135217990Y-143991836D01*
X135194695Y-144064430D01*
X135163200Y-144166601D01*
X135126342Y-144289220D01*
X135106399Y-144356667D01*
X134998395Y-144723971D01*
X134769179Y-144723971D01*
X134585939Y-144145000D01*
X134534463Y-143982591D01*
X134487570Y-143835102D01*
X134447477Y-143709460D01*
X134416397Y-143612595D01*
X134396545Y-143551434D01*
X134390511Y-143533565D01*
X134395288Y-143515268D01*
X134432797Y-143507255D01*
X134510855Y-143508057D01*
X134523074Y-143508663D01*
X134667826Y-143516226D01*
X134762630Y-143864853D01*
X134797477Y-143991997D01*
X134828617Y-144103765D01*
X134853309Y-144190453D01*
X134868812Y-144242356D01*
X134871676Y-144250818D01*
X134883546Y-144241087D01*
X134907483Y-144190672D01*
X134940739Y-144106435D01*
X134980564Y-143995241D01*
X135014230Y-143894797D01*
X135142541Y-143501439D01*
X135241028Y-143508832D01*
G36*
X136739959Y-143511169D02*
G01*
X136844920Y-143536663D01*
X136875261Y-143550169D01*
X136934073Y-143585546D01*
X136979209Y-143625390D01*
X137012606Y-143676620D01*
X137036201Y-143746154D01*
X137051933Y-143840909D01*
X137061739Y-143967805D01*
X137067557Y-144133758D01*
X137069766Y-144244608D01*
X137077896Y-144723971D01*
X136939031Y-144723971D01*
X136854787Y-144720438D01*
X136811384Y-144708366D01*
X136800166Y-144688094D01*
X136794244Y-144666174D01*
X136767766Y-144670365D01*
X136731686Y-144687941D01*
X136641362Y-144714882D01*
X136525277Y-144722142D01*
X136403180Y-144710267D01*
X136294821Y-144679805D01*
X136285102Y-144675577D01*
X136186068Y-144606005D01*
X136120781Y-144509289D01*
X136090740Y-144396238D01*
X136093035Y-144355622D01*
X136338133Y-144355622D01*
X136359729Y-144410282D01*
X136423759Y-144449452D01*
X136527065Y-144470474D01*
X136582274Y-144473266D01*
X136674282Y-144466120D01*
X136735441Y-144438348D01*
X136750362Y-144425147D01*
X136790787Y-144353329D01*
X136800166Y-144288186D01*
X136800166Y-144201030D01*
X136678769Y-144201030D01*
X136537653Y-144208222D01*
X136438673Y-144230845D01*
X136376133Y-144270464D01*
X136362131Y-144288128D01*
X136338133Y-144355622D01*
X136093035Y-144355622D01*
X136097441Y-144277657D01*
X136142380Y-144164355D01*
X136203696Y-144087785D01*
X136240832Y-144054681D01*
X136277187Y-144032925D01*
X136324490Y-144019661D01*
X136394473Y-144012028D01*
X136498864Y-144007170D01*
X136540270Y-144005773D01*
X136800166Y-143997280D01*
X136799785Y-143918616D01*
X136789719Y-143835928D01*
X136753329Y-143785931D01*
X136679811Y-143753989D01*
X136677839Y-143753420D01*
X136573605Y-143740861D01*
X136471608Y-143757266D01*
X136395805Y-143797157D01*
X136365390Y-143816854D01*
X136332632Y-143814129D01*
X136282221Y-143785591D01*
X136252619Y-143765450D01*
X136194718Y-143722419D01*
X136158852Y-143690162D01*
X136153097Y-143680927D01*
X136176795Y-143633136D01*
X136246813Y-143576062D01*
X136277225Y-143556805D01*
X136364655Y-143523640D01*
X136482483Y-143504850D01*
X136613366Y-143500629D01*
X136739959Y-143511169D01*
G37*
X136739959Y-143511169D02*
X136844920Y-143536663D01*
X136875261Y-143550169D01*
X136934073Y-143585546D01*
X136979209Y-143625390D01*
X137012606Y-143676620D01*
X137036201Y-143746154D01*
X137051933Y-143840909D01*
X137061739Y-143967805D01*
X137067557Y-144133758D01*
X137069766Y-144244608D01*
X137077896Y-144723971D01*
X136939031Y-144723971D01*
X136854787Y-144720438D01*
X136811384Y-144708366D01*
X136800166Y-144688094D01*
X136794244Y-144666174D01*
X136767766Y-144670365D01*
X136731686Y-144687941D01*
X136641362Y-144714882D01*
X136525277Y-144722142D01*
X136403180Y-144710267D01*
X136294821Y-144679805D01*
X136285102Y-144675577D01*
X136186068Y-144606005D01*
X136120781Y-144509289D01*
X136090740Y-144396238D01*
X136093035Y-144355622D01*
X136338133Y-144355622D01*
X136359729Y-144410282D01*
X136423759Y-144449452D01*
X136527065Y-144470474D01*
X136582274Y-144473266D01*
X136674282Y-144466120D01*
X136735441Y-144438348D01*
X136750362Y-144425147D01*
X136790787Y-144353329D01*
X136800166Y-144288186D01*
X136800166Y-144201030D01*
X136678769Y-144201030D01*
X136537653Y-144208222D01*
X136438673Y-144230845D01*
X136376133Y-144270464D01*
X136362131Y-144288128D01*
X136338133Y-144355622D01*
X136093035Y-144355622D01*
X136097441Y-144277657D01*
X136142380Y-144164355D01*
X136203696Y-144087785D01*
X136240832Y-144054681D01*
X136277187Y-144032925D01*
X136324490Y-144019661D01*
X136394473Y-144012028D01*
X136498864Y-144007170D01*
X136540270Y-144005773D01*
X136800166Y-143997280D01*
X136799785Y-143918616D01*
X136789719Y-143835928D01*
X136753329Y-143785931D01*
X136679811Y-143753989D01*
X136677839Y-143753420D01*
X136573605Y-143740861D01*
X136471608Y-143757266D01*
X136395805Y-143797157D01*
X136365390Y-143816854D01*
X136332632Y-143814129D01*
X136282221Y-143785591D01*
X136252619Y-143765450D01*
X136194718Y-143722419D01*
X136158852Y-143690162D01*
X136153097Y-143680927D01*
X136176795Y-143633136D01*
X136246813Y-143576062D01*
X136277225Y-143556805D01*
X136364655Y-143523640D01*
X136482483Y-143504850D01*
X136613366Y-143500629D01*
X136739959Y-143511169D01*
G36*
X137921946Y-143503383D02*
G01*
X138017677Y-143522255D01*
X138072177Y-143550199D01*
X138129508Y-143596623D01*
X138047941Y-143699611D01*
X137997650Y-143761979D01*
X137963501Y-143792407D01*
X137929563Y-143797055D01*
X137879906Y-143782086D01*
X137856596Y-143773617D01*
X137761563Y-143761122D01*
X137674532Y-143787906D01*
X137610638Y-143848415D01*
X137600259Y-143867708D01*
X137588956Y-143918814D01*
X137580232Y-144013000D01*
X137574497Y-144143589D01*
X137572160Y-144303905D01*
X137572127Y-144326711D01*
X137572127Y-144723971D01*
X137298205Y-144723971D01*
X137298205Y-143503775D01*
X137435166Y-143503775D01*
X137514138Y-143505837D01*
X137555279Y-143515013D01*
X137570492Y-143535790D01*
X137572127Y-143555386D01*
X137572127Y-143606997D01*
X137637740Y-143555386D01*
X137712975Y-143520175D01*
X137814044Y-143502765D01*
X137921946Y-143503383D01*
G37*
X137921946Y-143503383D02*
X138017677Y-143522255D01*
X138072177Y-143550199D01*
X138129508Y-143596623D01*
X138047941Y-143699611D01*
X137997650Y-143761979D01*
X137963501Y-143792407D01*
X137929563Y-143797055D01*
X137879906Y-143782086D01*
X137856596Y-143773617D01*
X137761563Y-143761122D01*
X137674532Y-143787906D01*
X137610638Y-143848415D01*
X137600259Y-143867708D01*
X137588956Y-143918814D01*
X137580232Y-144013000D01*
X137574497Y-144143589D01*
X137572160Y-144303905D01*
X137572127Y-144326711D01*
X137572127Y-144723971D01*
X137298205Y-144723971D01*
X137298205Y-143503775D01*
X137435166Y-143503775D01*
X137514138Y-143505837D01*
X137555279Y-143515013D01*
X137570492Y-143535790D01*
X137572127Y-143555386D01*
X137572127Y-143606997D01*
X137637740Y-143555386D01*
X137712975Y-143520175D01*
X137814044Y-143502765D01*
X137921946Y-143503383D01*
G36*
X138708807Y-143510284D02*
G01*
X138827837Y-143541231D01*
X138927521Y-143605100D01*
X138975788Y-143652813D01*
X139054908Y-143765606D01*
X139100252Y-143896450D01*
X139115830Y-144057292D01*
X139115910Y-144070294D01*
X139116049Y-144201030D01*
X138363591Y-144201030D01*
X138379630Y-144269510D01*
X138408591Y-144331531D01*
X138459278Y-144396154D01*
X138469879Y-144406471D01*
X138560994Y-144462305D01*
X138664900Y-144471775D01*
X138784500Y-144435040D01*
X138804774Y-144425147D01*
X138866956Y-144395074D01*
X138908606Y-144377940D01*
X138915873Y-144376355D01*
X138941240Y-144391742D01*
X138989620Y-144429387D01*
X139014179Y-144449959D01*
X139065070Y-144497214D01*
X139081781Y-144528417D01*
X139070183Y-144557120D01*
X139063983Y-144564968D01*
X139021993Y-144599319D01*
X138952706Y-144641065D01*
X138904382Y-144665435D01*
X138767211Y-144708373D01*
X138615347Y-144722286D01*
X138471524Y-144705800D01*
X138431245Y-144693996D01*
X138306578Y-144627189D01*
X138214171Y-144524392D01*
X138153490Y-144384605D01*
X138123998Y-144206830D01*
X138120760Y-144113873D01*
X138130214Y-143978533D01*
X138368990Y-143978533D01*
X138392084Y-143988538D01*
X138454162Y-143996388D01*
X138544414Y-144001021D01*
X138605558Y-144001814D01*
X138715540Y-144001049D01*
X138784957Y-143997470D01*
X138823038Y-143989149D01*
X138839015Y-143974157D01*
X138842127Y-143952403D01*
X138820778Y-143885392D01*
X138767029Y-143819164D01*
X138696322Y-143768332D01*
X138625589Y-143747538D01*
X138529516Y-143765984D01*
X138446349Y-143819311D01*
X138388686Y-143896177D01*
X138368990Y-143978533D01*
X138130214Y-143978533D01*
X138134528Y-143916791D01*
X138177020Y-143759771D01*
X138249135Y-143641569D01*
X138351773Y-143560940D01*
X138485832Y-143516639D01*
X138558457Y-143508107D01*
X138708807Y-143510284D01*
G37*
X138708807Y-143510284D02*
X138827837Y-143541231D01*
X138927521Y-143605100D01*
X138975788Y-143652813D01*
X139054908Y-143765606D01*
X139100252Y-143896450D01*
X139115830Y-144057292D01*
X139115910Y-144070294D01*
X139116049Y-144201030D01*
X138363591Y-144201030D01*
X138379630Y-144269510D01*
X138408591Y-144331531D01*
X138459278Y-144396154D01*
X138469879Y-144406471D01*
X138560994Y-144462305D01*
X138664900Y-144471775D01*
X138784500Y-144435040D01*
X138804774Y-144425147D01*
X138866956Y-144395074D01*
X138908606Y-144377940D01*
X138915873Y-144376355D01*
X138941240Y-144391742D01*
X138989620Y-144429387D01*
X139014179Y-144449959D01*
X139065070Y-144497214D01*
X139081781Y-144528417D01*
X139070183Y-144557120D01*
X139063983Y-144564968D01*
X139021993Y-144599319D01*
X138952706Y-144641065D01*
X138904382Y-144665435D01*
X138767211Y-144708373D01*
X138615347Y-144722286D01*
X138471524Y-144705800D01*
X138431245Y-144693996D01*
X138306578Y-144627189D01*
X138214171Y-144524392D01*
X138153490Y-144384605D01*
X138123998Y-144206830D01*
X138120760Y-144113873D01*
X138130214Y-143978533D01*
X138368990Y-143978533D01*
X138392084Y-143988538D01*
X138454162Y-143996388D01*
X138544414Y-144001021D01*
X138605558Y-144001814D01*
X138715540Y-144001049D01*
X138784957Y-143997470D01*
X138823038Y-143989149D01*
X138839015Y-143974157D01*
X138842127Y-143952403D01*
X138820778Y-143885392D01*
X138767029Y-143819164D01*
X138696322Y-143768332D01*
X138625589Y-143747538D01*
X138529516Y-143765984D01*
X138446349Y-143819311D01*
X138388686Y-143896177D01*
X138368990Y-143978533D01*
X138130214Y-143978533D01*
X138134528Y-143916791D01*
X138177020Y-143759771D01*
X138249135Y-143641569D01*
X138351773Y-143560940D01*
X138485832Y-143516639D01*
X138558457Y-143508107D01*
X138708807Y-143510284D01*
G36*
X129656747Y-141649068D02*
G01*
X129787022Y-141706663D01*
X129885919Y-141802834D01*
X129953582Y-141937729D01*
X129990155Y-142111496D01*
X129992776Y-142138626D01*
X129994830Y-142329908D01*
X129968199Y-142497573D01*
X129914501Y-142633467D01*
X129885747Y-142677181D01*
X129785591Y-142769698D01*
X129658037Y-142829619D01*
X129515337Y-142854485D01*
X129369740Y-142841839D01*
X129259062Y-142802891D01*
X129163884Y-142737255D01*
X129086094Y-142651199D01*
X129084749Y-142649185D01*
X129053157Y-142596070D01*
X129032627Y-142542660D01*
X129020195Y-142475254D01*
X129012897Y-142380153D01*
X129009682Y-142302166D01*
X129008344Y-142231444D01*
X129257314Y-142231444D01*
X129259747Y-142301848D01*
X129268580Y-142395568D01*
X129284164Y-142455714D01*
X129312266Y-142498506D01*
X129338586Y-142523502D01*
X129431892Y-142575838D01*
X129529520Y-142582833D01*
X129620442Y-142545176D01*
X129665902Y-142502979D01*
X129698662Y-142460456D01*
X129717823Y-142419767D01*
X129726233Y-142366814D01*
X129726737Y-142287497D01*
X129724145Y-142214450D01*
X129718571Y-142110101D01*
X129709734Y-142042420D01*
X129693807Y-141998274D01*
X129666962Y-141964531D01*
X129645689Y-141945246D01*
X129556706Y-141894586D01*
X129460711Y-141892060D01*
X129380219Y-141922067D01*
X129311553Y-141984731D01*
X129270644Y-142087668D01*
X129257314Y-142231444D01*
X129008344Y-142231444D01*
X129006746Y-142147082D01*
X129011760Y-142031100D01*
X129026783Y-141943867D01*
X129053876Y-141875030D01*
X129095100Y-141814237D01*
X129110385Y-141796186D01*
X129205954Y-141706246D01*
X129308461Y-141653711D01*
X129433821Y-141631701D01*
X129494950Y-141629902D01*
X129656747Y-141649068D01*
G37*
X129656747Y-141649068D02*
X129787022Y-141706663D01*
X129885919Y-141802834D01*
X129953582Y-141937729D01*
X129990155Y-142111496D01*
X129992776Y-142138626D01*
X129994830Y-142329908D01*
X129968199Y-142497573D01*
X129914501Y-142633467D01*
X129885747Y-142677181D01*
X129785591Y-142769698D01*
X129658037Y-142829619D01*
X129515337Y-142854485D01*
X129369740Y-142841839D01*
X129259062Y-142802891D01*
X129163884Y-142737255D01*
X129086094Y-142651199D01*
X129084749Y-142649185D01*
X129053157Y-142596070D01*
X129032627Y-142542660D01*
X129020195Y-142475254D01*
X129012897Y-142380153D01*
X129009682Y-142302166D01*
X129008344Y-142231444D01*
X129257314Y-142231444D01*
X129259747Y-142301848D01*
X129268580Y-142395568D01*
X129284164Y-142455714D01*
X129312266Y-142498506D01*
X129338586Y-142523502D01*
X129431892Y-142575838D01*
X129529520Y-142582833D01*
X129620442Y-142545176D01*
X129665902Y-142502979D01*
X129698662Y-142460456D01*
X129717823Y-142419767D01*
X129726233Y-142366814D01*
X129726737Y-142287497D01*
X129724145Y-142214450D01*
X129718571Y-142110101D01*
X129709734Y-142042420D01*
X129693807Y-141998274D01*
X129666962Y-141964531D01*
X129645689Y-141945246D01*
X129556706Y-141894586D01*
X129460711Y-141892060D01*
X129380219Y-141922067D01*
X129311553Y-141984731D01*
X129270644Y-142087668D01*
X129257314Y-142231444D01*
X129008344Y-142231444D01*
X129006746Y-142147082D01*
X129011760Y-142031100D01*
X129026783Y-141943867D01*
X129053876Y-141875030D01*
X129095100Y-141814237D01*
X129110385Y-141796186D01*
X129205954Y-141706246D01*
X129308461Y-141653711D01*
X129433821Y-141631701D01*
X129494950Y-141629902D01*
X129656747Y-141649068D01*
G36*
X131996704Y-141663854D02*
G01*
X132021519Y-141675537D01*
X132107406Y-141738451D01*
X132188621Y-141830269D01*
X132249264Y-141931368D01*
X132266512Y-141977849D01*
X132282249Y-142060876D01*
X132291633Y-142161213D01*
X132292772Y-142202647D01*
X132292911Y-142333382D01*
X131540453Y-142333382D01*
X131556493Y-142401863D01*
X131595863Y-142482855D01*
X131664694Y-142552851D01*
X131746581Y-142597941D01*
X131798763Y-142607304D01*
X131869529Y-142595941D01*
X131953960Y-142567443D01*
X131982642Y-142554331D01*
X132088709Y-142501358D01*
X132179228Y-142570401D01*
X132231461Y-142617097D01*
X132259253Y-142655640D01*
X132260660Y-142666952D01*
X132235832Y-142694368D01*
X132181417Y-142736032D01*
X132132028Y-142768537D01*
X131998752Y-142826968D01*
X131849339Y-142853415D01*
X131701251Y-142846539D01*
X131583205Y-142810596D01*
X131461518Y-142733601D01*
X131375040Y-142632228D01*
X131320941Y-142501070D01*
X131296391Y-142334724D01*
X131294214Y-142258608D01*
X131302927Y-142084185D01*
X131303997Y-142079111D01*
X131553327Y-142079111D01*
X131560194Y-142095468D01*
X131588417Y-142104488D01*
X131646627Y-142108354D01*
X131743458Y-142109249D01*
X131780743Y-142109265D01*
X131894183Y-142107913D01*
X131966122Y-142103005D01*
X132004813Y-142093260D01*
X132018505Y-142077399D01*
X132018990Y-142072305D01*
X132003363Y-142031826D01*
X131964253Y-141975121D01*
X131947439Y-141955266D01*
X131885019Y-141899111D01*
X131819953Y-141877032D01*
X131784897Y-141875186D01*
X131690058Y-141898266D01*
X131610527Y-141960259D01*
X131560077Y-142050302D01*
X131559183Y-142053235D01*
X131553327Y-142079111D01*
X131303997Y-142079111D01*
X131331899Y-141946843D01*
X131384090Y-141836961D01*
X131447921Y-141758961D01*
X131565933Y-141674382D01*
X131704658Y-141629186D01*
X131852210Y-141625100D01*
X131996704Y-141663854D01*
G37*
X131996704Y-141663854D02*
X132021519Y-141675537D01*
X132107406Y-141738451D01*
X132188621Y-141830269D01*
X132249264Y-141931368D01*
X132266512Y-141977849D01*
X132282249Y-142060876D01*
X132291633Y-142161213D01*
X132292772Y-142202647D01*
X132292911Y-142333382D01*
X131540453Y-142333382D01*
X131556493Y-142401863D01*
X131595863Y-142482855D01*
X131664694Y-142552851D01*
X131746581Y-142597941D01*
X131798763Y-142607304D01*
X131869529Y-142595941D01*
X131953960Y-142567443D01*
X131982642Y-142554331D01*
X132088709Y-142501358D01*
X132179228Y-142570401D01*
X132231461Y-142617097D01*
X132259253Y-142655640D01*
X132260660Y-142666952D01*
X132235832Y-142694368D01*
X132181417Y-142736032D01*
X132132028Y-142768537D01*
X131998752Y-142826968D01*
X131849339Y-142853415D01*
X131701251Y-142846539D01*
X131583205Y-142810596D01*
X131461518Y-142733601D01*
X131375040Y-142632228D01*
X131320941Y-142501070D01*
X131296391Y-142334724D01*
X131294214Y-142258608D01*
X131302927Y-142084185D01*
X131303997Y-142079111D01*
X131553327Y-142079111D01*
X131560194Y-142095468D01*
X131588417Y-142104488D01*
X131646627Y-142108354D01*
X131743458Y-142109249D01*
X131780743Y-142109265D01*
X131894183Y-142107913D01*
X131966122Y-142103005D01*
X132004813Y-142093260D01*
X132018505Y-142077399D01*
X132018990Y-142072305D01*
X132003363Y-142031826D01*
X131964253Y-141975121D01*
X131947439Y-141955266D01*
X131885019Y-141899111D01*
X131819953Y-141877032D01*
X131784897Y-141875186D01*
X131690058Y-141898266D01*
X131610527Y-141960259D01*
X131560077Y-142050302D01*
X131559183Y-142053235D01*
X131553327Y-142079111D01*
X131303997Y-142079111D01*
X131331899Y-141946843D01*
X131384090Y-141836961D01*
X131447921Y-141758961D01*
X131565933Y-141674382D01*
X131704658Y-141629186D01*
X131852210Y-141625100D01*
X131996704Y-141663854D01*
G36*
X134711259Y-141631845D02*
G01*
X134805559Y-141649729D01*
X134903390Y-141687133D01*
X134913843Y-141691902D01*
X134988031Y-141730912D01*
X135039410Y-141767164D01*
X135056017Y-141790387D01*
X135040202Y-141828261D01*
X135001788Y-141884144D01*
X134984737Y-141905005D01*
X134914469Y-141987118D01*
X134823879Y-141933668D01*
X134737664Y-141898061D01*
X134638049Y-141879029D01*
X134542519Y-141877826D01*
X134468561Y-141895710D01*
X134450812Y-141906873D01*
X134417012Y-141958053D01*
X134412904Y-142017009D01*
X134438196Y-142063067D01*
X134453156Y-142071999D01*
X134497986Y-142083092D01*
X134576786Y-142096130D01*
X134673926Y-142108588D01*
X134691846Y-142110542D01*
X134847865Y-142137530D01*
X134961023Y-142183373D01*
X135036069Y-142252303D01*
X135077753Y-142348554D01*
X135090738Y-142466117D01*
X135072799Y-142599754D01*
X135014550Y-142704695D01*
X134915755Y-142781130D01*
X134776182Y-142829248D01*
X134621245Y-142848232D01*
X134494898Y-142848004D01*
X134392413Y-142830762D01*
X134322421Y-142806957D01*
X134233983Y-142765478D01*
X134152254Y-142717342D01*
X134123205Y-142696155D01*
X134048500Y-142635176D01*
X134138598Y-142544008D01*
X134228696Y-142452839D01*
X134331132Y-142520628D01*
X134433874Y-142571542D01*
X134543587Y-142598173D01*
X134649051Y-142600983D01*
X134739046Y-142580435D01*
X134802354Y-142536993D01*
X134822796Y-142500338D01*
X134819729Y-142441553D01*
X134768934Y-142396599D01*
X134670548Y-142365557D01*
X134562756Y-142351210D01*
X134396865Y-142323837D01*
X134273624Y-142272193D01*
X134191386Y-142194766D01*
X134148501Y-142090044D01*
X134142560Y-141965887D01*
X134171906Y-141836202D01*
X134238809Y-141738177D01*
X134343871Y-141671366D01*
X134487690Y-141635320D01*
X134594238Y-141628254D01*
X134711259Y-141631845D01*
G37*
X134711259Y-141631845D02*
X134805559Y-141649729D01*
X134903390Y-141687133D01*
X134913843Y-141691902D01*
X134988031Y-141730912D01*
X135039410Y-141767164D01*
X135056017Y-141790387D01*
X135040202Y-141828261D01*
X135001788Y-141884144D01*
X134984737Y-141905005D01*
X134914469Y-141987118D01*
X134823879Y-141933668D01*
X134737664Y-141898061D01*
X134638049Y-141879029D01*
X134542519Y-141877826D01*
X134468561Y-141895710D01*
X134450812Y-141906873D01*
X134417012Y-141958053D01*
X134412904Y-142017009D01*
X134438196Y-142063067D01*
X134453156Y-142071999D01*
X134497986Y-142083092D01*
X134576786Y-142096130D01*
X134673926Y-142108588D01*
X134691846Y-142110542D01*
X134847865Y-142137530D01*
X134961023Y-142183373D01*
X135036069Y-142252303D01*
X135077753Y-142348554D01*
X135090738Y-142466117D01*
X135072799Y-142599754D01*
X135014550Y-142704695D01*
X134915755Y-142781130D01*
X134776182Y-142829248D01*
X134621245Y-142848232D01*
X134494898Y-142848004D01*
X134392413Y-142830762D01*
X134322421Y-142806957D01*
X134233983Y-142765478D01*
X134152254Y-142717342D01*
X134123205Y-142696155D01*
X134048500Y-142635176D01*
X134138598Y-142544008D01*
X134228696Y-142452839D01*
X134331132Y-142520628D01*
X134433874Y-142571542D01*
X134543587Y-142598173D01*
X134649051Y-142600983D01*
X134739046Y-142580435D01*
X134802354Y-142536993D01*
X134822796Y-142500338D01*
X134819729Y-142441553D01*
X134768934Y-142396599D01*
X134670548Y-142365557D01*
X134562756Y-142351210D01*
X134396865Y-142323837D01*
X134273624Y-142272193D01*
X134191386Y-142194766D01*
X134148501Y-142090044D01*
X134142560Y-141965887D01*
X134171906Y-141836202D01*
X134238809Y-141738177D01*
X134343871Y-141671366D01*
X134487690Y-141635320D01*
X134594238Y-141628254D01*
X134711259Y-141631845D01*
G36*
X135893047Y-141650864D02*
G01*
X136019002Y-141719459D01*
X136117547Y-141827745D01*
X136163978Y-141915815D01*
X136183912Y-141993601D01*
X136196828Y-142104493D01*
X136202363Y-142232238D01*
X136200154Y-142360584D01*
X136189837Y-142473279D01*
X136177786Y-142533469D01*
X136137134Y-142615811D01*
X136066730Y-142703270D01*
X135981882Y-142779751D01*
X135897897Y-142829155D01*
X135895849Y-142829939D01*
X135791634Y-142851527D01*
X135668127Y-142852062D01*
X135550761Y-142832408D01*
X135505442Y-142816655D01*
X135388720Y-142750466D01*
X135305124Y-142663746D01*
X135250201Y-142548938D01*
X135219495Y-142398482D01*
X135212547Y-142319673D01*
X135213433Y-142220645D01*
X135480362Y-142220645D01*
X135489354Y-142365145D01*
X135515236Y-142475260D01*
X135556368Y-142545616D01*
X135585672Y-142565735D01*
X135660751Y-142579765D01*
X135749994Y-142575611D01*
X135827150Y-142555422D01*
X135847383Y-142544315D01*
X135900765Y-142479623D01*
X135936000Y-142380619D01*
X135950998Y-142260132D01*
X135943672Y-142130994D01*
X135927299Y-142053275D01*
X135880290Y-141963271D01*
X135806082Y-141907009D01*
X135716709Y-141887557D01*
X135624207Y-141907981D01*
X135553153Y-141957937D01*
X135515812Y-141999155D01*
X135494018Y-142039781D01*
X135483630Y-142094764D01*
X135480506Y-142179049D01*
X135480362Y-142220645D01*
X135213433Y-142220645D01*
X135214430Y-142109374D01*
X135248680Y-141936923D01*
X135315302Y-141802314D01*
X135414299Y-141705540D01*
X135545675Y-141646594D01*
X135573885Y-141639759D01*
X135743426Y-141623713D01*
X135893047Y-141650864D01*
G37*
X135893047Y-141650864D02*
X136019002Y-141719459D01*
X136117547Y-141827745D01*
X136163978Y-141915815D01*
X136183912Y-141993601D01*
X136196828Y-142104493D01*
X136202363Y-142232238D01*
X136200154Y-142360584D01*
X136189837Y-142473279D01*
X136177786Y-142533469D01*
X136137134Y-142615811D01*
X136066730Y-142703270D01*
X135981882Y-142779751D01*
X135897897Y-142829155D01*
X135895849Y-142829939D01*
X135791634Y-142851527D01*
X135668127Y-142852062D01*
X135550761Y-142832408D01*
X135505442Y-142816655D01*
X135388720Y-142750466D01*
X135305124Y-142663746D01*
X135250201Y-142548938D01*
X135219495Y-142398482D01*
X135212547Y-142319673D01*
X135213433Y-142220645D01*
X135480362Y-142220645D01*
X135489354Y-142365145D01*
X135515236Y-142475260D01*
X135556368Y-142545616D01*
X135585672Y-142565735D01*
X135660751Y-142579765D01*
X135749994Y-142575611D01*
X135827150Y-142555422D01*
X135847383Y-142544315D01*
X135900765Y-142479623D01*
X135936000Y-142380619D01*
X135950998Y-142260132D01*
X135943672Y-142130994D01*
X135927299Y-142053275D01*
X135880290Y-141963271D01*
X135806082Y-141907009D01*
X135716709Y-141887557D01*
X135624207Y-141907981D01*
X135553153Y-141957937D01*
X135515812Y-141999155D01*
X135494018Y-142039781D01*
X135483630Y-142094764D01*
X135480506Y-142179049D01*
X135480362Y-142220645D01*
X135213433Y-142220645D01*
X135214430Y-142109374D01*
X135248680Y-141936923D01*
X135315302Y-141802314D01*
X135414299Y-141705540D01*
X135545675Y-141646594D01*
X135573885Y-141639759D01*
X135743426Y-141623713D01*
X135893047Y-141650864D01*
G36*
X136650754Y-142023745D02*
G01*
X136653108Y-142206379D01*
X136661707Y-142345100D01*
X136678860Y-142445647D01*
X136706874Y-142513754D01*
X136748057Y-142555159D01*
X136804717Y-142575597D01*
X136874872Y-142580818D01*
X136948348Y-142574968D01*
X137004157Y-142553593D01*
X137044609Y-142510958D01*
X137072009Y-142441325D01*
X137088667Y-142338960D01*
X137096889Y-142198124D01*
X137098990Y-142023745D01*
X137098990Y-141636128D01*
X137372911Y-141636128D01*
X137372911Y-142831422D01*
X137235951Y-142831422D01*
X137153384Y-142828076D01*
X137110868Y-142816326D01*
X137098990Y-142794020D01*
X137091836Y-142774154D01*
X137063365Y-142778357D01*
X137005976Y-142806471D01*
X136874445Y-142849842D01*
X136734938Y-142846770D01*
X136601265Y-142799674D01*
X136537608Y-142762471D01*
X136489053Y-142722191D01*
X136453581Y-142671791D01*
X136429174Y-142604229D01*
X136413813Y-142512465D01*
X136405482Y-142389455D01*
X136402162Y-142228159D01*
X136401735Y-142103428D01*
X136401735Y-141636128D01*
X136650754Y-141636128D01*
X136650754Y-142023745D01*
G37*
X136650754Y-142023745D02*
X136653108Y-142206379D01*
X136661707Y-142345100D01*
X136678860Y-142445647D01*
X136706874Y-142513754D01*
X136748057Y-142555159D01*
X136804717Y-142575597D01*
X136874872Y-142580818D01*
X136948348Y-142574968D01*
X137004157Y-142553593D01*
X137044609Y-142510958D01*
X137072009Y-142441325D01*
X137088667Y-142338960D01*
X137096889Y-142198124D01*
X137098990Y-142023745D01*
X137098990Y-141636128D01*
X137372911Y-141636128D01*
X137372911Y-142831422D01*
X137235951Y-142831422D01*
X137153384Y-142828076D01*
X137110868Y-142816326D01*
X137098990Y-142794020D01*
X137091836Y-142774154D01*
X137063365Y-142778357D01*
X137005976Y-142806471D01*
X136874445Y-142849842D01*
X136734938Y-142846770D01*
X136601265Y-142799674D01*
X136537608Y-142762471D01*
X136489053Y-142722191D01*
X136453581Y-142671791D01*
X136429174Y-142604229D01*
X136413813Y-142512465D01*
X136405482Y-142389455D01*
X136402162Y-142228159D01*
X136401735Y-142103428D01*
X136401735Y-141636128D01*
X136650754Y-141636128D01*
X136650754Y-142023745D01*
G36*
X139074476Y-141646556D02*
G01*
X139218756Y-141707848D01*
X139264199Y-141737685D01*
X139322279Y-141783536D01*
X139358738Y-141819589D01*
X139365068Y-141831332D01*
X139347193Y-141857389D01*
X139301450Y-141901605D01*
X139264828Y-141932465D01*
X139164588Y-142013020D01*
X139085435Y-141946418D01*
X139024269Y-141903421D01*
X138964629Y-141888579D01*
X138896372Y-141892204D01*
X138787982Y-141919152D01*
X138713372Y-141975087D01*
X138668030Y-142065514D01*
X138647447Y-142195935D01*
X138647442Y-142196017D01*
X138649222Y-142341790D01*
X138676887Y-142448745D01*
X138732071Y-142521564D01*
X138769692Y-142546223D01*
X138869605Y-142576931D01*
X138976322Y-142576949D01*
X139069169Y-142547155D01*
X139091147Y-142532598D01*
X139146265Y-142495414D01*
X139189359Y-142489320D01*
X139235835Y-142516996D01*
X139287216Y-142566705D01*
X139368546Y-142650616D01*
X139278249Y-142725046D01*
X139138736Y-142809049D01*
X138981412Y-142850447D01*
X138817003Y-142847450D01*
X138709031Y-142820000D01*
X138582831Y-142752120D01*
X138481901Y-142645331D01*
X138436048Y-142569951D01*
X138398910Y-142461797D01*
X138380327Y-142324818D01*
X138380184Y-142176364D01*
X138398365Y-142033781D01*
X138434755Y-141914418D01*
X138440487Y-141902180D01*
X138525365Y-141782155D01*
X138640282Y-141694767D01*
X138776159Y-141641829D01*
X138923917Y-141625154D01*
X139074476Y-141646556D01*
G37*
X139074476Y-141646556D02*
X139218756Y-141707848D01*
X139264199Y-141737685D01*
X139322279Y-141783536D01*
X139358738Y-141819589D01*
X139365068Y-141831332D01*
X139347193Y-141857389D01*
X139301450Y-141901605D01*
X139264828Y-141932465D01*
X139164588Y-142013020D01*
X139085435Y-141946418D01*
X139024269Y-141903421D01*
X138964629Y-141888579D01*
X138896372Y-141892204D01*
X138787982Y-141919152D01*
X138713372Y-141975087D01*
X138668030Y-142065514D01*
X138647447Y-142195935D01*
X138647442Y-142196017D01*
X138649222Y-142341790D01*
X138676887Y-142448745D01*
X138732071Y-142521564D01*
X138769692Y-142546223D01*
X138869605Y-142576931D01*
X138976322Y-142576949D01*
X139069169Y-142547155D01*
X139091147Y-142532598D01*
X139146265Y-142495414D01*
X139189359Y-142489320D01*
X139235835Y-142516996D01*
X139287216Y-142566705D01*
X139368546Y-142650616D01*
X139278249Y-142725046D01*
X139138736Y-142809049D01*
X138981412Y-142850447D01*
X138817003Y-142847450D01*
X138709031Y-142820000D01*
X138582831Y-142752120D01*
X138481901Y-142645331D01*
X138436048Y-142569951D01*
X138398910Y-142461797D01*
X138380327Y-142324818D01*
X138380184Y-142176364D01*
X138398365Y-142033781D01*
X138434755Y-141914418D01*
X138440487Y-141902180D01*
X138525365Y-141782155D01*
X138640282Y-141694767D01*
X138776159Y-141641829D01*
X138923917Y-141625154D01*
X139074476Y-141646556D01*
G36*
X139986787Y-141631855D02*
G01*
X140050551Y-141647345D01*
X140172800Y-141704069D01*
X140277334Y-141790702D01*
X140349680Y-141894574D01*
X140359619Y-141917896D01*
X140373254Y-141978984D01*
X140382798Y-142069353D01*
X140386049Y-142160690D01*
X140386049Y-142333382D01*
X140024970Y-142333382D01*
X139876046Y-142333945D01*
X139771132Y-142337364D01*
X139704437Y-142346231D01*
X139670166Y-142363141D01*
X139662528Y-142390689D01*
X139675729Y-142431468D01*
X139699377Y-142479183D01*
X139765343Y-142558814D01*
X139857012Y-142598487D01*
X139969055Y-142597195D01*
X140095972Y-142554014D01*
X140205658Y-142500724D01*
X140296673Y-142572691D01*
X140387688Y-142644657D01*
X140302063Y-142723769D01*
X140187750Y-142798517D01*
X140047166Y-142843584D01*
X139895949Y-142856196D01*
X139749736Y-142833579D01*
X139726147Y-142825905D01*
X139597641Y-142758796D01*
X139502051Y-142658747D01*
X139437361Y-142522771D01*
X139401557Y-142347880D01*
X139401140Y-142344132D01*
X139397934Y-142153532D01*
X139410893Y-142085535D01*
X139663892Y-142085535D01*
X139687127Y-142095991D01*
X139750210Y-142104000D01*
X139843206Y-142108573D01*
X139902138Y-142109265D01*
X140012037Y-142108832D01*
X140080752Y-142106078D01*
X140116905Y-142098821D01*
X140129115Y-142084876D01*
X140126004Y-142062062D01*
X140123394Y-142053235D01*
X140078844Y-141970300D01*
X140008779Y-141903460D01*
X139946946Y-141874089D01*
X139864801Y-141875862D01*
X139781562Y-141912490D01*
X139711738Y-141973134D01*
X139669837Y-142046956D01*
X139663892Y-142085535D01*
X139410893Y-142085535D01*
X139429885Y-141985895D01*
X139493273Y-141845211D01*
X139584378Y-141735474D01*
X139699478Y-141660674D01*
X139834855Y-141624804D01*
X139986787Y-141631855D01*
G37*
X139986787Y-141631855D02*
X140050551Y-141647345D01*
X140172800Y-141704069D01*
X140277334Y-141790702D01*
X140349680Y-141894574D01*
X140359619Y-141917896D01*
X140373254Y-141978984D01*
X140382798Y-142069353D01*
X140386049Y-142160690D01*
X140386049Y-142333382D01*
X140024970Y-142333382D01*
X139876046Y-142333945D01*
X139771132Y-142337364D01*
X139704437Y-142346231D01*
X139670166Y-142363141D01*
X139662528Y-142390689D01*
X139675729Y-142431468D01*
X139699377Y-142479183D01*
X139765343Y-142558814D01*
X139857012Y-142598487D01*
X139969055Y-142597195D01*
X140095972Y-142554014D01*
X140205658Y-142500724D01*
X140296673Y-142572691D01*
X140387688Y-142644657D01*
X140302063Y-142723769D01*
X140187750Y-142798517D01*
X140047166Y-142843584D01*
X139895949Y-142856196D01*
X139749736Y-142833579D01*
X139726147Y-142825905D01*
X139597641Y-142758796D01*
X139502051Y-142658747D01*
X139437361Y-142522771D01*
X139401557Y-142347880D01*
X139401140Y-142344132D01*
X139397934Y-142153532D01*
X139410893Y-142085535D01*
X139663892Y-142085535D01*
X139687127Y-142095991D01*
X139750210Y-142104000D01*
X139843206Y-142108573D01*
X139902138Y-142109265D01*
X140012037Y-142108832D01*
X140080752Y-142106078D01*
X140116905Y-142098821D01*
X140129115Y-142084876D01*
X140126004Y-142062062D01*
X140123394Y-142053235D01*
X140078844Y-141970300D01*
X140008779Y-141903460D01*
X139946946Y-141874089D01*
X139864801Y-141875862D01*
X139781562Y-141912490D01*
X139711738Y-141973134D01*
X139669837Y-142046956D01*
X139663892Y-142085535D01*
X139410893Y-142085535D01*
X139429885Y-141985895D01*
X139493273Y-141845211D01*
X139584378Y-141735474D01*
X139699478Y-141660674D01*
X139834855Y-141624804D01*
X139986787Y-141631855D01*
G36*
X133190260Y-141656699D02*
G01*
X133252236Y-141686302D01*
X133312259Y-141729061D01*
X133357986Y-141778275D01*
X133391293Y-141841044D01*
X133414055Y-141924471D01*
X133428147Y-142035659D01*
X133435442Y-142181709D01*
X133437818Y-142369723D01*
X133437855Y-142389412D01*
X133438402Y-142831422D01*
X133164480Y-142831422D01*
X133164480Y-142423935D01*
X133164285Y-142272971D01*
X133162936Y-142163556D01*
X133159288Y-142087433D01*
X133152196Y-142036348D01*
X133140513Y-142002045D01*
X133123094Y-141976268D01*
X133098829Y-141950798D01*
X133013935Y-141896071D01*
X132921261Y-141885916D01*
X132832973Y-141920517D01*
X132802270Y-141946270D01*
X132779729Y-141970482D01*
X132763546Y-141996412D01*
X132752668Y-142032208D01*
X132746042Y-142086019D01*
X132742615Y-142165993D01*
X132741334Y-142280279D01*
X132741147Y-142419407D01*
X132741147Y-142831422D01*
X132467225Y-142831422D01*
X132467225Y-141636128D01*
X132604186Y-141636128D01*
X132686416Y-141639379D01*
X132728840Y-141650926D01*
X132741141Y-141673452D01*
X132741147Y-141674120D01*
X132746854Y-141696181D01*
X132772027Y-141693677D01*
X132822078Y-141669437D01*
X132935594Y-141633771D01*
X133065445Y-141629805D01*
X133190260Y-141656699D01*
G37*
X133190260Y-141656699D02*
X133252236Y-141686302D01*
X133312259Y-141729061D01*
X133357986Y-141778275D01*
X133391293Y-141841044D01*
X133414055Y-141924471D01*
X133428147Y-142035659D01*
X133435442Y-142181709D01*
X133437818Y-142369723D01*
X133437855Y-142389412D01*
X133438402Y-142831422D01*
X133164480Y-142831422D01*
X133164480Y-142423935D01*
X133164285Y-142272971D01*
X133162936Y-142163556D01*
X133159288Y-142087433D01*
X133152196Y-142036348D01*
X133140513Y-142002045D01*
X133123094Y-141976268D01*
X133098829Y-141950798D01*
X133013935Y-141896071D01*
X132921261Y-141885916D01*
X132832973Y-141920517D01*
X132802270Y-141946270D01*
X132779729Y-141970482D01*
X132763546Y-141996412D01*
X132752668Y-142032208D01*
X132746042Y-142086019D01*
X132742615Y-142165993D01*
X132741334Y-142280279D01*
X132741147Y-142419407D01*
X132741147Y-142831422D01*
X132467225Y-142831422D01*
X132467225Y-141636128D01*
X132604186Y-141636128D01*
X132686416Y-141639379D01*
X132728840Y-141650926D01*
X132741141Y-141673452D01*
X132741147Y-141674120D01*
X132746854Y-141696181D01*
X132772027Y-141693677D01*
X132822078Y-141669437D01*
X132935594Y-141633771D01*
X133065445Y-141629805D01*
X133190260Y-141656699D01*
G36*
X138247137Y-141634972D02*
G01*
X138332790Y-141661141D01*
X138387937Y-141694207D01*
X138405901Y-141720355D01*
X138400957Y-141751352D01*
X138368872Y-141800047D01*
X138341743Y-141834535D01*
X138285817Y-141896883D01*
X138243799Y-141923115D01*
X138207980Y-141921403D01*
X138101724Y-141894363D01*
X138023689Y-141895591D01*
X137960320Y-141926235D01*
X137939046Y-141944170D01*
X137870951Y-142007279D01*
X137870951Y-142831422D01*
X137597029Y-142831422D01*
X137597029Y-141636128D01*
X137733990Y-141636128D01*
X137816219Y-141639379D01*
X137858644Y-141650926D01*
X137870945Y-141673452D01*
X137870951Y-141674120D01*
X137876760Y-141697715D01*
X137903031Y-141694638D01*
X137939431Y-141677615D01*
X138014611Y-141645939D01*
X138075658Y-141626881D01*
X138154208Y-141621996D01*
X138247137Y-141634972D01*
G37*
X138247137Y-141634972D02*
X138332790Y-141661141D01*
X138387937Y-141694207D01*
X138405901Y-141720355D01*
X138400957Y-141751352D01*
X138368872Y-141800047D01*
X138341743Y-141834535D01*
X138285817Y-141896883D01*
X138243799Y-141923115D01*
X138207980Y-141921403D01*
X138101724Y-141894363D01*
X138023689Y-141895591D01*
X137960320Y-141926235D01*
X137939046Y-141944170D01*
X137870951Y-142007279D01*
X137870951Y-142831422D01*
X137597029Y-142831422D01*
X137597029Y-141636128D01*
X137733990Y-141636128D01*
X137816219Y-141639379D01*
X137858644Y-141650926D01*
X137870945Y-141673452D01*
X137870951Y-141674120D01*
X137876760Y-141697715D01*
X137903031Y-141694638D01*
X137939431Y-141677615D01*
X138014611Y-141645939D01*
X138075658Y-141626881D01*
X138154208Y-141621996D01*
X138247137Y-141634972D01*
G36*
X135430035Y-133380672D02*
G01*
X135542617Y-133977863D01*
X135958031Y-134149110D01*
X136373444Y-134320357D01*
X136871802Y-133981478D01*
X137011368Y-133887122D01*
X137137528Y-133802875D01*
X137244395Y-133732583D01*
X137326082Y-133680092D01*
X137376701Y-133649249D01*
X137390486Y-133642598D01*
X137415320Y-133659703D01*
X137468388Y-133706989D01*
X137543740Y-133778417D01*
X137635429Y-133867945D01*
X137737507Y-133969534D01*
X137844026Y-134077143D01*
X137949036Y-134184732D01*
X138046591Y-134286260D01*
X138130742Y-134375686D01*
X138195540Y-134446971D01*
X138235038Y-134494073D01*
X138244480Y-134509837D01*
X138230891Y-134538898D01*
X138192793Y-134602566D01*
X138134194Y-134694612D01*
X138059097Y-134808809D01*
X137971509Y-134938929D01*
X137920754Y-135013146D01*
X137828245Y-135148667D01*
X137746040Y-135270961D01*
X137678130Y-135373940D01*
X137628500Y-135451518D01*
X137601140Y-135497606D01*
X137597029Y-135507292D01*
X137606349Y-135534819D01*
X137631754Y-135598973D01*
X137669411Y-135690735D01*
X137715486Y-135801084D01*
X137766146Y-135921000D01*
X137817559Y-136041464D01*
X137865889Y-136153454D01*
X137907306Y-136247952D01*
X137937974Y-136315937D01*
X137954062Y-136348388D01*
X137955011Y-136349665D01*
X137980272Y-136355862D01*
X138047546Y-136369685D01*
X138149860Y-136389777D01*
X138280241Y-136414779D01*
X138431716Y-136443331D01*
X138520094Y-136459796D01*
X138681952Y-136490614D01*
X138828149Y-136519939D01*
X138951287Y-136546166D01*
X139043969Y-136567691D01*
X139098801Y-136582910D01*
X139109823Y-136587738D01*
X139120619Y-136620419D01*
X139129329Y-136694230D01*
X139135960Y-136800537D01*
X139140518Y-136930712D01*
X139143009Y-137076121D01*
X139143438Y-137228135D01*
X139141811Y-137378122D01*
X139138135Y-137517451D01*
X139132415Y-137637490D01*
X139124658Y-137729610D01*
X139114868Y-137785177D01*
X139108996Y-137796745D01*
X139073899Y-137810610D01*
X138999528Y-137830433D01*
X138895723Y-137853884D01*
X138772319Y-137878636D01*
X138729241Y-137886643D01*
X138521547Y-137924686D01*
X138357484Y-137955324D01*
X138231630Y-137979774D01*
X138138565Y-137999254D01*
X138072867Y-138014981D01*
X138029117Y-138028173D01*
X138001892Y-138040049D01*
X137985772Y-138051825D01*
X137983517Y-138054153D01*
X137961003Y-138091645D01*
X137926658Y-138164610D01*
X137883911Y-138264112D01*
X137836192Y-138381218D01*
X137786930Y-138506993D01*
X137739555Y-138632502D01*
X137697495Y-138748810D01*
X137664180Y-138846984D01*
X137643041Y-138918088D01*
X137637505Y-138953187D01*
X137637966Y-138954417D01*
X137656723Y-138983106D01*
X137699276Y-139046230D01*
X137761153Y-139137218D01*
X137837882Y-139249500D01*
X137924991Y-139376505D01*
X137949799Y-139412598D01*
X138038253Y-139543448D01*
X138116088Y-139662836D01*
X138179066Y-139763907D01*
X138222945Y-139839804D01*
X138243485Y-139883672D01*
X138244480Y-139889062D01*
X138227222Y-139917389D01*
X138179536Y-139973506D01*
X138107550Y-140051382D01*
X138017397Y-140144985D01*
X137915205Y-140248286D01*
X137807106Y-140355251D01*
X137699228Y-140459851D01*
X137597704Y-140556054D01*
X137508662Y-140637829D01*
X137438233Y-140699145D01*
X137392547Y-140733971D01*
X137379909Y-140739657D01*
X137350491Y-140726265D01*
X137290261Y-140690144D01*
X137209030Y-140637381D01*
X137146530Y-140594912D01*
X137033285Y-140516985D01*
X136899174Y-140425229D01*
X136764655Y-140333620D01*
X136692333Y-140284591D01*
X136447538Y-140119015D01*
X136242051Y-140230120D01*
X136148436Y-140278793D01*
X136068830Y-140316626D01*
X136014967Y-140338203D01*
X136001257Y-140341206D01*
X135984770Y-140319038D01*
X135952245Y-140256394D01*
X135906109Y-140159054D01*
X135848790Y-140032794D01*
X135782716Y-139883395D01*
X135710315Y-139716633D01*
X135634016Y-139538287D01*
X135556246Y-139354136D01*
X135479434Y-139169957D01*
X135406006Y-138991530D01*
X135338392Y-138824632D01*
X135279020Y-138675042D01*
X135230316Y-138548538D01*
X135194710Y-138450899D01*
X135174630Y-138387902D01*
X135171400Y-138366266D01*
X135196996Y-138338669D01*
X135253039Y-138293870D01*
X135327811Y-138241179D01*
X135334087Y-138237010D01*
X135527345Y-138082314D01*
X135683174Y-137901836D01*
X135800224Y-137701347D01*
X135877145Y-137486619D01*
X135912586Y-137263422D01*
X135905197Y-137037526D01*
X135853627Y-136814704D01*
X135756526Y-136600724D01*
X135727958Y-136553909D01*
X135579368Y-136364863D01*
X135403827Y-136213057D01*
X135207410Y-136099279D01*
X134996193Y-136024320D01*
X134776253Y-135988967D01*
X134553663Y-135994012D01*
X134334501Y-136040244D01*
X134124842Y-136128451D01*
X133930761Y-136259424D01*
X133870726Y-136312582D01*
X133717935Y-136478984D01*
X133606597Y-136654157D01*
X133530223Y-136850511D01*
X133487687Y-137044962D01*
X133477186Y-137263587D01*
X133512201Y-137483297D01*
X133589173Y-137696665D01*
X133704547Y-137896267D01*
X133854766Y-138074674D01*
X134036273Y-138224462D01*
X134060127Y-138240251D01*
X134135701Y-138291957D01*
X134193151Y-138336757D01*
X134220617Y-138365362D01*
X134221017Y-138366266D01*
X134215120Y-138397209D01*
X134191745Y-138467436D01*
X134153321Y-138571170D01*
X134102277Y-138702635D01*
X134041042Y-138856052D01*
X133972044Y-139025646D01*
X133897714Y-139205638D01*
X133820478Y-139390253D01*
X133742768Y-139573713D01*
X133667011Y-139750241D01*
X133595637Y-139914059D01*
X133531074Y-140059392D01*
X133475752Y-140180462D01*
X133432100Y-140271492D01*
X133402546Y-140326705D01*
X133390644Y-140341206D01*
X133354277Y-140329914D01*
X133286230Y-140299630D01*
X133198237Y-140255765D01*
X133149851Y-140230120D01*
X132944363Y-140119015D01*
X132699568Y-140284591D01*
X132574606Y-140369415D01*
X132437795Y-140462761D01*
X132309589Y-140550653D01*
X132245371Y-140594912D01*
X132155051Y-140655563D01*
X132078571Y-140703626D01*
X132025907Y-140733015D01*
X132008802Y-140739227D01*
X131983905Y-140722468D01*
X131928805Y-140675681D01*
X131848843Y-140603725D01*
X131749361Y-140511457D01*
X131635700Y-140403735D01*
X131563815Y-140334571D01*
X131438051Y-140211002D01*
X131329363Y-140100479D01*
X131242145Y-140007730D01*
X131180789Y-139937482D01*
X131149691Y-139894465D01*
X131146708Y-139885735D01*
X131160553Y-139852529D01*
X131198812Y-139785387D01*
X131257242Y-139691108D01*
X131331597Y-139576490D01*
X131417635Y-139448328D01*
X131442103Y-139412598D01*
X131531255Y-139282734D01*
X131611238Y-139165814D01*
X131677580Y-139068407D01*
X131725811Y-138997084D01*
X131751457Y-138958415D01*
X131753935Y-138954417D01*
X131750229Y-138923600D01*
X131730561Y-138855844D01*
X131698360Y-138760084D01*
X131657055Y-138645254D01*
X131610075Y-138520289D01*
X131560849Y-138394124D01*
X131512808Y-138275693D01*
X131469381Y-138173930D01*
X131433996Y-138097771D01*
X131410084Y-138056149D01*
X131408384Y-138054153D01*
X131393762Y-138042258D01*
X131369065Y-138030495D01*
X131328872Y-138017646D01*
X131267763Y-138002494D01*
X131180317Y-137983821D01*
X131061112Y-137960410D01*
X130904727Y-137931042D01*
X130705743Y-137894500D01*
X130662660Y-137886643D01*
X130534971Y-137861972D01*
X130423653Y-137837838D01*
X130338545Y-137816569D01*
X130289483Y-137800493D01*
X130282905Y-137796745D01*
X130272064Y-137763518D01*
X130263253Y-137689266D01*
X130256476Y-137582621D01*
X130251740Y-137452212D01*
X130249050Y-137306672D01*
X130248413Y-137154631D01*
X130249834Y-137004721D01*
X130253320Y-136865573D01*
X130258876Y-136745817D01*
X130266508Y-136654086D01*
X130276222Y-136599011D01*
X130282078Y-136587738D01*
X130314680Y-136576368D01*
X130388918Y-136557869D01*
X130497396Y-136533847D01*
X130632717Y-136505907D01*
X130787485Y-136475653D01*
X130871808Y-136459796D01*
X131031796Y-136429889D01*
X131174467Y-136402795D01*
X131292848Y-136379876D01*
X131379965Y-136362488D01*
X131428845Y-136351992D01*
X131436890Y-136349665D01*
X131450487Y-136323431D01*
X131479229Y-136260240D01*
X131519285Y-136169122D01*
X131566824Y-136059102D01*
X131618015Y-135939210D01*
X131669026Y-135818472D01*
X131716026Y-135705916D01*
X131755184Y-135610571D01*
X131782669Y-135541462D01*
X131794649Y-135507619D01*
X131794872Y-135506140D01*
X131781291Y-135479442D01*
X131743215Y-135418005D01*
X131684647Y-135327934D01*
X131609588Y-135215335D01*
X131522040Y-135086315D01*
X131471147Y-135012206D01*
X131378409Y-134876322D01*
X131296041Y-134752954D01*
X131228061Y-134648342D01*
X131178488Y-134568728D01*
X131151342Y-134520352D01*
X131147421Y-134509507D01*
X131164275Y-134484265D01*
X131210868Y-134430369D01*
X131281249Y-134353858D01*
X131369465Y-134260768D01*
X131469565Y-134157140D01*
X131575598Y-134049009D01*
X131681611Y-133942415D01*
X131781652Y-133843395D01*
X131869770Y-133757987D01*
X131940013Y-133692230D01*
X131986428Y-133652161D01*
X132001956Y-133642598D01*
X132027239Y-133656045D01*
X132087711Y-133693820D01*
X132177492Y-133752080D01*
X132290703Y-133826979D01*
X132421464Y-133914670D01*
X132520100Y-133981478D01*
X133018457Y-134320357D01*
X133433871Y-134149110D01*
X133849284Y-133977863D01*
X133961866Y-133380672D01*
X134074449Y-132783480D01*
X135317452Y-132783480D01*
X135430035Y-133380672D01*
G37*
X135430035Y-133380672D02*
X135542617Y-133977863D01*
X135958031Y-134149110D01*
X136373444Y-134320357D01*
X136871802Y-133981478D01*
X137011368Y-133887122D01*
X137137528Y-133802875D01*
X137244395Y-133732583D01*
X137326082Y-133680092D01*
X137376701Y-133649249D01*
X137390486Y-133642598D01*
X137415320Y-133659703D01*
X137468388Y-133706989D01*
X137543740Y-133778417D01*
X137635429Y-133867945D01*
X137737507Y-133969534D01*
X137844026Y-134077143D01*
X137949036Y-134184732D01*
X138046591Y-134286260D01*
X138130742Y-134375686D01*
X138195540Y-134446971D01*
X138235038Y-134494073D01*
X138244480Y-134509837D01*
X138230891Y-134538898D01*
X138192793Y-134602566D01*
X138134194Y-134694612D01*
X138059097Y-134808809D01*
X137971509Y-134938929D01*
X137920754Y-135013146D01*
X137828245Y-135148667D01*
X137746040Y-135270961D01*
X137678130Y-135373940D01*
X137628500Y-135451518D01*
X137601140Y-135497606D01*
X137597029Y-135507292D01*
X137606349Y-135534819D01*
X137631754Y-135598973D01*
X137669411Y-135690735D01*
X137715486Y-135801084D01*
X137766146Y-135921000D01*
X137817559Y-136041464D01*
X137865889Y-136153454D01*
X137907306Y-136247952D01*
X137937974Y-136315937D01*
X137954062Y-136348388D01*
X137955011Y-136349665D01*
X137980272Y-136355862D01*
X138047546Y-136369685D01*
X138149860Y-136389777D01*
X138280241Y-136414779D01*
X138431716Y-136443331D01*
X138520094Y-136459796D01*
X138681952Y-136490614D01*
X138828149Y-136519939D01*
X138951287Y-136546166D01*
X139043969Y-136567691D01*
X139098801Y-136582910D01*
X139109823Y-136587738D01*
X139120619Y-136620419D01*
X139129329Y-136694230D01*
X139135960Y-136800537D01*
X139140518Y-136930712D01*
X139143009Y-137076121D01*
X139143438Y-137228135D01*
X139141811Y-137378122D01*
X139138135Y-137517451D01*
X139132415Y-137637490D01*
X139124658Y-137729610D01*
X139114868Y-137785177D01*
X139108996Y-137796745D01*
X139073899Y-137810610D01*
X138999528Y-137830433D01*
X138895723Y-137853884D01*
X138772319Y-137878636D01*
X138729241Y-137886643D01*
X138521547Y-137924686D01*
X138357484Y-137955324D01*
X138231630Y-137979774D01*
X138138565Y-137999254D01*
X138072867Y-138014981D01*
X138029117Y-138028173D01*
X138001892Y-138040049D01*
X137985772Y-138051825D01*
X137983517Y-138054153D01*
X137961003Y-138091645D01*
X137926658Y-138164610D01*
X137883911Y-138264112D01*
X137836192Y-138381218D01*
X137786930Y-138506993D01*
X137739555Y-138632502D01*
X137697495Y-138748810D01*
X137664180Y-138846984D01*
X137643041Y-138918088D01*
X137637505Y-138953187D01*
X137637966Y-138954417D01*
X137656723Y-138983106D01*
X137699276Y-139046230D01*
X137761153Y-139137218D01*
X137837882Y-139249500D01*
X137924991Y-139376505D01*
X137949799Y-139412598D01*
X138038253Y-139543448D01*
X138116088Y-139662836D01*
X138179066Y-139763907D01*
X138222945Y-139839804D01*
X138243485Y-139883672D01*
X138244480Y-139889062D01*
X138227222Y-139917389D01*
X138179536Y-139973506D01*
X138107550Y-140051382D01*
X138017397Y-140144985D01*
X137915205Y-140248286D01*
X137807106Y-140355251D01*
X137699228Y-140459851D01*
X137597704Y-140556054D01*
X137508662Y-140637829D01*
X137438233Y-140699145D01*
X137392547Y-140733971D01*
X137379909Y-140739657D01*
X137350491Y-140726265D01*
X137290261Y-140690144D01*
X137209030Y-140637381D01*
X137146530Y-140594912D01*
X137033285Y-140516985D01*
X136899174Y-140425229D01*
X136764655Y-140333620D01*
X136692333Y-140284591D01*
X136447538Y-140119015D01*
X136242051Y-140230120D01*
X136148436Y-140278793D01*
X136068830Y-140316626D01*
X136014967Y-140338203D01*
X136001257Y-140341206D01*
X135984770Y-140319038D01*
X135952245Y-140256394D01*
X135906109Y-140159054D01*
X135848790Y-140032794D01*
X135782716Y-139883395D01*
X135710315Y-139716633D01*
X135634016Y-139538287D01*
X135556246Y-139354136D01*
X135479434Y-139169957D01*
X135406006Y-138991530D01*
X135338392Y-138824632D01*
X135279020Y-138675042D01*
X135230316Y-138548538D01*
X135194710Y-138450899D01*
X135174630Y-138387902D01*
X135171400Y-138366266D01*
X135196996Y-138338669D01*
X135253039Y-138293870D01*
X135327811Y-138241179D01*
X135334087Y-138237010D01*
X135527345Y-138082314D01*
X135683174Y-137901836D01*
X135800224Y-137701347D01*
X135877145Y-137486619D01*
X135912586Y-137263422D01*
X135905197Y-137037526D01*
X135853627Y-136814704D01*
X135756526Y-136600724D01*
X135727958Y-136553909D01*
X135579368Y-136364863D01*
X135403827Y-136213057D01*
X135207410Y-136099279D01*
X134996193Y-136024320D01*
X134776253Y-135988967D01*
X134553663Y-135994012D01*
X134334501Y-136040244D01*
X134124842Y-136128451D01*
X133930761Y-136259424D01*
X133870726Y-136312582D01*
X133717935Y-136478984D01*
X133606597Y-136654157D01*
X133530223Y-136850511D01*
X133487687Y-137044962D01*
X133477186Y-137263587D01*
X133512201Y-137483297D01*
X133589173Y-137696665D01*
X133704547Y-137896267D01*
X133854766Y-138074674D01*
X134036273Y-138224462D01*
X134060127Y-138240251D01*
X134135701Y-138291957D01*
X134193151Y-138336757D01*
X134220617Y-138365362D01*
X134221017Y-138366266D01*
X134215120Y-138397209D01*
X134191745Y-138467436D01*
X134153321Y-138571170D01*
X134102277Y-138702635D01*
X134041042Y-138856052D01*
X133972044Y-139025646D01*
X133897714Y-139205638D01*
X133820478Y-139390253D01*
X133742768Y-139573713D01*
X133667011Y-139750241D01*
X133595637Y-139914059D01*
X133531074Y-140059392D01*
X133475752Y-140180462D01*
X133432100Y-140271492D01*
X133402546Y-140326705D01*
X133390644Y-140341206D01*
X133354277Y-140329914D01*
X133286230Y-140299630D01*
X133198237Y-140255765D01*
X133149851Y-140230120D01*
X132944363Y-140119015D01*
X132699568Y-140284591D01*
X132574606Y-140369415D01*
X132437795Y-140462761D01*
X132309589Y-140550653D01*
X132245371Y-140594912D01*
X132155051Y-140655563D01*
X132078571Y-140703626D01*
X132025907Y-140733015D01*
X132008802Y-140739227D01*
X131983905Y-140722468D01*
X131928805Y-140675681D01*
X131848843Y-140603725D01*
X131749361Y-140511457D01*
X131635700Y-140403735D01*
X131563815Y-140334571D01*
X131438051Y-140211002D01*
X131329363Y-140100479D01*
X131242145Y-140007730D01*
X131180789Y-139937482D01*
X131149691Y-139894465D01*
X131146708Y-139885735D01*
X131160553Y-139852529D01*
X131198812Y-139785387D01*
X131257242Y-139691108D01*
X131331597Y-139576490D01*
X131417635Y-139448328D01*
X131442103Y-139412598D01*
X131531255Y-139282734D01*
X131611238Y-139165814D01*
X131677580Y-139068407D01*
X131725811Y-138997084D01*
X131751457Y-138958415D01*
X131753935Y-138954417D01*
X131750229Y-138923600D01*
X131730561Y-138855844D01*
X131698360Y-138760084D01*
X131657055Y-138645254D01*
X131610075Y-138520289D01*
X131560849Y-138394124D01*
X131512808Y-138275693D01*
X131469381Y-138173930D01*
X131433996Y-138097771D01*
X131410084Y-138056149D01*
X131408384Y-138054153D01*
X131393762Y-138042258D01*
X131369065Y-138030495D01*
X131328872Y-138017646D01*
X131267763Y-138002494D01*
X131180317Y-137983821D01*
X131061112Y-137960410D01*
X130904727Y-137931042D01*
X130705743Y-137894500D01*
X130662660Y-137886643D01*
X130534971Y-137861972D01*
X130423653Y-137837838D01*
X130338545Y-137816569D01*
X130289483Y-137800493D01*
X130282905Y-137796745D01*
X130272064Y-137763518D01*
X130263253Y-137689266D01*
X130256476Y-137582621D01*
X130251740Y-137452212D01*
X130249050Y-137306672D01*
X130248413Y-137154631D01*
X130249834Y-137004721D01*
X130253320Y-136865573D01*
X130258876Y-136745817D01*
X130266508Y-136654086D01*
X130276222Y-136599011D01*
X130282078Y-136587738D01*
X130314680Y-136576368D01*
X130388918Y-136557869D01*
X130497396Y-136533847D01*
X130632717Y-136505907D01*
X130787485Y-136475653D01*
X130871808Y-136459796D01*
X131031796Y-136429889D01*
X131174467Y-136402795D01*
X131292848Y-136379876D01*
X131379965Y-136362488D01*
X131428845Y-136351992D01*
X131436890Y-136349665D01*
X131450487Y-136323431D01*
X131479229Y-136260240D01*
X131519285Y-136169122D01*
X131566824Y-136059102D01*
X131618015Y-135939210D01*
X131669026Y-135818472D01*
X131716026Y-135705916D01*
X131755184Y-135610571D01*
X131782669Y-135541462D01*
X131794649Y-135507619D01*
X131794872Y-135506140D01*
X131781291Y-135479442D01*
X131743215Y-135418005D01*
X131684647Y-135327934D01*
X131609588Y-135215335D01*
X131522040Y-135086315D01*
X131471147Y-135012206D01*
X131378409Y-134876322D01*
X131296041Y-134752954D01*
X131228061Y-134648342D01*
X131178488Y-134568728D01*
X131151342Y-134520352D01*
X131147421Y-134509507D01*
X131164275Y-134484265D01*
X131210868Y-134430369D01*
X131281249Y-134353858D01*
X131369465Y-134260768D01*
X131469565Y-134157140D01*
X131575598Y-134049009D01*
X131681611Y-133942415D01*
X131781652Y-133843395D01*
X131869770Y-133757987D01*
X131940013Y-133692230D01*
X131986428Y-133652161D01*
X132001956Y-133642598D01*
X132027239Y-133656045D01*
X132087711Y-133693820D01*
X132177492Y-133752080D01*
X132290703Y-133826979D01*
X132421464Y-133914670D01*
X132520100Y-133981478D01*
X133018457Y-134320357D01*
X133433871Y-134149110D01*
X133849284Y-133977863D01*
X133961866Y-133380672D01*
X134074449Y-132783480D01*
X135317452Y-132783480D01*
X135430035Y-133380672D01*
D13*
X120566380Y-160960700D02*
X120191380Y-160960700D01*
X120566380Y-160485700D02*
X120566380Y-160960700D01*
X104736700Y-160970860D02*
X104736700Y-160495860D01*
X105236700Y-160970860D02*
X104736700Y-160970860D01*
X120574000Y-133100000D02*
X119899000Y-133100000D01*
X120574000Y-134000000D02*
X120574000Y-133100000D01*
X104749000Y-133075000D02*
X105249000Y-133075000D01*
X104749000Y-133075000D02*
X104749000Y-133575000D01*
X87350000Y-133075000D02*
X87350000Y-133575000D01*
X87350000Y-133075000D02*
X87850000Y-133075000D01*
X103175000Y-134000000D02*
X103175000Y-133100000D01*
X103175000Y-133100000D02*
X102500000Y-133100000D01*
X87837700Y-160970860D02*
X87337700Y-160970860D01*
X87337700Y-160970860D02*
X87337700Y-160495860D01*
X103167380Y-160485700D02*
X103167380Y-160960700D01*
X103167380Y-160960700D02*
X102792380Y-160960700D01*
X115095000Y-93620000D02*
X115095000Y-92670000D01*
X115095000Y-92670000D02*
X115770000Y-92670000D01*
X128745000Y-93520000D02*
X128745000Y-92670000D01*
X128745000Y-92670000D02*
X128070000Y-92670000D01*
X115670000Y-105420000D02*
X115095000Y-105420000D01*
X115095000Y-105420000D02*
X115095000Y-104620000D01*
X128745000Y-104720000D02*
X128745000Y-105420000D01*
X128745000Y-105420000D02*
X128245000Y-105420000D01*
X150098000Y-134374500D02*
X150098000Y-134049500D01*
X150098000Y-134049500D02*
X149798000Y-134049500D01*
X148098000Y-137024500D02*
X148098000Y-137349500D01*
X148098000Y-137349500D02*
X148398000Y-137349500D01*
X150098000Y-137049500D02*
X150098000Y-137349500D01*
X150098000Y-137349500D02*
X149773000Y-137349500D01*
X148423000Y-134049500D02*
X148098000Y-134274500D01*
X148098000Y-134274500D02*
X148098000Y-134374500D01*
X148098000Y-134374500D02*
X147573000Y-134374500D01*
X148423000Y-134049500D02*
X148798000Y-134049500D01*
D11*
X109422000Y-130433578D02*
X109422000Y-129916422D01*
X108002000Y-130433578D02*
X108002000Y-129916422D01*
X139775000Y-121026422D02*
X139775000Y-121543578D01*
X138355000Y-121026422D02*
X138355000Y-121543578D01*
X141530000Y-121026422D02*
X141530000Y-121543578D01*
X142950000Y-121026422D02*
X142950000Y-121543578D01*
X89158578Y-132355000D02*
X88641422Y-132355000D01*
X89158578Y-130935000D02*
X88641422Y-130935000D01*
X147268000Y-139123922D02*
X147268000Y-139641078D01*
X145848000Y-139123922D02*
X145848000Y-139641078D01*
X149658000Y-139123922D02*
X149658000Y-139641078D01*
X151078000Y-139123922D02*
X151078000Y-139641078D01*
X135487665Y-109028608D02*
G75*
G03X138720000Y-109185516I1672335J1078608D01*
G01*
X135487665Y-106871392D02*
G75*
G02X138720000Y-106714484I1672335J-1078608D01*
G01*
X136118870Y-109029837D02*
G75*
G03X138200961Y-109030000I1041130J1079837D01*
G01*
X136118870Y-106870163D02*
G75*
G02X138200961Y-106870000I1041130J-1079837D01*
G01*
X138720000Y-109186000D02*
X138720000Y-109030000D01*
X138720000Y-106870000D02*
X138720000Y-106714000D01*
X138720000Y-92900000D02*
X138720000Y-92744000D01*
X138720000Y-95216000D02*
X138720000Y-95060000D01*
X136118870Y-92900163D02*
G75*
G02X138200961Y-92900000I1041130J-1079837D01*
G01*
X136118870Y-95059837D02*
G75*
G03X138200961Y-95060000I1041130J1079837D01*
G01*
X135487665Y-92901392D02*
G75*
G02X138720000Y-92744484I1672335J-1078608D01*
G01*
X135487665Y-95058608D02*
G75*
G03X138720000Y-95215516I1672335J1078608D01*
G01*
X120247665Y-110298608D02*
G75*
G03X123480000Y-110455516I1672335J1078608D01*
G01*
X120247665Y-108141392D02*
G75*
G02X123480000Y-107984484I1672335J-1078608D01*
G01*
X120878870Y-110299837D02*
G75*
G03X122960961Y-110300000I1041130J1079837D01*
G01*
X120878870Y-108140163D02*
G75*
G02X122960961Y-108140000I1041130J-1079837D01*
G01*
X123480000Y-110456000D02*
X123480000Y-110300000D01*
X123480000Y-108140000D02*
X123480000Y-107984000D01*
X108240000Y-92900000D02*
X108240000Y-92744000D01*
X108240000Y-95216000D02*
X108240000Y-95060000D01*
X105638870Y-92900163D02*
G75*
G02X107720961Y-92900000I1041130J-1079837D01*
G01*
X105638870Y-95059837D02*
G75*
G03X107720961Y-95060000I1041130J1079837D01*
G01*
X105007665Y-92901392D02*
G75*
G02X108240000Y-92744484I1672335J-1078608D01*
G01*
X105007665Y-95058608D02*
G75*
G03X108240000Y-95215516I1672335J1078608D01*
G01*
X105007665Y-109028608D02*
G75*
G03X108240000Y-109185516I1672335J1078608D01*
G01*
X105007665Y-106871392D02*
G75*
G02X108240000Y-106714484I1672335J-1078608D01*
G01*
X105638870Y-109029837D02*
G75*
G03X107720961Y-109030000I1041130J1079837D01*
G01*
X105638870Y-106870163D02*
G75*
G02X107720961Y-106870000I1041130J-1079837D01*
G01*
X108240000Y-109186000D02*
X108240000Y-109030000D01*
X108240000Y-106870000D02*
X108240000Y-106714000D01*
X151164000Y-144518500D02*
X148479000Y-144518500D01*
X151164000Y-146438500D02*
X151164000Y-144518500D01*
X148479000Y-146438500D02*
X151164000Y-146438500D01*
X153305000Y-146375000D02*
X155990000Y-146375000D01*
X155990000Y-146375000D02*
X155990000Y-144455000D01*
X155990000Y-144455000D02*
X153305000Y-144455000D01*
X132140000Y-151935000D02*
X121860000Y-151935000D01*
X121860000Y-151935000D02*
X121860000Y-154595000D01*
X121860000Y-154595000D02*
X132140000Y-154595000D01*
X132140000Y-154595000D02*
X132140000Y-151935000D01*
X131190000Y-154595000D02*
X131190000Y-160595000D01*
X131190000Y-160595000D02*
X130430000Y-160595000D01*
X130430000Y-160595000D02*
X130430000Y-154595000D01*
X131130000Y-154595000D02*
X131130000Y-160595000D01*
X131010000Y-154595000D02*
X131010000Y-160595000D01*
X130890000Y-154595000D02*
X130890000Y-160595000D01*
X130770000Y-154595000D02*
X130770000Y-160595000D01*
X130650000Y-154595000D02*
X130650000Y-160595000D01*
X130530000Y-154595000D02*
X130530000Y-160595000D01*
X131190000Y-151537929D02*
X131190000Y-151935000D01*
X130430000Y-151537929D02*
X130430000Y-151935000D01*
X131190000Y-149065000D02*
X131190000Y-149452071D01*
X130430000Y-149065000D02*
X130430000Y-149452071D01*
X129540000Y-151935000D02*
X129540000Y-154595000D01*
X128650000Y-154595000D02*
X128650000Y-160595000D01*
X128650000Y-160595000D02*
X127890000Y-160595000D01*
X127890000Y-160595000D02*
X127890000Y-154595000D01*
X128650000Y-151537929D02*
X128650000Y-151935000D01*
X127890000Y-151537929D02*
X127890000Y-151935000D01*
X128650000Y-148997929D02*
X128650000Y-149452071D01*
X127890000Y-148997929D02*
X127890000Y-149452071D01*
X127000000Y-151935000D02*
X127000000Y-154595000D01*
X126110000Y-154595000D02*
X126110000Y-160595000D01*
X126110000Y-160595000D02*
X125350000Y-160595000D01*
X125350000Y-160595000D02*
X125350000Y-154595000D01*
X126110000Y-151537929D02*
X126110000Y-151935000D01*
X125350000Y-151537929D02*
X125350000Y-151935000D01*
X126110000Y-148997929D02*
X126110000Y-149452071D01*
X125350000Y-148997929D02*
X125350000Y-149452071D01*
X124460000Y-151935000D02*
X124460000Y-154595000D01*
X123570000Y-154595000D02*
X123570000Y-160595000D01*
X123570000Y-160595000D02*
X122810000Y-160595000D01*
X122810000Y-160595000D02*
X122810000Y-154595000D01*
X123570000Y-151537929D02*
X123570000Y-151935000D01*
X122810000Y-151537929D02*
X122810000Y-151935000D01*
X123570000Y-148997929D02*
X123570000Y-149452071D01*
X122810000Y-148997929D02*
X122810000Y-149452071D01*
X130810000Y-146685000D02*
X132080000Y-146685000D01*
X132080000Y-146685000D02*
X132080000Y-147955000D01*
X143510000Y-146685000D02*
X143510000Y-147955000D01*
X142240000Y-146685000D02*
X143510000Y-146685000D01*
X134240000Y-148997929D02*
X134240000Y-149452071D01*
X135000000Y-148997929D02*
X135000000Y-149452071D01*
X134240000Y-151537929D02*
X134240000Y-151935000D01*
X135000000Y-151537929D02*
X135000000Y-151935000D01*
X134240000Y-160595000D02*
X134240000Y-154595000D01*
X135000000Y-160595000D02*
X134240000Y-160595000D01*
X135000000Y-154595000D02*
X135000000Y-160595000D01*
X135890000Y-151935000D02*
X135890000Y-154595000D01*
X136780000Y-148997929D02*
X136780000Y-149452071D01*
X137540000Y-148997929D02*
X137540000Y-149452071D01*
X136780000Y-151537929D02*
X136780000Y-151935000D01*
X137540000Y-151537929D02*
X137540000Y-151935000D01*
X136780000Y-160595000D02*
X136780000Y-154595000D01*
X137540000Y-160595000D02*
X136780000Y-160595000D01*
X137540000Y-154595000D02*
X137540000Y-160595000D01*
X138430000Y-151935000D02*
X138430000Y-154595000D01*
X139320000Y-148997929D02*
X139320000Y-149452071D01*
X140080000Y-148997929D02*
X140080000Y-149452071D01*
X139320000Y-151537929D02*
X139320000Y-151935000D01*
X140080000Y-151537929D02*
X140080000Y-151935000D01*
X139320000Y-160595000D02*
X139320000Y-154595000D01*
X140080000Y-160595000D02*
X139320000Y-160595000D01*
X140080000Y-154595000D02*
X140080000Y-160595000D01*
X140970000Y-151935000D02*
X140970000Y-154595000D01*
X141860000Y-149065000D02*
X141860000Y-149452071D01*
X142620000Y-149065000D02*
X142620000Y-149452071D01*
X141860000Y-151537929D02*
X141860000Y-151935000D01*
X142620000Y-151537929D02*
X142620000Y-151935000D01*
X141960000Y-154595000D02*
X141960000Y-160595000D01*
X142080000Y-154595000D02*
X142080000Y-160595000D01*
X142200000Y-154595000D02*
X142200000Y-160595000D01*
X142320000Y-154595000D02*
X142320000Y-160595000D01*
X142440000Y-154595000D02*
X142440000Y-160595000D01*
X142560000Y-154595000D02*
X142560000Y-160595000D01*
X141860000Y-160595000D02*
X141860000Y-154595000D01*
X142620000Y-160595000D02*
X141860000Y-160595000D01*
X142620000Y-154595000D02*
X142620000Y-160595000D01*
X143570000Y-154595000D02*
X143570000Y-151935000D01*
X133290000Y-154595000D02*
X143570000Y-154595000D01*
X133290000Y-151935000D02*
X133290000Y-154595000D01*
X143570000Y-151935000D02*
X133290000Y-151935000D01*
X101399500Y-118499000D02*
X101399500Y-119499000D01*
X87649500Y-115249000D02*
X87149500Y-115249000D01*
X87649500Y-116249000D02*
X87649500Y-115249000D01*
X95649500Y-116249000D02*
X87649500Y-116249000D01*
X101149500Y-116249000D02*
X99149500Y-116249000D01*
X101149500Y-128749000D02*
X101149500Y-116249000D01*
X99149500Y-128749000D02*
X101149500Y-128749000D01*
X87649500Y-128749000D02*
X95649500Y-128749000D01*
X87649500Y-129749000D02*
X87649500Y-128749000D01*
X87149500Y-129749000D02*
X87649500Y-129749000D01*
X87149500Y-115249000D02*
X87149500Y-129749000D01*
X153670000Y-113605000D02*
X153670000Y-116265000D01*
X153670000Y-113605000D02*
X110430000Y-113605000D01*
X110430000Y-113605000D02*
X110430000Y-116265000D01*
X153670000Y-116265000D02*
X110430000Y-116265000D01*
X156270000Y-116265000D02*
X154940000Y-116265000D01*
X156270000Y-114935000D02*
X156270000Y-116265000D01*
X110430000Y-130175000D02*
X110430000Y-128845000D01*
X110430000Y-128845000D02*
X111760000Y-128845000D01*
X113030000Y-128845000D02*
X156270000Y-128845000D01*
X156270000Y-131505000D02*
X156270000Y-128845000D01*
X113030000Y-131505000D02*
X156270000Y-131505000D01*
X113030000Y-131505000D02*
X113030000Y-128845000D01*
X156143000Y-147768000D02*
X153483000Y-147768000D01*
X156143000Y-157988000D02*
X156143000Y-147768000D01*
X153483000Y-157988000D02*
X153483000Y-147768000D01*
X156143000Y-157988000D02*
X153483000Y-157988000D01*
X156143000Y-159258000D02*
X156143000Y-160588000D01*
X156143000Y-160588000D02*
X154813000Y-160588000D01*
X146810000Y-125655000D02*
X146810000Y-127055000D01*
X145260000Y-125655000D02*
X145260000Y-127055000D01*
X145710000Y-119455000D02*
X156235000Y-119455000D01*
X145260000Y-125655000D02*
X144135000Y-125655000D01*
X149210000Y-125655000D02*
X146810000Y-125655000D01*
X152210000Y-125655000D02*
X150860000Y-125655000D01*
X156235000Y-125655000D02*
X153860000Y-125655000D01*
X144135000Y-119455000D02*
X144135000Y-125655000D01*
X156235000Y-125655000D02*
X156235000Y-125055000D01*
X156235000Y-120055000D02*
X156235000Y-119455000D01*
X158235000Y-125055000D02*
X158235000Y-120055000D01*
X156235000Y-125055000D02*
X158235000Y-125055000D01*
X156235000Y-120055000D02*
X158235000Y-120055000D01*
X124139000Y-141033500D02*
X121479000Y-141033500D01*
X124139000Y-141033500D02*
X124139000Y-133353500D01*
X124139000Y-133353500D02*
X121479000Y-133353500D01*
X121479000Y-141033500D02*
X121479000Y-133353500D01*
X121479000Y-143633500D02*
X121479000Y-142303500D01*
X122809000Y-143633500D02*
X121479000Y-143633500D01*
X123813500Y-118940078D02*
X123813500Y-118422922D01*
X125233500Y-118940078D02*
X125233500Y-118422922D01*
X111437922Y-117146000D02*
X111955078Y-117146000D01*
X111437922Y-118566000D02*
X111955078Y-118566000D01*
X137536422Y-101675000D02*
X138053578Y-101675000D01*
X137536422Y-100255000D02*
X138053578Y-100255000D01*
X138053578Y-104215000D02*
X137536422Y-104215000D01*
X138053578Y-102795000D02*
X137536422Y-102795000D01*
X138044422Y-112025500D02*
X138561578Y-112025500D01*
X138044422Y-110605500D02*
X138561578Y-110605500D01*
X146308578Y-152325000D02*
X145791422Y-152325000D01*
X146308578Y-153745000D02*
X145791422Y-153745000D01*
X150118578Y-153745000D02*
X149601422Y-153745000D01*
X150118578Y-152325000D02*
X149601422Y-152325000D01*
X136901422Y-98500000D02*
X137418578Y-98500000D01*
X136901422Y-97080000D02*
X137418578Y-97080000D01*
X126440000Y-108326422D02*
X126440000Y-108843578D01*
X125020000Y-108326422D02*
X125020000Y-108843578D01*
X106421422Y-98500000D02*
X106938578Y-98500000D01*
X106421422Y-97080000D02*
X106938578Y-97080000D01*
X106421422Y-111050000D02*
X106938578Y-111050000D01*
X106421422Y-112470000D02*
X106938578Y-112470000D01*
X111050000Y-102493578D02*
X111050000Y-101976422D01*
X112470000Y-102493578D02*
X112470000Y-101976422D01*
X112470000Y-98128578D02*
X112470000Y-97611422D01*
X111050000Y-98128578D02*
X111050000Y-97611422D01*
X130735000Y-93603578D02*
X130735000Y-93086422D01*
X132155000Y-93603578D02*
X132155000Y-93086422D01*
X106056500Y-130433578D02*
X106056500Y-129916422D01*
X104636500Y-130433578D02*
X104636500Y-129916422D01*
X136600000Y-121543578D02*
X136600000Y-121026422D01*
X135180000Y-121543578D02*
X135180000Y-121026422D01*
X136266422Y-118820000D02*
X136783578Y-118820000D01*
X136266422Y-117400000D02*
X136783578Y-117400000D01*
X141346422Y-117400000D02*
X141863578Y-117400000D01*
X141346422Y-118820000D02*
X141863578Y-118820000D01*
X141346422Y-123750000D02*
X141863578Y-123750000D01*
X141346422Y-125170000D02*
X141863578Y-125170000D01*
X93086422Y-132355000D02*
X93603578Y-132355000D01*
X93086422Y-130935000D02*
X93603578Y-130935000D01*
X145911500Y-143070078D02*
X145911500Y-142552922D01*
X147331500Y-143070078D02*
X147331500Y-142552922D01*
X151014500Y-143070078D02*
X151014500Y-142552922D01*
X149594500Y-143070078D02*
X149594500Y-142552922D01*
X147753000Y-139577578D02*
X147753000Y-139060422D01*
X149173000Y-139577578D02*
X149173000Y-139060422D01*
X151031000Y-151606500D02*
X151031000Y-146886500D01*
X151031000Y-146886500D02*
X144911000Y-146886500D01*
X144911000Y-146886500D02*
X144911000Y-151606500D01*
X144911000Y-151606500D02*
X151031000Y-151606500D01*
X149271000Y-151606500D02*
X149271000Y-151806500D01*
X149271000Y-151806500D02*
X149571000Y-151806500D01*
X149571000Y-151806500D02*
X149571000Y-151606500D01*
X149271000Y-151706500D02*
X149571000Y-151706500D01*
X148471000Y-151606500D02*
X148471000Y-150996500D01*
X148471000Y-150996500D02*
X150421000Y-150996500D01*
X150421000Y-150996500D02*
X150421000Y-147496500D01*
X150421000Y-147496500D02*
X145521000Y-147496500D01*
X145521000Y-147496500D02*
X145521000Y-150996500D01*
X145521000Y-150996500D02*
X147471000Y-150996500D01*
X147471000Y-150996500D02*
X147471000Y-151606500D01*
X151031000Y-150296500D02*
X150421000Y-150296500D01*
X151031000Y-148996500D02*
X150421000Y-148996500D01*
X144911000Y-150296500D02*
X145521000Y-150296500D01*
X144911000Y-148996500D02*
X145521000Y-148996500D01*
X148071000Y-147496500D02*
X148071000Y-147996500D01*
X148071000Y-147996500D02*
X147871000Y-147996500D01*
X147871000Y-147996500D02*
X147871000Y-147496500D01*
X147971000Y-147496500D02*
X147971000Y-147996500D01*
X150081000Y-151906500D02*
X151331000Y-151906500D01*
X151331000Y-151906500D02*
X151331000Y-150656500D01*
X145480000Y-158385500D02*
X145480000Y-155885500D01*
X145480000Y-155885500D02*
X146530000Y-155885500D01*
X146530000Y-155885500D02*
X146530000Y-154895500D01*
X151700000Y-158385500D02*
X151700000Y-155885500D01*
X151700000Y-155885500D02*
X150650000Y-155885500D01*
X146650000Y-160355500D02*
X150530000Y-160355500D01*
D10*
X151814500Y-142825500D02*
X151814500Y-134225500D01*
X156414500Y-142825500D02*
X156414500Y-140625500D01*
X156414500Y-136525500D02*
X156414500Y-134225500D01*
D11*
X103285000Y-91770000D02*
X103285000Y-95730000D01*
X103285000Y-91770000D02*
X87355000Y-91770000D01*
X87355000Y-91770000D02*
X87355000Y-111770000D01*
X103285000Y-111770000D02*
X87355000Y-111770000D01*
X103285000Y-97830000D02*
X103285000Y-105700000D01*
X103285000Y-107810000D02*
X103285000Y-111770000D01*
X140599371Y-95704233D02*
X140599371Y-91744233D01*
X140599371Y-105684233D02*
X140599371Y-97814233D01*
X140599371Y-91744233D02*
X156529371Y-91744233D01*
X156529371Y-111744233D02*
X156529371Y-91744233D01*
X140599371Y-111744233D02*
X156529371Y-111744233D01*
X140599371Y-111744233D02*
X140599371Y-107784233D01*
X102429000Y-117669000D02*
X103759000Y-117669000D01*
X102429000Y-118999000D02*
X102429000Y-117669000D01*
X102429000Y-120269000D02*
X105089000Y-120269000D01*
X105089000Y-120269000D02*
X105089000Y-125409000D01*
X102429000Y-120269000D02*
X102429000Y-125409000D01*
X102429000Y-125409000D02*
X105089000Y-125409000D01*
D13*
X115571000Y-117038000D02*
X115096000Y-117513000D01*
X115081000Y-124718000D02*
X115081000Y-125118000D01*
X115081000Y-125118000D02*
X115681000Y-125118000D01*
X121881000Y-125118000D02*
X121881000Y-124718000D01*
X121881000Y-125118000D02*
X121381000Y-125118000D01*
X115096000Y-117738000D02*
X115096000Y-117513000D01*
X115571000Y-117038000D02*
X115871000Y-117038000D01*
X121881000Y-117328000D02*
X121881000Y-117028000D01*
X121881000Y-117028000D02*
X121581000Y-117028000D01*
D11*
X110763230Y-121617133D02*
G75*
G02X112596500Y-121646311I933270J1030633D01*
G01*
X109727500Y-122576167D02*
X110172000Y-121983500D01*
X110616500Y-122576167D02*
X109727500Y-122576167D01*
X110172000Y-121983500D02*
X110616500Y-122576167D01*
X110616500Y-121983500D02*
X109727500Y-121983500D01*
D10*
X120931380Y-158416523D02*
X121645666Y-158416523D01*
X121788523Y-158464142D01*
X121883761Y-158559380D01*
X121931380Y-158702238D01*
X121931380Y-158797476D01*
X121931380Y-157416523D02*
X121931380Y-157987952D01*
X121931380Y-157702238D02*
X120931380Y-157702238D01*
X121074238Y-157797476D01*
X121169476Y-157892714D01*
X121217095Y-157987952D01*
X120931380Y-156797476D02*
X120931380Y-156702238D01*
X120979000Y-156607000D01*
X121026619Y-156559380D01*
X121121857Y-156511761D01*
X121312333Y-156464142D01*
X121550428Y-156464142D01*
X121740904Y-156511761D01*
X121836142Y-156559380D01*
X121883761Y-156607000D01*
X121931380Y-156702238D01*
X121931380Y-156797476D01*
X121883761Y-156892714D01*
X121836142Y-156940333D01*
X121740904Y-156987952D01*
X121550428Y-157035571D01*
X121312333Y-157035571D01*
X121121857Y-156987952D01*
X121026619Y-156940333D01*
X120979000Y-156892714D01*
X120931380Y-156797476D01*
X103465380Y-157908523D02*
X104179666Y-157908523D01*
X104322523Y-157956142D01*
X104417761Y-158051380D01*
X104465380Y-158194238D01*
X104465380Y-158289476D01*
X104465380Y-156908523D02*
X104465380Y-157479952D01*
X104465380Y-157194238D02*
X103465380Y-157194238D01*
X103608238Y-157289476D01*
X103703476Y-157384714D01*
X103751095Y-157479952D01*
X103465380Y-156575190D02*
X103465380Y-155956142D01*
X103846333Y-156289476D01*
X103846333Y-156146619D01*
X103893952Y-156051380D01*
X103941571Y-156003761D01*
X104036809Y-155956142D01*
X104274904Y-155956142D01*
X104370142Y-156003761D01*
X104417761Y-156051380D01*
X104465380Y-156146619D01*
X104465380Y-156432333D01*
X104417761Y-156527571D01*
X104370142Y-156575190D01*
X131341761Y-100520333D02*
X131389380Y-100377476D01*
X131389380Y-100139380D01*
X131341761Y-100044142D01*
X131294142Y-99996523D01*
X131198904Y-99948904D01*
X131103666Y-99948904D01*
X131008428Y-99996523D01*
X130960809Y-100044142D01*
X130913190Y-100139380D01*
X130865571Y-100329857D01*
X130817952Y-100425095D01*
X130770333Y-100472714D01*
X130675095Y-100520333D01*
X130579857Y-100520333D01*
X130484619Y-100472714D01*
X130437000Y-100425095D01*
X130389380Y-100329857D01*
X130389380Y-100091761D01*
X130437000Y-99948904D01*
X130389380Y-99615571D02*
X131389380Y-99377476D01*
X130675095Y-99187000D01*
X131389380Y-98996523D01*
X130389380Y-98758428D01*
X130484619Y-98425095D02*
X130437000Y-98377476D01*
X130389380Y-98282238D01*
X130389380Y-98044142D01*
X130437000Y-97948904D01*
X130484619Y-97901285D01*
X130579857Y-97853666D01*
X130675095Y-97853666D01*
X130817952Y-97901285D01*
X131389380Y-98472714D01*
X131389380Y-97853666D01*
X149225095Y-132484880D02*
X149225095Y-133294404D01*
X149272714Y-133389642D01*
X149320333Y-133437261D01*
X149415571Y-133484880D01*
X149606047Y-133484880D01*
X149701285Y-133437261D01*
X149748904Y-133389642D01*
X149796523Y-133294404D01*
X149796523Y-132484880D01*
X150225095Y-132580119D02*
X150272714Y-132532500D01*
X150367952Y-132484880D01*
X150606047Y-132484880D01*
X150701285Y-132532500D01*
X150748904Y-132580119D01*
X150796523Y-132675357D01*
X150796523Y-132770595D01*
X150748904Y-132913452D01*
X150177476Y-133484880D01*
X150796523Y-133484880D01*
X107419142Y-130341666D02*
X107466761Y-130389285D01*
X107514380Y-130532142D01*
X107514380Y-130627380D01*
X107466761Y-130770238D01*
X107371523Y-130865476D01*
X107276285Y-130913095D01*
X107085809Y-130960714D01*
X106942952Y-130960714D01*
X106752476Y-130913095D01*
X106657238Y-130865476D01*
X106562000Y-130770238D01*
X106514380Y-130627380D01*
X106514380Y-130532142D01*
X106562000Y-130389285D01*
X106609619Y-130341666D01*
X107514380Y-129389285D02*
X107514380Y-129960714D01*
X107514380Y-129675000D02*
X106514380Y-129675000D01*
X106657238Y-129770238D01*
X106752476Y-129865476D01*
X106800095Y-129960714D01*
X137898142Y-121451666D02*
X137945761Y-121499285D01*
X137993380Y-121642142D01*
X137993380Y-121737380D01*
X137945761Y-121880238D01*
X137850523Y-121975476D01*
X137755285Y-122023095D01*
X137564809Y-122070714D01*
X137421952Y-122070714D01*
X137231476Y-122023095D01*
X137136238Y-121975476D01*
X137041000Y-121880238D01*
X136993380Y-121737380D01*
X136993380Y-121642142D01*
X137041000Y-121499285D01*
X137088619Y-121451666D01*
X136993380Y-121118333D02*
X136993380Y-120499285D01*
X137374333Y-120832619D01*
X137374333Y-120689761D01*
X137421952Y-120594523D01*
X137469571Y-120546904D01*
X137564809Y-120499285D01*
X137802904Y-120499285D01*
X137898142Y-120546904D01*
X137945761Y-120594523D01*
X137993380Y-120689761D01*
X137993380Y-120975476D01*
X137945761Y-121070714D01*
X137898142Y-121118333D01*
X141073142Y-121388166D02*
X141120761Y-121435785D01*
X141168380Y-121578642D01*
X141168380Y-121673880D01*
X141120761Y-121816738D01*
X141025523Y-121911976D01*
X140930285Y-121959595D01*
X140739809Y-122007214D01*
X140596952Y-122007214D01*
X140406476Y-121959595D01*
X140311238Y-121911976D01*
X140216000Y-121816738D01*
X140168380Y-121673880D01*
X140168380Y-121578642D01*
X140216000Y-121435785D01*
X140263619Y-121388166D01*
X140168380Y-120483404D02*
X140168380Y-120959595D01*
X140644571Y-121007214D01*
X140596952Y-120959595D01*
X140549333Y-120864357D01*
X140549333Y-120626261D01*
X140596952Y-120531023D01*
X140644571Y-120483404D01*
X140739809Y-120435785D01*
X140977904Y-120435785D01*
X141073142Y-120483404D01*
X141120761Y-120531023D01*
X141168380Y-120626261D01*
X141168380Y-120864357D01*
X141120761Y-120959595D01*
X141073142Y-121007214D01*
X89368333Y-130405142D02*
X89320714Y-130452761D01*
X89177857Y-130500380D01*
X89082619Y-130500380D01*
X88939761Y-130452761D01*
X88844523Y-130357523D01*
X88796904Y-130262285D01*
X88749285Y-130071809D01*
X88749285Y-129928952D01*
X88796904Y-129738476D01*
X88844523Y-129643238D01*
X88939761Y-129548000D01*
X89082619Y-129500380D01*
X89177857Y-129500380D01*
X89320714Y-129548000D01*
X89368333Y-129595619D01*
X90225476Y-129500380D02*
X90035000Y-129500380D01*
X89939761Y-129548000D01*
X89892142Y-129595619D01*
X89796904Y-129738476D01*
X89749285Y-129928952D01*
X89749285Y-130309904D01*
X89796904Y-130405142D01*
X89844523Y-130452761D01*
X89939761Y-130500380D01*
X90130238Y-130500380D01*
X90225476Y-130452761D01*
X90273095Y-130405142D01*
X90320714Y-130309904D01*
X90320714Y-130071809D01*
X90273095Y-129976571D01*
X90225476Y-129928952D01*
X90130238Y-129881333D01*
X89939761Y-129881333D01*
X89844523Y-129928952D01*
X89796904Y-129976571D01*
X89749285Y-130071809D01*
X145518142Y-139739666D02*
X145565761Y-139787285D01*
X145613380Y-139930142D01*
X145613380Y-140025380D01*
X145565761Y-140168238D01*
X145470523Y-140263476D01*
X145375285Y-140311095D01*
X145184809Y-140358714D01*
X145041952Y-140358714D01*
X144851476Y-140311095D01*
X144756238Y-140263476D01*
X144661000Y-140168238D01*
X144613380Y-140025380D01*
X144613380Y-139930142D01*
X144661000Y-139787285D01*
X144708619Y-139739666D01*
X144708619Y-139358714D02*
X144661000Y-139311095D01*
X144613380Y-139215857D01*
X144613380Y-138977761D01*
X144661000Y-138882523D01*
X144708619Y-138834904D01*
X144803857Y-138787285D01*
X144899095Y-138787285D01*
X145041952Y-138834904D01*
X145613380Y-139406333D01*
X145613380Y-138787285D01*
X148185142Y-132691166D02*
X148232761Y-132738785D01*
X148280380Y-132881642D01*
X148280380Y-132976880D01*
X148232761Y-133119738D01*
X148137523Y-133214976D01*
X148042285Y-133262595D01*
X147851809Y-133310214D01*
X147708952Y-133310214D01*
X147518476Y-133262595D01*
X147423238Y-133214976D01*
X147328000Y-133119738D01*
X147280380Y-132976880D01*
X147280380Y-132881642D01*
X147328000Y-132738785D01*
X147375619Y-132691166D01*
X147613714Y-131834023D02*
X148280380Y-131834023D01*
X147232761Y-132072119D02*
X147947047Y-132310214D01*
X147947047Y-131691166D01*
X134437380Y-108561095D02*
X133437380Y-108561095D01*
X133437380Y-108323000D01*
X133485000Y-108180142D01*
X133580238Y-108084904D01*
X133675476Y-108037285D01*
X133865952Y-107989666D01*
X134008809Y-107989666D01*
X134199285Y-108037285D01*
X134294523Y-108084904D01*
X134389761Y-108180142D01*
X134437380Y-108323000D01*
X134437380Y-108561095D01*
X133532619Y-107608714D02*
X133485000Y-107561095D01*
X133437380Y-107465857D01*
X133437380Y-107227761D01*
X133485000Y-107132523D01*
X133532619Y-107084904D01*
X133627857Y-107037285D01*
X133723095Y-107037285D01*
X133865952Y-107084904D01*
X134437380Y-107656333D01*
X134437380Y-107037285D01*
X134437380Y-94337095D02*
X133437380Y-94337095D01*
X133437380Y-94099000D01*
X133485000Y-93956142D01*
X133580238Y-93860904D01*
X133675476Y-93813285D01*
X133865952Y-93765666D01*
X134008809Y-93765666D01*
X134199285Y-93813285D01*
X134294523Y-93860904D01*
X134389761Y-93956142D01*
X134437380Y-94099000D01*
X134437380Y-94337095D01*
X133437380Y-93432333D02*
X133437380Y-92813285D01*
X133818333Y-93146619D01*
X133818333Y-93003761D01*
X133865952Y-92908523D01*
X133913571Y-92860904D01*
X134008809Y-92813285D01*
X134246904Y-92813285D01*
X134342142Y-92860904D01*
X134389761Y-92908523D01*
X134437380Y-93003761D01*
X134437380Y-93289476D01*
X134389761Y-93384714D01*
X134342142Y-93432333D01*
X119197380Y-110085095D02*
X118197380Y-110085095D01*
X118197380Y-109847000D01*
X118245000Y-109704142D01*
X118340238Y-109608904D01*
X118435476Y-109561285D01*
X118625952Y-109513666D01*
X118768809Y-109513666D01*
X118959285Y-109561285D01*
X119054523Y-109608904D01*
X119149761Y-109704142D01*
X119197380Y-109847000D01*
X119197380Y-110085095D01*
X118530714Y-108656523D02*
X119197380Y-108656523D01*
X118149761Y-108894619D02*
X118864047Y-109132714D01*
X118864047Y-108513666D01*
X110561380Y-94337095D02*
X109561380Y-94337095D01*
X109561380Y-94099000D01*
X109609000Y-93956142D01*
X109704238Y-93860904D01*
X109799476Y-93813285D01*
X109989952Y-93765666D01*
X110132809Y-93765666D01*
X110323285Y-93813285D01*
X110418523Y-93860904D01*
X110513761Y-93956142D01*
X110561380Y-94099000D01*
X110561380Y-94337095D01*
X109561380Y-92908523D02*
X109561380Y-93099000D01*
X109609000Y-93194238D01*
X109656619Y-93241857D01*
X109799476Y-93337095D01*
X109989952Y-93384714D01*
X110370904Y-93384714D01*
X110466142Y-93337095D01*
X110513761Y-93289476D01*
X110561380Y-93194238D01*
X110561380Y-93003761D01*
X110513761Y-92908523D01*
X110466142Y-92860904D01*
X110370904Y-92813285D01*
X110132809Y-92813285D01*
X110037571Y-92860904D01*
X109989952Y-92908523D01*
X109942333Y-93003761D01*
X109942333Y-93194238D01*
X109989952Y-93289476D01*
X110037571Y-93337095D01*
X110132809Y-93384714D01*
X110307380Y-108688095D02*
X109307380Y-108688095D01*
X109307380Y-108450000D01*
X109355000Y-108307142D01*
X109450238Y-108211904D01*
X109545476Y-108164285D01*
X109735952Y-108116666D01*
X109878809Y-108116666D01*
X110069285Y-108164285D01*
X110164523Y-108211904D01*
X110259761Y-108307142D01*
X110307380Y-108450000D01*
X110307380Y-108688095D01*
X109307380Y-107783333D02*
X109307380Y-107116666D01*
X110307380Y-107545238D01*
X147645380Y-146216595D02*
X146645380Y-146216595D01*
X146645380Y-145978500D01*
X146693000Y-145835642D01*
X146788238Y-145740404D01*
X146883476Y-145692785D01*
X147073952Y-145645166D01*
X147216809Y-145645166D01*
X147407285Y-145692785D01*
X147502523Y-145740404D01*
X147597761Y-145835642D01*
X147645380Y-145978500D01*
X147645380Y-146216595D01*
X146645380Y-144740404D02*
X146645380Y-145216595D01*
X147121571Y-145264214D01*
X147073952Y-145216595D01*
X147026333Y-145121357D01*
X147026333Y-144883261D01*
X147073952Y-144788023D01*
X147121571Y-144740404D01*
X147216809Y-144692785D01*
X147454904Y-144692785D01*
X147550142Y-144740404D01*
X147597761Y-144788023D01*
X147645380Y-144883261D01*
X147645380Y-145121357D01*
X147597761Y-145216595D01*
X147550142Y-145264214D01*
X152407880Y-146280095D02*
X151407880Y-146280095D01*
X151407880Y-146042000D01*
X151455500Y-145899142D01*
X151550738Y-145803904D01*
X151645976Y-145756285D01*
X151836452Y-145708666D01*
X151979309Y-145708666D01*
X152169785Y-145756285D01*
X152265023Y-145803904D01*
X152360261Y-145899142D01*
X152407880Y-146042000D01*
X152407880Y-146280095D01*
X151836452Y-145137238D02*
X151788833Y-145232476D01*
X151741214Y-145280095D01*
X151645976Y-145327714D01*
X151598357Y-145327714D01*
X151503119Y-145280095D01*
X151455500Y-145232476D01*
X151407880Y-145137238D01*
X151407880Y-144946761D01*
X151455500Y-144851523D01*
X151503119Y-144803904D01*
X151598357Y-144756285D01*
X151645976Y-144756285D01*
X151741214Y-144803904D01*
X151788833Y-144851523D01*
X151836452Y-144946761D01*
X151836452Y-145137238D01*
X151884071Y-145232476D01*
X151931690Y-145280095D01*
X152026928Y-145327714D01*
X152217404Y-145327714D01*
X152312642Y-145280095D01*
X152360261Y-145232476D01*
X152407880Y-145137238D01*
X152407880Y-144946761D01*
X152360261Y-144851523D01*
X152312642Y-144803904D01*
X152217404Y-144756285D01*
X152026928Y-144756285D01*
X151931690Y-144803904D01*
X151884071Y-144851523D01*
X151836452Y-144946761D01*
X129016166Y-145057880D02*
X129016166Y-145772166D01*
X128968547Y-145915023D01*
X128873309Y-146010261D01*
X128730452Y-146057880D01*
X128635214Y-146057880D01*
X130016166Y-146057880D02*
X129444738Y-146057880D01*
X129730452Y-146057880D02*
X129730452Y-145057880D01*
X129635214Y-145200738D01*
X129539976Y-145295976D01*
X129444738Y-145343595D01*
X140827166Y-145057880D02*
X140827166Y-145772166D01*
X140779547Y-145915023D01*
X140684309Y-146010261D01*
X140541452Y-146057880D01*
X140446214Y-146057880D01*
X141208119Y-145057880D02*
X141827166Y-145057880D01*
X141493833Y-145438833D01*
X141636690Y-145438833D01*
X141731928Y-145486452D01*
X141779547Y-145534071D01*
X141827166Y-145629309D01*
X141827166Y-145867404D01*
X141779547Y-145962642D01*
X141731928Y-146010261D01*
X141636690Y-146057880D01*
X141350976Y-146057880D01*
X141255738Y-146010261D01*
X141208119Y-145962642D01*
X88757166Y-114514380D02*
X88757166Y-115228666D01*
X88709547Y-115371523D01*
X88614309Y-115466761D01*
X88471452Y-115514380D01*
X88376214Y-115514380D01*
X89661928Y-114514380D02*
X89471452Y-114514380D01*
X89376214Y-114562000D01*
X89328595Y-114609619D01*
X89233357Y-114752476D01*
X89185738Y-114942952D01*
X89185738Y-115323904D01*
X89233357Y-115419142D01*
X89280976Y-115466761D01*
X89376214Y-115514380D01*
X89566690Y-115514380D01*
X89661928Y-115466761D01*
X89709547Y-115419142D01*
X89757166Y-115323904D01*
X89757166Y-115085809D01*
X89709547Y-114990571D01*
X89661928Y-114942952D01*
X89566690Y-114895333D01*
X89376214Y-114895333D01*
X89280976Y-114942952D01*
X89233357Y-114990571D01*
X89185738Y-115085809D01*
X154733666Y-112101380D02*
X154733666Y-112815666D01*
X154686047Y-112958523D01*
X154590809Y-113053761D01*
X154447952Y-113101380D01*
X154352714Y-113101380D01*
X155352714Y-112529952D02*
X155257476Y-112482333D01*
X155209857Y-112434714D01*
X155162238Y-112339476D01*
X155162238Y-112291857D01*
X155209857Y-112196619D01*
X155257476Y-112149000D01*
X155352714Y-112101380D01*
X155543190Y-112101380D01*
X155638428Y-112149000D01*
X155686047Y-112196619D01*
X155733666Y-112291857D01*
X155733666Y-112339476D01*
X155686047Y-112434714D01*
X155638428Y-112482333D01*
X155543190Y-112529952D01*
X155352714Y-112529952D01*
X155257476Y-112577571D01*
X155209857Y-112625190D01*
X155162238Y-112720428D01*
X155162238Y-112910904D01*
X155209857Y-113006142D01*
X155257476Y-113053761D01*
X155352714Y-113101380D01*
X155543190Y-113101380D01*
X155638428Y-113053761D01*
X155686047Y-113006142D01*
X155733666Y-112910904D01*
X155733666Y-112720428D01*
X155686047Y-112625190D01*
X155638428Y-112577571D01*
X155543190Y-112529952D01*
X154924166Y-127468380D02*
X154924166Y-128182666D01*
X154876547Y-128325523D01*
X154781309Y-128420761D01*
X154638452Y-128468380D01*
X154543214Y-128468380D01*
X155447976Y-128468380D02*
X155638452Y-128468380D01*
X155733690Y-128420761D01*
X155781309Y-128373142D01*
X155876547Y-128230285D01*
X155924166Y-128039809D01*
X155924166Y-127658857D01*
X155876547Y-127563619D01*
X155828928Y-127516000D01*
X155733690Y-127468380D01*
X155543214Y-127468380D01*
X155447976Y-127516000D01*
X155400357Y-127563619D01*
X155352738Y-127658857D01*
X155352738Y-127896952D01*
X155400357Y-127992190D01*
X155447976Y-128039809D01*
X155543214Y-128087428D01*
X155733690Y-128087428D01*
X155828928Y-128039809D01*
X155876547Y-127992190D01*
X155924166Y-127896952D01*
X151852380Y-149780523D02*
X152566666Y-149780523D01*
X152709523Y-149828142D01*
X152804761Y-149923380D01*
X152852380Y-150066238D01*
X152852380Y-150161476D01*
X152852380Y-148780523D02*
X152852380Y-149351952D01*
X152852380Y-149066238D02*
X151852380Y-149066238D01*
X151995238Y-149161476D01*
X152090476Y-149256714D01*
X152138095Y-149351952D01*
X152852380Y-147828142D02*
X152852380Y-148399571D01*
X152852380Y-148113857D02*
X151852380Y-148113857D01*
X151995238Y-148209095D01*
X152090476Y-148304333D01*
X152138095Y-148399571D01*
X149431476Y-118070380D02*
X149431476Y-118784666D01*
X149383857Y-118927523D01*
X149288619Y-119022761D01*
X149145761Y-119070380D01*
X149050523Y-119070380D01*
X150431476Y-119070380D02*
X149860047Y-119070380D01*
X150145761Y-119070380D02*
X150145761Y-118070380D01*
X150050523Y-118213238D01*
X149955285Y-118308476D01*
X149860047Y-118356095D01*
X150812428Y-118165619D02*
X150860047Y-118118000D01*
X150955285Y-118070380D01*
X151193380Y-118070380D01*
X151288619Y-118118000D01*
X151336238Y-118165619D01*
X151383857Y-118260857D01*
X151383857Y-118356095D01*
X151336238Y-118498952D01*
X150764809Y-119070380D01*
X151383857Y-119070380D01*
X124801380Y-142827333D02*
X125515666Y-142827333D01*
X125658523Y-142874952D01*
X125753761Y-142970190D01*
X125801380Y-143113047D01*
X125801380Y-143208285D01*
X124801380Y-142446380D02*
X124801380Y-141779714D01*
X125801380Y-142208285D01*
X126626880Y-118784666D02*
X126150690Y-119118000D01*
X126626880Y-119356095D02*
X125626880Y-119356095D01*
X125626880Y-118975142D01*
X125674500Y-118879904D01*
X125722119Y-118832285D01*
X125817357Y-118784666D01*
X125960214Y-118784666D01*
X126055452Y-118832285D01*
X126103071Y-118879904D01*
X126150690Y-118975142D01*
X126150690Y-119356095D01*
X126626880Y-117832285D02*
X126626880Y-118403714D01*
X126626880Y-118118000D02*
X125626880Y-118118000D01*
X125769738Y-118213238D01*
X125864976Y-118308476D01*
X125912595Y-118403714D01*
X109799380Y-118022666D02*
X109323190Y-118356000D01*
X109799380Y-118594095D02*
X108799380Y-118594095D01*
X108799380Y-118213142D01*
X108847000Y-118117904D01*
X108894619Y-118070285D01*
X108989857Y-118022666D01*
X109132714Y-118022666D01*
X109227952Y-118070285D01*
X109275571Y-118117904D01*
X109323190Y-118213142D01*
X109323190Y-118594095D01*
X108894619Y-117641714D02*
X108847000Y-117594095D01*
X108799380Y-117498857D01*
X108799380Y-117260761D01*
X108847000Y-117165523D01*
X108894619Y-117117904D01*
X108989857Y-117070285D01*
X109085095Y-117070285D01*
X109227952Y-117117904D01*
X109799380Y-117689333D01*
X109799380Y-117070285D01*
X134961333Y-101480880D02*
X134628000Y-101004690D01*
X134389904Y-101480880D02*
X134389904Y-100480880D01*
X134770857Y-100480880D01*
X134866095Y-100528500D01*
X134913714Y-100576119D01*
X134961333Y-100671357D01*
X134961333Y-100814214D01*
X134913714Y-100909452D01*
X134866095Y-100957071D01*
X134770857Y-101004690D01*
X134389904Y-101004690D01*
X135294666Y-100480880D02*
X135913714Y-100480880D01*
X135580380Y-100861833D01*
X135723238Y-100861833D01*
X135818476Y-100909452D01*
X135866095Y-100957071D01*
X135913714Y-101052309D01*
X135913714Y-101290404D01*
X135866095Y-101385642D01*
X135818476Y-101433261D01*
X135723238Y-101480880D01*
X135437523Y-101480880D01*
X135342285Y-101433261D01*
X135294666Y-101385642D01*
X134897833Y-103957380D02*
X134564500Y-103481190D01*
X134326404Y-103957380D02*
X134326404Y-102957380D01*
X134707357Y-102957380D01*
X134802595Y-103005000D01*
X134850214Y-103052619D01*
X134897833Y-103147857D01*
X134897833Y-103290714D01*
X134850214Y-103385952D01*
X134802595Y-103433571D01*
X134707357Y-103481190D01*
X134326404Y-103481190D01*
X135754976Y-103290714D02*
X135754976Y-103957380D01*
X135516880Y-102909761D02*
X135278785Y-103624047D01*
X135897833Y-103624047D01*
X135405833Y-111758380D02*
X135072500Y-111282190D01*
X134834404Y-111758380D02*
X134834404Y-110758380D01*
X135215357Y-110758380D01*
X135310595Y-110806000D01*
X135358214Y-110853619D01*
X135405833Y-110948857D01*
X135405833Y-111091714D01*
X135358214Y-111186952D01*
X135310595Y-111234571D01*
X135215357Y-111282190D01*
X134834404Y-111282190D01*
X136310595Y-110758380D02*
X135834404Y-110758380D01*
X135786785Y-111234571D01*
X135834404Y-111186952D01*
X135929642Y-111139333D01*
X136167738Y-111139333D01*
X136262976Y-111186952D01*
X136310595Y-111234571D01*
X136358214Y-111329809D01*
X136358214Y-111567904D01*
X136310595Y-111663142D01*
X136262976Y-111710761D01*
X136167738Y-111758380D01*
X135929642Y-111758380D01*
X135834404Y-111710761D01*
X135786785Y-111663142D01*
X144851380Y-155106666D02*
X144375190Y-155440000D01*
X144851380Y-155678095D02*
X143851380Y-155678095D01*
X143851380Y-155297142D01*
X143899000Y-155201904D01*
X143946619Y-155154285D01*
X144041857Y-155106666D01*
X144184714Y-155106666D01*
X144279952Y-155154285D01*
X144327571Y-155201904D01*
X144375190Y-155297142D01*
X144375190Y-155678095D01*
X143851380Y-154249523D02*
X143851380Y-154440000D01*
X143899000Y-154535238D01*
X143946619Y-154582857D01*
X144089476Y-154678095D01*
X144279952Y-154725714D01*
X144660904Y-154725714D01*
X144756142Y-154678095D01*
X144803761Y-154630476D01*
X144851380Y-154535238D01*
X144851380Y-154344761D01*
X144803761Y-154249523D01*
X144756142Y-154201904D01*
X144660904Y-154154285D01*
X144422809Y-154154285D01*
X144327571Y-154201904D01*
X144279952Y-154249523D01*
X144232333Y-154344761D01*
X144232333Y-154535238D01*
X144279952Y-154630476D01*
X144327571Y-154678095D01*
X144422809Y-154725714D01*
X152661880Y-153201666D02*
X152185690Y-153535000D01*
X152661880Y-153773095D02*
X151661880Y-153773095D01*
X151661880Y-153392142D01*
X151709500Y-153296904D01*
X151757119Y-153249285D01*
X151852357Y-153201666D01*
X151995214Y-153201666D01*
X152090452Y-153249285D01*
X152138071Y-153296904D01*
X152185690Y-153392142D01*
X152185690Y-153773095D01*
X151661880Y-152868333D02*
X151661880Y-152201666D01*
X152661880Y-152630238D01*
X134326333Y-98178880D02*
X133993000Y-97702690D01*
X133754904Y-98178880D02*
X133754904Y-97178880D01*
X134135857Y-97178880D01*
X134231095Y-97226500D01*
X134278714Y-97274119D01*
X134326333Y-97369357D01*
X134326333Y-97512214D01*
X134278714Y-97607452D01*
X134231095Y-97655071D01*
X134135857Y-97702690D01*
X133754904Y-97702690D01*
X134897761Y-97607452D02*
X134802523Y-97559833D01*
X134754904Y-97512214D01*
X134707285Y-97416976D01*
X134707285Y-97369357D01*
X134754904Y-97274119D01*
X134802523Y-97226500D01*
X134897761Y-97178880D01*
X135088238Y-97178880D01*
X135183476Y-97226500D01*
X135231095Y-97274119D01*
X135278714Y-97369357D01*
X135278714Y-97416976D01*
X135231095Y-97512214D01*
X135183476Y-97559833D01*
X135088238Y-97607452D01*
X134897761Y-97607452D01*
X134802523Y-97655071D01*
X134754904Y-97702690D01*
X134707285Y-97797928D01*
X134707285Y-97988404D01*
X134754904Y-98083642D01*
X134802523Y-98131261D01*
X134897761Y-98178880D01*
X135088238Y-98178880D01*
X135183476Y-98131261D01*
X135231095Y-98083642D01*
X135278714Y-97988404D01*
X135278714Y-97797928D01*
X135231095Y-97702690D01*
X135183476Y-97655071D01*
X135088238Y-97607452D01*
X127832380Y-108751666D02*
X127356190Y-109085000D01*
X127832380Y-109323095D02*
X126832380Y-109323095D01*
X126832380Y-108942142D01*
X126880000Y-108846904D01*
X126927619Y-108799285D01*
X127022857Y-108751666D01*
X127165714Y-108751666D01*
X127260952Y-108799285D01*
X127308571Y-108846904D01*
X127356190Y-108942142D01*
X127356190Y-109323095D01*
X127832380Y-108275476D02*
X127832380Y-108085000D01*
X127784761Y-107989761D01*
X127737142Y-107942142D01*
X127594285Y-107846904D01*
X127403809Y-107799285D01*
X127022857Y-107799285D01*
X126927619Y-107846904D01*
X126880000Y-107894523D01*
X126832380Y-107989761D01*
X126832380Y-108180238D01*
X126880000Y-108275476D01*
X126927619Y-108323095D01*
X127022857Y-108370714D01*
X127260952Y-108370714D01*
X127356190Y-108323095D01*
X127403809Y-108275476D01*
X127451428Y-108180238D01*
X127451428Y-107989761D01*
X127403809Y-107894523D01*
X127356190Y-107846904D01*
X127260952Y-107799285D01*
X105973642Y-99893380D02*
X105640309Y-99417190D01*
X105402214Y-99893380D02*
X105402214Y-98893380D01*
X105783166Y-98893380D01*
X105878404Y-98941000D01*
X105926023Y-98988619D01*
X105973642Y-99083857D01*
X105973642Y-99226714D01*
X105926023Y-99321952D01*
X105878404Y-99369571D01*
X105783166Y-99417190D01*
X105402214Y-99417190D01*
X106926023Y-99893380D02*
X106354595Y-99893380D01*
X106640309Y-99893380D02*
X106640309Y-98893380D01*
X106545071Y-99036238D01*
X106449833Y-99131476D01*
X106354595Y-99179095D01*
X107545071Y-98893380D02*
X107640309Y-98893380D01*
X107735547Y-98941000D01*
X107783166Y-98988619D01*
X107830785Y-99083857D01*
X107878404Y-99274333D01*
X107878404Y-99512428D01*
X107830785Y-99702904D01*
X107783166Y-99798142D01*
X107735547Y-99845761D01*
X107640309Y-99893380D01*
X107545071Y-99893380D01*
X107449833Y-99845761D01*
X107402214Y-99798142D01*
X107354595Y-99702904D01*
X107306976Y-99512428D01*
X107306976Y-99274333D01*
X107354595Y-99083857D01*
X107402214Y-98988619D01*
X107449833Y-98941000D01*
X107545071Y-98893380D01*
X105910142Y-113990380D02*
X105576809Y-113514190D01*
X105338714Y-113990380D02*
X105338714Y-112990380D01*
X105719666Y-112990380D01*
X105814904Y-113038000D01*
X105862523Y-113085619D01*
X105910142Y-113180857D01*
X105910142Y-113323714D01*
X105862523Y-113418952D01*
X105814904Y-113466571D01*
X105719666Y-113514190D01*
X105338714Y-113514190D01*
X106862523Y-113990380D02*
X106291095Y-113990380D01*
X106576809Y-113990380D02*
X106576809Y-112990380D01*
X106481571Y-113133238D01*
X106386333Y-113228476D01*
X106291095Y-113276095D01*
X107243476Y-113085619D02*
X107291095Y-113038000D01*
X107386333Y-112990380D01*
X107624428Y-112990380D01*
X107719666Y-113038000D01*
X107767285Y-113085619D01*
X107814904Y-113180857D01*
X107814904Y-113276095D01*
X107767285Y-113418952D01*
X107195857Y-113990380D01*
X107814904Y-113990380D01*
X110562380Y-102877857D02*
X110086190Y-103211190D01*
X110562380Y-103449285D02*
X109562380Y-103449285D01*
X109562380Y-103068333D01*
X109610000Y-102973095D01*
X109657619Y-102925476D01*
X109752857Y-102877857D01*
X109895714Y-102877857D01*
X109990952Y-102925476D01*
X110038571Y-102973095D01*
X110086190Y-103068333D01*
X110086190Y-103449285D01*
X110562380Y-101925476D02*
X110562380Y-102496904D01*
X110562380Y-102211190D02*
X109562380Y-102211190D01*
X109705238Y-102306428D01*
X109800476Y-102401666D01*
X109848095Y-102496904D01*
X109562380Y-101592142D02*
X109562380Y-100973095D01*
X109943333Y-101306428D01*
X109943333Y-101163571D01*
X109990952Y-101068333D01*
X110038571Y-101020714D01*
X110133809Y-100973095D01*
X110371904Y-100973095D01*
X110467142Y-101020714D01*
X110514761Y-101068333D01*
X110562380Y-101163571D01*
X110562380Y-101449285D01*
X110514761Y-101544523D01*
X110467142Y-101592142D01*
X110562380Y-98512857D02*
X110086190Y-98846190D01*
X110562380Y-99084285D02*
X109562380Y-99084285D01*
X109562380Y-98703333D01*
X109610000Y-98608095D01*
X109657619Y-98560476D01*
X109752857Y-98512857D01*
X109895714Y-98512857D01*
X109990952Y-98560476D01*
X110038571Y-98608095D01*
X110086190Y-98703333D01*
X110086190Y-99084285D01*
X110562380Y-97560476D02*
X110562380Y-98131904D01*
X110562380Y-97846190D02*
X109562380Y-97846190D01*
X109705238Y-97941428D01*
X109800476Y-98036666D01*
X109848095Y-98131904D01*
X109895714Y-96703333D02*
X110562380Y-96703333D01*
X109514761Y-96941428D02*
X110229047Y-97179523D01*
X110229047Y-96560476D01*
X130992642Y-96210380D02*
X130659309Y-95734190D01*
X130421214Y-96210380D02*
X130421214Y-95210380D01*
X130802166Y-95210380D01*
X130897404Y-95258000D01*
X130945023Y-95305619D01*
X130992642Y-95400857D01*
X130992642Y-95543714D01*
X130945023Y-95638952D01*
X130897404Y-95686571D01*
X130802166Y-95734190D01*
X130421214Y-95734190D01*
X131945023Y-96210380D02*
X131373595Y-96210380D01*
X131659309Y-96210380D02*
X131659309Y-95210380D01*
X131564071Y-95353238D01*
X131468833Y-95448476D01*
X131373595Y-95496095D01*
X132849785Y-95210380D02*
X132373595Y-95210380D01*
X132325976Y-95686571D01*
X132373595Y-95638952D01*
X132468833Y-95591333D01*
X132706928Y-95591333D01*
X132802166Y-95638952D01*
X132849785Y-95686571D01*
X132897404Y-95781809D01*
X132897404Y-96019904D01*
X132849785Y-96115142D01*
X132802166Y-96162761D01*
X132706928Y-96210380D01*
X132468833Y-96210380D01*
X132373595Y-96162761D01*
X132325976Y-96115142D01*
X104148880Y-130817857D02*
X103672690Y-131151190D01*
X104148880Y-131389285D02*
X103148880Y-131389285D01*
X103148880Y-131008333D01*
X103196500Y-130913095D01*
X103244119Y-130865476D01*
X103339357Y-130817857D01*
X103482214Y-130817857D01*
X103577452Y-130865476D01*
X103625071Y-130913095D01*
X103672690Y-131008333D01*
X103672690Y-131389285D01*
X104148880Y-129865476D02*
X104148880Y-130436904D01*
X104148880Y-130151190D02*
X103148880Y-130151190D01*
X103291738Y-130246428D01*
X103386976Y-130341666D01*
X103434595Y-130436904D01*
X103148880Y-129008333D02*
X103148880Y-129198809D01*
X103196500Y-129294047D01*
X103244119Y-129341666D01*
X103386976Y-129436904D01*
X103577452Y-129484523D01*
X103958404Y-129484523D01*
X104053642Y-129436904D01*
X104101261Y-129389285D01*
X104148880Y-129294047D01*
X104148880Y-129103571D01*
X104101261Y-129008333D01*
X104053642Y-128960714D01*
X103958404Y-128913095D01*
X103720309Y-128913095D01*
X103625071Y-128960714D01*
X103577452Y-129008333D01*
X103529833Y-129103571D01*
X103529833Y-129294047D01*
X103577452Y-129389285D01*
X103625071Y-129436904D01*
X103720309Y-129484523D01*
X134691380Y-122308857D02*
X134215190Y-122642190D01*
X134691380Y-122880285D02*
X133691380Y-122880285D01*
X133691380Y-122499333D01*
X133739000Y-122404095D01*
X133786619Y-122356476D01*
X133881857Y-122308857D01*
X134024714Y-122308857D01*
X134119952Y-122356476D01*
X134167571Y-122404095D01*
X134215190Y-122499333D01*
X134215190Y-122880285D01*
X134691380Y-121356476D02*
X134691380Y-121927904D01*
X134691380Y-121642190D02*
X133691380Y-121642190D01*
X133834238Y-121737428D01*
X133929476Y-121832666D01*
X133977095Y-121927904D01*
X134691380Y-120880285D02*
X134691380Y-120689809D01*
X134643761Y-120594571D01*
X134596142Y-120546952D01*
X134453285Y-120451714D01*
X134262809Y-120404095D01*
X133881857Y-120404095D01*
X133786619Y-120451714D01*
X133739000Y-120499333D01*
X133691380Y-120594571D01*
X133691380Y-120785047D01*
X133739000Y-120880285D01*
X133786619Y-120927904D01*
X133881857Y-120975523D01*
X134119952Y-120975523D01*
X134215190Y-120927904D01*
X134262809Y-120880285D01*
X134310428Y-120785047D01*
X134310428Y-120594571D01*
X134262809Y-120499333D01*
X134215190Y-120451714D01*
X134119952Y-120404095D01*
X134627880Y-118562357D02*
X134151690Y-118895690D01*
X134627880Y-119133785D02*
X133627880Y-119133785D01*
X133627880Y-118752833D01*
X133675500Y-118657595D01*
X133723119Y-118609976D01*
X133818357Y-118562357D01*
X133961214Y-118562357D01*
X134056452Y-118609976D01*
X134104071Y-118657595D01*
X134151690Y-118752833D01*
X134151690Y-119133785D01*
X133723119Y-118181404D02*
X133675500Y-118133785D01*
X133627880Y-118038547D01*
X133627880Y-117800452D01*
X133675500Y-117705214D01*
X133723119Y-117657595D01*
X133818357Y-117609976D01*
X133913595Y-117609976D01*
X134056452Y-117657595D01*
X134627880Y-118229023D01*
X134627880Y-117609976D01*
X133627880Y-116990928D02*
X133627880Y-116895690D01*
X133675500Y-116800452D01*
X133723119Y-116752833D01*
X133818357Y-116705214D01*
X134008833Y-116657595D01*
X134246928Y-116657595D01*
X134437404Y-116705214D01*
X134532642Y-116752833D01*
X134580261Y-116800452D01*
X134627880Y-116895690D01*
X134627880Y-116990928D01*
X134580261Y-117086166D01*
X134532642Y-117133785D01*
X134437404Y-117181404D01*
X134246928Y-117229023D01*
X134008833Y-117229023D01*
X133818357Y-117181404D01*
X133723119Y-117133785D01*
X133675500Y-117086166D01*
X133627880Y-116990928D01*
X139707880Y-118625857D02*
X139231690Y-118959190D01*
X139707880Y-119197285D02*
X138707880Y-119197285D01*
X138707880Y-118816333D01*
X138755500Y-118721095D01*
X138803119Y-118673476D01*
X138898357Y-118625857D01*
X139041214Y-118625857D01*
X139136452Y-118673476D01*
X139184071Y-118721095D01*
X139231690Y-118816333D01*
X139231690Y-119197285D01*
X138803119Y-118244904D02*
X138755500Y-118197285D01*
X138707880Y-118102047D01*
X138707880Y-117863952D01*
X138755500Y-117768714D01*
X138803119Y-117721095D01*
X138898357Y-117673476D01*
X138993595Y-117673476D01*
X139136452Y-117721095D01*
X139707880Y-118292523D01*
X139707880Y-117673476D01*
X139707880Y-116721095D02*
X139707880Y-117292523D01*
X139707880Y-117006809D02*
X138707880Y-117006809D01*
X138850738Y-117102047D01*
X138945976Y-117197285D01*
X138993595Y-117292523D01*
X140898642Y-126690380D02*
X140565309Y-126214190D01*
X140327214Y-126690380D02*
X140327214Y-125690380D01*
X140708166Y-125690380D01*
X140803404Y-125738000D01*
X140851023Y-125785619D01*
X140898642Y-125880857D01*
X140898642Y-126023714D01*
X140851023Y-126118952D01*
X140803404Y-126166571D01*
X140708166Y-126214190D01*
X140327214Y-126214190D01*
X141279595Y-125785619D02*
X141327214Y-125738000D01*
X141422452Y-125690380D01*
X141660547Y-125690380D01*
X141755785Y-125738000D01*
X141803404Y-125785619D01*
X141851023Y-125880857D01*
X141851023Y-125976095D01*
X141803404Y-126118952D01*
X141231976Y-126690380D01*
X141851023Y-126690380D01*
X142231976Y-125785619D02*
X142279595Y-125738000D01*
X142374833Y-125690380D01*
X142612928Y-125690380D01*
X142708166Y-125738000D01*
X142755785Y-125785619D01*
X142803404Y-125880857D01*
X142803404Y-125976095D01*
X142755785Y-126118952D01*
X142184357Y-126690380D01*
X142803404Y-126690380D01*
X92702142Y-130447380D02*
X92368809Y-129971190D01*
X92130714Y-130447380D02*
X92130714Y-129447380D01*
X92511666Y-129447380D01*
X92606904Y-129495000D01*
X92654523Y-129542619D01*
X92702142Y-129637857D01*
X92702142Y-129780714D01*
X92654523Y-129875952D01*
X92606904Y-129923571D01*
X92511666Y-129971190D01*
X92130714Y-129971190D01*
X93083095Y-129542619D02*
X93130714Y-129495000D01*
X93225952Y-129447380D01*
X93464047Y-129447380D01*
X93559285Y-129495000D01*
X93606904Y-129542619D01*
X93654523Y-129637857D01*
X93654523Y-129733095D01*
X93606904Y-129875952D01*
X93035476Y-130447380D01*
X93654523Y-130447380D01*
X93987857Y-129447380D02*
X94606904Y-129447380D01*
X94273571Y-129828333D01*
X94416428Y-129828333D01*
X94511666Y-129875952D01*
X94559285Y-129923571D01*
X94606904Y-130018809D01*
X94606904Y-130256904D01*
X94559285Y-130352142D01*
X94511666Y-130399761D01*
X94416428Y-130447380D01*
X94130714Y-130447380D01*
X94035476Y-130399761D01*
X93987857Y-130352142D01*
X145423880Y-143454357D02*
X144947690Y-143787690D01*
X145423880Y-144025785D02*
X144423880Y-144025785D01*
X144423880Y-143644833D01*
X144471500Y-143549595D01*
X144519119Y-143501976D01*
X144614357Y-143454357D01*
X144757214Y-143454357D01*
X144852452Y-143501976D01*
X144900071Y-143549595D01*
X144947690Y-143644833D01*
X144947690Y-144025785D01*
X145423880Y-142501976D02*
X145423880Y-143073404D01*
X145423880Y-142787690D02*
X144423880Y-142787690D01*
X144566738Y-142882928D01*
X144661976Y-142978166D01*
X144709595Y-143073404D01*
X145423880Y-141549595D02*
X145423880Y-142121023D01*
X145423880Y-141835309D02*
X144423880Y-141835309D01*
X144566738Y-141930547D01*
X144661976Y-142025785D01*
X144709595Y-142121023D01*
X149106880Y-143454357D02*
X148630690Y-143787690D01*
X149106880Y-144025785D02*
X148106880Y-144025785D01*
X148106880Y-143644833D01*
X148154500Y-143549595D01*
X148202119Y-143501976D01*
X148297357Y-143454357D01*
X148440214Y-143454357D01*
X148535452Y-143501976D01*
X148583071Y-143549595D01*
X148630690Y-143644833D01*
X148630690Y-144025785D01*
X149106880Y-142501976D02*
X149106880Y-143073404D01*
X149106880Y-142787690D02*
X148106880Y-142787690D01*
X148249738Y-142882928D01*
X148344976Y-142978166D01*
X148392595Y-143073404D01*
X148106880Y-142168642D02*
X148106880Y-141501976D01*
X149106880Y-141930547D01*
X145613380Y-137104357D02*
X145137190Y-137437690D01*
X145613380Y-137675785D02*
X144613380Y-137675785D01*
X144613380Y-137294833D01*
X144661000Y-137199595D01*
X144708619Y-137151976D01*
X144803857Y-137104357D01*
X144946714Y-137104357D01*
X145041952Y-137151976D01*
X145089571Y-137199595D01*
X145137190Y-137294833D01*
X145137190Y-137675785D01*
X145613380Y-136151976D02*
X145613380Y-136723404D01*
X145613380Y-136437690D02*
X144613380Y-136437690D01*
X144756238Y-136532928D01*
X144851476Y-136628166D01*
X144899095Y-136723404D01*
X145041952Y-135580547D02*
X144994333Y-135675785D01*
X144946714Y-135723404D01*
X144851476Y-135771023D01*
X144803857Y-135771023D01*
X144708619Y-135723404D01*
X144661000Y-135675785D01*
X144613380Y-135580547D01*
X144613380Y-135390071D01*
X144661000Y-135294833D01*
X144708619Y-135247214D01*
X144803857Y-135199595D01*
X144851476Y-135199595D01*
X144946714Y-135247214D01*
X144994333Y-135294833D01*
X145041952Y-135390071D01*
X145041952Y-135580547D01*
X145089571Y-135675785D01*
X145137190Y-135723404D01*
X145232428Y-135771023D01*
X145422904Y-135771023D01*
X145518142Y-135723404D01*
X145565761Y-135675785D01*
X145613380Y-135580547D01*
X145613380Y-135390071D01*
X145565761Y-135294833D01*
X145518142Y-135247214D01*
X145422904Y-135199595D01*
X145232428Y-135199595D01*
X145137190Y-135247214D01*
X145089571Y-135294833D01*
X145041952Y-135390071D01*
X144200571Y-150137714D02*
X144248190Y-149994857D01*
X144295809Y-149947238D01*
X144391047Y-149899619D01*
X144533904Y-149899619D01*
X144629142Y-149947238D01*
X144676761Y-149994857D01*
X144724380Y-150090095D01*
X144724380Y-150471047D01*
X143724380Y-150471047D01*
X143724380Y-150137714D01*
X143772000Y-150042476D01*
X143819619Y-149994857D01*
X143914857Y-149947238D01*
X144010095Y-149947238D01*
X144105333Y-149994857D01*
X144152952Y-150042476D01*
X144200571Y-150137714D01*
X144200571Y-150471047D01*
X143724380Y-149613904D02*
X143724380Y-149042476D01*
X144724380Y-149328190D02*
X143724380Y-149328190D01*
X144724380Y-148185333D02*
X144724380Y-148756761D01*
X144724380Y-148471047D02*
X143724380Y-148471047D01*
X143867238Y-148566285D01*
X143962476Y-148661523D01*
X144010095Y-148756761D01*
X148256666Y-157440380D02*
X148256666Y-158154666D01*
X148209047Y-158297523D01*
X148113809Y-158392761D01*
X147970952Y-158440380D01*
X147875714Y-158440380D01*
X149209047Y-157440380D02*
X148732857Y-157440380D01*
X148685238Y-157916571D01*
X148732857Y-157868952D01*
X148828095Y-157821333D01*
X149066190Y-157821333D01*
X149161428Y-157868952D01*
X149209047Y-157916571D01*
X149256666Y-158011809D01*
X149256666Y-158249904D01*
X149209047Y-158345142D01*
X149161428Y-158392761D01*
X149066190Y-158440380D01*
X148828095Y-158440380D01*
X148732857Y-158392761D01*
X148685238Y-158345142D01*
X151828666Y-132675261D02*
X151971523Y-132722880D01*
X152209619Y-132722880D01*
X152304857Y-132675261D01*
X152352476Y-132627642D01*
X152400095Y-132532404D01*
X152400095Y-132437166D01*
X152352476Y-132341928D01*
X152304857Y-132294309D01*
X152209619Y-132246690D01*
X152019142Y-132199071D01*
X151923904Y-132151452D01*
X151876285Y-132103833D01*
X151828666Y-132008595D01*
X151828666Y-131913357D01*
X151876285Y-131818119D01*
X151923904Y-131770500D01*
X152019142Y-131722880D01*
X152257238Y-131722880D01*
X152400095Y-131770500D01*
X152733428Y-131722880D02*
X152971523Y-132722880D01*
X153162000Y-132008595D01*
X153352476Y-132722880D01*
X153590571Y-131722880D01*
X154495333Y-132722880D02*
X153923904Y-132722880D01*
X154209619Y-132722880D02*
X154209619Y-131722880D01*
X154114380Y-131865738D01*
X154019142Y-131960976D01*
X153923904Y-132008595D01*
X104097380Y-102568333D02*
X104811666Y-102568333D01*
X104954523Y-102615952D01*
X105049761Y-102711190D01*
X105097380Y-102854047D01*
X105097380Y-102949285D01*
X104192619Y-102139761D02*
X104145000Y-102092142D01*
X104097380Y-101996904D01*
X104097380Y-101758809D01*
X104145000Y-101663571D01*
X104192619Y-101615952D01*
X104287857Y-101568333D01*
X104383095Y-101568333D01*
X104525952Y-101615952D01*
X105097380Y-102187380D01*
X105097380Y-101568333D01*
X139102380Y-99443333D02*
X139816666Y-99443333D01*
X139959523Y-99490952D01*
X140054761Y-99586190D01*
X140102380Y-99729047D01*
X140102380Y-99824285D01*
X139435714Y-98538571D02*
X140102380Y-98538571D01*
X139054761Y-98776666D02*
X139769047Y-99014761D01*
X139769047Y-98395714D01*
X102949476Y-116121380D02*
X102949476Y-116835666D01*
X102901857Y-116978523D01*
X102806619Y-117073761D01*
X102663761Y-117121380D01*
X102568523Y-117121380D01*
X103949476Y-117121380D02*
X103378047Y-117121380D01*
X103663761Y-117121380D02*
X103663761Y-116121380D01*
X103568523Y-116264238D01*
X103473285Y-116359476D01*
X103378047Y-116407095D01*
X104806619Y-116454714D02*
X104806619Y-117121380D01*
X104568523Y-116073761D02*
X104330428Y-116788047D01*
X104949476Y-116788047D01*
X117969095Y-115550380D02*
X117969095Y-116359904D01*
X118016714Y-116455142D01*
X118064333Y-116502761D01*
X118159571Y-116550380D01*
X118350047Y-116550380D01*
X118445285Y-116502761D01*
X118492904Y-116455142D01*
X118540523Y-116359904D01*
X118540523Y-115550380D01*
X119540523Y-116550380D02*
X118969095Y-116550380D01*
X119254809Y-116550380D02*
X119254809Y-115550380D01*
X119159571Y-115693238D01*
X119064333Y-115788476D01*
X118969095Y-115836095D01*
X114558880Y-122594595D02*
X113558880Y-122594595D01*
X113558880Y-122356500D01*
X113606500Y-122213642D01*
X113701738Y-122118404D01*
X113796976Y-122070785D01*
X113987452Y-122023166D01*
X114130309Y-122023166D01*
X114320785Y-122070785D01*
X114416023Y-122118404D01*
X114511261Y-122213642D01*
X114558880Y-122356500D01*
X114558880Y-122594595D01*
X114558880Y-121070785D02*
X114558880Y-121642214D01*
X114558880Y-121356500D02*
X113558880Y-121356500D01*
X113701738Y-121451738D01*
X113796976Y-121546976D01*
X113844595Y-121642214D01*
M02*
