M48
; DRILL file {KiCad (5.1.5)-3} date 1/14/2020 2:16:53 PM
; FORMAT={-:-/ absolute / inch / decimal}
; #@! TF.CreationDate,2020-01-14T14:16:53+09:00
; #@! TF.GenerationSoftware,Kicad,Pcbnew,(5.1.5)-3
; #@! TF.FileFunction,Plated,1,2,PTH
FMAT,2
INCH
T1C0.0157
T2C0.0295
T3C0.0315
T4C0.0354
T5C0.0362
T6C0.0394
T7C0.0512
T8C0.0591
T9C0.0709
T10C0.0819
T11C0.0906
%
G90
G05
T1
X3.5Y-5.275
X4.05Y-5.125
X4.315Y-5.085
X4.3344Y-3.8906
X4.4Y-4.125
X4.875Y-4.95
X5.075Y-6.15
X5.1Y-4.975
X5.175Y-6.15
X5.2Y-4.7
X5.2525Y-5.3025
X5.255Y-5.765
X5.275Y-4.8124
X5.275Y-6.15
X5.3025Y-5.4025
X5.375Y-6.15
X5.7Y-5.75
X5.73Y-5.83
X5.77Y-5.38
X5.7909Y-6.2
X5.8Y-4.225
X5.8325Y-5.59
X5.875Y-5.3
X5.9526Y-4.8224
T2
X5.7863Y-5.8975
X5.865Y-5.8975
T3
X5.2Y-4.9
X4.3907Y-4.6671
X4.3907Y-4.7671
X4.3907Y-4.8671
X4.3907Y-4.9671
X4.6907Y-4.6671
X4.6907Y-4.7671
X4.6907Y-4.8671
X4.6907Y-4.9671
T4
X4.75Y-4.3
X4.85Y-4.3
X5.35Y-4.25
X5.45Y-4.25
X4.15Y-4.25
X4.25Y-4.25
X6.0675Y-5.375
X6.0675Y-5.4538
X6.0675Y-5.5325
X4.15Y-3.7
X4.25Y-3.7
X5.35Y-3.7
X5.45Y-3.7
T5
X3.96Y-4.685
X3.96Y-4.7834
X3.96Y-4.8622
X3.96Y-4.9606
T6
X5.3Y-5.825
X5.3Y-5.925
X5.4Y-5.825
X5.4Y-5.925
X5.5Y-5.825
X5.5Y-5.925
X5.6Y-5.825
X5.6Y-5.925
X4.5047Y-3.801
X4.5047Y-3.8994
X4.5047Y-3.9978
X5.0756Y-3.801
X5.0756Y-3.9978
X4.85Y-5.825
X4.85Y-5.925
X4.95Y-5.825
X4.95Y-5.925
X5.05Y-5.825
X5.05Y-5.925
X5.15Y-5.825
X5.15Y-5.925
X4.835Y-5.3025
X4.835Y-5.4025
X4.835Y-5.5025
X4.835Y-5.6025
X6.095Y-5.87
X6.095Y-5.97
X6.095Y-6.07
X6.095Y-6.17
X6.095Y-6.27
X4.4Y-4.525
X4.5Y-4.525
X4.6Y-4.525
X4.7Y-4.525
X4.8Y-4.525
X4.9Y-4.525
X5.0Y-4.525
X5.1Y-4.525
X5.2Y-4.525
X5.3Y-4.525
X5.4Y-4.525
X5.5Y-4.525
X5.6Y-4.525
X5.7Y-4.525
X5.8Y-4.525
X5.9Y-4.525
X6.0Y-4.525
X6.1Y-4.525
X4.4Y-5.125
X4.5Y-5.125
X4.6Y-5.125
X4.7Y-5.125
X4.8Y-5.125
X4.9Y-5.125
X5.0Y-5.125
X5.1Y-5.125
X5.2Y-5.125
X5.3Y-5.125
X5.4Y-5.125
X5.5Y-5.125
X5.6Y-5.125
X5.7Y-5.125
X5.8Y-5.125
X5.9Y-5.125
X6.0Y-5.125
X6.1Y-5.125
T7
X5.5704Y-3.8088
X5.5704Y-4.2025
X5.6689Y-3.7104
X5.6689Y-4.0057
X5.6689Y-4.301
X6.0626Y-3.9073
X6.0626Y-4.1041
X3.5392Y-3.9083
X3.5392Y-4.1051
X3.9329Y-3.7114
X3.9329Y-4.0067
X3.9329Y-4.302
X4.0313Y-3.8098
X4.0313Y-4.2035
T8
X6.0675Y-5.2923
X6.0675Y-5.6152
T10
X4.2399Y-5.425
X4.2399Y-5.825
X4.6301Y-5.425
X4.6301Y-5.825
X4.6301Y-6.125
X3.5549Y-5.425
X3.5549Y-5.825
X3.9451Y-5.425
X3.9451Y-5.825
X3.9451Y-6.125
T11
X3.8533Y-4.5641
X3.8533Y-5.0815
T9
G00X4.8157Y-3.675
M15
G01X4.7843Y-3.675
M16
G05
G00X4.8157Y-4.1238
M15
G01X4.7843Y-4.1238
M16
G05
T0
M30
